<?xml version="1.0" encoding="utf-8"?>
<!-- Generator: Adobe Illustrator 24.0.1, SVG Export Plug-In . SVG Version: 6.00 Build 0)  -->
<svg version="1.1" id="레이어_1" xmlns="http://www.w3.org/2000/svg" xmlns:xlink="http://www.w3.org/1999/xlink" x="0px"
	 y="0px" viewBox="0 0 40 60.1" style="enable-background:new 0 0 40 60.1;" xml:space="preserve">
<style type="text/css">
	.st0{fill:#B4B9BF;}
</style>
<g id="그룹_139" transform="translate(-263.947 -54.829)">
	<path id="패스_76" class="st0" d="M267.9,94.4c0-1.6-0.1-2.7-0.5-3.3c-0.2-0.3-0.5-0.4-0.9-0.4c-0.3,0-0.7,0.1-0.9,0.4
		c-0.5,1-0.6,2.2-0.5,3.3c-0.1,1.1,0.1,2.2,0.5,3.3c0.2,0.3,0.5,0.4,0.9,0.4c0.3,0,0.7-0.1,0.9-0.4C267.8,97.1,267.9,96,267.9,94.4z
		 M263.9,94.4c0-1.8,0.2-3.2,0.8-3.9c0.4-0.5,1.1-0.8,1.8-0.8c0.7,0,1.3,0.3,1.8,0.8c0.6,1,0.9,2.1,0.8,3.2h1.7v-4h1.2v10h-1.2v-5
		h-1.7c0,1.7-0.2,2.9-0.8,3.7c-0.4,0.5-1.1,0.8-1.8,0.8c-0.7,0-1.3-0.2-1.8-0.8C264.1,97.5,263.9,96.2,263.9,94.4z M282.6,91.4h-3.3
		c0.2,1,1.9,1.7,3.4,1.8v1c-1.5,0-2.9-0.6-3.9-1.6c-1.1,1-2.5,1.6-4,1.6v-1c1.5-0.1,3.2-0.8,3.4-1.8h-3.2v-1h3.2v-1.1h1.2v1.1h3.3
		L282.6,91.4z M274.2,96.2v-1h3.9v-1.4h1.2v1.4h3.9v1L274.2,96.2z M276.1,97v1.7h6.7v1h-7.9V97L276.1,97z M290.4,91.3h-5.7v-1h2.3
		v-0.9h1.2v0.9h2.2V91.3z M286.2,93.4c0,0.2,0.1,0.4,0.3,0.5c0.3,0.2,0.7,0.2,1.1,0.2c0.4,0,0.7,0,1-0.2c0.2-0.1,0.3-0.3,0.3-0.5
		c0-0.2-0.1-0.4-0.3-0.5c-0.3-0.2-0.7-0.2-1.1-0.2c-0.4,0-0.7,0.1-1.1,0.2C286.3,93,286.2,93.2,286.2,93.4z M285.1,93.4
		c0-0.5,0.3-1,0.7-1.2c0.6-0.3,1.2-0.4,1.8-0.4c0.6,0,1.3,0.1,1.8,0.4c0.4,0.2,0.7,0.7,0.7,1.2c0,0.5-0.2,1-0.7,1.2
		c-0.6,0.3-1.2,0.5-1.9,0.4c-0.6,0-1.3-0.1-1.8-0.4C285.3,94.3,285,93.9,285.1,93.4z M293.2,94.9H292v-5.2h1.2V94.9z M286.9,98.1
		v0.8h6.4v0.9h-7.6v-2.5h6.3v-0.8h-6.3v-0.9h7.5v2.6H286.9z M300.3,95.2h-4.6V92h3.7v-1.2h-3.7v-1h4.9V93h-3.7v1.2h3.7
		c0.7,0.1,1.4-0.1,2-0.5v-4.1h1.2v6.1h-1.2v-1.1C301.9,95.1,301.1,95.3,300.3,95.2z M302.8,98c0-0.2-0.1-0.4-0.3-0.5
		c-0.8-0.3-1.6-0.4-2.4-0.4c-0.8-0.1-1.6,0.1-2.4,0.4c-0.2,0.1-0.3,0.3-0.3,0.5c0,0.2,0.1,0.4,0.3,0.5c0.8,0.3,1.6,0.4,2.4,0.4
		c0.8,0.1,1.6-0.1,2.4-0.4C302.6,98.4,302.8,98.2,302.8,98L302.8,98z M296.1,98c0-0.5,0.2-1,0.7-1.3c1-0.5,2.1-0.7,3.2-0.7
		c1.1-0.1,2.2,0.1,3.2,0.7c0.4,0.3,0.7,0.7,0.7,1.3c0,0.5-0.3,1-0.7,1.2c-1,0.5-2.1,0.7-3.2,0.6c-1.1,0.1-2.2-0.1-3.2-0.6
		C296.4,99,296.1,98.5,296.1,98L296.1,98z M270,109.4c0-1.6-0.1-2.7-0.5-3.3c-0.2-0.3-0.5-0.4-0.9-0.4c-0.3,0-0.7,0.1-0.9,0.4
		c-0.5,1-0.6,2.2-0.5,3.3c-0.1,1.1,0.1,2.2,0.5,3.3c0.2,0.3,0.5,0.4,0.9,0.4c0.3,0,0.7-0.1,0.9-0.4C269.9,112.1,270,111,270,109.4
		L270,109.4z M266,109.4c0-1.8,0.2-3.2,0.8-3.9c0.4-0.5,1.1-0.8,1.8-0.8c0.7,0,1.3,0.3,1.8,0.8c0.3,0.4,0.5,0.9,0.6,1.4h1.9v-2.2
		h1.2v10h-1.2v-3H271c-0.1,0.6-0.3,1.2-0.7,1.7c-0.4,0.5-1.1,0.8-1.8,0.8c-0.7,0-1.3-0.2-1.8-0.8C266.2,112.5,266,111.2,266,109.4
		L266,109.4z M271.1,107.9c0,0.5,0.1,0.9,0.1,1.5c0,0.4,0,0.9,0,1.2h1.8v-2.7L271.1,107.9z M280.8,106.3h-4.5v-1h1.7v-1h1.2v1h1.6
		L280.8,106.3z M277.7,108.7c0,0.3,0.1,0.6,0.3,0.7c0.2,0.1,0.4,0.2,0.6,0.2c0.2,0,0.4-0.1,0.6-0.2c0.2-0.2,0.3-0.5,0.3-0.7
		c0-0.3-0.1-0.6-0.3-0.7c-0.2-0.1-0.4-0.2-0.6-0.2c-0.2,0-0.5,0.1-0.6,0.2C277.8,108.2,277.7,108.4,277.7,108.7z M276.6,108.7
		c0-0.6,0.2-1.1,0.7-1.4c0.4-0.3,0.9-0.5,1.4-0.5c0.5,0,1,0.1,1.4,0.4c0.4,0.3,0.7,0.9,0.7,1.4c0,0.6-0.3,1.2-0.8,1.5
		c-0.4,0.3-0.8,0.4-1.3,0.4c-0.5,0-0.9-0.1-1.3-0.4C276.8,109.8,276.6,109.3,276.6,108.7L276.6,108.7z M284.8,110.7h-1.2v-2.6h-1.1
		v2.4h-1.1v-5.8h1.1v2.4h1.1v-2.5h1.2V110.7z M277.1,113c0-0.6,0.3-1.1,0.8-1.3c1-0.4,2.1-0.6,3.2-0.6c1.1-0.1,2.2,0.1,3.2,0.6
		c0.5,0.3,0.8,0.8,0.8,1.3c0,0.6-0.3,1.1-0.8,1.3c-1,0.4-2.1,0.6-3.2,0.5c-1.1,0.1-2.2-0.1-3.2-0.5
		C277.4,114.1,277.1,113.6,277.1,113z M278.3,113c0,0.2,0.2,0.4,0.4,0.5c0.8,0.3,1.6,0.4,2.4,0.4c0.8,0.1,1.6-0.1,2.4-0.4
		c0.2-0.1,0.3-0.3,0.4-0.5c0-0.2-0.2-0.4-0.4-0.5c-0.8-0.3-1.6-0.4-2.4-0.4c-0.8-0.1-1.6,0.1-2.4,0.4
		C278.4,112.6,278.3,112.8,278.3,113L278.3,113z M286.8,114h5.2v-1.1h-3.9v-2.8h3.4V109h-3.4v-2.5h3.8v-1.1h-5.1L286.8,114z
		 M295.1,105.8h5.3v-1.1h1.2v4.1h-7.7v-4.1h1.2L295.1,105.8z M300.4,107.9v-1h-5.3v1H300.4z M293.3,110.7v-1h9v1h-3.9v1.2h3.2v2.9
		h-1.2v-1.9h-6.5v-1h3.3v-1.2H293.3z"/>
	<path id="collections_bookmark_FILL1_wght400_GRAD-25_opsz40" class="st0" d="M287.6,66l2.4-1.5l2.4,1.5c0.2,0.1,0.4,0.1,0.6,0
		c0.2-0.1,0.3-0.3,0.3-0.5V57h-6.4v8.5c0,0.2,0.1,0.4,0.3,0.5C287.2,66.1,287.4,66.1,287.6,66z M277.8,77.6c-1.2,0-2.2-1-2.2-2.2V57
		c0-0.6,0.2-1.1,0.7-1.5c0.4-0.4,1-0.6,1.6-0.6h18.4c1.2,0,2.2,1,2.2,2.2v18.4c0,0.6-0.2,1.1-0.6,1.6c-0.4,0.4-1,0.7-1.5,0.7
		L277.8,77.6z M273.4,82c-1.2,0-2.2-1-2.2-2.2V60.3c0-0.3,0.1-0.6,0.3-0.8c0.2-0.2,0.5-0.3,0.8-0.3c0.3,0,0.6,0.1,0.8,0.3
		c0.2,0.2,0.3,0.5,0.3,0.8v19.5H293c0.3,0,0.6,0.1,0.8,0.3c0.2,0.2,0.3,0.5,0.3,0.8c0,0.3-0.1,0.6-0.3,0.8c-0.2,0.2-0.5,0.3-0.8,0.3
		H273.4z"/>
</g>
</svg>
