<svg id="레이어_1" data-name="레이어 1" xmlns="http://www.w3.org/2000/svg" viewBox="0 0 40.02 60.05"><title>대지 1</title><g id="그룹_139" data-name="그룹 139"><path id="패스_76" data-name="패스 76" d="M4,39.56c0-1.58-.11-2.74-.53-3.26a1,1,0,0,0-.87-.42,1,1,0,0,0-.86.42,6.3,6.3,0,0,0-.52,3.26,6.37,6.37,0,0,0,.52,3.28,1.07,1.07,0,0,0,.86.4,1.08,1.08,0,0,0,.87-.4C3.86,42.3,4,41.15,4,39.56Zm-4,0c0-1.8.18-3.15.81-3.94a2.21,2.21,0,0,1,1.76-.78,2.24,2.24,0,0,1,1.78.78,5.44,5.44,0,0,1,.8,3.19H6.88v-4h1.2v10H6.88v-5H5.16c0,1.66-.21,2.91-.82,3.65a2.2,2.2,0,0,1-1.77.76A2.2,2.2,0,0,1,.81,43.5C.18,42.72,0,41.37,0,39.56Zm18.61-3H15.35c.16,1,1.87,1.72,3.36,1.8v1a6,6,0,0,1-4-1.58,6,6,0,0,1-4,1.58v-1c1.5-.07,3.2-.81,3.36-1.8H10.93v-1h3.22V34.49h1.19v1.06h3.27Zm-8.34,4.8v-1h3.88V38.89h1.19v1.43h3.92v1Zm1.85.78v1.69h6.67v1H10.93V42.14Zm14.37-5.68H20.81v-1h2.28v-.94h1.19v.94h2.21Zm-4.23,2.08a.56.56,0,0,0,.29.47,2.82,2.82,0,0,0,2.16,0,.54.54,0,0,0,.34-.5.57.57,0,0,0-.32-.49,2.47,2.47,0,0,0-1.07-.21,2.51,2.51,0,0,0-1.08.21A.57.57,0,0,0,22.26,38.54Zm-1.15,0a1.35,1.35,0,0,1,.7-1.21,3.71,3.71,0,0,1,1.85-.4,3.78,3.78,0,0,1,1.81.4,1.37,1.37,0,0,1,.73,1.21,1.35,1.35,0,0,1-.68,1.2,3.54,3.54,0,0,1-1.86.43,3.62,3.62,0,0,1-1.85-.42A1.35,1.35,0,0,1,21.11,38.54Zm8.12,1.54H28V34.84h1.2ZM23,43.26V44h6.38v.89H21.77V42.38H28v-.76H21.77v-.91h7.46v2.55ZM36.32,40.4h-4.6V37.16h3.7V36h-3.7V35h4.89v3.2h-3.7v1.25h3.7a3.23,3.23,0,0,0,2-.45V34.84h1.2V41h-1.2V39.89A3.51,3.51,0,0,1,36.32,40.4Zm2.5,2.76a.57.57,0,0,0-.33-.51,5.26,5.26,0,0,0-2.39-.38,5.19,5.19,0,0,0-2.4.39.55.55,0,0,0,0,1,5.33,5.33,0,0,0,2.4.39,5.15,5.15,0,0,0,2.39-.39.55.55,0,0,0,.33-.5Zm-6.62,0a1.4,1.4,0,0,1,.67-1.25,6,6,0,0,1,3.24-.66,5.91,5.91,0,0,1,3.22.66,1.47,1.47,0,0,1,0,2.49,6,6,0,0,1-3.23.65,6.12,6.12,0,0,1-3.23-.65,1.39,1.39,0,0,1-.67-1.24ZM6.05,54.56c0-1.58-.11-2.74-.53-3.27a1.05,1.05,0,0,0-.87-.42,1.09,1.09,0,0,0-.87.42,6.33,6.33,0,0,0-.51,3.27,6.47,6.47,0,0,0,.51,3.28,1.14,1.14,0,0,0,.87.4,1.08,1.08,0,0,0,.87-.4c.42-.54.53-1.69.53-3.28Zm-4,0c0-1.8.17-3.16.81-3.94a2.16,2.16,0,0,1,1.76-.78,2.19,2.19,0,0,1,1.77.78A3.24,3.24,0,0,1,7,52H9v-2.2h1.2v10H9v-3H7.08a3.49,3.49,0,0,1-.66,1.66,2.2,2.2,0,0,1-1.77.76,2.2,2.2,0,0,1-1.76-.76c-.64-.78-.82-2.13-.82-3.94Zm5.1-1.47c0,.45.05.94.05,1.47s0,.86,0,1.24H9V53.09Zm9.71-1.61H12.44v-1h1.67v-.95h1.18v.95h1.6Zm-3.17,2.39a1,1,0,0,0,.33.74,1,1,0,0,0,1.25,0,1,1,0,0,0,.34-.74.91.91,0,0,0-.34-.72,1.05,1.05,0,0,0-1.26,0A.89.89,0,0,0,13.72,53.87Zm-1.1,0a1.77,1.77,0,0,1,.66-1.42,2.21,2.21,0,0,1,1.4-.45,2.25,2.25,0,0,1,1.37.43A1.85,1.85,0,0,1,16,55.37a2.23,2.23,0,0,1-1.3.36,2.18,2.18,0,0,1-1.31-.37,1.79,1.79,0,0,1-.75-1.49Zm8.26,2.05H19.73V53.34h-1.1v2.4H17.5V49.91h1.13V52.3h1.1V49.84h1.15Zm-7.73,2.26A1.46,1.46,0,0,1,14,56.86a6.69,6.69,0,0,1,3.15-.56,6.83,6.83,0,0,1,3.16.56,1.49,1.49,0,0,1,0,2.64,6.82,6.82,0,0,1-3.16.55A6.8,6.8,0,0,1,14,59.5,1.46,1.46,0,0,1,13.15,58.18Zm1.19,0a.63.63,0,0,0,.36.51,5.71,5.71,0,0,0,2.42.36,5.64,5.64,0,0,0,2.41-.36.62.62,0,0,0,.37-.51.65.65,0,0,0-.37-.52,5.64,5.64,0,0,0-2.41-.35,5.73,5.73,0,0,0-2.42.35.66.66,0,0,0-.36.52Zm8.56,1h5.17V58.05h-3.9V55.3h3.39V54.19H24.17V51.65H28V50.54H22.9ZM31.17,51h5.29V50h1.2v4.09H30V50h1.19Zm5.29,2V52H31.17v1Zm-7.14,2.86v-1h9v1h-3.9v1.16h3.25V60h-1.2V58.06H29.91v-1h3.3V55.89Z" fill="#0068b7"/><path id="collections_bookmark_FILL1_wght400_GRAD-25_opsz40" data-name="collections bookmark FILL1 wght400 GRAD-25 opsz40" d="M23.61,11.13,26,9.68l2.35,1.45a.52.52,0,0,0,.56,0,.51.51,0,0,0,.27-.5V2.18H22.78v8.46a.54.54,0,0,0,.28.5A.5.5,0,0,0,23.61,11.13ZM13.87,22.81a2.24,2.24,0,0,1-2.22-2.21V2.18A2.1,2.1,0,0,1,12.31.64,2.12,2.12,0,0,1,13.87,0H32.29a2.19,2.19,0,0,1,2.18,2.18V20.6a2.24,2.24,0,0,1-.64,1.56,2.09,2.09,0,0,1-1.54.65Zm-4.4,4.36A2.18,2.18,0,0,1,7.3,25V5.46a1,1,0,0,1,.31-.78,1,1,0,0,1,.76-.32,1.09,1.09,0,0,1,.8.32,1.13,1.13,0,0,1,.31.78V25H29a1.09,1.09,0,0,1,.77.31,1.06,1.06,0,0,1,.33.8,1,1,0,0,1-.33.76,1.09,1.09,0,0,1-.77.31Z" fill="#0068b7"/></g></svg>