<svg id="레이어_1" data-name="레이어 1" xmlns="http://www.w3.org/2000/svg" viewBox="0 0 40 60.1"><title>대지 1</title><g id="그룹_139" data-name="그룹 139"><path id="패스_76" data-name="패스 76" d="M4,39.57a6.62,6.62,0,0,0-.5-3.3,1,1,0,0,0-.9-.4,1.09,1.09,0,0,0-.9.4,6.22,6.22,0,0,0-.5,3.3,7.6,7.6,0,0,0,.5,3.3,1,1,0,0,0,.9.4,1.09,1.09,0,0,0,.9-.4A6.62,6.62,0,0,0,4,39.57Zm-4,0c0-1.8.2-3.2.8-3.9a2.34,2.34,0,0,1,1.8-.8,2.5,2.5,0,0,1,1.8.8,5.29,5.29,0,0,1,.8,3.2h1.7v-4h1.2v10H6.85v-5H5.15a6.17,6.17,0,0,1-.8,3.7,2.34,2.34,0,0,1-1.8.8,2.17,2.17,0,0,1-1.8-.8A7.26,7.26,0,0,1,0,39.57Zm18.7-3h-3.3c.2,1,1.9,1.7,3.4,1.8v1a5.52,5.52,0,0,1-3.9-1.6,6,6,0,0,1-4,1.6v-1c1.5-.1,3.2-.8,3.4-1.8h-3.2v-1h3.2v-1.1h1.2v1.1h3.3Zm-8.4,4.8v-1h3.9V39h1.2v1.4h3.9v1Zm1.9.8v1.7h6.7v1H11v-2.7Zm14.3-5.7h-5.7v-1h2.3v-.9h1.2v.9h2.2Zm-4.2,2.1a.55.55,0,0,0,.3.5,2,2,0,0,0,1.1.2,1.64,1.64,0,0,0,1-.2.57.57,0,0,0,0-1,2,2,0,0,0-1.1-.2,4.25,4.25,0,0,0-1.1.2A.76.76,0,0,0,22.25,38.57Zm-1.1,0a1.39,1.39,0,0,1,.7-1.2,3.92,3.92,0,0,1,1.8-.4,3.66,3.66,0,0,1,1.8.4,1.39,1.39,0,0,1,.7,1.2,1.21,1.21,0,0,1-.7,1.2,3.13,3.13,0,0,1-1.9.4,3.66,3.66,0,0,1-1.8-.4A1.22,1.22,0,0,1,21.15,38.57Zm8.1,1.5h-1.2v-5.2h1.2ZM23,43.27v.8h6.4V45h-7.6v-2.5h6.3v-.8h-6.3v-.9h7.5v2.6H23Zm13.4-2.9h-4.6v-3.2h3.7V36h-3.7V35h4.9v3.2H33v1.2h3.7a2.88,2.88,0,0,0,2-.5v-4.1h1.2v6.1h-1.2v-1.1A3.22,3.22,0,0,1,36.35,40.37Zm2.5,2.8a.55.55,0,0,0-.3-.5,6.72,6.72,0,0,0-2.4-.4,5.07,5.07,0,0,0-2.4.4.57.57,0,0,0,0,1,6.72,6.72,0,0,0,2.4.4,5.07,5.07,0,0,0,2.4-.4.85.85,0,0,0,.3-.5Zm-6.7,0a1.46,1.46,0,0,1,.7-1.3,7.11,7.11,0,0,1,3.2-.7,5.2,5.2,0,0,1,3.2.7,1.56,1.56,0,0,1,.7,1.3,1.39,1.39,0,0,1-.7,1.2,5.92,5.92,0,0,1-3.2.6,5.92,5.92,0,0,1-3.2-.6,1.39,1.39,0,0,1-.7-1.2ZM6.05,54.57a6.62,6.62,0,0,0-.5-3.3,1,1,0,0,0-.9-.4,1.09,1.09,0,0,0-.9.4,6.22,6.22,0,0,0-.5,3.3,7.6,7.6,0,0,0,.5,3.3,1,1,0,0,0,.9.4,1.09,1.09,0,0,0,.9-.4,6.62,6.62,0,0,0,.5-3.3Zm-4,0c0-1.8.2-3.2.8-3.9a2.34,2.34,0,0,1,1.8-.8,2.5,2.5,0,0,1,1.8.8,3.51,3.51,0,0,1,.6,1.4H9v-2.2h1.2v10H9v-3H7.05a3.63,3.63,0,0,1-.7,1.7,2.34,2.34,0,0,1-1.8.8,2.17,2.17,0,0,1-1.8-.8,8.43,8.43,0,0,1-.7-4Zm5.1-1.5c0,.5.1.9.1,1.5v1.2h1.8v-2.7Zm9.7-1.6h-4.5v-1h1.7v-1h1.2v1h1.6Zm-3.1,2.4a.78.78,0,0,0,.3.7,1.42,1.42,0,0,0,.6.2,1.42,1.42,0,0,0,.6-.2,1.08,1.08,0,0,0,.3-.7.78.78,0,0,0-.3-.7,1.42,1.42,0,0,0-.6-.2,1.07,1.07,0,0,0-.6.2A.91.91,0,0,0,13.75,53.87Zm-1.1,0a1.51,1.51,0,0,1,.7-1.4,2.39,2.39,0,0,1,1.4-.5,2.3,2.3,0,0,1,1.4.4,1.91,1.91,0,0,1,.7,1.4,1.76,1.76,0,0,1-.8,1.5,2,2,0,0,1-1.3.4,2,2,0,0,1-1.3-.4,1.42,1.42,0,0,1-.8-1.4Zm8.2,2h-1.2v-2.6h-1.1v2.4h-1.1v-5.8h1.1v2.4h1.1v-2.5h1.2Zm-7.7,2.3a1.34,1.34,0,0,1,.8-1.3,8.66,8.66,0,0,1,3.2-.6,5.92,5.92,0,0,1,3.2.6,1.56,1.56,0,0,1,.8,1.3,1.34,1.34,0,0,1-.8,1.3,7,7,0,0,1-3.2.5,7,7,0,0,1-3.2-.5A1.34,1.34,0,0,1,13.15,58.17Zm1.2,0a.66.66,0,0,0,.4.5,6.72,6.72,0,0,0,2.4.4,5.07,5.07,0,0,0,2.4-.4,1,1,0,0,0,.4-.5.66.66,0,0,0-.4-.5,6.72,6.72,0,0,0-2.4-.4,5.07,5.07,0,0,0-2.4.4.51.51,0,0,0-.4.5Zm8.5,1h5.2v-1.1h-3.9v-2.8h3.4v-1.1h-3.4v-2.5H28v-1.1h-5.1Zm8.3-8.2h5.3v-1.1h1.2V54H30v-4.1h1.2Zm5.3,2.1v-1h-5.3v1Zm-7.1,2.8v-1h9v1h-3.9v1.2h3.2V60h-1.2v-1.9H30v-1h3.3v-1.2Z" fill="#b4b9bf"/><path id="collections_bookmark_FILL1_wght400_GRAD-25_opsz40" data-name="collections bookmark FILL1 wght400 GRAD-25 opsz40" d="M23.65,11.17l2.4-1.5,2.4,1.5a.64.64,0,0,0,.6,0,.55.55,0,0,0,.3-.5V2.17H23v8.5a.55.55,0,0,0,.3.5C23.25,11.27,23.45,11.27,23.65,11.17Zm-9.8,11.6a2.22,2.22,0,0,1-2.2-2.2V2.17a1.8,1.8,0,0,1,.7-1.5A2.27,2.27,0,0,1,14,.07h18.4a2.22,2.22,0,0,1,2.2,2.2v18.4a2.45,2.45,0,0,1-.6,1.6,2.33,2.33,0,0,1-1.5.7Zm-4.4,4.4A2.22,2.22,0,0,1,7.25,25V5.47a1.14,1.14,0,0,1,.3-.8,1.22,1.22,0,0,1,1.6,0,1.14,1.14,0,0,1,.3.8V25h19.6a1.1,1.1,0,1,1,0,2.2Z" fill="#b4b9bf"/></g></svg>