<svg xmlns="http://www.w3.org/2000/svg" width="40.018" height="60.051" viewBox="0 0 40.018 60.051">
  <g id="그룹_139" data-name="그룹 139" transform="translate(-263.947 -54.829)">
    <path id="패스_76" data-name="패스 76" d="M-16.082-4.609c0-1.584-.11-2.739-.528-3.267a1.03,1.03,0,0,0-.869-.418,1.059,1.059,0,0,0-.869.418,6.347,6.347,0,0,0-.517,3.267,6.422,6.422,0,0,0,.517,3.278,1.1,1.1,0,0,0,.869.4,1.073,1.073,0,0,0,.869-.4C-16.192-1.87-16.082-3.025-16.082-4.609Zm-3.971,0c0-1.8.176-3.157.814-3.938a2.182,2.182,0,0,1,1.76-.781,2.2,2.2,0,0,1,1.771.781,5.364,5.364,0,0,1,.8,3.19h1.738V-9.328h1.2V.649h-1.2V-4.323h-1.727c-.022,1.661-.209,2.915-.814,3.652a2.188,2.188,0,0,1-1.771.759,2.166,2.166,0,0,1-1.76-.759C-19.877-1.452-20.053-2.805-20.053-4.609Zm18.612-3H-4.7c.154.99,1.87,1.716,3.355,1.8v1A6.019,6.019,0,0,1-5.291-6.391,5.971,5.971,0,0,1-9.262-4.807v-1c1.5-.077,3.2-.814,3.355-1.8H-9.119V-8.624H-5.9V-9.68h1.188v1.056h3.267Zm-8.338,4.8V-3.85H-5.9V-5.28h1.188v1.43H-.792v1.034Zm1.848.781V-.341h6.666V.693H-9.119V-2.035ZM6.435-7.711H.759v-.957H3.036v-.946H4.224v.946H6.435ZM2.211-5.632a.546.546,0,0,0,.286.473,2.257,2.257,0,0,0,1.111.231,2.215,2.215,0,0,0,1.045-.2.543.543,0,0,0,.341-.506.543.543,0,0,0-.319-.484,2.385,2.385,0,0,0-1.067-.209,2.436,2.436,0,0,0-1.078.209A.543.543,0,0,0,2.211-5.632Zm-1.155,0a1.364,1.364,0,0,1,.7-1.21,3.691,3.691,0,0,1,1.848-.4,3.761,3.761,0,0,1,1.815.4,1.36,1.36,0,0,1,.726,1.21,1.333,1.333,0,0,1-.682,1.2A3.492,3.492,0,0,1,3.608-4,3.592,3.592,0,0,1,1.76-4.422,1.348,1.348,0,0,1,1.056-5.632Zm8.118,1.54h-1.2V-9.328h1.2ZM2.915-.913v.77H9.3V.748H1.716V-1.793H7.975v-.759H1.716v-.913H9.174V-.913Zm13.354-2.86h-4.6V-7.007h3.7v-1.2h-3.7v-1h4.884v3.2h-3.7v1.243h3.707a3.192,3.192,0,0,0,1.969-.451V-9.328h1.2V-3.19h-1.2V-4.279A3.534,3.534,0,0,1,16.269-3.773Zm2.5,2.761a.578.578,0,0,0-.33-.506A5.181,5.181,0,0,0,16.049-1.9a5.3,5.3,0,0,0-2.4.385.61.61,0,0,0-.319.506.593.593,0,0,0,.319.5,5.3,5.3,0,0,0,2.4.385,5.181,5.181,0,0,0,2.387-.385A.563.563,0,0,0,18.766-1.012Zm-6.622,0a1.424,1.424,0,0,1,.671-1.254,6.014,6.014,0,0,1,3.234-.66,5.947,5.947,0,0,1,3.223.66,1.443,1.443,0,0,1,.693,1.254A1.439,1.439,0,0,1,19.272.231,6.059,6.059,0,0,1,16.049.88,6.127,6.127,0,0,1,12.815.231,1.419,1.419,0,0,1,12.144-1.012Zm-26.152,11.4c0-1.584-.11-2.739-.528-3.267a1.03,1.03,0,0,0-.869-.418,1.059,1.059,0,0,0-.869.418,6.347,6.347,0,0,0-.517,3.267,6.422,6.422,0,0,0,.517,3.278,1.1,1.1,0,0,0,.869.4,1.073,1.073,0,0,0,.869-.4C-14.118,13.13-14.008,11.975-14.008,10.391Zm-3.971,0c0-1.8.176-3.157.814-3.938a2.182,2.182,0,0,1,1.76-.781,2.2,2.2,0,0,1,1.771.781,3.308,3.308,0,0,1,.616,1.419h1.925v-2.2h1.2v9.977h-1.2V12.668h-1.881a3.586,3.586,0,0,1-.66,1.661,2.188,2.188,0,0,1-1.771.759,2.166,2.166,0,0,1-1.76-.759C-17.8,13.548-17.979,12.195-17.979,10.391Zm5.1-1.474c.044.451.055.946.055,1.474,0,.44-.011.858-.033,1.243h1.76V8.917Zm9.713-1.606H-7.617V6.343h1.672V5.386h1.177v.957h1.606ZM-6.33,9.7a.952.952,0,0,0,.33.737,1.023,1.023,0,0,0,.627.209.969.969,0,0,0,.616-.209A.942.942,0,0,0-4.416,9.7a.9.9,0,0,0-.341-.726.962.962,0,0,0-.616-.2.976.976,0,0,0-.638.22A.891.891,0,0,0-6.33,9.7Zm-1.1,0a1.739,1.739,0,0,1,.66-1.419,2.192,2.192,0,0,1,1.4-.451,2.195,2.195,0,0,1,1.364.429A1.748,1.748,0,0,1-3.316,9.7,1.755,1.755,0,0,1-4.075,11.2a2.228,2.228,0,0,1-1.3.363,2.244,2.244,0,0,1-1.309-.374A1.78,1.78,0,0,1-7.431,9.7ZM.831,11.744H-.324V9.17h-1.1v2.4H-2.557V5.738h1.133V8.125h1.1V5.672H.831ZM-6.9,14.01a1.445,1.445,0,0,1,.814-1.32,6.79,6.79,0,0,1,3.157-.561,6.82,6.82,0,0,1,3.157.561,1.454,1.454,0,0,1,.8,1.32,1.466,1.466,0,0,1-.8,1.32,6.833,6.833,0,0,1-3.157.55,6.8,6.8,0,0,1-3.157-.55A1.457,1.457,0,0,1-6.9,14.01Zm1.188,0a.6.6,0,0,0,.363.506,5.7,5.7,0,0,0,2.42.363,5.608,5.608,0,0,0,2.409-.363.6.6,0,0,0,.363-.506.624.624,0,0,0-.363-.517,5.642,5.642,0,0,0-2.409-.352,5.733,5.733,0,0,0-2.42.352A.624.624,0,0,0-5.714,14.01Zm8.558.979h5.17V13.878H4.119v-2.75H7.507V10.017H4.119V7.476H7.948V6.365h-5.1Zm8.272-8.14h5.291V5.793h1.2V9.874H9.927V5.793h1.188Zm5.291,2.013v-1H11.115v1Zm-7.139,2.86V10.7h8.987v1.023H14.361v1.155h3.245v2.937h-1.2V13.889H9.861V12.877h3.3V11.722Z" transform="translate(284 99)" fill="#0068b7"/>
    <path id="collections_bookmark_FILL1_wght400_GRAD-25_opsz40" d="M19.94,14.755,22.359,13.3l2.351,1.452a.506.506,0,0,0,.552.017.531.531,0,0,0,.277-.5V5.8H19.11v8.468a.531.531,0,0,0,.276.5A.508.508,0,0,0,19.94,14.755ZM10.193,26.438A2.244,2.244,0,0,1,7.98,24.225V5.8a2.069,2.069,0,0,1,.657-1.538,2.153,2.153,0,0,1,1.555-.64H28.615A2.184,2.184,0,0,1,30.793,5.8V24.225a2.153,2.153,0,0,1-.64,1.555,2.069,2.069,0,0,1-1.538.657ZM5.8,30.793a2.184,2.184,0,0,1-2.178-2.178V9.086a1.093,1.093,0,0,1,.311-.777A1.007,1.007,0,0,1,4.7,7.98a1.046,1.046,0,0,1,.795.329,1.093,1.093,0,0,1,.311.777V28.615H25.332a1.093,1.093,0,0,1,.777.311,1.046,1.046,0,0,1,.329.795,1.007,1.007,0,0,1-.329.761,1.093,1.093,0,0,1-.777.311Z" transform="translate(267.621 51.204)" fill="#0068b7"/>
  </g>
</svg>
