<svg xmlns="http://www.w3.org/2000/svg" width="21" height="50.748" viewBox="0 0 21 50.748">
  <g id="그룹_136" data-name="그룹 136" transform="translate(-80 -57)">
    <path id="home_FILL1_wght400_GRAD0_opsz48" d="M9.969,29.883A1.961,1.961,0,0,1,8,27.914v-12.8a1.957,1.957,0,0,1,.213-.886,1.868,1.868,0,0,1,.574-.689l8.531-6.4a1.954,1.954,0,0,1,2.362,0l8.531,6.4a1.868,1.868,0,0,1,.574.689,1.957,1.957,0,0,1,.213.886v12.8a1.961,1.961,0,0,1-1.969,1.969H21.125V20.7h-5.25v9.188Z" transform="translate(72 50.25)" fill="#0068b7"/>
    <path id="패스_73" data-name="패스 73" d="M-3.839-6.072A1.01,1.01,0,0,1-3.234-7,7.129,7.129,0,0,1,0-7.513,7.063,7.063,0,0,1,3.245-7a1.018,1.018,0,0,1,.594.924,1.015,1.015,0,0,1-.627.924,6.116,6.116,0,0,1-2.64.5v.671H4.488V-3H-4.5v-.979H-.616v-.671a6.2,6.2,0,0,1-2.563-.484A1.047,1.047,0,0,1-3.839-6.072Zm1.188,0q0,.182.264.3A6.8,6.8,0,0,0,0-5.511a6.543,6.543,0,0,0,2.376-.253c.176-.077.264-.187.264-.308,0-.143-.1-.253-.286-.33A7.167,7.167,0,0,0,0-6.644a6.688,6.688,0,0,0-2.4.253A.365.365,0,0,0-2.651-6.072ZM4.136-8.91V-8H-4.147V-8.91h3.52v-.77H.594v.77ZM3.839.748H-3.839V-2.266H3.839ZM2.64-.22V-1.3H-2.651V-.22Z" transform="translate(90 107)" fill="#0068b7"/>
  </g>
</svg>
