<?xml version="1.0" encoding="utf-8"?>
<!-- Generator: Adobe Illustrator 24.0.1, SVG Export Plug-In . SVG Version: 6.00 Build 0)  -->
<svg version="1.1" id="레이어_1" xmlns="http://www.w3.org/2000/svg" xmlns:xlink="http://www.w3.org/1999/xlink" x="0px"
	 y="0px" viewBox="0 0 21 50.7" style="enable-background:new 0 0 21 50.7;" xml:space="preserve">
<style type="text/css">
	.st0{fill:#B4B9BF;}
</style>
<g id="그룹_136" transform="translate(-80 -57)">
	<path id="home_FILL1_wght400_GRAD0_opsz48" class="st0" d="M82,80.1c-1.1,0-2-0.9-2-2c0,0,0,0,0,0V65.4c0-0.3,0.1-0.6,0.2-0.9
		c0.1-0.3,0.3-0.5,0.6-0.7l8.5-6.4c0.7-0.5,1.7-0.5,2.4,0l8.5,6.4c0.2,0.2,0.4,0.4,0.6,0.7c0.1,0.3,0.2,0.6,0.2,0.9v12.8
		c0,1.1-0.9,2-2,2c0,0,0,0,0,0h-5.9v-9.2h-5.3v9.2L82,80.1z"/>
	<path id="패스_73" class="st0" d="M86.6,100.9c0-0.4,0.2-0.8,0.6-0.9c1-0.4,2.1-0.6,3.2-0.5c1.1-0.1,2.2,0.1,3.2,0.5
		c0.4,0.2,0.6,0.5,0.6,0.9c0,0.4-0.3,0.8-0.6,0.9c-0.8,0.4-1.7,0.5-2.6,0.5v0.7h3.9v1h-9v-1h3.9v-0.7c-0.9,0-1.8-0.1-2.6-0.5
		C86.8,101.7,86.6,101.3,86.6,100.9z M87.7,100.9c0,0.1,0.1,0.2,0.3,0.3c0.8,0.2,1.6,0.3,2.4,0.3c0.8,0.1,1.6,0,2.4-0.3
		c0.2-0.1,0.3-0.2,0.3-0.3c0-0.1-0.1-0.3-0.3-0.3c-0.8-0.2-1.6-0.3-2.4-0.2c-0.8-0.1-1.6,0-2.4,0.3
		C87.9,100.7,87.8,100.8,87.7,100.9z M94.5,98.1V99h-8.3v-0.9h3.5v-0.8H91v0.8H94.5z M94.2,107.7h-7.7v-3h7.7V107.7z M93,106.8v-1.1
		h-5.3v1.1H93z"/>
</g>
</svg>
