<svg id="레이어_1" data-name="레이어 1" xmlns="http://www.w3.org/2000/svg" viewBox="0 0 21 50.7"><title>대지 1</title><g id="그룹_136" data-name="그룹 136"><path id="home_FILL1_wght400_GRAD0_opsz48" data-name="home FILL1 wght400 GRAD0 opsz48" d="M2,23.1a2,2,0,0,1-2-2H0V8.4a2.92,2.92,0,0,1,.2-.9,1.34,1.34,0,0,1,.6-.7L9.3.4a2.11,2.11,0,0,1,2.4,0l8.5,6.4a4.35,4.35,0,0,1,.6.7,2.92,2.92,0,0,1,.2.9V21.2a2,2,0,0,1-2,2H13.1V14H7.8v9.2Z" fill="#0068b7"/><path id="패스_73" data-name="패스 73" d="M7,43.9a.87.87,0,0,1,.6-.9,7,7,0,0,1,3.2-.5A7,7,0,0,1,14,43a1,1,0,0,1,.6.9,1,1,0,0,1-.6.9,5.75,5.75,0,0,1-2.6.5V46h3.9v1h-9V46h3.9v-.7a5.75,5.75,0,0,1-2.6-.5A.87.87,0,0,1,7,43.9Zm1.1,0q0,.15.3.3a9.86,9.86,0,0,0,2.4.3,5,5,0,0,0,2.4-.3q.3-.15.3-.3a.32.32,0,0,0-.3-.3,6.52,6.52,0,0,0-2.4-.2,5,5,0,0,0-2.4.3C8.3,43.7,8.2,43.8,8.1,43.9Zm6.8-2.8V42H6.6v-.9h3.5v-.8h1.3v.8Zm-.3,9.6H6.9v-3h7.7Zm-1.2-.9V48.7H8.1v1.1Z" fill="#0068b7"/></g></svg>