<svg id="레이어_1" data-name="레이어 1" xmlns="http://www.w3.org/2000/svg" viewBox="0 0 30 60"><title>대지 1</title><g id="그룹_138" data-name="그룹 138"><path id="패스_75" data-name="패스 75" d="M4.39,38.27A6.23,6.23,0,0,1,.09,41v-1.1c2.3-.5,3.7-1.9,3.7-4.1V35H5v.8c0,2.2,1.4,3.6,3.7,4.1V41A6.23,6.23,0,0,1,4.39,38.27ZM0,44.37v-1h8.9v1Zm13.7-3.9h-2.9V35h3.7v1h-2.6v1.2h2.5v1h-2.5v1.3h1.9a2.83,2.83,0,0,0,1.8-.4v-4.2h1.1v2.3h1.1v-2.4H19v6h-1.2v-2.5h-1.1v2.5h-1.1V40A2.51,2.51,0,0,1,13.69,40.47Zm-2.2,4.4v-3.5H19v3.5Zm6.3-2.5h-5.2v1.5h5.2Zm10-2.6h1.8v1.1h-8.2v-1.1h1.5v-3.7h-1.3V35h7.8v1.1h-1.3v1.7a3.52,3.52,0,0,1-.3,2Zm-3.6-3.7v3.7h2.5a5.82,5.82,0,0,0,.3-1.9v-1.8Zm-3.1,8.3v-1H30v1ZM5.39,51V50h6.1v1h-1.1v.6c0,1.6.4,2.4,1.2,2.9v1A3.35,3.35,0,0,1,9.79,54a4.71,4.71,0,0,1-1.3,1.5A3.74,3.74,0,0,1,7.19,54a3.76,3.76,0,0,1-1.8,1.5v-1c.8-.5,1.2-1.2,1.2-2.9V51Zm3.8,0H7.69v.5a4.52,4.52,0,0,0,.7,2.8,4,4,0,0,0,.8-2.8Zm3.3,4.7v-5.8h1.2v5.8Zm0,4.3v-2.6H6v-1h7.7v3.7Zm7.3-7.8v-1.1h-3.6V50H21v2c0,3.8-1.4,6.3-4.9,7.2v-1.1C18.69,57.37,19.79,55.27,19.79,52.17Zm4.4-2.3v10H23v-10Z" fill="#b4b9bf"/><path id="qr_code_scanner_FILL0_wght400_GRAD-25_opsz40" data-name="qr code scanner FILL0 wght400 GRAD-25 opsz40" d="M3.19,6.17a1.14,1.14,0,0,1-.8-.3,1.14,1.14,0,0,1-.3-.8v-4A1.09,1.09,0,0,1,3,0h4.1a1.11,1.11,0,0,1,1.1,1.1h0a1.14,1.14,0,0,1-.3.8,1.14,1.14,0,0,1-.8.3H4.19v2.9a1.14,1.14,0,0,1-.3.8.78.78,0,0,1-.7.3Zm0,21a1.09,1.09,0,0,1-1.1-.9v-4.1a1.11,1.11,0,0,1,1.1-1.1h0a1.14,1.14,0,0,1,.8.3,1.14,1.14,0,0,1,.3.8v2.9h2.9a1,1,0,0,1,1.1,1.1,1.11,1.11,0,0,1-1.1,1.1h0Zm21.1,0a1,1,0,0,1-1.1-1.1,1,1,0,0,1,1-1.1h3v-2.9a1,1,0,0,1,1.1-1.1,1.11,1.11,0,0,1,1.1,1.1h0v4a1.09,1.09,0,0,1-.9,1.1h-4.2Zm4-21a1,1,0,0,1-1.1-1v-3h-2.9a1.14,1.14,0,0,1-.8-.3,1.14,1.14,0,0,1-.3-.8,1.14,1.14,0,0,1,.3-.8,1.14,1.14,0,0,1,.8-.3h4a1.09,1.09,0,0,1,1.1.9V5a1.14,1.14,0,0,1-.3.8A1,1,0,0,1,28.29,6.17Zm-4.9,15.1h2.1v2.1h-2.1Zm0-4.2h2.1v2.1h-2.1Zm-2.1,2.1h2.1v2.1h-2.1Zm-2.1,2.1h2.1v2.1h-2.1Zm-2-2.1h2.1v2.1h-2.1Zm4.1-4.1h2.1v2.1h-2.1Zm-2.1,2h2.1v2.1h-2.1Zm-2-2h2.1v2.1h-2.1Zm8.3-11.2v8.3h-8.3V3.87Zm-11.2,11.2v8.3H6v-8.3Zm0-11.2v8.3H6V3.87Zm-1.8,17.7v-4.8H7.69v4.8Zm0-11.2V5.57H7.69v4.8Zm11.2,0V5.57h-4.8v4.8Z" fill="#b4b9bf"/></g></svg>