<?xml version="1.0" encoding="utf-8"?>
<!-- Generator: Adobe Illustrator 24.0.1, SVG Export Plug-In . SVG Version: 6.00 Build 0)  -->
<svg version="1.1" id="레이어_1" xmlns="http://www.w3.org/2000/svg" xmlns:xlink="http://www.w3.org/1999/xlink" x="0px"
	 y="0px" viewBox="0 0 30 60" style="enable-background:new 0 0 30 60;" xml:space="preserve">
<style type="text/css">
	.st0{fill:#B4B9BF;}
</style>
<g id="그룹_138" transform="translate(-207.007 -54.829)">
	<path id="패스_75" class="st0" d="M211.4,93.1c-1,1.5-2.5,2.4-4.3,2.7v-1.1c2.3-0.5,3.7-1.9,3.7-4.1v-0.8h1.2v0.8
		c0,2.2,1.4,3.6,3.7,4.1v1.1C213.9,95.5,212.4,94.6,211.4,93.1z M207,99.2v-1h8.9v1L207,99.2z M220.7,95.3h-2.9v-5.5h3.7v1h-2.6V92
		h2.5v1h-2.5v1.3h1.9c0.6,0.1,1.3-0.1,1.8-0.4v-4.2h1.1v2.3h1.1v-2.4h1.2v6h-1.2v-2.5h-1.1v2.5h-1.1v-0.8
		C222.1,95.2,221.4,95.4,220.7,95.3z M218.5,99.7v-3.5h7.5v3.5H218.5z M224.8,97.2h-5.2v1.5h5.2V97.2z M234.8,94.6h1.8v1.1h-8.2
		v-1.1h1.5v-3.7h-1.3v-1.1h7.8v1.1h-1.3v1.7C235.2,93.3,235.1,93.9,234.8,94.6L234.8,94.6z M231.2,90.9v3.7h2.5
		c0.2-0.6,0.3-1.2,0.3-1.9v-1.8H231.2z M228.1,99.2v-1h8.9v1H228.1z M212.4,105.8v-1h6.1v1h-1.1v0.6c0,1.6,0.4,2.4,1.2,2.9v1
		c-0.8-0.3-1.4-0.8-1.8-1.5c-0.3,0.6-0.8,1.1-1.3,1.5c-0.6-0.4-1-0.9-1.3-1.5c-0.4,0.7-1.1,1.2-1.8,1.5v-1c0.8-0.5,1.2-1.2,1.2-2.9
		v-0.6H212.4z M216.2,105.8h-1.5v0.5c-0.1,1,0.2,2,0.7,2.8c0.6-0.8,0.9-1.8,0.8-2.8V105.8z M219.5,110.5v-5.8h1.2v5.8L219.5,110.5z
		 M219.5,114.8v-2.6H213v-1h7.7v3.7L219.5,114.8z M226.8,107v-1.1h-3.6v-1.1h4.8v2c0,3.8-1.4,6.3-4.9,7.2v-1.1
		C225.7,112.2,226.8,110.1,226.8,107z M231.2,104.7v10H230v-10H231.2z"/>
	<path id="qr_code_scanner_FILL0_wght400_GRAD-25_opsz40" class="st0" d="M210.2,61c-0.3,0-0.6-0.1-0.8-0.3
		c-0.2-0.2-0.3-0.5-0.3-0.8v-4c0-0.6,0.4-1,0.9-1.1c0,0,0.1,0,0.1,0h4c0.6,0,1.1,0.5,1.1,1.1c0,0,0,0,0,0c0,0.3-0.1,0.6-0.3,0.8
		c-0.2,0.2-0.5,0.3-0.8,0.3h-2.9v2.9c0,0.3-0.1,0.6-0.3,0.8C210.8,60.9,210.5,61,210.2,61L210.2,61z M210.2,82c-0.6,0-1-0.4-1.1-0.9
		c0,0,0-0.1,0-0.1v-4c0-0.6,0.5-1.1,1.1-1.1c0,0,0,0,0,0c0.3,0,0.6,0.1,0.8,0.3c0.2,0.2,0.3,0.5,0.3,0.8v2.9h2.9
		c0.3,0,0.6,0.1,0.8,0.3c0.2,0.2,0.3,0.5,0.3,0.8c0,0.6-0.5,1.1-1.1,1.1c0,0,0,0,0,0L210.2,82z M231.3,82c-0.3,0-0.6-0.1-0.8-0.3
		c-0.2-0.2-0.3-0.5-0.3-0.8c0-0.6,0.4-1.1,1-1.1c0,0,0.1,0,0.1,0h2.9v-2.9c0-0.3,0.1-0.6,0.3-0.8c0.2-0.2,0.5-0.3,0.8-0.3
		c0.6,0,1.1,0.5,1.1,1.1c0,0,0,0,0,0v4c0,0.6-0.4,1-0.9,1.1c0,0-0.1,0-0.1,0L231.3,82z M235.3,61c-0.6,0-1.1-0.4-1.1-1
		c0,0,0-0.1,0-0.1V57h-2.9c-0.3,0-0.6-0.1-0.8-0.3c-0.2-0.2-0.3-0.5-0.3-0.8c0-0.3,0.1-0.6,0.3-0.8c0.2-0.2,0.5-0.3,0.8-0.3h4
		c0.6,0,1,0.4,1.1,0.9c0,0,0,0.1,0,0.1v4c0,0.3-0.1,0.6-0.3,0.8C235.8,60.9,235.6,61,235.3,61z M230.4,76.1h2.1v2.1h-2.1V76.1z
		 M230.4,71.9h2.1V74h-2.1V71.9z M228.3,74h2.1v2.1h-2.1V74z M226.2,76.1h2.1v2.1h-2.1V76.1z M224.2,74h2.1v2.1h-2.1V74z
		 M228.3,69.9h2.1v2.1h-2.1L228.3,69.9z M226.2,71.9h2.1V74h-2.1V71.9z M224.2,69.9h2.1v2.1h-2.1V69.9z M232.5,58.7V67h-8.3v-8.3
		H232.5z M221.3,69.9v8.3H213v-8.3H221.3z M221.3,58.7V67H213v-8.3H221.3z M219.5,76.4v-4.8h-4.8v4.8H219.5z M219.5,65.2v-4.8h-4.8
		v4.8L219.5,65.2z M230.7,65.2v-4.8h-4.8v4.8L230.7,65.2z"/>
</g>
</svg>
