<svg xmlns="http://www.w3.org/2000/svg" width="29.975" height="59.985" viewBox="0 0 29.975 59.985">
  <g id="그룹_138" data-name="그룹 138" transform="translate(-207.007 -54.829)">
    <path id="패스_75" data-name="패스 75" d="M-10.571-5.9a6.055,6.055,0,0,1-4.257,2.684V-4.279c2.277-.517,3.652-1.936,3.652-4.114v-.814h1.188v.814c0,2.178,1.408,3.6,3.674,4.114v1.067A6.079,6.079,0,0,1-10.571-5.9Zm-4.422,6.1V-.825h8.855V.209ZM-1.331-3.707H-4.224v-5.5H-.495v.979H-3.069v1.265H-.616V-6H-3.069v1.32h1.892A3.067,3.067,0,0,0,.649-5.1V-9.262H1.782v2.321h1.1V-9.328H4.037v5.984H2.882V-5.885h-1.1V-3.41H.649v-.77A2.979,2.979,0,0,1-1.331-3.707ZM-3.509.748v-3.52H4.037V.748Zm6.358-2.5H-2.31V-.264H2.849Zm9.988-2.684h1.8v1.056H6.468V-4.433H7.942V-8.1h-1.3V-9.152h7.821V-8.1H13.156V-6.4A5.163,5.163,0,0,1,12.837-4.433ZM9.152-8.1v3.663h2.53a5.053,5.053,0,0,0,.275-1.859V-8.1ZM6.127.209V-.825h8.855V.209ZM-9.636,6.816V5.793h6.072V6.816H-4.675v.561c0,1.617.363,2.354,1.232,2.882v1.023A3.428,3.428,0,0,1-5.28,9.808a3.846,3.846,0,0,1-1.331,1.5,3.977,3.977,0,0,1-1.32-1.485,3.5,3.5,0,0,1-1.837,1.463V10.259c.847-.484,1.243-1.221,1.243-2.882V6.816Zm3.806,0H-7.359v.528A3.9,3.9,0,0,0-6.611,10.1,3.9,3.9,0,0,0-5.83,7.344Zm3.366,4.7V5.672h1.188v5.841Zm0,4.3V13.185H-8.976V12.151h7.7v3.663ZM4.8,8V6.9H1.188V5.848H5.973V7.861c0,3.8-1.408,6.325-4.851,7.205V13.933C3.652,13.2,4.8,11.117,4.8,8ZM9.152,5.672v9.977h-1.2V5.672Z" transform="translate(222 99)" fill="#0068b7"/>
    <path id="qr_code_scanner_FILL0_wght400_GRAD-25_opsz40" d="M4.7,9.778a1.035,1.035,0,0,1-.761-.311,1.077,1.077,0,0,1-.311-.8V4.7A1.01,1.01,0,0,1,4.7,3.625H8.706A1.062,1.062,0,0,1,9.778,4.7a1.076,1.076,0,0,1-.311.795,1.035,1.035,0,0,1-.761.311H5.8V8.671a1.047,1.047,0,0,1-.329.8,1.093,1.093,0,0,1-.777.311Zm0,21.015a1.01,1.01,0,0,1-1.072-1.072V25.712A1.062,1.062,0,0,1,4.7,24.64a1.076,1.076,0,0,1,.795.311,1.035,1.035,0,0,1,.311.761v2.9h2.9a1.007,1.007,0,0,1,.761.329,1.093,1.093,0,0,1,.311.777,1.062,1.062,0,0,1-1.072,1.072Zm21.05,0a1.077,1.077,0,0,1-.8-.311,1.035,1.035,0,0,1-.311-.761,1.065,1.065,0,0,1,1.107-1.106h2.869v-2.9a1.007,1.007,0,0,1,.329-.761,1.093,1.093,0,0,1,.777-.311,1.062,1.062,0,0,1,1.072,1.072v4.009a1.01,1.01,0,0,1-1.072,1.072ZM29.721,9.778a1.065,1.065,0,0,1-1.106-1.107V5.8H25.747a1.047,1.047,0,0,1-.8-.329A1.093,1.093,0,0,1,24.64,4.7a1.035,1.035,0,0,1,.311-.761,1.077,1.077,0,0,1,.8-.311h3.974A1.01,1.01,0,0,1,30.793,4.7V8.671a1.077,1.077,0,0,1-.311.8A1.035,1.035,0,0,1,29.721,9.778Zm-4.874,15.1h2.074v2.074H24.847Zm0-4.148h2.074v2.074H24.847Zm-2.074,2.074h2.074v2.074H22.773ZM20.7,24.882h2.074v2.074H20.7Zm-2.074-2.074H20.7v2.074H18.626Zm4.148-4.148h2.074v2.074H22.773ZM20.7,20.734h2.074v2.074H20.7Zm-2.074-2.074H20.7v2.074H18.626Zm8.3-11.2v8.3h-8.3v-8.3Zm-11.164,11.2v8.3h-8.3v-8.3Zm0-11.2v8.3h-8.3v-8.3ZM13.994,25.193v-4.77H9.224v4.77Zm0-11.2V9.224H9.224v4.77Zm11.164,0V9.224h-4.77v4.77Z" transform="translate(205.546 51.204)" fill="#0068b7"/>
  </g>
</svg>
