<svg id="레이어_1" data-name="레이어 1" xmlns="http://www.w3.org/2000/svg" viewBox="0 0 29.98 59.99"><title>대지 1</title><g id="그룹_138" data-name="그룹 138"><path id="패스_75" data-name="패스 75" d="M4.42,38.27A6.06,6.06,0,0,1,.16,41V39.89c2.28-.51,3.66-1.93,3.66-4.11V35H5v.82c0,2.18,1.41,3.6,3.68,4.11V41A6.1,6.1,0,0,1,4.42,38.27ZM0,44.37v-1H8.85v1Zm13.66-3.91H10.77V35H14.5v1H11.92v1.27h2.46v1H11.92v1.32h1.9a3.07,3.07,0,0,0,1.82-.42V34.91h1.13v2.32h1.1V34.84H19v6H17.87V38.29h-1.1v2.47H15.64V40A2.94,2.94,0,0,1,13.66,40.46Zm-2.18,4.46V41.4H19v3.52Zm6.36-2.5H12.68v1.49h5.16Zm10-2.68h1.8v1H21.46v-1h1.47V36.07h-1.3V35h7.83v1H28.15v1.7a5.29,5.29,0,0,1-.32,2Zm-3.69-3.67v3.66h2.53A4.84,4.84,0,0,0,27,37.88V36.07Zm-3,8.31v-1H30v1ZM5.36,51V50h6.07v1H10.32v.56c0,1.62.36,2.35,1.23,2.88v1A3.44,3.44,0,0,1,9.71,54a3.78,3.78,0,0,1-1.33,1.5A4,4,0,0,1,7.06,54a3.44,3.44,0,0,1-1.84,1.47v-1c.85-.48,1.25-1.22,1.25-2.88V51Zm3.8,0H7.63v.53a3.92,3.92,0,0,0,.75,2.75,3.89,3.89,0,0,0,.78-2.75Zm3.37,4.7V49.84h1.19v5.84Zm0,4.3V57.36H6v-1h7.7V60Zm7.26-7.82v-1.1H16.18V50H21v2c0,3.8-1.41,6.33-4.86,7.21V58.1C18.64,57.37,19.79,55.29,19.79,52.17Zm4.35-2.33v10h-1.2v-10Z" fill="#0068b7"/><path id="qr_code_scanner_FILL0_wght400_GRAD-25_opsz40" data-name="qr code scanner FILL0 wght400 GRAD-25 opsz40" d="M3.24,6.15a1,1,0,0,1-.76-.31A1.08,1.08,0,0,1,2.17,5v-4A1,1,0,0,1,3.11,0H7.25A1.07,1.07,0,0,1,8.32,1.05v0a1.12,1.12,0,0,1-.31.8,1,1,0,0,1-.76.31H4.34V5.05a1.06,1.06,0,0,1-.33.8,1.13,1.13,0,0,1-.78.31Zm0,21a1,1,0,0,1-1.07-1,.24.24,0,0,1,0-.12v-4A1.06,1.06,0,0,1,3.22,21h0a1.06,1.06,0,0,1,.79.32,1,1,0,0,1,.32.76V25h2.9a1,1,0,0,1,.76.33,1.09,1.09,0,0,1,.31.77,1.08,1.08,0,0,1-1.05,1.08h-4Zm21,0a1.08,1.08,0,0,1-.8-.31,1,1,0,0,1-.31-.76,1.06,1.06,0,0,1,1-1.11h2.95v-2.9a1,1,0,0,1,.33-.76,1.09,1.09,0,0,1,.78-.31,1,1,0,0,1,1.07,1.05v4a1,1,0,0,1-.94,1.07h-4.1Zm4-21a1.06,1.06,0,0,1-1.11-1V2.18H24.29a1,1,0,0,1-.8-.33,1.13,1.13,0,0,1-.31-.78,1,1,0,0,1,.31-.76,1.08,1.08,0,0,1,.8-.31h4a1,1,0,0,1,1.07,1v4.1a1.11,1.11,0,0,1-.31.8A1,1,0,0,1,28.26,6.15Zm-4.87,15.1h2.07v2.08H23.39Zm0-4.15h2.07v2.08H23.39Zm-2.08,2.08h2.08v2.07H21.31Zm-2.07,2.08h2.07v2.07H19.24Zm-2.07-2.08h2.07v2.08H17.17ZM21.31,15h2.08v2.08H21.31Zm-2.07,2.08h2.07v2.07H19.24ZM17.17,15h2.07v2.08H17.17Zm8.3-11.19v8.3h-8.3V3.84ZM14.3,15v8.3H6V15Zm0-11.19v8.3H6V3.84ZM12.53,21.57V16.8H7.76v4.77Zm0-11.2V5.6H7.76v4.77Zm11.17,0V5.6H18.93v4.77Z" fill="#0068b7"/></g></svg>