<svg id="레이어_1" data-name="레이어 1" xmlns="http://www.w3.org/2000/svg" viewBox="0 0 30.83 55.84"><title>대지 1</title><g id="그룹_140" data-name="그룹 140"><path id="패스_77" data-name="패스 77" d="M4,35.41c0-1.58-.11-2.74-.52-3.26a1,1,0,0,0-.87-.42,1.05,1.05,0,0,0-.87.42,6.3,6.3,0,0,0-.52,3.26,6.37,6.37,0,0,0,.52,3.28,1.08,1.08,0,0,0,.87.4,1.1,1.1,0,0,0,.87-.4A6.26,6.26,0,0,0,4,35.41Zm-4,0c0-1.8.18-3.15.82-3.93a2.2,2.2,0,0,1,1.76-.79,2.23,2.23,0,0,1,1.77.79,5.42,5.42,0,0,1,.8,3.19H6.89v-4h1.2v10H6.89v-5H5.16a6.09,6.09,0,0,1-.81,3.65,2.18,2.18,0,0,1-1.78.76,2.17,2.17,0,0,1-1.76-.76C.17,38.57,0,37.22,0,35.41Zm18.61-3H15.36c.15,1,1.87,1.72,3.35,1.8v1a6,6,0,0,1-4-1.58,6,6,0,0,1-4,1.59v-1c1.5-.08,3.2-.82,3.36-1.8H10.93v-1h3.23V30.34h1.19V31.4h3.26Zm-8.34,4.8v-1h3.89V34.74h1.19v1.43h3.91v1Zm1.85.78v1.69h6.67v1H10.93V38Zm11.54-4V31.92H21.17V30.87h3.67V33H26.1V30.76h1.15v9.79H26.1V37.48H24.18a4.63,4.63,0,0,1-3.11,2.61V38.93c1.62-.57,2.59-2.22,2.59-5Zm1.18.09a9.9,9.9,0,0,1-.29,2.36H26.1V34.07Zm4.52-3.38v10H28.19v-10ZM8.92,46.85H5.32v-1h4.79v.71c0,3.09-1.87,4.46-5,4.76v-1C7.49,50,8.92,48.9,8.92,46.85Zm4.47,4.47h-1.2V49H10.27V47.91h1.92V45.69h1.2ZM5.93,55.77V51.9h7.46v3.87Zm6.26-2.85H7.13v1.84h5.06Zm5.53-3.36a4.49,4.49,0,0,1-2.28,1.9V50.35a3.09,3.09,0,0,0,1.68-3V45.76h1.17v1.55A2.79,2.79,0,0,0,20,50.12v1.1A4.17,4.17,0,0,1,17.72,49.56Zm2.86,1.83V45.76h1.13V48h1.23V45.69h1.15v5.77H22.94V49H21.71v2.37Zm2.32,4.45V53.15H16.42v-1h7.67v3.73Z" fill="#0068b7"/><path id="manage_search_FILL0_wght400_GRAD-25_opsz40" data-name="manage search FILL0 wght400 GRAD-25 opsz40" d="M4.58,3.54a1.11,1.11,0,0,1-.81-.32,1.06,1.06,0,0,1-.32-.78,1.09,1.09,0,0,1,1-1.13H9.29a1.15,1.15,0,0,1,1.14,1.13,1,1,0,0,1-.34.78,1.13,1.13,0,0,1-.8.32Zm0,7.22a1.11,1.11,0,0,1-.81-.32,1.06,1.06,0,0,1-.32-.78,1.09,1.09,0,0,1,1-1.13H9.29a1.15,1.15,0,0,1,1.14,1.13,1,1,0,0,1-.34.78,1.13,1.13,0,0,1-.8.32Zm24.35,6.47-4.74-4.74a6,6,0,0,1-1.91,1,6.94,6.94,0,0,1-9-6.55v0A6.89,6.89,0,0,1,20.13,0h0a6.7,6.7,0,0,1,4.9,2,6.63,6.63,0,0,1,2,4.88A7,7,0,0,1,26.76,9a6.27,6.27,0,0,1-1,1.87l4.74,4.78a1.09,1.09,0,0,1,.34.76,1.05,1.05,0,0,1-.34.8,1.12,1.12,0,0,1-1.56,0Zm-8.77-5.66a4.65,4.65,0,0,0,4.67-4.63v0a4.66,4.66,0,0,0-4.64-4.67h0a4.65,4.65,0,0,0-4.67,4.63v0a4.66,4.66,0,0,0,4.64,4.67h0ZM4.58,18a1.08,1.08,0,0,1-.81-.33,1.14,1.14,0,0,1-.32-.8,1,1,0,0,1,.32-.78,1.07,1.07,0,0,1,.81-.32H16.3a1.1,1.1,0,0,1,.8.32,1,1,0,0,1,.33.78,1.08,1.08,0,0,1-.33.81,1.14,1.14,0,0,1-.8.32Z" fill="#0068b7"/></g></svg>