<?xml version="1.0" encoding="utf-8"?>
<!-- Generator: Adobe Illustrator 24.0.1, SVG Export Plug-In . SVG Version: 6.00 Build 0)  -->
<svg version="1.1" id="레이어_1" xmlns="http://www.w3.org/2000/svg" xmlns:xlink="http://www.w3.org/1999/xlink" x="0px"
	 y="0px" viewBox="0 0 30.8 55.8" style="enable-background:new 0 0 30.8 55.8;" xml:space="preserve">
<style type="text/css">
	.st0{fill:#B4B9BF;}
</style>
<g id="그룹_140" transform="translate(-331.227 -58.977)">
	<path id="패스_77" class="st0" d="M335.2,94.4c0-1.6-0.1-2.7-0.5-3.3c-0.2-0.3-0.5-0.4-0.9-0.4c-0.3,0-0.7,0.1-0.9,0.4
		c-0.5,1-0.6,2.2-0.5,3.3c-0.1,1.1,0.1,2.2,0.5,3.3c0.2,0.3,0.5,0.4,0.9,0.4c0.3,0,0.7-0.1,0.9-0.4C335.1,97.1,335.2,96,335.2,94.4z
		 M331.2,94.4c0-1.8,0.2-3.2,0.8-3.9c0.4-0.5,1.1-0.8,1.8-0.8c0.7,0,1.3,0.3,1.8,0.8c0.6,1,0.9,2.1,0.8,3.2h1.7v-4h1.2v10h-1.2v-5
		h-1.7c0,1.7-0.2,2.9-0.8,3.7c-0.4,0.5-1.1,0.8-1.8,0.8c-0.7,0-1.3-0.2-1.8-0.8C331.4,97.5,331.2,96.2,331.2,94.4L331.2,94.4z
		 M349.8,91.4h-3.3c0.2,1,1.9,1.7,3.4,1.8v1c-1.5,0-2.9-0.6-3.9-1.6c-1.1,1-2.5,1.6-4,1.6v-1c1.5-0.1,3.2-0.8,3.4-1.8h-3.2v-1h3.2
		v-1.1h1.2v1.1h3.3L349.8,91.4z M341.5,96.2v-1h3.9v-1.4h1.2v1.4h3.9v1H341.5z M343.3,97v1.7h6.7v1h-7.9V97H343.3z M354.9,93v-2.1
		h-2.5v-1.1h3.7V92h1.3v-2.3h1.1v9.8h-1.1v-3.1h-1.9c-0.6,1.3-1.7,2.3-3.1,2.6v-1.2C353.9,97.3,354.9,95.7,354.9,93L354.9,93z
		 M356.1,93.1c0,0.8-0.1,1.6-0.3,2.4h1.6V93L356.1,93.1z M360.6,89.7v10h-1.2v-10L360.6,89.7z M340.1,105.8h-3.6v-1h4.8v0.7
		c0,3.1-1.9,4.5-5,4.8v-1C338.7,109,340.1,107.9,340.1,105.8z M344.6,110.3h-1.2v-2.4h-1.9v-1.1h1.9v-2.2h1.2V110.3z M337.2,114.7
		v-3.9h7.5v3.9H337.2z M343.4,111.9h-5.1v1.8h5.1V111.9z M348.9,108.5c-0.5,0.9-1.3,1.5-2.3,1.9v-1.1c1.1-0.6,1.8-1.8,1.7-3v-1.6
		h1.2v1.6c-0.1,1.2,0.6,2.3,1.7,2.8v1.1C350.3,109.9,349.5,109.3,348.9,108.5z M351.8,110.4v-5.6h1.1v2.2h1.2v-2.3h1.2v5.8h-1.2V108
		h-1.2v2.4H351.8z M354.1,114.8v-2.7h-6.5v-1h7.7v3.7L354.1,114.8z"/>
	<path id="manage_search_FILL0_wght400_GRAD-25_opsz40" class="st0" d="M335.8,62.5c-0.3,0-0.6-0.1-0.8-0.3
		c-0.2-0.2-0.3-0.5-0.3-0.8c0-0.6,0.4-1.1,1-1.1c0,0,0.1,0,0.1,0h4.7c0.6,0,1.1,0.5,1.1,1.1c0,0.3-0.1,0.6-0.3,0.8
		c-0.2,0.2-0.5,0.3-0.8,0.3L335.8,62.5z M335.8,69.7c-0.3,0-0.6-0.1-0.8-0.3c-0.2-0.2-0.3-0.5-0.3-0.8c0-0.6,0.4-1.1,1-1.1
		c0,0,0.1,0,0.1,0h4.7c0.6,0,1.1,0.5,1.1,1.1c0,0.3-0.1,0.6-0.3,0.8c-0.2,0.2-0.5,0.3-0.8,0.3L335.8,69.7z M360.2,76.2l-4.7-4.7
		c-0.6,0.4-1.2,0.8-1.9,1c-0.7,0.2-1.4,0.3-2.1,0.3c-3.8,0-6.9-3.1-6.9-6.9c0,0,0,0,0,0c0-3.8,3.1-6.9,6.9-6.9c0,0,0,0,0,0
		c1.8,0,3.6,0.7,4.9,2c1.3,1.3,2.1,3,2,4.9c0,0.7-0.1,1.4-0.3,2.1c-0.2,0.7-0.6,1.3-1,1.9l4.7,4.8c0.2,0.2,0.3,0.5,0.3,0.8
		c0,0.3-0.1,0.6-0.3,0.8C361.3,76.6,360.6,76.6,360.2,76.2L360.2,76.2z M351.4,70.5c2.6,0,4.7-2.1,4.7-4.6c0,0,0,0,0,0
		c0-2.6-2.1-4.7-4.6-4.7c0,0,0,0,0,0c-2.6,0-4.7,2.1-4.7,4.6c0,0,0,0,0,0C346.7,68.4,348.8,70.5,351.4,70.5
		C351.4,70.6,351.4,70.6,351.4,70.5L351.4,70.5z M335.8,77c-0.3,0-0.6-0.1-0.8-0.3c-0.2-0.2-0.3-0.5-0.3-0.8c0-0.3,0.1-0.6,0.3-0.8
		c0.2-0.2,0.5-0.3,0.8-0.3h11.7c0.3,0,0.6,0.1,0.8,0.3c0.2,0.2,0.3,0.5,0.3,0.8c0,0.3-0.1,0.6-0.3,0.8c-0.2,0.2-0.5,0.3-0.8,0.3
		L335.8,77z"/>
</g>
</svg>
