<svg xmlns="http://www.w3.org/2000/svg" width="30.826" height="55.837" viewBox="0 0 30.826 55.837">
  <g id="그룹_140" data-name="그룹 140" transform="translate(-331.227 -58.977)">
    <path id="패스_77" data-name="패스 77" d="M-10.8-4.609c0-1.584-.11-2.739-.528-3.267a1.03,1.03,0,0,0-.869-.418,1.059,1.059,0,0,0-.869.418,6.347,6.347,0,0,0-.517,3.267,6.422,6.422,0,0,0,.517,3.278,1.1,1.1,0,0,0,.869.4,1.073,1.073,0,0,0,.869-.4C-10.912-1.87-10.8-3.025-10.8-4.609Zm-3.971,0c0-1.8.176-3.157.814-3.938a2.182,2.182,0,0,1,1.76-.781,2.2,2.2,0,0,1,1.771.781,5.364,5.364,0,0,1,.8,3.19h1.738V-9.328h1.2V.649h-1.2V-4.323H-9.614c-.022,1.661-.209,2.915-.814,3.652A2.188,2.188,0,0,1-12.2.088a2.166,2.166,0,0,1-1.76-.759C-14.6-1.452-14.773-2.805-14.773-4.609Zm18.612-3H.583c.154.99,1.87,1.716,3.355,1.8v1A6.019,6.019,0,0,1-.011-6.391,5.971,5.971,0,0,1-3.982-4.807v-1c1.5-.077,3.2-.814,3.355-1.8H-3.839V-8.624H-.616V-9.68H.572v1.056H3.839ZM-4.5-2.816V-3.85H-.616V-5.28H.572v1.43H4.488v1.034Zm1.848.781V-.341H4.015V.693H-3.839V-2.035Zm11.539-4V-8.1H6.4V-9.152h3.663V-7H11.33V-9.262h1.144V.528H11.33V-2.541H9.405A4.628,4.628,0,0,1,6.292.066V-1.089C7.92-1.661,8.888-3.311,8.888-6.039Zm1.177.088a9.741,9.741,0,0,1-.286,2.365H11.33V-5.951Zm4.521-3.377V.649H13.42V-9.328ZM-5.852,6.827h-3.6V5.793h4.785v.715c0,3.091-1.87,4.455-5.027,4.763V10.226C-7.282,9.973-5.852,8.873-5.852,6.827Zm4.466,4.466h-1.2V8.939H-4.5V7.883h1.914V5.672h1.2Zm-7.458,4.455V11.876h7.458v3.872ZM-2.585,12.9h-5.06v1.837h5.06ZM2.948,9.533a4.449,4.449,0,0,1-2.277,1.9V10.325a3.086,3.086,0,0,0,1.672-3V5.738H3.52V7.289A2.79,2.79,0,0,0,5.181,10.1v1.1A4.126,4.126,0,0,1,2.948,9.533Zm2.86,1.837V5.738H6.941V7.96H8.162V5.672H9.317v5.764H8.162V9H6.941V11.37Zm2.321,4.444V13.13H1.65V12.085H9.317v3.729Z" transform="translate(346 99)" fill="#0068b7"/>
    <path id="manage_search_FILL0_wght400_GRAD-25_opsz40" d="M4.757,13.83a1.1,1.1,0,0,1-.814-.319,1.058,1.058,0,0,1-.319-.778A1.09,1.09,0,0,1,4.757,11.6H9.464A1.147,1.147,0,0,1,10.6,12.734a1.032,1.032,0,0,1-.335.778,1.12,1.12,0,0,1-.8.319Zm0,7.22a1.1,1.1,0,0,1-.814-.319,1.058,1.058,0,0,1-.319-.778A1.09,1.09,0,0,1,4.757,18.82H9.464A1.147,1.147,0,0,1,10.6,19.954a1.032,1.032,0,0,1-.335.778,1.12,1.12,0,0,1-.8.319Zm24.349,6.476-4.742-4.742a6.156,6.156,0,0,1-1.911.991,7.126,7.126,0,0,1-2.123.319,6.887,6.887,0,0,1-6.9-6.9,6.887,6.887,0,0,1,6.9-6.9,6.708,6.708,0,0,1,4.9,2.017,6.623,6.623,0,0,1,2.035,4.884,6.778,6.778,0,0,1-.336,2.123,6,6,0,0,1-1.008,1.875l4.742,4.778a1.105,1.105,0,0,1,.336.761,1.035,1.035,0,0,1-.336.8,1.111,1.111,0,0,1-1.557,0Zm-8.776-5.662A4.653,4.653,0,0,0,25,17.193a4.652,4.652,0,0,0-4.672-4.672,4.652,4.652,0,0,0-4.672,4.672,4.653,4.653,0,0,0,4.672,4.672ZM4.757,28.305a1.071,1.071,0,0,1-.814-.336,1.119,1.119,0,0,1-.319-.8,1.059,1.059,0,0,1,.319-.779,1.1,1.1,0,0,1,.814-.319H16.472a1.12,1.12,0,0,1,.8.319,1.033,1.033,0,0,1,.336.779,1.073,1.073,0,0,1-.336.814,1.12,1.12,0,0,1-.8.319Z" transform="translate(331.053 48.685)" fill="#0068b7"/>
  </g>
</svg>
