<svg id="레이어_1" data-name="레이어 1" xmlns="http://www.w3.org/2000/svg" viewBox="0 0 30.8 55.8"><title>대지 1</title><g id="그룹_140" data-name="그룹 140"><path id="패스_77" data-name="패스 77" d="M4,35.42a6.62,6.62,0,0,0-.5-3.3,1,1,0,0,0-.9-.4,1.09,1.09,0,0,0-.9.4,6.22,6.22,0,0,0-.5,3.3,7.6,7.6,0,0,0,.5,3.3,1,1,0,0,0,.9.4,1.09,1.09,0,0,0,.9-.4A6.62,6.62,0,0,0,4,35.42Zm-4,0c0-1.8.2-3.2.8-3.9a2.34,2.34,0,0,1,1.8-.8,2.5,2.5,0,0,1,1.8.8,5.29,5.29,0,0,1,.8,3.2h1.7v-4h1.2v10H6.87v-5H5.17a6.17,6.17,0,0,1-.8,3.7,2.34,2.34,0,0,1-1.8.8,2.17,2.17,0,0,1-1.8-.8,7.26,7.26,0,0,1-.8-4Zm18.6-3h-3.3c.2,1,1.9,1.7,3.4,1.8v1a5.52,5.52,0,0,1-3.9-1.6,6,6,0,0,1-4,1.6v-1c1.5-.1,3.2-.8,3.4-1.8H11v-1h3.2v-1.1h1.2v1.1h3.3Zm-8.3,4.8v-1h3.9v-1.4h1.2v1.4h3.9v1Zm1.8.8v1.7h6.7v1h-7.9V38Zm11.6-4v-2.1h-2.5v-1.1h3.7V33h1.3v-2.3h1.1v9.8h-1.1v-3.1h-1.9a4.5,4.5,0,0,1-3.1,2.6v-1.2c1.5-.5,2.5-2.1,2.5-4.8Zm1.2.1a9.86,9.86,0,0,1-.3,2.4h1.6V34Zm4.5-3.4v10h-1.2v-10ZM8.87,46.82H5.27v-1h4.8v.7c0,3.1-1.9,4.5-5,4.8v-1C7.47,50,8.87,48.92,8.87,46.82Zm4.5,4.5h-1.2v-2.4h-1.9v-1.1h1.9v-2.2h1.2ZM6,55.72v-3.9h7.5v3.9Zm6.2-2.8H7.07v1.8h5.1Zm5.5-3.4a4.35,4.35,0,0,1-2.3,1.9v-1.1a3.21,3.21,0,0,0,1.7-3v-1.6h1.2v1.6a2.84,2.84,0,0,0,1.7,2.8v1.1A4.81,4.81,0,0,1,17.67,49.52Zm2.9,1.9v-5.6h1.1V48h1.2v-2.3h1.2v5.8h-1.2V49h-1.2v2.4Zm2.3,4.4v-2.7h-6.5v-1h7.7v3.7Z" fill="#b4b9bf"/><path id="manage_search_FILL0_wght400_GRAD-25_opsz40" data-name="manage search FILL0 wght400 GRAD-25 opsz40" d="M4.57,3.52a1.14,1.14,0,0,1-.8-.3,1.14,1.14,0,0,1-.3-.8,1,1,0,0,1,1-1.1h4.8a1.11,1.11,0,0,1,1.1,1.1,1.14,1.14,0,0,1-.3.8,1.14,1.14,0,0,1-.8.3Zm0,7.2a1.14,1.14,0,0,1-.8-.3,1.14,1.14,0,0,1-.3-.8,1,1,0,0,1,1-1.1h4.8a1.11,1.11,0,0,1,1.1,1.1,1,1,0,0,1-1.1,1.1ZM29,17.22l-4.7-4.7a6.92,6.92,0,0,1-1.9,1,7.61,7.61,0,0,1-2.1.3,6.91,6.91,0,0,1-6.9-6.9h0A6.91,6.91,0,0,1,20.27,0h0a7,7,0,0,1,4.9,2,6.42,6.42,0,0,1,2,4.9,7.61,7.61,0,0,1-.3,2.1,6.92,6.92,0,0,1-1,1.9l4.7,4.8a1.22,1.22,0,0,1,0,1.6,1.35,1.35,0,0,1-1.6-.1Zm-8.8-5.7a4.67,4.67,0,0,0,4.7-4.6h0a4.67,4.67,0,0,0-4.6-4.7h0a4.67,4.67,0,0,0-4.7,4.6h0a4.55,4.55,0,0,0,4.6,4.7ZM4.57,18a1.14,1.14,0,0,1-.8-.3,1.22,1.22,0,0,1,0-1.6,1.14,1.14,0,0,1,.8-.3h11.7a1.1,1.1,0,1,1,0,2.2Z" fill="#b4b9bf"/></g></svg>