<?xml version="1.0" encoding="utf-8"?>
<!-- Generator: Adobe Illustrator 24.0.1, SVG Export Plug-In . SVG Version: 6.00 Build 0)  -->
<svg version="1.1" xmlns="http://www.w3.org/2000/svg" xmlns:xlink="http://www.w3.org/1999/xlink" x="0px" y="0px"
	 viewBox="0 0 61.7 58.9" style="enable-background:new 0 0 61.7 58.9;" xml:space="preserve">
<style type="text/css">
	.st0{fill:#B4B9BF;}
</style>
<g id="레이어_2">
</g>
<g id="레이어_1">
	<g id="그룹_141" transform="translate(-383.167 -56)">
		<path id="패스_78" class="st0" d="M387.6,92.4c-1,1.3-2.6,2.2-4.3,2.3v-1.1c2.2-0.4,3.7-1.5,3.7-3.5v-0.4h1.2v0.4
			c0,1.9,1.5,3,3.7,3.5v1.1C390.2,94.5,388.6,93.7,387.6,92.4z M383.2,97.1v-1.1h8.9v1.1h-3.9v2.7H387v-2.7H383.2z M399.3,91.3h-5.6
			v-1h2.3v-1h1.2v1h2.2V91.3z M395.1,93.5c0,0.2,0.1,0.4,0.3,0.5c0.3,0.2,0.7,0.3,1.1,0.3c0.4,0,0.7-0.1,1-0.2
			c0.2-0.1,0.3-0.3,0.3-0.6c0-0.2-0.1-0.4-0.3-0.6c-0.3-0.2-0.7-0.3-1.1-0.3c-0.4,0-0.8,0.1-1.1,0.3
			C395.2,93.1,395.1,93.3,395.1,93.5L395.1,93.5z M393.9,93.5c0-0.5,0.2-1,0.6-1.2c0.6-0.4,1.2-0.6,1.9-0.5c0.6,0,1.3,0.1,1.8,0.5
			c0.4,0.3,0.7,0.8,0.7,1.3c0,0.5-0.3,1-0.7,1.3c-0.6,0.3-1.2,0.5-1.8,0.5c-0.7,0-1.3-0.2-1.9-0.5C394.2,94.5,393.9,94.1,393.9,93.5
			L393.9,93.5z M399.3,92.7v-1h1.6v-2h1.2v5.7h-1.2v-0.9h-1.6v-1h1.6v-0.8H399.3z M400.9,96.8v-1h1.2v3.9h-7.5v-3.9h1.2v1
			L400.9,96.8z M400.9,97.8h-5.1v0.9h5.1L400.9,97.8z M407.5,89.7V91c-0.1,1.4,0.8,2.7,2.2,3V95c-1.1-0.2-2.2-0.9-2.8-1.8
			c-0.6,1-1.7,1.7-2.8,1.9v-1.1c1.4-0.4,2.3-1.7,2.2-3.1v-1.2L407.5,89.7z M412.3,89.7v2.2h1.5v1h-1.4v2.4h-1.2v-5.7L412.3,89.7z
			 M404.9,97.8c0-0.6,0.3-1.1,0.7-1.4c1-0.5,2-0.8,3.1-0.7c1.1-0.1,2.2,0.2,3.1,0.7c0.5,0.3,0.7,0.8,0.7,1.4c0,0.6-0.3,1.1-0.7,1.4
			c-1,0.5-2,0.8-3.1,0.7c-1.1,0.1-2.2-0.2-3.1-0.7C405.1,98.9,404.9,98.3,404.9,97.8z M406.1,97.8c0,0.3,0.2,0.5,0.4,0.7
			c0.7,0.3,1.5,0.5,2.3,0.4c0.8,0.1,1.6-0.1,2.3-0.4c0.2-0.1,0.4-0.4,0.4-0.7c0-0.3-0.1-0.5-0.4-0.7c-0.7-0.3-1.5-0.5-2.3-0.4
			c-0.8-0.1-1.6,0.1-2.3,0.4C406.2,97.2,406.1,97.5,406.1,97.8L406.1,97.8z M423.4,90.6v1h-8.3v-1h3.5v-1.2h1.2v1.2H423.4z
			 M416.6,94.5c0,0.3,0.2,0.6,0.5,0.8c0.7,0.3,1.4,0.4,2.2,0.4c0.7,0,1.5-0.1,2.2-0.4c0.3-0.1,0.5-0.4,0.5-0.8
			c0-0.4-0.3-0.7-0.6-0.8c-0.7-0.3-1.4-0.4-2.1-0.4c-0.8,0-1.5,0.1-2.2,0.4C416.7,93.9,416.6,94.2,416.6,94.5z M415.4,94.5
			c0-0.7,0.4-1.3,0.9-1.6c0.9-0.5,1.9-0.7,3-0.6c1-0.1,2.1,0.2,3,0.6c0.5,0.3,0.9,0.9,0.9,1.5c0,0.6-0.3,1.2-0.9,1.5
			c-0.7,0.4-1.6,0.6-2.4,0.6v1.6h3.8v1h-8.9v-1h3.9v-1.5c-0.8,0-1.6-0.2-2.3-0.6C415.8,95.8,415.4,95.2,415.4,94.5L415.4,94.5z
			 M432.5,91.7v-0.9h-6.5v-1h7.7v1.9c0,0.6-0.1,1.1-0.2,1.7h-1.2C432.4,92.8,432.5,92.2,432.5,91.7z M425.3,95v-1h9v1H425.3z
			 M433.7,99.7H426v-3.7h7.7L433.7,99.7z M432.5,98.7v-1.7h-5.3v1.7L432.5,98.7z M436.4,91.6c0-0.5,0.2-0.9,0.6-1.2
			c1-0.5,2.2-0.8,3.4-0.7c1.2-0.1,2.4,0.1,3.4,0.7c0.4,0.3,0.6,0.7,0.6,1.2c0,0.5-0.2,1-0.6,1.2c-1,0.5-2.2,0.8-3.4,0.7
			c-1.2,0.1-2.4-0.1-3.4-0.7C436.6,92.5,436.4,92,436.4,91.6L436.4,91.6z M437.6,91.6c0,0.2,0.1,0.4,0.3,0.5
			c0.8,0.3,1.7,0.5,2.6,0.4c0.9,0.1,1.7-0.1,2.6-0.4c0.2-0.1,0.3-0.3,0.3-0.5c0-0.2-0.1-0.4-0.3-0.5c-0.8-0.3-1.7-0.5-2.6-0.4
			c-0.9-0.1-1.8,0.1-2.6,0.4C437.7,91.2,437.6,91.4,437.6,91.6L437.6,91.6z M441.6,96.2v-1h-2.4v1c0.4,0,0.8-0.1,1.2-0.1
			C440.8,96.1,441.2,96.2,441.6,96.2z M438,96.4v-1.2h-2.1v-1h9v1h-2.1v1.2c0.3,0.1,0.6,0.2,0.8,0.3c0.5,0.3,0.8,0.8,0.8,1.3
			c0,0.6-0.3,1.1-0.8,1.3c-1,0.4-2.1,0.6-3.2,0.5c-1.1,0.1-2.2-0.1-3.2-0.5c-0.5-0.3-0.8-0.8-0.8-1.3c0-0.6,0.3-1.1,0.8-1.3
			C437.4,96.6,437.7,96.4,438,96.4z M437.6,98c0,0.2,0.1,0.4,0.3,0.5c0.8,0.3,1.7,0.4,2.5,0.4c0.8,0.1,1.7-0.1,2.5-0.4
			c0.2-0.1,0.3-0.3,0.4-0.5c0-0.2-0.1-0.4-0.4-0.5c-0.8-0.3-1.6-0.4-2.5-0.4c-0.8-0.1-1.7,0.1-2.5,0.4
			C437.7,97.6,437.6,97.8,437.6,98z M399.1,107.2c0-0.8,0.3-1.5,0.8-2c0.5-0.4,1.1-0.6,1.8-0.6c0.6,0,1.3,0.2,1.8,0.6
			c0.1,0.1,0.3,0.3,0.4,0.4h2.2v-1h1.2v5.8h-1.2v-1.6h-2.3c-0.1,0.2-0.2,0.3-0.4,0.4c-0.5,0.4-1.1,0.6-1.8,0.6
			c-0.6,0-1.3-0.2-1.8-0.6C399.4,108.8,399.1,108,399.1,107.2L399.1,107.2z M404.3,106.6c0,0.2,0,0.4,0,0.6c0,0.2,0,0.4-0.1,0.6h1.9
			v-1.2L404.3,106.6z M400.3,107.2c0,0.5,0.1,0.9,0.4,1.2c0.3,0.3,0.6,0.4,1,0.4c0.4,0,0.7-0.1,1-0.4c0.3-0.3,0.5-0.8,0.4-1.2
			c0-0.5-0.1-0.9-0.4-1.2c-0.3-0.2-0.6-0.4-1-0.4c-0.4,0-0.7,0.1-1,0.4C400.4,106.3,400.3,106.8,400.3,107.2L400.3,107.2z
			 M403.6,114.9c-1,0.1-2.1-0.2-3-0.6c-0.5-0.3-0.9-0.9-0.9-1.5c0-0.6,0.3-1.2,0.9-1.5c0.9-0.5,2-0.7,3-0.6c1-0.1,2.1,0.2,3,0.6
			c0.5,0.3,0.9,0.9,0.9,1.5c0,0.6-0.3,1.2-0.9,1.5C405.7,114.7,404.7,114.9,403.6,114.9L403.6,114.9z M403.6,111.7
			c-0.8,0-1.6,0.1-2.3,0.4c-0.3,0.1-0.4,0.4-0.4,0.7c0,0.3,0.2,0.5,0.4,0.7c0.7,0.3,1.5,0.5,2.3,0.4c0.8,0,1.6-0.1,2.3-0.4
			c0.3-0.1,0.4-0.4,0.4-0.7c0-0.3-0.2-0.5-0.4-0.7C405.2,111.7,404.4,111.6,403.6,111.7L403.6,111.7z M409.7,107.2
			c0-0.8,0.3-1.5,0.9-2c0.5-0.4,1.1-0.6,1.7-0.5c0.6,0,1.2,0.2,1.7,0.5c0.5,0.4,0.8,0.9,0.8,1.5h1.8v-2h1.2v5.3h-1.2v-2.3h-1.8
			c-0.1,0.6-0.4,1.1-0.9,1.5c-0.5,0.4-1.1,0.6-1.7,0.6c-0.6,0-1.2-0.2-1.7-0.6C410,108.7,409.7,108,409.7,107.2z M410.9,107.2
			c0,0.5,0.2,0.9,0.5,1.2c0.3,0.2,0.6,0.4,1,0.4c0.4,0,0.7-0.1,1-0.4c0.3-0.3,0.5-0.7,0.5-1.2c0-0.4-0.1-0.9-0.5-1.2
			c-0.3-0.2-0.6-0.3-1-0.3c-0.4,0-0.7,0.1-1,0.3C411,106.3,410.8,106.7,410.9,107.2L410.9,107.2z M416.7,111.6v-1.2h1.2v4.3h-7.5
			v-4.3h1.2v1.2H416.7z M416.7,112.7h-5.1v1.1h5.1V112.7z M420.4,105.8v-1h5.1v1h-2v0.4c-0.1,1.4,0.8,2.6,2.2,2.8v1.1
			c-1.1-0.2-2.1-0.8-2.7-1.7c-0.6,1-1.6,1.6-2.8,1.8v-1.1c1.4-0.2,2.3-1.5,2.2-2.9v-0.4H420.4z M428.5,110.2h-1.2v-2.4h-2.1v-1h2.1
			v-2.1h1.2L428.5,110.2z M421,114.7v-3.9h7.5v3.9H421z M427.3,111.9h-5.1v1.8h5.1V111.9z"/>
		
			<image style="overflow:visible;" width="252" height="180" xlink:href="../../../Downloads/symbol_g.png"  transform="matrix(0.1445 0 0 0.1445 395.8 56.0016)">
		</image>
	</g>
</g>
</svg>
