<svg id="레이어_1" data-name="레이어 1" xmlns="http://www.w3.org/2000/svg" viewBox="0 0 50.9 60.9"><title>대지 1</title><g id="그룹_137" data-name="그룹 137"><path id="패스_74" data-name="패스 74" d="M20.13,45h-4.3V35.8H17v8.1h3.3a3.07,3.07,0,0,0,2.1-.6V35.6h1.2v4.1h1.6v1h-1.6v4.9h-1.2V44.3A3.51,3.51,0,0,1,20.13,45Zm6.4-6.2a3.38,3.38,0,0,1,.9-2.5,3,3,0,0,1,3.6,0,3,3,0,0,1,.9,2.5,3.24,3.24,0,0,1-.9,2.5,3,3,0,0,1-3.6,0,3.49,3.49,0,0,1-.9-2.5Zm1.2,0a2.16,2.16,0,0,0,.5,1.7,1.78,1.78,0,0,0,1,.4,1.28,1.28,0,0,0,1-.4,2.16,2.16,0,0,0,.5-1.7,2.16,2.16,0,0,0-.5-1.7,1.78,1.78,0,0,0-1-.4,1.28,1.28,0,0,0-1,.4,3.37,3.37,0,0,0-.5,1.7Zm6.8-3.1v10h-1.2V44.6a3.48,3.48,0,0,1-2.4.6h-4.6v-1h4.9a3.14,3.14,0,0,0,2.1-.5V35.8h1.2ZM3.93,55.4a6.62,6.62,0,0,0-.5-3.3,1,1,0,0,0-.9-.4,1.09,1.09,0,0,0-.9.4,6.22,6.22,0,0,0-.5,3.3,7.6,7.6,0,0,0,.5,3.3,1,1,0,0,0,.9.4,1.09,1.09,0,0,0,.9-.4A6.62,6.62,0,0,0,3.93,55.4ZM0,55.4c0-1.8.2-3.2.8-3.9a2.34,2.34,0,0,1,1.8-.8,2.5,2.5,0,0,1,1.8.8A3.51,3.51,0,0,1,5,52.9h1.9V50.7h1.2v10H6.93v-3H5a3.63,3.63,0,0,1-.7,1.7,2.34,2.34,0,0,1-1.8.8,2.17,2.17,0,0,1-1.8-.8C.13,58.5,0,57.2,0,55.4Zm5.1-1.5c0,.5.1.9.1,1.5v1.2H7V53.9Zm9.7-1.6h-4.5v-1H12v-1h1.2v1h1.6Zm-3.2,2.4a.78.78,0,0,0,.3.7,1.42,1.42,0,0,0,.6.2,1.42,1.42,0,0,0,.6-.2,1.08,1.08,0,0,0,.3-.7.78.78,0,0,0-.3-.7,1.42,1.42,0,0,0-.6-.2,1.07,1.07,0,0,0-.6.2A.91.91,0,0,0,11.63,54.7Zm-1.1,0a1.51,1.51,0,0,1,.7-1.4,2.39,2.39,0,0,1,1.4-.5,2.3,2.3,0,0,1,1.4.4,1.91,1.91,0,0,1,.7,1.4,1.76,1.76,0,0,1-.8,1.5,2,2,0,0,1-1.3.4,2,2,0,0,1-1.3-.4A1.49,1.49,0,0,1,10.53,54.7Zm8.3,2h-1.2V54.1h-1.1v2.4h-1.1V50.7h1.1v2.4h1.1V50.6h1.2ZM11,59a1.34,1.34,0,0,1,.8-1.3,8.66,8.66,0,0,1,3.2-.6,5.92,5.92,0,0,1,3.2.6A1.56,1.56,0,0,1,19,59a1.34,1.34,0,0,1-.8,1.3,8.66,8.66,0,0,1-3.2.6,5.92,5.92,0,0,1-3.2-.6A1.51,1.51,0,0,1,11,59Zm1.2,0a.66.66,0,0,0,.4.5,6.72,6.72,0,0,0,2.4.4,5.07,5.07,0,0,0,2.4-.4,1,1,0,0,0,.4-.5.66.66,0,0,0-.4-.5,6.72,6.72,0,0,0-2.4-.4,5.07,5.07,0,0,0-2.4.4,1,1,0,0,0-.4.5Zm13.1-4.9A6.23,6.23,0,0,1,21,56.8V55.7c2.3-.5,3.7-1.9,3.7-4.1v-.8h1.2v.8c0,2.2,1.4,3.6,3.7,4.1v1.1A6.23,6.23,0,0,1,25.33,54.1Zm-4.4,6.1v-1h8.9v1Zm13.6-3.9h-2.9V50.8h3.7v1h-2.6v1.3h2.5v1h-2.5v1.3h1.9a2.83,2.83,0,0,0,1.8-.4V50.8h1.1v2.3h1.1V50.7h1.2v6h-1.2V54.2h-1.1v2.5h-1.1v-.8A3,3,0,0,1,34.53,56.3Zm-2.1,4.4V57.2h7.5v3.5Zm6.3-2.5h-5.2v1.5h5.2Zm10-2.6h1.8v1.1h-8.2V55.6h1.5V51.9h-1.3V50.8h7.8v1.1H49v1.7A6.93,6.93,0,0,1,48.73,55.6ZM45,51.9v3.7h2.5a5.82,5.82,0,0,0,.3-1.9V51.9Zm-3,8.3v-1h8.9v1Z" fill="#b4b9bf"/><path id="workspace_premium_FILL1_wght400_GRAD-25_opsz40" data-name="workspace premium FILL1 wght400 GRAD-25 opsz40" d="M23.83,14.8l1.9-1.4,1.9,1.4a.57.57,0,0,0,.9-.6l-.7-2.3,1.9-1.5a.61.61,0,0,0,.1-.8.76.76,0,0,0-.4-.2h-2.3l-.8-2.5a.67.67,0,0,0-.7-.4.78.78,0,0,0-.4.4l-.8,2.5H22a.63.63,0,0,0-.6.5.76.76,0,0,0,.2.5l1.9,1.5-.7,2.3a.48.48,0,0,0,.2.6C23.43,15,23.73,15,23.83,14.8ZM19.13,28a1.18,1.18,0,0,1-1-.1.87.87,0,0,1-.4-.9V18.1a10.13,10.13,0,0,1-2.1-3.4,12.17,12.17,0,0,1-.7-3.8A10.71,10.71,0,0,1,25.43,0h.3a10.71,10.71,0,0,1,10.9,10.5v.3a9.86,9.86,0,0,1-.7,3.8,9.77,9.77,0,0,1-2.1,3.4v9a1.27,1.27,0,0,1-.4.9.92.92,0,0,1-1,.1l-6.6-2.2Zm6.6-8.5a9,9,0,0,0,6.2-2.5,7.86,7.86,0,0,0,2.5-6.1,9,9,0,0,0-2.5-6.2,7.94,7.94,0,0,0-6.2-2.5,9,9,0,0,0-6.2,2.5A7.94,7.94,0,0,0,17,10.9a8.62,8.62,0,0,0,2.5,6.1,9,9,0,0,0,6.2,2.5Z" fill="#b4b9bf"/></g></svg>