<?xml version="1.0" encoding="utf-8"?>
<!-- Generator: Adobe Illustrator 24.0.1, SVG Export Plug-In . SVG Version: 6.00 Build 0)  -->
<svg version="1.1" id="레이어_1" xmlns="http://www.w3.org/2000/svg" xmlns:xlink="http://www.w3.org/1999/xlink" x="0px"
	 y="0px" viewBox="0 0 50.9 60.9" style="enable-background:new 0 0 50.9 60.9;" xml:space="preserve">
<style type="text/css">
	.st0{fill:#B4B9BF;}
</style>
<g id="그룹_137" transform="translate(-129.667 -54)">
	<path id="패스_74" class="st0" d="M149.8,99h-4.3v-9.2h1.2v8.1h3.3c0.8,0.1,1.5-0.2,2.1-0.6v-7.7h1.2v4.1h1.6v1h-1.6v4.9h-1.2
		v-1.3C151.5,98.8,150.7,99,149.8,99z M156.2,92.8c-0.1-0.9,0.3-1.8,0.9-2.5c0.5-0.4,1.1-0.6,1.8-0.6c0.7,0,1.3,0.2,1.8,0.6
		c0.7,0.7,1,1.6,0.9,2.5c0.1,0.9-0.3,1.9-0.9,2.5c-0.5,0.4-1.1,0.6-1.8,0.6c-0.7,0-1.3-0.2-1.8-0.6
		C156.5,94.7,156.2,93.8,156.2,92.8L156.2,92.8z M157.4,92.8c-0.1,0.6,0.1,1.2,0.5,1.7c0.3,0.2,0.6,0.4,1,0.4c0.4,0,0.7-0.1,1-0.4
		c0.4-0.5,0.6-1.1,0.5-1.7c0.1-0.6-0.1-1.2-0.5-1.7c-0.3-0.2-0.6-0.4-1-0.4c-0.4,0-0.7,0.1-1,0.4C157.6,91.6,157.4,92.2,157.4,92.8
		L157.4,92.8z M164.2,89.7v10H163v-1.1c-0.7,0.5-1.6,0.7-2.4,0.6h-4.6v-1h4.9c0.7,0.1,1.5-0.1,2.1-0.5v-7.9H164.2z M133.6,109.4
		c0-1.6-0.1-2.7-0.5-3.3c-0.2-0.3-0.5-0.4-0.9-0.4c-0.3,0-0.7,0.1-0.9,0.4c-0.5,1-0.6,2.2-0.5,3.3c-0.1,1.1,0.1,2.2,0.5,3.3
		c0.2,0.3,0.5,0.4,0.9,0.4c0.3,0,0.7-0.1,0.9-0.4C133.5,112.1,133.6,111,133.6,109.4z M129.7,109.4c0-1.8,0.2-3.2,0.8-3.9
		c0.4-0.5,1.1-0.8,1.8-0.8c0.7,0,1.3,0.3,1.8,0.8c0.3,0.4,0.5,0.9,0.6,1.4h1.9v-2.2h1.2v10h-1.2v-3h-1.9c-0.1,0.6-0.3,1.2-0.7,1.7
		c-0.4,0.5-1.1,0.8-1.8,0.8c-0.7,0-1.3-0.2-1.8-0.8C129.8,112.5,129.7,111.2,129.7,109.4z M134.8,107.9c0,0.5,0.1,0.9,0.1,1.5
		c0,0.4,0,0.9,0,1.2h1.8v-2.7H134.8z M144.5,106.3H140v-1h1.7v-1h1.2v1h1.6L144.5,106.3z M141.3,108.7c0,0.3,0.1,0.6,0.3,0.7
		c0.2,0.1,0.4,0.2,0.6,0.2c0.2,0,0.4-0.1,0.6-0.2c0.2-0.2,0.3-0.5,0.3-0.7c0-0.3-0.1-0.6-0.3-0.7c-0.2-0.1-0.4-0.2-0.6-0.2
		c-0.2,0-0.5,0.1-0.6,0.2C141.4,108.2,141.3,108.4,141.3,108.7z M140.2,108.7c0-0.6,0.2-1.1,0.7-1.4c0.4-0.3,0.9-0.5,1.4-0.5
		c0.5,0,1,0.1,1.4,0.4c0.4,0.3,0.7,0.9,0.7,1.4c0,0.6-0.3,1.2-0.8,1.5c-0.4,0.3-0.8,0.4-1.3,0.4c-0.5,0-0.9-0.1-1.3-0.4
		C140.5,109.9,140.2,109.3,140.2,108.7z M148.5,110.7h-1.2v-2.6h-1.1v2.4h-1.1v-5.8h1.1v2.4h1.1v-2.5h1.2V110.7z M140.7,113
		c0-0.6,0.3-1.1,0.8-1.3c1-0.4,2.1-0.6,3.2-0.6c1.1-0.1,2.2,0.1,3.2,0.6c0.5,0.3,0.8,0.8,0.8,1.3c0,0.6-0.3,1.1-0.8,1.3
		c-1,0.4-2.1,0.6-3.2,0.6c-1.1,0.1-2.2-0.1-3.2-0.6C141.1,114.1,140.7,113.6,140.7,113L140.7,113z M141.9,113c0,0.2,0.2,0.4,0.4,0.5
		c0.8,0.3,1.6,0.4,2.4,0.4c0.8,0.1,1.6-0.1,2.4-0.4c0.2-0.1,0.3-0.3,0.4-0.5c0-0.2-0.2-0.4-0.4-0.5c-0.8-0.3-1.6-0.4-2.4-0.4
		c-0.8-0.1-1.6,0.1-2.4,0.4C142.1,112.6,142,112.8,141.9,113L141.9,113z M155,108.1c-1,1.5-2.5,2.4-4.3,2.7v-1.1
		c2.3-0.5,3.7-1.9,3.7-4.1v-0.8h1.2v0.8c0,2.2,1.4,3.6,3.7,4.1v1.1C157.5,110.5,156,109.6,155,108.1z M150.6,114.2v-1h8.9v1
		L150.6,114.2z M164.2,110.3h-2.9v-5.5h3.7v1h-2.6v1.3h2.5v1h-2.5v1.3h1.9c0.6,0.1,1.3-0.1,1.8-0.4v-4.2h1.1v2.3h1.1v-2.4h1.2v6
		h-1.2v-2.5h-1.1v2.5h-1.1v-0.8C165.6,110.2,164.9,110.4,164.2,110.3z M162.1,114.7v-3.5h7.5v3.5H162.1z M168.4,112.2h-5.2v1.5h5.2
		V112.2z M178.4,109.6h1.8v1.1H172v-1.1h1.5v-3.7h-1.3v-1.1h7.8v1.1h-1.3v1.7C178.7,108.3,178.6,108.9,178.4,109.6z M174.7,105.9
		v3.7h2.5c0.2-0.6,0.3-1.2,0.3-1.9v-1.8H174.7z M171.7,114.2v-1h8.9v1L171.7,114.2z"/>
	<path id="workspace_premium_FILL1_wght400_GRAD-25_opsz40" class="st0" d="M153.5,68.8l1.9-1.4l1.9,1.4c0.2,0.2,0.5,0.2,0.7,0
		c0.2-0.1,0.3-0.4,0.2-0.6l-0.7-2.3l1.9-1.5c0.2-0.2,0.3-0.5,0.1-0.8c-0.1-0.1-0.3-0.2-0.4-0.2h-2.3l-0.8-2.5
		c-0.1-0.3-0.4-0.4-0.7-0.4c-0.2,0.1-0.3,0.2-0.4,0.4l-0.8,2.5h-2.4c-0.3,0-0.5,0.2-0.6,0.5c0,0.2,0.1,0.4,0.2,0.5l1.9,1.5l-0.7,2.3
		c-0.1,0.2,0,0.5,0.2,0.6C153.1,69,153.4,69,153.5,68.8z M148.8,82c-0.3,0.1-0.7,0.1-1-0.1c-0.3-0.2-0.5-0.6-0.4-0.9v-8.9
		c-0.9-1-1.7-2.2-2.1-3.4c-0.4-1.2-0.7-2.5-0.7-3.8c-0.1-5.9,4.6-10.8,10.5-10.9c0.1,0,0.2,0,0.3,0c5.9-0.1,10.8,4.6,10.9,10.5
		c0,0.1,0,0.2,0,0.3c0,1.3-0.2,2.6-0.7,3.8c-0.5,1.3-1.2,2.5-2.1,3.4V81c0,0.4-0.2,0.7-0.4,0.9c-0.3,0.2-0.7,0.3-1,0.1l-6.6-2.2
		L148.8,82z M155.4,73.5c2.3,0,4.5-0.9,6.2-2.5c1.7-1.6,2.6-3.8,2.5-6.1c0-2.3-0.9-4.5-2.5-6.2c-1.6-1.7-3.8-2.6-6.2-2.5
		c-2.3,0-4.5,0.9-6.2,2.5c-1.7,1.6-2.6,3.8-2.5,6.2c0,2.3,0.9,4.5,2.5,6.1C150.9,72.6,153.1,73.5,155.4,73.5L155.4,73.5z"/>
</g>
</svg>
