<svg xmlns="http://www.w3.org/2000/svg" width="50.875" height="60.88" viewBox="0 0 50.875 60.88">
  <g id="그룹_137" data-name="그룹 137" transform="translate(-129.667 -54)">
    <path id="패스_74" data-name="패스 74" d="M-5.181-.022H-9.449V-9.207h1.188v8.14h3.3a3.205,3.205,0,0,0,2.112-.594V-9.328h1.2v4.07H-.088v1.045H-1.65V.649h-1.2V-.693A3.411,3.411,0,0,1-5.181-.022Zm6.4-6.138a3.212,3.212,0,0,1,.935-2.508,2.756,2.756,0,0,1,1.793-.605,2.756,2.756,0,0,1,1.793.605A3.138,3.138,0,0,1,6.677-6.16a3.153,3.153,0,0,1-.935,2.508,2.756,2.756,0,0,1-1.793.605,2.756,2.756,0,0,1-1.793-.605A3.228,3.228,0,0,1,1.221-6.16Zm1.2,0a2.3,2.3,0,0,0,.528,1.7,1.4,1.4,0,0,0,1,.363,1.347,1.347,0,0,0,1-.363,2.3,2.3,0,0,0,.539-1.7A2.348,2.348,0,0,0,4.95-7.876a1.342,1.342,0,0,0-1-.352,1.393,1.393,0,0,0-1,.352A2.347,2.347,0,0,0,2.42-6.16ZM9.152-9.328V.649h-1.2V-.484A3.79,3.79,0,0,1,5.522.077H.88V-.946H5.83a3.376,3.376,0,0,0,2.123-.517V-9.328ZM-21.362,10.391c0-1.584-.11-2.739-.528-3.267a1.03,1.03,0,0,0-.869-.418,1.059,1.059,0,0,0-.869.418,6.347,6.347,0,0,0-.517,3.267,6.422,6.422,0,0,0,.517,3.278,1.1,1.1,0,0,0,.869.4,1.073,1.073,0,0,0,.869-.4C-21.472,13.13-21.362,11.975-21.362,10.391Zm-3.971,0c0-1.8.176-3.157.814-3.938a2.182,2.182,0,0,1,1.76-.781,2.2,2.2,0,0,1,1.771.781,3.308,3.308,0,0,1,.616,1.419h1.925v-2.2h1.2v9.977h-1.2V12.668h-1.881a3.586,3.586,0,0,1-.66,1.661,2.188,2.188,0,0,1-1.771.759,2.166,2.166,0,0,1-1.76-.759C-25.157,13.548-25.333,12.195-25.333,10.391Zm5.1-1.474c.044.451.055.946.055,1.474,0,.44-.011.858-.033,1.243h1.76V8.917Zm9.713-1.606h-4.455V6.343H-13.3V5.386h1.177v.957h1.606ZM-13.684,9.7a.952.952,0,0,0,.33.737,1.023,1.023,0,0,0,.627.209.969.969,0,0,0,.616-.209A.942.942,0,0,0-11.77,9.7a.9.9,0,0,0-.341-.726.962.962,0,0,0-.616-.2.976.976,0,0,0-.638.22A.891.891,0,0,0-13.684,9.7Zm-1.1,0a1.739,1.739,0,0,1,.66-1.419,2.192,2.192,0,0,1,1.4-.451,2.195,2.195,0,0,1,1.364.429A1.748,1.748,0,0,1-10.67,9.7a1.755,1.755,0,0,1-.759,1.507,2.228,2.228,0,0,1-1.3.363,2.244,2.244,0,0,1-1.309-.374A1.78,1.78,0,0,1-14.784,9.7Zm8.261,2.046H-7.678V9.17h-1.1v2.4H-9.911V5.738h1.133V8.125h1.1V5.672h1.155Zm-7.733,2.266a1.445,1.445,0,0,1,.814-1.32,6.79,6.79,0,0,1,3.157-.561,6.82,6.82,0,0,1,3.157.561,1.454,1.454,0,0,1,.8,1.32,1.466,1.466,0,0,1-.8,1.32,6.833,6.833,0,0,1-3.157.55,6.8,6.8,0,0,1-3.157-.55A1.457,1.457,0,0,1-14.256,14.01Zm1.188,0a.6.6,0,0,0,.363.506,5.7,5.7,0,0,0,2.42.363,5.608,5.608,0,0,0,2.409-.363.6.6,0,0,0,.363-.506.624.624,0,0,0-.363-.517,5.642,5.642,0,0,0-2.409-.352,5.733,5.733,0,0,0-2.42.352A.624.624,0,0,0-13.068,14.01ZM-.011,9.1a6.055,6.055,0,0,1-4.257,2.684V10.721C-1.991,10.2-.616,8.785-.616,6.607V5.793H.572v.814c0,2.178,1.408,3.6,3.674,4.114v1.067A6.079,6.079,0,0,1-.011,9.1Zm-4.422,6.1V14.175H4.422v1.034ZM9.229,11.293H6.336v-5.5h3.729v.979H7.491V8.037H9.944V9H7.491v1.32H9.383A3.067,3.067,0,0,0,11.209,9.9V5.738h1.133V8.059h1.1V5.672H14.6v5.984H13.442V9.115h-1.1V11.59H11.209v-.77A2.979,2.979,0,0,1,9.229,11.293ZM7.051,15.748v-3.52H14.6v3.52Zm6.358-2.5H8.25v1.485h5.159ZM23.4,10.567h1.8v1.056H17.028V10.567H18.5V6.9H17.2V5.848h7.821V6.9H23.716V8.6A5.163,5.163,0,0,1,23.4,10.567ZM19.712,6.9v3.663h2.53a5.053,5.053,0,0,0,.275-1.859V6.9Zm-3.025,8.305V14.175h8.855v1.034Z" transform="translate(155 99)" fill="#0068b7"/>
    <path id="workspace_premium_FILL1_wght400_GRAD-25_opsz40" d="M15.869,18.453l1.9-1.417,1.866,1.417a.5.5,0,0,0,.674.035.5.5,0,0,0,.191-.622l-.692-2.316,1.936-1.487A.536.536,0,0,0,21.4,13.1h-2.35l-.761-2.455a.544.544,0,0,0-1.037,0L16.491,13.1h-2.35a.536.536,0,0,0-.346.967l1.936,1.487-.692,2.316a.5.5,0,0,0,.191.622A.46.46,0,0,0,15.869,18.453Zm-4.7,13.2a1,1,0,0,1-1-.121,1.07,1.07,0,0,1-.449-.916V21.737A9.9,9.9,0,0,1,7.591,18.3a11.264,11.264,0,0,1-.674-3.819A10.685,10.685,0,0,1,17.77,3.625,10.685,10.685,0,0,1,28.623,14.478a11.264,11.264,0,0,1-.674,3.819,9.9,9.9,0,0,1-2.126,3.439V30.62a1.07,1.07,0,0,1-.449.916,1,1,0,0,1-1,.121l-6.6-2.212Zm6.6-8.538a8.4,8.4,0,0,0,6.153-2.506,8.316,8.316,0,0,0,2.523-6.135,8.371,8.371,0,0,0-2.523-6.152A8.372,8.372,0,0,0,17.77,5.8a8.372,8.372,0,0,0-6.153,2.523,8.371,8.371,0,0,0-2.523,6.152,8.316,8.316,0,0,0,2.523,6.135A8.4,8.4,0,0,0,17.77,23.119Z" transform="translate(137.651 50.375)" fill="#0068b7"/>
  </g>
</svg>
