<svg id="레이어_1" data-name="레이어 1" xmlns="http://www.w3.org/2000/svg" viewBox="0 0 50.88 60.88"><title>대지 1</title><g id="그룹_137" data-name="그룹 137"><path id="패스_74" data-name="패스 74" d="M20.15,45H15.88V35.79h1.19v8.14h3.3a3.18,3.18,0,0,0,2.11-.59V35.67h1.2v4.07h1.56v1H23.68v4.86h-1.2V44.31A3.42,3.42,0,0,1,20.15,45Zm6.4-6.14a3.22,3.22,0,0,1,.94-2.51,3,3,0,0,1,3.58,0A3.15,3.15,0,0,1,32,38.84a3.15,3.15,0,0,1-.94,2.51,3,3,0,0,1-3.58,0,3.26,3.26,0,0,1-.94-2.51Zm1.2,0a2.29,2.29,0,0,0,.53,1.7,1.57,1.57,0,0,0,2,0,2.28,2.28,0,0,0,.54-1.7,2.34,2.34,0,0,0-.54-1.72,1.35,1.35,0,0,0-1-.35,1.43,1.43,0,0,0-1,.35,2.43,2.43,0,0,0-.53,1.72Zm6.73-3.17v10h-1.2V44.52a3.82,3.82,0,0,1-2.43.56H26.21v-1h4.95a3.39,3.39,0,0,0,2.13-.51V35.67ZM4,55.39c0-1.58-.11-2.74-.53-3.27a1,1,0,0,0-.87-.41,1.06,1.06,0,0,0-.87.41,6.45,6.45,0,0,0-.51,3.27,6.47,6.47,0,0,0,.51,3.28,1.1,1.1,0,0,0,.87.4,1.08,1.08,0,0,0,.87-.4C3.86,58.13,4,57,4,55.39Zm-4,0c0-1.8.18-3.16.81-3.94a2.21,2.21,0,0,1,1.76-.78,2.18,2.18,0,0,1,1.77.78A3.29,3.29,0,0,1,5,52.87H6.89v-2.2h1.2v10H6.89v-3H5a3.49,3.49,0,0,1-.66,1.66,2.2,2.2,0,0,1-1.77.76,2.2,2.2,0,0,1-1.76-.76C.18,58.55,0,57.19,0,55.39Zm5.1-1.47c0,.45.05.94.05,1.47s0,.86,0,1.24H6.88V53.92Zm9.71-1.61H10.36v-1H12v-1h1.18v1h1.61ZM11.65,54.7a1,1,0,0,0,.33.74,1.08,1.08,0,0,0,.63.21,1,1,0,0,0,.61-.21.93.93,0,0,0,.34-.74.91.91,0,0,0-.34-.73,1,1,0,0,0-.61-.2A1,1,0,0,0,12,54,.9.9,0,0,0,11.65,54.7Zm-1.1,0a1.74,1.74,0,0,1,.66-1.42,2.14,2.14,0,0,1,1.4-.45,2.2,2.2,0,0,1,1.36.43,1.86,1.86,0,0,1-.07,3,2.21,2.21,0,0,1-1.3.36,2.34,2.34,0,0,1-1.31-.37A1.79,1.79,0,0,1,10.55,54.7Zm8.26,2H17.65V54.17h-1.1v2.4H15.42V50.74h1.13v2.39h1.1V50.67h1.16ZM11.08,59a1.45,1.45,0,0,1,.81-1.32,6.85,6.85,0,0,1,3.16-.56,6.81,6.81,0,0,1,3.15.56,1.49,1.49,0,0,1,0,2.64,6.8,6.8,0,0,1-3.15.55,6.85,6.85,0,0,1-3.16-.55A1.45,1.45,0,0,1,11.08,59Zm1.18,0a.6.6,0,0,0,.37.51,5.69,5.69,0,0,0,2.42.36,5.66,5.66,0,0,0,2.41-.36.61.61,0,0,0,.36-.51.66.66,0,0,0-.36-.52,5.66,5.66,0,0,0-2.41-.35,5.7,5.7,0,0,0-2.42.35.65.65,0,0,0-.37.52ZM25.32,54.1a6,6,0,0,1-4.26,2.68V55.72c2.28-.52,3.66-1.94,3.66-4.11v-.82H25.9v.82c0,2.17,1.41,3.6,3.68,4.11v1.07A6.1,6.1,0,0,1,25.32,54.1ZM20.9,60.2v-1h8.85v1Zm13.66-3.91H31.67v-5.5H35.4v1H32.82V53h2.46v1H32.82v1.32h1.9a3.07,3.07,0,0,0,1.82-.42V50.74h1.13v2.32h1.1V50.67h1.16v6H38.77V54.11h-1.1v2.48H36.54v-.77A2.94,2.94,0,0,1,34.56,56.29Zm-2.18,4.46V57.23h7.55v3.52Zm6.36-2.5H33.58v1.48h5.16Zm10-2.68h1.8v1H42.36v-1h1.47V51.9h-1.3v-1h7.82v1h-1.3v1.7A5.1,5.1,0,0,1,48.73,55.57ZM45,51.9v3.66h2.53a4.86,4.86,0,0,0,.28-1.86V51.9Zm-3,8.3v-1h8.85v1Z" fill="#0068b7"/><path id="workspace_premium_FILL1_wght400_GRAD-25_opsz40" data-name="workspace premium FILL1 wght400 GRAD-25 opsz40" d="M23.85,14.83l1.9-1.42,1.87,1.42a.54.54,0,0,0,.86-.59l-.69-2.32,1.94-1.48a.54.54,0,0,0,.1-.75.52.52,0,0,0-.45-.21H27L26.27,7a.53.53,0,0,0-.68-.35.51.51,0,0,0-.35.35l-.77,2.46H22.12a.53.53,0,0,0-.56.5.52.52,0,0,0,.22.46l1.93,1.49L23,14.25a.51.51,0,0,0,.19.62A.47.47,0,0,0,23.85,14.83ZM19.15,28a1,1,0,0,1-1-.12A1.11,1.11,0,0,1,17.7,27V18.11a10.14,10.14,0,0,1-2.13-3.44,11.24,11.24,0,0,1-.67-3.81A10.69,10.69,0,0,1,25.41,0h.34A10.69,10.69,0,0,1,36.61,10.51v.34a11.26,11.26,0,0,1-.68,3.82,10,10,0,0,1-2.12,3.44V27a1.09,1.09,0,0,1-.45.91,1,1,0,0,1-1,.12l-6.6-2.21Zm6.6-8.54A8.38,8.38,0,0,0,31.91,17a8.29,8.29,0,0,0,2.52-6.13A8.39,8.39,0,0,0,31.91,4.7a8.35,8.35,0,0,0-6.16-2.52A8.33,8.33,0,0,0,19.6,4.7a8.35,8.35,0,0,0-2.52,6.15,8.57,8.57,0,0,0,8.67,8.64Z" fill="#0068b7"/></g></svg>