<svg xmlns="http://www.w3.org/2000/svg" width="226.252" height="83.965" viewBox="0 0 226.252 83.965">
  <g id="그룹_138"  transform="translate(-100.332 -95.46)">
    <path id="패스_80"  d="M-103.028-4.237c0-2.413-1.444-3.876-3.952-4.389l-1.805-.38c-1.444-.3-2.109-.855-2.109-1.976s.779-1.919,2.261-1.919c1.463,0,2.261.8,2.261,1.919v.209h2.793v-.209c0-2.3-1.729-4.275-5.054-4.275s-5.035,1.957-5.035,4.294c0,2.451,1.5,3.8,3.933,4.294l1.824.38C-106.5-6-105.8-5.244-105.8-4.142c0,1.254-.969,2.109-2.546,2.109s-2.546-.855-2.546-2.109v-.323h-2.774v.247c0,2.66,1.976,4.522,5.32,4.522C-104.985.3-103.028-1.577-103.028-4.237ZM-93.661.038h2.85V-14.991h-2.755V-4.769l-5.282-10.222h-2.85V.038h2.755v-10.2Zm15.01-4.275c0-2.413-1.444-3.876-3.952-4.389l-1.805-.38c-1.444-.3-2.109-.855-2.109-1.976s.779-1.919,2.261-1.919c1.463,0,2.261.8,2.261,1.919v.209H-79.2v-.209c0-2.3-1.729-4.275-5.054-4.275s-5.035,1.957-5.035,4.294c0,2.451,1.5,3.8,3.933,4.294l1.824.38c1.406.285,2.109,1.045,2.109,2.147,0,1.254-.969,2.109-2.546,2.109s-2.546-.855-2.546-2.109v-.323h-2.774v.247c0,2.66,1.976,4.522,5.32,4.522C-80.608.3-78.651-1.577-78.651-4.237Zm12.616-9.519h-5.871V-16h8.474v1.5c0,5.643-3,8.417-8.873,9.063V-7.7C-68.049-8.265-66.035-10.393-66.035-13.756ZM-58-11.647h2.413v2.261H-58v5.415h-2.6V-16.207H-58ZM-68.372-.95h10.678V1.311H-70.975V-4.864h2.6ZM-46.5-6.365h-7.733V-16h8.683v2.242h-6.1v5.149H-45.8a4.829,4.829,0,0,0,2.869-.608v-6.992h2.6v4.56h2.413v2.261h-2.413v5.415h-2.6V-7.106C-43.539-6.612-44.565-6.365-46.5-6.365ZM-50.7-.95h10.678V1.311H-53.3V-4.864h2.6Zm25.517-13.756H-21.5v2.223h-9.937v-2.223h3.648V-16.72h2.6Zm-5.776,6.954a3.768,3.768,0,0,1,1.482-3.1,4.968,4.968,0,0,1,3.021-.931,4.911,4.911,0,0,1,3,.931,3.768,3.768,0,0,1,1.482,3.1,3.768,3.768,0,0,1-1.482,3.1,4.6,4.6,0,0,1-1.691.779v1.9h2.337a4.666,4.666,0,0,0,3-.722V-16.207h2.6V1.235h-2.6V-.57a5.328,5.328,0,0,1-3.5.855h-8.417V-1.976h3.971v-1.9a4.221,4.221,0,0,1-1.729-.779A3.768,3.768,0,0,1-30.961-7.752Zm2.584,0a1.888,1.888,0,0,0,.57,1.368,1.977,1.977,0,0,0,1.349.475,1.927,1.927,0,0,0,1.33-.475,1.888,1.888,0,0,0,.57-1.368,1.888,1.888,0,0,0-.57-1.368,1.927,1.927,0,0,0-1.33-.475,1.977,1.977,0,0,0-1.349.475A1.888,1.888,0,0,0-28.377-7.752Zm14.725-5.187a2.836,2.836,0,0,1,1.064-2.3A6.145,6.145,0,0,1-8.769-16.3,6.145,6.145,0,0,1-4.95-15.238a2.892,2.892,0,0,1,1.064,2.3,2.864,2.864,0,0,1-1.064,2.3A6.031,6.031,0,0,1-8.769-9.557a6.031,6.031,0,0,1-3.819-1.083A2.81,2.81,0,0,1-13.652-12.939Zm2.47,0a1.045,1.045,0,0,0,.418.855,3.311,3.311,0,0,0,1.995.494,3.351,3.351,0,0,0,2-.494,1.029,1.029,0,0,0,.4-.855,1.029,1.029,0,0,0-.4-.855,3.36,3.36,0,0,0-2-.475,3.321,3.321,0,0,0-1.995.475A1.045,1.045,0,0,0-11.182-12.939ZM-8.2-6.8v2.641h-2.6V-6.8H-14.26V-8.949h8.854a10.637,10.637,0,0,0,2.527-.209v2.033a8.96,8.96,0,0,1-2.66.323ZM-2.119-3V-4.123H-5.748V-6.156h3.629V-16.207h2.6V-3ZM-12.664,1.425v-5.13h2.6V-.836H.788V1.425ZM10-12.084v-1.558H4V-15.9h8.569v3.515c0,6.631-2.394,11.1-8.664,12.673v-2.47C8.217-3.439,10-6.935,10-12.084ZM17.7-9.291H20.32v2.242H17.7V1.235H15.1V-16.207h2.6Zm3.762-2.432a4.381,4.381,0,0,1,1.615-3.648,4.794,4.794,0,0,1,3-.931,4.794,4.794,0,0,1,3,.931,4.381,4.381,0,0,1,1.615,3.648,4.42,4.42,0,0,1-1.615,3.667,4.794,4.794,0,0,1-3,.931,4.794,4.794,0,0,1-3-.931A4.42,4.42,0,0,1,21.46-11.723Zm2.546,0a2.464,2.464,0,0,0,.7,1.881,2.075,2.075,0,0,0,1.368.494,2.038,2.038,0,0,0,1.368-.494,2.464,2.464,0,0,0,.7-1.881,2.419,2.419,0,0,0-.7-1.862,2.038,2.038,0,0,0-1.368-.494,2.075,2.075,0,0,0-1.368.494A2.419,2.419,0,0,0,24.006-11.723Zm9.215,4.769v-9.253h2.6v9.253Zm0,.665h2.6V1.425H22.676V-6.289h2.6v1.824h7.942ZM25.279-2.242V-.8h7.942V-2.242Zm27.3-5.225A9.517,9.517,0,0,1,52.164-5l-3.99-4.56a3.143,3.143,0,0,1-1.007-2.128,1.269,1.269,0,0,1,1.406-1.33,1.26,1.26,0,0,1,1.406,1.33v.456h2.66v-.532c0-2.166-1.691-3.5-4.066-3.5s-4.066,1.33-4.066,3.5a5.019,5.019,0,0,0,1.52,3.42,4.613,4.613,0,0,0-2.622,4.218C43.405-1.444,45.362.3,48.459.3a5.74,5.74,0,0,0,4.009-1.33L53.4.038H56.61L54.1-2.831a10.484,10.484,0,0,0,1.14-4.636Zm-6.5,3.306a3.029,3.029,0,0,1,1.349-2.565l3.458,3.914a3.2,3.2,0,0,1-2.356.874A2.186,2.186,0,0,1,46.084-4.161ZM65.807-6.9H77.15v2.261H71.411v2.85h6.422V.475H62.33V-1.786h6.5v-2.85H63.2v-6.8H74.357v-2.2H63.2V-15.9H76.96v6.726H65.807Zm26.22-6.726H80.779V-15.9H94.63v5.757a33.867,33.867,0,0,1-.513,6.156H91.533A32.15,32.15,0,0,0,92.027-9.8ZM80-1.786H95.5V.475H80ZM97.916-11.21A5.252,5.252,0,0,1,99.4-15.276a4.615,4.615,0,0,1,3.135-1.026,4.582,4.582,0,0,1,3.135,1.026,5.252,5.252,0,0,1,1.482,4.066,5.224,5.224,0,0,1-1.482,4.066A4.5,4.5,0,0,1,102.534-6.1,4.531,4.531,0,0,1,99.4-7.144,5.224,5.224,0,0,1,97.916-11.21Zm2.546,0a3.408,3.408,0,0,0,.665,2.318,1.859,1.859,0,0,0,1.406.551,1.859,1.859,0,0,0,1.406-.551,3.408,3.408,0,0,0,.665-2.318,3.443,3.443,0,0,0-.665-2.318,1.859,1.859,0,0,0-1.406-.551,1.859,1.859,0,0,0-1.406.551A3.443,3.443,0,0,0,100.463-11.21Zm9.215,7.239V-16.207h2.6V-3.971ZM99.132,1.311V-4.864h2.6V-.95h10.849V1.311Z" transform="translate(214 178)" fill="#212025"/>
    <path id="패스_79"  d="M21.06-21.27a2.039,2.039,0,0,1,.675-1.65,2.581,2.581,0,0,1,1.725-.57,2.568,2.568,0,0,1,1.74.57,2.061,2.061,0,0,1,.66,1.65V2.13a2.061,2.061,0,0,1-.66,1.65,2.915,2.915,0,0,1-3.465,0,2.045,2.045,0,0,1-.675-1.653V-10.8H17.25a13.277,13.277,0,0,1-.69,3.387,7.628,7.628,0,0,1-1.485,2.574A6.383,6.383,0,0,1,12.78-3.212a8.025,8.025,0,0,1-3.15.572,7.9,7.9,0,0,1-3.45-.7,6.468,6.468,0,0,1-2.43-2A8.8,8.8,0,0,1,2.325-8.445,16.4,16.4,0,0,1,1.86-12.51a16.4,16.4,0,0,1,.465-4.065,8.8,8.8,0,0,1,1.425-3.1,6.468,6.468,0,0,1,2.43-2,7.9,7.9,0,0,1,3.45-.7,6.747,6.747,0,0,1,5.3,2.055A9.852,9.852,0,0,1,17.19-14.76h3.87ZM9.63-6.66a2.375,2.375,0,0,0,1.5-.465,3.15,3.15,0,0,0,.945-1.245,6.968,6.968,0,0,0,.495-1.845,16.486,16.486,0,0,0,.15-2.3,16.579,16.579,0,0,0-.15-2.28,6.981,6.981,0,0,0-.495-1.86A3.15,3.15,0,0,0,11.13-17.9a2.375,2.375,0,0,0-1.5-.465,2.375,2.375,0,0,0-1.5.465,3.15,3.15,0,0,0-.945,1.245,6.981,6.981,0,0,0-.5,1.86,16.579,16.579,0,0,0-.15,2.28,16.486,16.486,0,0,0,.15,2.3,6.968,6.968,0,0,0,.5,1.845A3.15,3.15,0,0,0,8.13-7.125,2.375,2.375,0,0,0,9.63-6.66ZM51.51-21.39a2.664,2.664,0,0,1,1.545.405,1.541,1.541,0,0,1,.585,1.365,1.541,1.541,0,0,1-.585,1.365,2.664,2.664,0,0,1-1.545.405H45.69a1.428,1.428,0,0,0,.69,1.05,7.446,7.446,0,0,0,1.65.87,17.692,17.692,0,0,0,2.19.69q1.2.3,2.34.51a1.817,1.817,0,0,1,1.26.825A1.882,1.882,0,0,1,54-12.42a1.565,1.565,0,0,1-.96,1.14,3.006,3.006,0,0,1-1.59.12,21.793,21.793,0,0,1-4.335-1.125A14.53,14.53,0,0,1,43.35-14.31a14.53,14.53,0,0,1-3.765,2.025A21.792,21.792,0,0,1,35.25-11.16a3.006,3.006,0,0,1-1.59-.12,1.565,1.565,0,0,1-.96-1.14,1.882,1.882,0,0,1,.18-1.485,1.817,1.817,0,0,1,1.26-.825q1.11-.21,2.31-.51a18.515,18.515,0,0,0,2.2-.69,7.36,7.36,0,0,0,1.665-.87,1.428,1.428,0,0,0,.69-1.05H35.19a2.664,2.664,0,0,1-1.545-.405,1.541,1.541,0,0,1-.585-1.365,1.541,1.541,0,0,1,.585-1.365,2.664,2.664,0,0,1,1.545-.405h5.76v-1.14a1.858,1.858,0,0,1,.63-1.44,2.545,2.545,0,0,1,1.77-.57,2.545,2.545,0,0,1,1.77.57,1.858,1.858,0,0,1,.63,1.44v1.14ZM41.04-10.89a1.586,1.586,0,0,1,.645-1.44,3,3,0,0,1,1.665-.42,3,3,0,0,1,1.665.42,1.586,1.586,0,0,1,.645,1.44v1.68h8.97a2.527,2.527,0,0,1,1.545.435,1.624,1.624,0,0,1,.585,1.4,1.666,1.666,0,0,1-.585,1.41,2.467,2.467,0,0,1-1.545.45H32.1a2.532,2.532,0,0,1-1.56-.45,1.648,1.648,0,0,1-.6-1.41,1.606,1.606,0,0,1,.6-1.4A2.6,2.6,0,0,1,32.1-9.21h8.94ZM33.39-2.52a1.73,1.73,0,0,1,.66-1.5,2.784,2.784,0,0,1,1.68-.48,2.852,2.852,0,0,1,1.695.48,1.715,1.715,0,0,1,.675,1.5v2.4a.292.292,0,0,0,.33.33h13.5a2.442,2.442,0,0,1,1.575.45,1.786,1.786,0,0,1,.555,1.47,1.74,1.74,0,0,1-.555,1.455,2.5,2.5,0,0,1-1.575.435H35.97A2.691,2.691,0,0,1,34,3.405,2.691,2.691,0,0,1,33.39,1.44ZM78.96-21.3a2,2,0,0,1,.675-1.62,2.581,2.581,0,0,1,1.725-.57,2.581,2.581,0,0,1,1.725.57,2,2,0,0,1,.675,1.62V2.16a2,2,0,0,1-.675,1.62,2.9,2.9,0,0,1-3.45,0,2,2,0,0,1-.675-1.62V-6.57H73.83a6.566,6.566,0,0,1-2.505,2.91A7.545,7.545,0,0,1,67.26-2.64a7.9,7.9,0,0,1-3.45-.7,6.468,6.468,0,0,1-2.43-2,8.8,8.8,0,0,1-1.425-3.105,16.4,16.4,0,0,1-.465-4.065,16.4,16.4,0,0,1,.465-4.065,8.8,8.8,0,0,1,1.425-3.1,6.468,6.468,0,0,1,2.43-2,7.9,7.9,0,0,1,3.45-.7,7.415,7.415,0,0,1,4.005,1,6.831,6.831,0,0,1,2.5,2.805h5.19ZM67.26-6.66a2.375,2.375,0,0,0,1.5-.465,3.15,3.15,0,0,0,.945-1.245,6.968,6.968,0,0,0,.495-1.845,16.486,16.486,0,0,0,.15-2.3,16.579,16.579,0,0,0-.15-2.28,6.981,6.981,0,0,0-.495-1.86A3.15,3.15,0,0,0,68.76-17.9a2.375,2.375,0,0,0-1.5-.465,2.375,2.375,0,0,0-1.5.465,3.15,3.15,0,0,0-.945,1.245,6.981,6.981,0,0,0-.495,1.86,16.579,16.579,0,0,0-.15,2.28,16.486,16.486,0,0,0,.15,2.3,6.968,6.968,0,0,0,.495,1.845,3.15,3.15,0,0,0,.945,1.245A2.375,2.375,0,0,0,67.26-6.66Zm7.71-5.85a17.242,17.242,0,0,1-.09,1.83h4.08v-3.81H74.85q.06.48.09.975T74.97-12.51Zm27.9,6.48a24.719,24.719,0,0,1,3.99.3,11.945,11.945,0,0,1,3.165.93,5.236,5.236,0,0,1,2.07,1.65,4.1,4.1,0,0,1,.735,2.46,4.1,4.1,0,0,1-.735,2.46,5.236,5.236,0,0,1-2.07,1.65,11.945,11.945,0,0,1-3.165.93,24.719,24.719,0,0,1-3.99.3,24.719,24.719,0,0,1-3.99-.3,11.945,11.945,0,0,1-3.165-.93,5.236,5.236,0,0,1-2.07-1.65A4.1,4.1,0,0,1,92.91-.69a4.1,4.1,0,0,1,.735-2.46,5.236,5.236,0,0,1,2.07-1.65,11.945,11.945,0,0,1,3.165-.93A24.719,24.719,0,0,1,102.87-6.03Zm.09-15.15a1.946,1.946,0,0,1,.555-1.485,2.115,2.115,0,0,1,1.515-.525,2.115,2.115,0,0,1,1.515.525,1.946,1.946,0,0,1,.555,1.485v4.08h1.56v-4.35a1.967,1.967,0,0,1,.57-1.5,2.133,2.133,0,0,1,1.53-.54,2.08,2.08,0,0,1,1.515.54,2,2,0,0,1,.555,1.5V-8.37a1.946,1.946,0,0,1-.555,1.485,2.115,2.115,0,0,1-1.515.525,2.17,2.17,0,0,1-1.53-.525,1.918,1.918,0,0,1-.57-1.485v-5.19H107.1v4.29a1.946,1.946,0,0,1-.555,1.485,2.115,2.115,0,0,1-1.515.525,2.115,2.115,0,0,1-1.515-.525,1.946,1.946,0,0,1-.555-1.485ZM88.89-11.94a4.639,4.639,0,0,1,.51-2.235,4.564,4.564,0,0,1,1.365-1.56,6.039,6.039,0,0,1,1.95-.915,8.648,8.648,0,0,1,2.295-.3,8.648,8.648,0,0,1,2.3.3,6.039,6.039,0,0,1,1.95.915,4.564,4.564,0,0,1,1.365,1.56,4.639,4.639,0,0,1,.51,2.235,4.639,4.639,0,0,1-.51,2.235,4.564,4.564,0,0,1-1.365,1.56,6.039,6.039,0,0,1-1.95.915,8.648,8.648,0,0,1-2.3.3,8.648,8.648,0,0,1-2.295-.3,6.039,6.039,0,0,1-1.95-.915A4.564,4.564,0,0,1,89.4-9.7,4.639,4.639,0,0,1,88.89-11.94Zm.87-5.88a3.281,3.281,0,0,1-1.6-.33,1.415,1.415,0,0,1-.585-1.35,1.415,1.415,0,0,1,.585-1.35,3.281,3.281,0,0,1,1.6-.33h3.03v-1.29a1.943,1.943,0,0,1,.6-1.545,2.374,2.374,0,0,1,1.62-.525,2.374,2.374,0,0,1,1.62.525,1.943,1.943,0,0,1,.6,1.545v1.29h2.58a3.281,3.281,0,0,1,1.605.33A1.415,1.415,0,0,1,102-19.5a1.415,1.415,0,0,1-.585,1.35,3.281,3.281,0,0,1-1.605.33ZM102.87.99q.93,0,1.845-.06A9.278,9.278,0,0,0,106.35.69a3.332,3.332,0,0,0,1.17-.51,1.029,1.029,0,0,0,.45-.87,1.029,1.029,0,0,0-.45-.87,3.332,3.332,0,0,0-1.17-.51,9.278,9.278,0,0,0-1.635-.24q-.915-.06-1.845-.06t-1.845.06a9.278,9.278,0,0,0-1.635.24,3.332,3.332,0,0,0-1.17.51,1.029,1.029,0,0,0-.45.87,1.029,1.029,0,0,0,.45.87,3.332,3.332,0,0,0,1.17.51,9.278,9.278,0,0,0,1.635.24Q101.94.99,102.87.99ZM97.02-11.94a1.668,1.668,0,0,0-.57-1.35,2.159,2.159,0,0,0-1.44-.48,2.159,2.159,0,0,0-1.44.48A1.668,1.668,0,0,0,93-11.94a1.668,1.668,0,0,0,.57,1.35,2.159,2.159,0,0,0,1.44.48,2.159,2.159,0,0,0,1.44-.48A1.668,1.668,0,0,0,97.02-11.94Z" transform="translate(156 120)" fill="#0068b7"/>
  </g>
</svg>
