<svg xmlns="http://www.w3.org/2000/svg" width="226.664" height="74.19" viewBox="0 0 226.664 74.19">
  <g id="그룹_136" data-name="그룹 136" transform="translate(-35.368 -91.85)">
    <path id="패스_78" data-name="패스 78" d="M2.431-6.461H5.915v-4.277h1.04V-.13H1.391V-10.738h1.04ZM5.915-1.027V-5.551H2.431v4.524Zm4.524-9.919v4.888h1.9v.91h-1.9V.689H9.4V-10.946ZM18.889-.13H13.871V-10.738h5.486v.91H14.911v8.8h4.147a4.117,4.117,0,0,0,2.821-.884v-9.035h1.04v4.888h1.9v.91h-1.9V.689h-1.04V-1.04A4.3,4.3,0,0,1,18.889-.13Zm7.488-7.332a3.592,3.592,0,0,1,1.04-2.73,3.048,3.048,0,0,1,2.041-.689,3.144,3.144,0,0,1,2.067.689,3.634,3.634,0,0,1,1.027,2.73,3.614,3.614,0,0,1-1.027,2.73,2.882,2.882,0,0,1-1.56.663V-.9h1.7a4.231,4.231,0,0,0,2.691-.741v-9.308H35.4v4.888h1.9v.91H35.4V.676h-1.04V-.754a4.408,4.408,0,0,1-2.847.767H26.065V-.9h2.86V-4.082a2.758,2.758,0,0,1-1.508-.65A3.572,3.572,0,0,1,26.377-7.462Zm1.04,0a2.876,2.876,0,0,0,.637,1.989,1.922,1.922,0,0,0,1.4.533,1.881,1.881,0,0,0,1.4-.533,2.818,2.818,0,0,0,.65-1.989,2.762,2.762,0,0,0-.65-1.976,1.925,1.925,0,0,0-1.4-.52,1.968,1.968,0,0,0-1.4.52A2.818,2.818,0,0,0,27.417-7.462ZM45.461-3.471A5.334,5.334,0,0,1,42.094-.117v-.962c1.456-.663,2.834-1.976,2.834-5.187v-4.55h1.053v4.55c0,3.211,1.391,4.485,2.834,5.187v.962A5.5,5.5,0,0,1,45.461-3.471Zm6.2-7.475v4.888h1.9v.91h-1.9V.689h-1.04V-10.946Zm8.554,6.383H54.938V-8.151H59.4V-9.932H54.938v-.884H60.45V-7.28H55.978v1.833h4.485A4.332,4.332,0,0,0,63.1-6.084v-4.862h1.04V-8.1h1.781v.923H64.142v3.133H63.1V-5.252A4.5,4.5,0,0,1,60.216-4.563ZM55.614.819V-3.12h8.528V.819ZM63.1-2.21H56.654V-.078H63.1Zm4.342,3.874A1.341,1.341,0,0,0,68.8.156V-1.56H67.561V-.013h.6V.234a.756.756,0,0,1-.715.845ZM80.223-5.447c0-1.976-.182-3.393-.767-4.069a1.444,1.444,0,0,0-1.17-.52,1.526,1.526,0,0,0-1.183.52c-.559.676-.754,2.093-.754,4.069s.195,3.393.754,4.082a1.515,1.515,0,0,0,1.183.507,1.434,1.434,0,0,0,1.17-.507C80.041-2.054,80.223-3.484,80.223-5.447Zm-4.914,0c0-2.184.26-3.8,1.04-4.68a2.444,2.444,0,0,1,1.937-.819,2.463,2.463,0,0,1,1.937.819c.7.78.975,2.145,1.027,3.965h2.379v-4.784h1.053V.689H83.629V-5.265H81.263c-.013,2.08-.273,3.627-1.04,4.5a2.4,2.4,0,0,1-1.937.793,2.386,2.386,0,0,1-1.937-.793C75.569-1.664,75.309-3.276,75.309-5.447ZM88.231-9.23v-.884h3.9v-1.274h1.053v1.274h3.939v.884H93.184V-9.2c0,1.326,2.275,2.366,4.082,2.5v.884a6.711,6.711,0,0,1-4.6-2.067,6.579,6.579,0,0,1-4.615,2.067v-.884c1.794-.1,4.082-1.17,4.082-2.5V-9.23Zm-.793,5.772v-.91h4.693V-6.253h1.053v1.885h4.732v.91ZM89.271-2.34V-.156h8.086v.9H88.231V-2.34Zm15.873-3.939V-9.828h-4.706v-.91h5.746v4.3a16.77,16.77,0,0,1-.286,3.25h-1.027A16.9,16.9,0,0,0,105.144-6.279Zm-3.289-.143h1.053V-.9h2.717a4.231,4.231,0,0,0,2.691-.741v-9.308h1.04v4.888h1.9v.91h-1.9V.676h-1.04V-.754a4.408,4.408,0,0,1-2.847.767h-5.447V-.9h1.833Zm24.1-3.406H117.91V-5.3h8.151v.923h-4.095v3.64h4.628v.91H116.246v-.91h4.667v-3.64H116.87v-6.357h9.087Zm6.006,6.357A5.334,5.334,0,0,1,128.6-.117v-.962c1.469-.663,2.847-1.976,2.847-5.187v-4.55h1.04v4.55c0,3.211,1.391,4.485,2.834,5.187v.962A5.529,5.529,0,0,1,131.963-3.471Zm6.422-7.475V.676h-1.053V-10.946ZM9.737,11.279V8.172H1.625v-.91h9.152v3.887a21.873,21.873,0,0,1-.39,4.16H9.36A21.555,21.555,0,0,0,9.737,11.279Zm-8.671,6.89v-.91H11.414v.91Zm22.1-10.1H15.314V9.693h7.93v.871h-8.97V7.184h8.892Zm-9.685,4.6v-.884H23.959v.884ZM15.314,16.8v1.17h8.138v.845H14.274V15.946h7.852V14.763H14.274v-.845h8.892V16.8Zm15.912-4.251c0-1.976-.182-3.393-.767-4.069a1.444,1.444,0,0,0-1.17-.52,1.526,1.526,0,0,0-1.183.52c-.559.676-.754,2.093-.754,4.069s.195,3.393.754,4.082a1.515,1.515,0,0,0,1.183.507,1.434,1.434,0,0,0,1.17-.507C31.044,15.946,31.226,14.516,31.226,12.553Zm-4.914,0c0-2.184.26-3.8,1.04-4.68a2.7,2.7,0,0,1,3.874,0c.793.884,1.04,2.5,1.04,4.68s-.247,3.783-1.04,4.68a2.4,2.4,0,0,1-1.937.793,2.386,2.386,0,0,1-1.937-.793C26.572,16.336,26.312,14.724,26.312,12.553Zm9.373-5.5V18.676H34.632V7.054Zm6.773,6.305V7.184h5.577v6.175Zm4.55-5.265H43.485v4.381h3.523Zm4.654-1.04v3.289h1.781v.923H51.662v3.887h-1.04v-8.1Zm-7.488,7.878v2.912h7.709v.9H43.134V14.932ZM64.389,8.068H56.537V9.693h7.93v.871H55.5V7.184h8.892ZM54.7,12.67v-.884H65.182v.884ZM56.537,16.8v1.17h8.138v.845H55.5V15.946h7.852V14.763H55.5v-.845h8.892V16.8Zm15.912-4.251c0-1.976-.182-3.393-.767-4.069a1.444,1.444,0,0,0-1.17-.52,1.526,1.526,0,0,0-1.183.52c-.559.676-.754,2.093-.754,4.069s.195,3.393.754,4.082a1.515,1.515,0,0,0,1.183.507,1.434,1.434,0,0,0,1.17-.507C72.267,15.946,72.449,14.516,72.449,12.553Zm-4.914,0c0-2.184.26-3.8,1.04-4.68a2.7,2.7,0,0,1,3.874,0c.7.78.975,2.145,1.027,3.965h2.379V7.054h1.053V18.689H75.855V12.735H73.489c-.013,2.08-.273,3.627-1.04,4.5a2.762,2.762,0,0,1-3.874,0C67.8,16.336,67.535,14.724,67.535,12.553ZM83.1,17.87h-3V7.184H81.12v9.789h2.158a3.588,3.588,0,0,0,2.405-.7V7.119H86.7v4.732h1.846v-4.8h1.014V18.689H88.543V12.761H86.7v5.8H85.683v-1.43A3.643,3.643,0,0,1,83.1,17.87ZM93.977,7.119v3.016h7.93v.91h-8.97V7.119Zm-1.833,6.734v-.91h10.478v.91Zm1.833,1.3v2.691h8.086v.9H92.937V15.153Zm22.308-4.94h2.041v.871h-9.36v-.871h1.807V8.081H109.2v-.9h8.892v.9h-1.573v.975A2.6,2.6,0,0,1,116.285,10.213Zm-4.472-2.132v2.132h3.458a2.77,2.77,0,0,0,.208-1.092V8.081ZM108.407,13.4v-.91h10.478v.91h-4.732v1.391a7.39,7.39,0,0,1,3.315.689,1.6,1.6,0,0,1,.884,1.443,1.651,1.651,0,0,1-.884,1.456,7.925,7.925,0,0,1-3.809.663,7.984,7.984,0,0,1-3.822-.663,1.638,1.638,0,0,1-.871-1.456,1.59,1.59,0,0,1,.871-1.443,7.1,7.1,0,0,1,3.276-.676V13.4Zm1.612,3.523a.836.836,0,0,0,.455.728,10.014,10.014,0,0,0,6.37,0,.811.811,0,0,0,.455-.728.84.84,0,0,0-.455-.728,10.014,10.014,0,0,0-6.37,0A.867.867,0,0,0,110.019,16.921Zm11.3-6.357a3.017,3.017,0,0,1,1.105-2.418,7.276,7.276,0,0,1,7.41,0,3.017,3.017,0,0,1,1.1,2.418,2.937,2.937,0,0,1-1.1,2.405,4.094,4.094,0,0,1-.962.572v3.718H131.3v.91H120.952v-.91h2.509V13.567a3.883,3.883,0,0,1-1.04-.6A2.937,2.937,0,0,1,121.316,10.564Zm6.513,3.289a8.724,8.724,0,0,1-1.7.156,9.148,9.148,0,0,1-1.638-.143v3.393h3.341Zm-5.473-3.289a2.135,2.135,0,0,0,.806,1.716,5.877,5.877,0,0,0,5.941,0,2.088,2.088,0,0,0,.793-1.716,2.123,2.123,0,0,0-.793-1.716,5.96,5.96,0,0,0-5.941,0A2.172,2.172,0,0,0,122.356,10.564Zm12.844-.546v1.118h7.93v.819h-4.017v1.209h4.732v.871H133.367v-.871h4.693V11.955h-3.9V9.186h7.852V8.029H134.16V7.184h8.892v2.834Zm-1.04,4.862h1.04v1h6.812v-1h1.04v3.939H134.16Zm7.852,3.094V16.739H135.2v1.235Zm12.571-6.552V8.172h-8.112v-.91h9.152v3.965a20.99,20.99,0,0,1-.312,3.809h-1.027A22.083,22.083,0,0,0,154.583,11.422Zm-8.671,6.747v-.91h3.64V11.6h1.053v5.655h5.655v.91ZM166.1,6.69v.949h2.769v.767h-6.6V7.639h2.782V6.69Zm-2.548,3.77a.387.387,0,0,0,.2.325,5,5,0,0,0,3.614,0,.387.387,0,0,0,.195-.325.408.408,0,0,0-.195-.338,5,5,0,0,0-3.614,0A.408.408,0,0,0,163.553,10.46Zm-.988,0a1.02,1.02,0,0,1,.455-.845,6.158,6.158,0,0,1,5.07,0,1.012,1.012,0,0,1,0,1.69,4.016,4.016,0,0,1-2,.533v.9h1.9a4.871,4.871,0,0,0,2.522-.572V7.054h1.04V10.1h1.794v.923h-1.794v2.808h-1.04v-.91a4.661,4.661,0,0,1-2.769.611h-5.668v-.793h2.964v-.9a3.9,3.9,0,0,1-2.015-.533A1.02,1.02,0,0,1,162.565,10.46Zm1.5,6.578v1.014H171.7v.767H163.02V16.284h7.488v-.975H163.02v-.78h8.528v2.509ZM179.5,9.719V8.172h-4.42v-.91h5.46V9.615c0,4.407-1.716,7.332-5.538,8.346v-.975C178.035,16.076,179.5,13.541,179.5,9.719Zm4.81-2.665V18.676h-1.053V7.054ZM187.3,8.3h2.431V6.69h1.04V8.3h2.444v.9h-2.444v.52a3.235,3.235,0,0,0,2.652,3.328v.923a4.482,4.482,0,0,1-3.146-2.21,4.53,4.53,0,0,1-3.172,2.366V13.2a3.326,3.326,0,0,0,2.626-3.484V9.2H187.3Zm9.2-1.248v3.315h1.781v.923h-1.781v3.939h-1.04V7.054Zm-7.488,8.034v2.756h7.709v.9H187.98V15.088ZM205.751,15a5.058,5.058,0,0,1-2.613,2.873v-.962c1.2-.715,2.093-1.976,2.093-4.6V7.184h1.027v5.122c0,2.639.91,3.874,2.119,4.615v.962A5.284,5.284,0,0,1,205.751,15Zm4.849,3.562h-1.014V12.345H207.6v-.9h1.989V7.119H210.6Zm2.626.13h-1.014V7.054h1.014Zm6.2-11.57V8.64a3.635,3.635,0,0,0,2.769,3.6v.936a5.166,5.166,0,0,1-3.3-2.418,4.888,4.888,0,0,1-3.276,2.561v-.949a3.82,3.82,0,0,0,2.769-3.731V7.119Zm5.824-.065v2.7h1.781v.923h-1.781v2.99h-1.04V7.054Zm-8.684,9.516a1.87,1.87,0,0,1,.871-1.586,6.453,6.453,0,0,1,3.627-.845,6.377,6.377,0,0,1,3.614.845,1.87,1.87,0,0,1,.871,1.586,1.909,1.909,0,0,1-.871,1.6,6.506,6.506,0,0,1-3.614.806,6.583,6.583,0,0,1-3.627-.806A1.909,1.909,0,0,1,216.567,16.57Zm1.053,0a1.13,1.13,0,0,0,.559.936,5.4,5.4,0,0,0,2.886.572,5.548,5.548,0,0,0,2.9-.572,1.131,1.131,0,0,0,.533-.936,1.1,1.1,0,0,0-.533-.936,5.531,5.531,0,0,0-2.9-.585,5.384,5.384,0,0,0-2.886.585A1.1,1.1,0,0,0,217.62,16.57Z" transform="translate(35 147)" fill="#09a3ca"/>
    <path id="패스_77" data-name="패스 77" d="M13.4-12.673V-15.9H16V-5.225H10.45v3.439h6.422V.475H1.368V-1.786h6.5V-5.225H2.242V-15.9h2.6v3.23Zm0,2.28H4.845v2.888H13.4Zm17.67-3.23H19.817V-15.9H33.668v6.156A30.2,30.2,0,0,1,33.193-4.2H30.609a29.411,29.411,0,0,0,.456-5ZM19.038-1.786H24V-9.6h2.6v7.809h7.942V.475h-15.5ZM42.731-16h13.49v2.109H50.977c.7,1.007,3,1.539,5.434,1.634v2.09c-2.907-.114-5.586-.836-6.954-1.919-1.33,1.121-4.009,1.786-6.954,1.919v-2.09c2.394-.133,4.712-.608,5.415-1.634H42.731Zm-1.1,6.365H57.323v2.166H41.629ZM45.334-.684H56.62V1.425H42.731V-3.591H53.618v-.817H42.731V-6.517h13.49V-1.5H45.334Zm20.615-11.4v-1.558h-6V-15.9h8.588v3.515c0,6.631-2.394,11.1-8.683,12.673v-2.47C64.182-3.439,65.949-6.935,65.949-12.084ZM73.986,1.235h-2.6V-16.207h2.6ZM89.091-13.623H77.843V-15.9H91.694v6.156A30.2,30.2,0,0,1,91.219-4.2H88.635a29.411,29.411,0,0,0,.456-5ZM77.064-1.786h4.959V-9.6h2.6v7.809h7.942V.475h-15.5ZM100-16h8.683v9.025H100Zm2.546,2.223V-9.2h3.591v-4.579Zm11.362,1.71h2.413v2.28H113.9v4.56h-2.6V-16.207h2.6ZM107.5-1.349a11.247,11.247,0,0,1-7.011,2.774V-.817c3.686-.513,5.719-2.014,5.719-4.275v-.646h2.584v.646c0,2.261,2.033,3.762,5.719,4.275V1.425A11.247,11.247,0,0,1,107.5-1.349Zm21.945-11.324V-15.9h2.6V-5.225H126.5v3.439h6.422V.475h-15.5V-1.786h6.5V-5.225h-5.624V-15.9h2.6v3.23Zm0,2.28H120.9v2.888h8.55Zm17.67-3.23H135.869V-15.9H149.72v6.156a30.2,30.2,0,0,1-.475,5.548h-2.584a29.41,29.41,0,0,0,.456-5ZM135.09-1.786h4.959V-9.6h2.6v7.809h7.942V.475h-15.5Z" transform="translate(34 120)" fill="#09a3ca"/>
    <path id="temp_preferences_custom_FILL1_wght400_GRAD0_opsz48" d="M38.6,16.25l-2.15-5-5.2-2.3,5.2-2.25L38.6,1.95,40.75,6.7l5.2,2.25-5.2,2.3Z" transform="translate(152.4 89.9)" fill="#c5d944"/>
  </g>
</svg>
