<svg xmlns="http://www.w3.org/2000/svg" width="226.252" height="18.145" viewBox="0 0 226.252 18.145">
  <path id="패스_80"  d="M-103.028-4.237c0-2.413-1.444-3.876-3.952-4.389l-1.805-.38c-1.444-.3-2.109-.855-2.109-1.976s.779-1.919,2.261-1.919c1.463,0,2.261.8,2.261,1.919v.209h2.793v-.209c0-2.3-1.729-4.275-5.054-4.275s-5.035,1.957-5.035,4.294c0,2.451,1.5,3.8,3.933,4.294l1.824.38C-106.5-6-105.8-5.244-105.8-4.142c0,1.254-.969,2.109-2.546,2.109s-2.546-.855-2.546-2.109v-.323h-2.774v.247c0,2.66,1.976,4.522,5.32,4.522C-104.985.3-103.028-1.577-103.028-4.237ZM-93.661.038h2.85V-14.991h-2.755V-4.769l-5.282-10.222h-2.85V.038h2.755v-10.2Zm15.01-4.275c0-2.413-1.444-3.876-3.952-4.389l-1.805-.38c-1.444-.3-2.109-.855-2.109-1.976s.779-1.919,2.261-1.919c1.463,0,2.261.8,2.261,1.919v.209H-79.2v-.209c0-2.3-1.729-4.275-5.054-4.275s-5.035,1.957-5.035,4.294c0,2.451,1.5,3.8,3.933,4.294l1.824.38c1.406.285,2.109,1.045,2.109,2.147,0,1.254-.969,2.109-2.546,2.109s-2.546-.855-2.546-2.109v-.323h-2.774v.247c0,2.66,1.976,4.522,5.32,4.522C-80.608.3-78.651-1.577-78.651-4.237Zm12.616-9.519h-5.871V-16h8.474v1.5c0,5.643-3,8.417-8.873,9.063V-7.7C-68.049-8.265-66.035-10.393-66.035-13.756ZM-58-11.647h2.413v2.261H-58v5.415h-2.6V-16.207H-58ZM-68.372-.95h10.678V1.311H-70.975V-4.864h2.6ZM-46.5-6.365h-7.733V-16h8.683v2.242h-6.1v5.149H-45.8a4.829,4.829,0,0,0,2.869-.608v-6.992h2.6v4.56h2.413v2.261h-2.413v5.415h-2.6V-7.106C-43.539-6.612-44.565-6.365-46.5-6.365ZM-50.7-.95h10.678V1.311H-53.3V-4.864h2.6Zm25.517-13.756H-21.5v2.223h-9.937v-2.223h3.648V-16.72h2.6Zm-5.776,6.954a3.768,3.768,0,0,1,1.482-3.1,4.968,4.968,0,0,1,3.021-.931,4.911,4.911,0,0,1,3,.931,3.768,3.768,0,0,1,1.482,3.1,3.768,3.768,0,0,1-1.482,3.1,4.6,4.6,0,0,1-1.691.779v1.9h2.337a4.666,4.666,0,0,0,3-.722V-16.207h2.6V1.235h-2.6V-.57a5.328,5.328,0,0,1-3.5.855h-8.417V-1.976h3.971v-1.9a4.221,4.221,0,0,1-1.729-.779A3.768,3.768,0,0,1-30.961-7.752Zm2.584,0a1.888,1.888,0,0,0,.57,1.368,1.977,1.977,0,0,0,1.349.475,1.927,1.927,0,0,0,1.33-.475,1.888,1.888,0,0,0,.57-1.368,1.888,1.888,0,0,0-.57-1.368,1.927,1.927,0,0,0-1.33-.475,1.977,1.977,0,0,0-1.349.475A1.888,1.888,0,0,0-28.377-7.752Zm14.725-5.187a2.836,2.836,0,0,1,1.064-2.3A6.145,6.145,0,0,1-8.769-16.3,6.145,6.145,0,0,1-4.95-15.238a2.892,2.892,0,0,1,1.064,2.3,2.864,2.864,0,0,1-1.064,2.3A6.031,6.031,0,0,1-8.769-9.557a6.031,6.031,0,0,1-3.819-1.083A2.81,2.81,0,0,1-13.652-12.939Zm2.47,0a1.045,1.045,0,0,0,.418.855,3.311,3.311,0,0,0,1.995.494,3.351,3.351,0,0,0,2-.494,1.029,1.029,0,0,0,.4-.855,1.029,1.029,0,0,0-.4-.855,3.36,3.36,0,0,0-2-.475,3.321,3.321,0,0,0-1.995.475A1.045,1.045,0,0,0-11.182-12.939ZM-8.2-6.8v2.641h-2.6V-6.8H-14.26V-8.949h8.854a10.637,10.637,0,0,0,2.527-.209v2.033a8.96,8.96,0,0,1-2.66.323ZM-2.119-3V-4.123H-5.748V-6.156h3.629V-16.207h2.6V-3ZM-12.664,1.425v-5.13h2.6V-.836H.788V1.425ZM10-12.084v-1.558H4V-15.9h8.569v3.515c0,6.631-2.394,11.1-8.664,12.673v-2.47C8.217-3.439,10-6.935,10-12.084ZM17.7-9.291H20.32v2.242H17.7V1.235H15.1V-16.207h2.6Zm3.762-2.432a4.381,4.381,0,0,1,1.615-3.648,4.794,4.794,0,0,1,3-.931,4.794,4.794,0,0,1,3,.931,4.381,4.381,0,0,1,1.615,3.648,4.42,4.42,0,0,1-1.615,3.667,4.794,4.794,0,0,1-3,.931,4.794,4.794,0,0,1-3-.931A4.42,4.42,0,0,1,21.46-11.723Zm2.546,0a2.464,2.464,0,0,0,.7,1.881,2.075,2.075,0,0,0,1.368.494,2.038,2.038,0,0,0,1.368-.494,2.464,2.464,0,0,0,.7-1.881,2.419,2.419,0,0,0-.7-1.862,2.038,2.038,0,0,0-1.368-.494,2.075,2.075,0,0,0-1.368.494A2.419,2.419,0,0,0,24.006-11.723Zm9.215,4.769v-9.253h2.6v9.253Zm0,.665h2.6V1.425H22.676V-6.289h2.6v1.824h7.942ZM25.279-2.242V-.8h7.942V-2.242Zm27.3-5.225A9.517,9.517,0,0,1,52.164-5l-3.99-4.56a3.143,3.143,0,0,1-1.007-2.128,1.269,1.269,0,0,1,1.406-1.33,1.26,1.26,0,0,1,1.406,1.33v.456h2.66v-.532c0-2.166-1.691-3.5-4.066-3.5s-4.066,1.33-4.066,3.5a5.019,5.019,0,0,0,1.52,3.42,4.613,4.613,0,0,0-2.622,4.218C43.405-1.444,45.362.3,48.459.3a5.74,5.74,0,0,0,4.009-1.33L53.4.038H56.61L54.1-2.831a10.484,10.484,0,0,0,1.14-4.636Zm-6.5,3.306a3.029,3.029,0,0,1,1.349-2.565l3.458,3.914a3.2,3.2,0,0,1-2.356.874A2.186,2.186,0,0,1,46.084-4.161ZM65.807-6.9H77.15v2.261H71.411v2.85h6.422V.475H62.33V-1.786h6.5v-2.85H63.2v-6.8H74.357v-2.2H63.2V-15.9H76.96v6.726H65.807Zm26.22-6.726H80.779V-15.9H94.63v5.757a33.867,33.867,0,0,1-.513,6.156H91.533A32.15,32.15,0,0,0,92.027-9.8ZM80-1.786H95.5V.475H80ZM97.916-11.21A5.252,5.252,0,0,1,99.4-15.276a4.615,4.615,0,0,1,3.135-1.026,4.582,4.582,0,0,1,3.135,1.026,5.252,5.252,0,0,1,1.482,4.066,5.224,5.224,0,0,1-1.482,4.066A4.5,4.5,0,0,1,102.534-6.1,4.531,4.531,0,0,1,99.4-7.144,5.224,5.224,0,0,1,97.916-11.21Zm2.546,0a3.408,3.408,0,0,0,.665,2.318,1.859,1.859,0,0,0,1.406.551,1.859,1.859,0,0,0,1.406-.551,3.408,3.408,0,0,0,.665-2.318,3.443,3.443,0,0,0-.665-2.318,1.859,1.859,0,0,0-1.406-.551,1.859,1.859,0,0,0-1.406.551A3.443,3.443,0,0,0,100.463-11.21Zm9.215,7.239V-16.207h2.6V-3.971ZM99.132,1.311V-4.864h2.6V-.95h10.849V1.311Z" transform="translate(113.668 16.72)" fill="#212025"/>
</svg>
