<svg xmlns="http://www.w3.org/2000/svg" width="201.625" height="24.575" viewBox="0 0 201.625 24.575">
  <path id="패스_100" data-name="패스 100" d="M17.55-12.3H14.325c-.45-3.9-2.475-6.35-6.3-6.35C3.6-18.65,1.55-15.4,1.55-10.425S3.6-2.2,8.025-2.2c3.975,0,6-2.625,6.35-6.775H17.55V1.775a1.788,1.788,0,0,0,2,1.85,1.777,1.777,0,0,0,2-1.85v-19.5a1.777,1.777,0,0,0-2-1.85,1.788,1.788,0,0,0-2,1.85ZM8.025-5.55c-2,0-2.575-2.175-2.575-4.875S6.025-15.3,8.025-15.3,10.6-13.125,10.6-10.425,10.025-5.55,8.025-5.55Zm30.1-12.275v-.95c0-.975-.725-1.675-2-1.675s-2,.7-2,1.675v.95h-4.8c-1.05,0-1.775.425-1.775,1.475s.725,1.475,1.775,1.475h4.85c-.075,1.275-3.25,2.125-5.725,2.6a1.5,1.5,0,0,0-1.2,1.925c.25.95,1.15,1.2,2.125,1.05a15.184,15.184,0,0,0,6.75-2.625A15.184,15.184,0,0,0,42.875-9.3c.975.15,1.875-.1,2.125-1.05a1.5,1.5,0,0,0-1.2-1.925c-2.5-.475-5.65-1.325-5.725-2.6h4.85c1.05,0,1.775-.425,1.775-1.475s-.725-1.475-1.775-1.475ZM34.2-7.675H26.75c-1.075,0-1.8.45-1.8,1.525s.725,1.55,1.8,1.55H45.525C46.6-4.6,47.3-5.075,47.3-6.15s-.7-1.525-1.775-1.525H38.05v-1.4c0-1.125-.8-1.55-1.925-1.55S34.2-10.2,34.2-9.075ZM27.825,1.2c0,1.5.65,2.15,2.15,2.15h13.3c1.125,0,1.775-.45,1.775-1.575s-.65-1.6-1.775-1.6H32.025c-.2,0-.275-.05-.275-.275v-2c0-1.125-.85-1.65-1.975-1.65s-1.95.525-1.95,1.65Zm37.75-4.375c.125,0,.2.05.2.175v.35c0,.125-.075.175-.2.175H55.3c-1.625,0-2.1.45-2.1,2.075V1.525c0,1.625.5,2.1,2.125,2.1H68.45c1,0,1.575-.35,1.575-1.35S69.45.9,68.45.9H57.125c-.1,0-.175-.025-.175-.15V.35a.158.158,0,0,1,.175-.175h10.25c1.625,0,2.15-.475,2.15-2.1v-1.95c0-1.6-.425-2-2.05-2H54.75c-1,0-1.55.35-1.55,1.35s.55,1.35,1.55,1.35Zm-15-7.725c0,2.725,2.75,4,6.1,4s6.1-1.275,6.1-4-2.75-4-6.1-4S50.575-13.625,50.575-10.9Zm14.95,2.275a1.783,1.783,0,0,0,2,1.825,1.783,1.783,0,0,0,2-1.825V-17.75a1.783,1.783,0,0,0-2-1.825,1.783,1.783,0,0,0-2,1.825Zm-3.6-6.9c1.125,0,1.825-.3,1.825-1.425s-.7-1.425-1.825-1.425H58.55v-.6A1.659,1.659,0,0,0,56.675-20.7,1.659,1.659,0,0,0,54.8-18.975v.6H51.175c-1.125,0-1.825.3-1.825,1.425s.7,1.425,1.825,1.425ZM54.3-10.9c0-.95,1.1-1.3,2.375-1.3s2.375.35,2.375,1.3-1.1,1.3-2.375,1.3S54.3-9.95,54.3-10.9ZM89.525-7.875a1.783,1.783,0,0,0,2,1.825,1.783,1.783,0,0,0,2-1.825V-17.75a1.783,1.783,0,0,0-2-1.825,1.783,1.783,0,0,0-2,1.825Zm-4.175,2.2c-4.825,0-8.175,1.325-8.175,4.775s3.35,4.775,8.175,4.775S93.525,2.55,93.525-.9,90.175-5.675,85.35-5.675Zm0,6.5C83.3.825,81.175.45,81.175-.9S83.3-2.625,85.35-2.625,89.525-2.25,89.525-.9,87.4.825,85.35.825Zm1.075-8.3a1.5,1.5,0,0,0,1.425-1.8c-.2-1-.975-1.275-1.925-1.125a43.076,43.076,0,0,1-6.425.475h-.95c-.25,0-.3-.05-.3-.3V-11.35c0-.25.05-.3.3-.3h5.025c1.725,0,2.425-.725,2.425-2.4v-2.7c0-1.675-.7-2.375-2.425-2.375H76.35A1.516,1.516,0,0,0,74.625-17.6c0,.975.725,1.5,1.725,1.5h5.575c.25,0,.325.05.325.3v.9c0,.25-.075.325-.325.325h-5c-1.7,0-2.425.75-2.425,2.375v2.875c0,1.625.725,2.35,2.425,2.35H78.85A49.651,49.651,0,0,0,86.425-7.475Zm27.375-8h-4.325a5.615,5.615,0,0,0-5.425-3.175c-4.425,0-6.475,3.25-6.475,8.225S99.625-2.2,104.05-2.2a5.578,5.578,0,0,0,5.475-3.275H113.8V1.8a2.008,2.008,0,0,0,4,0V-17.75a1.783,1.783,0,0,0-2-1.825,1.783,1.783,0,0,0-2,1.825ZM104.05-5.55c-2,0-2.575-2.175-2.575-4.875s.575-4.875,2.575-4.875,2.575,2.175,2.575,4.875S106.05-5.55,104.05-5.55Zm6.425-4.875c0-.575-.05-1.125-.1-1.65H113.8V-8.9h-3.4A14.834,14.834,0,0,0,110.475-10.425Zm23.25,5.4c-4.825,0-8.3,1.25-8.3,4.45s3.475,4.45,8.3,4.45,8.3-1.25,8.3-4.45S138.55-5.025,133.725-5.025Zm.075-2.7a1.553,1.553,0,0,0,1.725,1.675,1.553,1.553,0,0,0,1.725-1.675V-11.3h1.3v4.325A1.572,1.572,0,0,0,140.3-5.3a1.553,1.553,0,0,0,1.725-1.675v-10.9a1.571,1.571,0,0,0-1.725-1.7,1.59,1.59,0,0,0-1.75,1.7v3.625h-1.3v-3.4a1.553,1.553,0,0,0-1.725-1.675A1.553,1.553,0,0,0,133.8-17.65ZM122.075-9.95c0,2.875,2.45,4.175,5.1,4.175s5.1-1.3,5.1-4.175-2.45-4.175-5.1-4.175S122.075-12.825,122.075-9.95Zm9.1-4.9c1.125,0,1.825-.275,1.825-1.4s-.7-1.4-1.825-1.4h-2.15v-1.075a1.639,1.639,0,0,0-1.85-1.725,1.639,1.639,0,0,0-1.85,1.725v1.075H122.8c-1.125,0-1.825.275-1.825,1.4s.7,1.4,1.825,1.4ZM133.725.825c-2.075,0-4.25-.225-4.25-1.4s2.175-1.4,4.25-1.4,4.25.225,4.25,1.4S135.8.825,133.725.825ZM128.85-9.95a1.526,1.526,0,0,1-1.675,1.525A1.526,1.526,0,0,1,125.5-9.95a1.526,1.526,0,0,1,1.675-1.525A1.526,1.526,0,0,1,128.85-9.95ZM155.9-7.075a2.41,2.41,0,0,1,2.625-2.075,2.41,2.41,0,0,1,2.625,2.075ZM163.625-.65c.75-.7,1.1-1.675.475-2.375a1.608,1.608,0,0,0-2.325-.1,4.219,4.219,0,0,1-2.9,1.1A2.791,2.791,0,0,1,155.9-4.6h6.775c1.375,0,1.85-.625,1.85-2,0-2.775-2.175-5.375-6-5.375-3.75,0-6.15,2.675-6.15,6.35,0,3.8,2.275,6.5,6.5,6.5A6.836,6.836,0,0,0,163.625-.65Zm5.425-9.6c-1.25,0-2.15.5-2.15,1.75s.9,1.75,2.15,1.75h7.425c1.25,0,2.15-.5,2.15-1.75s-.9-1.75-2.15-1.75ZM196.4-.725c.25,0,.275.075.275.3v2.35c0,.9.65,1.7,2,1.7s2-.8,2-1.7v-3.6c0-1.625-.55-2.125-2.2-2.125h-4.55V-5.425h7.425c1.125,0,1.825-.375,1.825-1.5s-.7-1.525-1.825-1.525h-18.7c-1.125,0-1.825.4-1.825,1.525s.7,1.5,1.825,1.5h7.425V-3.8H185c-1.125,0-1.8.425-1.8,1.55s.675,1.525,1.8,1.525Zm1.4-8.8c1.625,0,2.375-.675,2.375-2.3v-5.8A1.629,1.629,0,0,0,198.4-19.4a1.618,1.618,0,0,0-1.775,1.775v.825h-9.25v-.825A1.618,1.618,0,0,0,185.6-19.4a1.629,1.629,0,0,0-1.775,1.775v5.8c0,1.625.8,2.3,2.425,2.3ZM196.625-14v1.375c0,.25-.05.3-.3.3h-8.65c-.25,0-.3-.05-.3-.3V-14Z" transform="translate(-1.55 20.7)" fill="#0068b7"/>
</svg>
