<svg xmlns="http://www.w3.org/2000/svg" xmlns:xlink="http://www.w3.org/1999/xlink" viewBox="0 0 339.84 552.96"><defs><clipPath id="clip-path" transform="translate(0.29 0.3)"><rect width="339.33" height="552.68" fill="none"/></clipPath></defs><title>main_map</title><g id="레이어_2" data-name="레이어 2"><g id="레이어_2-2" data-name="레이어 2"><g id="map-sampleai"><g id="그룹_78" data-name="그룹 78"><g clip-path="url(#clip-path)"><g id="그룹_77" data-name="그룹 77"><path id="패스_37" data-name="패스 37" d="M181.18,287.8a3.59,3.59,0,0,1-.79-.17,3.59,3.59,0,0,0,.79.17" transform="translate(0.29 0.3)" fill="#f2f8fa"/><path id="패스_40" data-name="패스 40" d="M180.36,287.62l-.24-.08.24.08" transform="translate(0.29 0.3)" fill="#f2f8fa"/><path id="패스_41" data-name="패스 41" d="M181.67,287.8h0" transform="translate(0.29 0.3)" fill="#f2f8fa"/><path id="패스_44" data-name="패스 44" d="M201.42,309c-6.89-2.63-14-5.28-21.39-4.94,7.35-.34,14.5,2.31,21.39,4.94" transform="translate(0.29 0.3)" fill="#f2f8fa"/><path id="패스_45" data-name="패스 45" d="M180,304h0" transform="translate(0.29 0.3)" fill="#f2f8fa"/></g></g></g><g id="그룹_80" data-name="그룹 80"><g clip-path="url(#clip-path)"><g id="그룹_79" data-name="그룹 79"><path id="패스_46" data-name="패스 46" d="M104.67,516c-4.8-.44-20.68,4.1-21.39,4.07,0,0-8.88-.29-10.92,0s-3.93,3.06-4.8,4.8-2.62,4.66-5.53,5.53-8,.44-9.17,1.6-1.31,8.3-1.45,9,10.33,13,13.24,11.5,13.1-4.37,17.9-2.77,18.19-2.91,22.12-5.09,11.64-12.88,10.92-16-6.12-12.19-10.92-12.63" transform="translate(0.29 0.3)" fill="#56bfb5"/></g></g></g><g id="그룹_82" data-name="그룹 82"><g clip-path="url(#clip-path)"><g id="그룹_81" data-name="그룹 81"><path id="패스_47" data-name="패스 47" d="M163,393.71c-.87-3.84.55-8.17-1.35-11.62-1.13-2-3.19-3.31-4.9-4.88s-3.74-3.7-3.32-5.84a20.08,20.08,0,0,0-14.26-3.83,3.19,3.19,0,0,0-2.55,1.25c-.47.87-6.94,4.48-11.11,3.08s-8.49-3.47-12.77-2.46a6.26,6.26,0,0,1-3.06.39c-1.79-.51-2.27-2.74-2.86-4.49-2.18-6.46-10.52-10-16.67-7-.33-4.25-6.56-5.44-10.15-3.14s-5.52,6.42-8.4,9.57-8,5.27-11.27,2.5a19.41,19.41,0,0,1-2.77-3.73c-2.37-3.24-6.24-4.82-10.3-5.38A4.91,4.91,0,0,0,46,360.24c-.16,1.42.63,6.29.47,6.92s5.21,8.74,3.61,9.84-3.3.16-3.93,0-5.67-2-6.61-1.26a18.12,18.12,0,0,1-3.93,1.79s-7.08-2.73-9-2.57-9,2.2-10.38,3.93-4.24,4.56-3.61,5.35,3.14,4.56,4.87,5.19,3.78-1.58,4.4.78,3.46,8,4.72,7.55,3.93-1.41,4.09-2.36.47-6.45.47-6.45,5.35-1.25,6.29-.47,3.62,2.36,2.68,3.15a6.33,6.33,0,0,1-3.62,1.1c-.47-.16-4.09,1.88-2.67,3.14s6.29,3.78,5.34,4.72a8.14,8.14,0,0,1-3.3,1.89c-.47,0-2.67-1.94-3.61-1.13s.47,6.32,1.73,7.1,13.84,6.92,13.37,7.71-2.2,3.77-2.2,3.77-8.65,3-9,1.73-1.41-6.13-3.62-5.5-6.29,4.25-7.39,3.78a81.66,81.66,0,0,1-8-5c-1.41-1.1-9.28-1.73-10.54-1.26s-5.34,2.67-5.34,2.67S-.45,421.22.49,422s4.25,4.41,7.23,3.46a42.06,42.06,0,0,1,8.65-1.73c.47.15,3.15,3.62,4.88,3.15s4.25-2.83,6.29-1.42,9.75,4.72,9.12,6.61-2,9-3.14,9.44-7.24,4-8,4.42-6.45,6.59-7.08,8.32.16,5.34,3,7.23a40.71,40.71,0,0,0,6.6,4c1.57.6,16.67-1,16.67-1s5.82-19,6.61-18.54,1.41.77,1.1,1.24,1.26,17.2,3.46,18.27,3,3.75,5.35,4.85A24,24,0,0,0,68.15,472c.78,0,5-3.15,6-2.68s2.83,3.46,5.66,3.78,5.82-1.57,8.81-1.42,5.77.32,6.9,0,5.22-1.88,5.22-1.88-2-14.63-1.58-15.73,3.94-2.83,4.25-4.09,3.15-11.17,3.78-11.8,8.8-5,10.69-6.13,6.13.62,5.19,2.67-6,16.2-5.5,16.83-11.95,6.13-11.8,7.7-.79,8,1.1,8.81,6,3.3,6.45,2.52,2.52-7.08,4.72-7.87a48.6,48.6,0,0,1,7.07-1.41s2,2.67,4.4,2,1.42-2.36,1.42-3.77-2-5.35-2-5.35a16.22,16.22,0,0,1,3.61.32c.63.31,2.05,1.88,3.3,1.73s2.52-2.2,3-3,2-5.66,2.67-4.88,4.57,11,8.18,9.75,7.39-2.83,6.92-3.3-9.12-6.29-9.28-7.86a28.11,28.11,0,0,1,.16-4.4s8.57-.79,9.16-2-1.93-3.94-2.08-4.88-11.17-8-12-9.28-1.25-9.91-1.1-10.38,1.62-3.46,4.74-2.2,6.43,2,5.8,4.56-.47,11.48,1,12.58,9.27,6.61,9.27,7.08-2,6.18,1.26,7.89,9,2.5,9.44,4.85,2.83,4.72,2.36,5.5-1.92,4.4.06,3.93,6.07-2.67,6.39-3.93a38,38,0,0,0,0-7.23c-.16-1.1-8.34-9.75-9.44-12s-3.78-5.5-2.68-7.55,5.5-10.22,6.77-10.85h.09a.34.34,0,0,0-.2,0,.34.34,0,0,1,.2,0c.2,0,.35.12.47.44a35.86,35.86,0,0,0-7.14-15.18c-2.6-3.2-5.88-6.17-6.79-10.2m-59.22,0a15.6,15.6,0,0,1-4.68,3,31.51,31.51,0,0,0-8.09,6c-2.34,2.38-5,5.41-8.28,4.83a7,7,0,0,1-4-2.84c-2.44-3.15-3.88-7.43-7.5-9.11-4.07-1.9-7.42-3-5.82-8.54.95-3.26,3.8-6.61,7.35-6.85,3.38-.23,6.57,1.86,9.91,2,4.65.27,9.46-5.45,14-3,2.86,1.55,3.13,5.74,5.65,7.8a13,13,0,0,1,2.11,1.65c1.17,1.44.63,3.7-.62,5.07" transform="translate(0.29 0.3)" fill="#ff9bac"/><path id="패스_48" data-name="패스 48" d="M163,393.71c-.87-3.84.55-8.17-1.35-11.62-1.13-2-3.19-3.31-4.9-4.88s-3.74-3.7-3.32-5.84a20.08,20.08,0,0,0-14.26-3.83,3.19,3.19,0,0,0-2.55,1.25c-.47.87-6.94,4.48-11.11,3.08s-8.49-3.47-12.77-2.46a6.26,6.26,0,0,1-3.06.39c-1.79-.51-2.27-2.74-2.86-4.49-2.18-6.46-10.52-10-16.67-7-.33-4.25-6.56-5.44-10.15-3.14s-5.52,6.42-8.4,9.57-8,5.27-11.27,2.5a19.41,19.41,0,0,1-2.77-3.73c-2.37-3.24-6.24-4.82-10.3-5.38A4.91,4.91,0,0,0,46,360.24c-.16,1.42.63,6.29.47,6.92s5.21,8.74,3.61,9.84-3.3.16-3.93,0-5.67-2-6.61-1.26a18.12,18.12,0,0,1-3.93,1.79s-7.08-2.73-9-2.57-9,2.2-10.38,3.93-4.24,4.56-3.61,5.35,3.14,4.56,4.87,5.19,3.78-1.58,4.4.78,3.46,8,4.72,7.55,3.93-1.41,4.09-2.36.47-6.45.47-6.45,5.35-1.25,6.29-.47,3.62,2.36,2.68,3.15a6.33,6.33,0,0,1-3.62,1.1c-.47-.16-4.09,1.88-2.67,3.14s6.29,3.78,5.34,4.72a8.14,8.14,0,0,1-3.3,1.89c-.47,0-2.67-1.94-3.61-1.13s.47,6.32,1.73,7.1,13.84,6.92,13.37,7.71-2.2,3.77-2.2,3.77-8.65,3-9,1.73-1.41-6.13-3.62-5.5-6.29,4.25-7.39,3.78a81.66,81.66,0,0,1-8-5c-1.41-1.1-9.28-1.73-10.54-1.26s-5.34,2.67-5.34,2.67S-.45,421.22.49,422s4.25,4.41,7.23,3.46a42.06,42.06,0,0,1,8.65-1.73c.47.15,3.15,3.62,4.88,3.15s4.25-2.83,6.29-1.42,9.75,4.72,9.12,6.61-2,9-3.14,9.44-7.24,4-8,4.42-6.45,6.59-7.08,8.32.16,5.34,3,7.23a40.71,40.71,0,0,0,6.6,4c1.57.6,16.67-1,16.67-1s5.82-19,6.61-18.54,1.41.77,1.1,1.24,1.26,17.2,3.46,18.27,3,3.75,5.35,4.85A24,24,0,0,0,68.15,472c.78,0,5-3.15,6-2.68s2.83,3.46,5.66,3.78,5.82-1.57,8.81-1.42,5.77.32,6.9,0,5.22-1.88,5.22-1.88-2-14.63-1.58-15.73,3.94-2.83,4.25-4.09,3.15-11.17,3.78-11.8,8.8-5,10.69-6.13,6.13.62,5.19,2.67-6,16.2-5.5,16.83-11.95,6.13-11.8,7.7-.79,8,1.1,8.81,6,3.3,6.45,2.52,2.52-7.08,4.72-7.87a48.6,48.6,0,0,1,7.07-1.41s2,2.67,4.4,2,1.42-2.36,1.42-3.77-2-5.35-2-5.35a16.22,16.22,0,0,1,3.61.32c.63.31,2.05,1.88,3.3,1.73s2.52-2.2,3-3,2-5.66,2.67-4.88,4.57,11,8.18,9.75,7.39-2.83,6.92-3.3-9.12-6.29-9.28-7.86a28.11,28.11,0,0,1,.16-4.4s8.57-.79,9.16-2-1.93-3.94-2.08-4.88-11.17-8-12-9.28-1.25-9.91-1.1-10.38,1.62-3.46,4.74-2.2,6.43,2,5.8,4.56-.47,11.48,1,12.58,9.27,6.61,9.27,7.08-2,6.18,1.26,7.89,9,2.5,9.44,4.85,2.83,4.72,2.36,5.5-1.92,4.4.06,3.93,6.07-2.67,6.39-3.93a38,38,0,0,0,0-7.23c-.16-1.1-8.34-9.75-9.44-12s-3.78-5.5-2.68-7.55,5.5-10.22,6.77-10.85h.09a.34.34,0,0,0-.2,0,.34.34,0,0,1,.2,0c.2,0,.35.12.47.44a35.86,35.86,0,0,0-7.14-15.18C167.17,400.7,163.9,397.73,163,393.71Zm-59.22,0a15.6,15.6,0,0,1-4.68,3,31.51,31.51,0,0,0-8.09,6c-2.34,2.38-5,5.41-8.28,4.83a7,7,0,0,1-4-2.84c-2.44-3.15-3.88-7.43-7.5-9.11-4.07-1.9-7.42-3-5.82-8.54.95-3.26,3.8-6.61,7.35-6.85,3.38-.23,6.57,1.86,9.91,2.05,4.65.27,9.46-5.45,14-3,2.86,1.55,3.12,5.74,5.65,7.8a13.47,13.47,0,0,1,2.11,1.65c1.14,1.36.6,3.62-.65,5Z" transform="translate(0.29 0.3)" fill="none" stroke="#fff" stroke-miterlimit="10"/><path id="패스_49" data-name="패스 49" d="M102.28,387c-2.52-2.06-2.79-6.25-5.65-7.8-4.56-2.48-9.37,3.24-14,3-3.34-.18-6.53-2.27-9.91-2.05-3.54.24-6.4,3.6-7.35,6.85-1.6,5.5,1.76,6.64,5.82,8.54,3.62,1.69,5.06,6,7.5,9.11a7,7,0,0,0,4,2.84c3.29.58,6-2.45,8.28-4.83a31.56,31.56,0,0,1,8.09-5.95,15.92,15.92,0,0,0,4.68-3c1.25-1.37,1.79-3.62.62-5.07a13,13,0,0,0-2.11-1.65" transform="translate(0.29 0.3)" fill="#ff9bac"/><path id="패스_50" data-name="패스 50" d="M102.28,387c-2.52-2.06-2.79-6.25-5.65-7.8-4.56-2.48-9.37,3.24-14,3-3.34-.18-6.53-2.27-9.91-2.05-3.54.24-6.4,3.6-7.35,6.85-1.6,5.5,1.76,6.64,5.82,8.54,3.62,1.69,5.06,6,7.5,9.11a7,7,0,0,0,4,2.84c3.29.58,6-2.45,8.28-4.83a31.56,31.56,0,0,1,8.09-5.95,15.92,15.92,0,0,0,4.68-3c1.25-1.37,1.79-3.62.62-5.07A12.62,12.62,0,0,0,102.28,387Z" transform="translate(0.29 0.3)" fill="none" stroke="#fff" stroke-miterlimit="10"/></g></g></g><g id="그룹_84" data-name="그룹 84"><g clip-path="url(#clip-path)"><g id="그룹_83" data-name="그룹 83"><path id="패스_51" data-name="패스 51" d="M57.55,363.44a20.57,20.57,0,0,0,2.76,3.73c3.24,2.77,8.4.65,11.27-2.5s4.8-7.27,8.4-9.57,9.82-1.12,10.15,3.13c6.15-2.93,14.49.59,16.67,7,.59,1.76,1.08,4,2.86,4.49a6.19,6.19,0,0,0,3.07-.37c4.29-1,8.6,1,12.77,2.46s10.64-2.21,11.11-3.07a3.2,3.2,0,0,1,2.55-1.26,20.17,20.17,0,0,1,14.27,3.83,2.56,2.56,0,0,1,0-.27,2.56,2.56,0,0,0,0,.27l.18.13c4.9-4.79,4.3-12.7,3.35-19.48q-1.29-9.21-2.57-18.31c-.44-3.13-.72-6.76,1.52-9,1.57-1.56,4.09-2,5.35-3.87.85-1.23.94-2.79,1.26-4.24,1.62-7.38,9.44-12.06,17-12.56h.54a24.77,24.77,0,0,1,1.74-6.83c1.41-3.52.45-6.2-.59-9.38a4,4,0,0,1-.78-.17h0l-.25-.08-14.28-4.82a17,17,0,0,1-5.19-2.46c-1.67,3.7-5.42,7.69-9,8.65-4,1.09-8.26.08-12-1.68a10.36,10.36,0,0,1-4.66-3.66c-.84-1.38-1.1-3-1.77-4.5-2.38-5.21-10.4-6.61-14.4-2.5-2.61,2.68-4.13,7.33-7.87,7.43-3.48.09-5.4-4-6-7.43s-1.36-7.55-4.58-8.87a7.44,7.44,0,0,0-4.71,0c-2.3.6-4.73,2-5.2,4.31-.27,1.34.18,2.72.22,4.09.13,4.64-4.21,8-8.1,10.56a18.19,18.19,0,0,1-6.12,3,11.87,11.87,0,0,1-5.94-.47,2.41,2.41,0,0,0,.34,1.66c1.26,1.26,11,5.79,11,5.79s-9.42-2.06-8.48,0,5.66,8,6.29,8.67-12.26,6.68-17,10.25-11.37,7.57-10.11,9.14,3.77,9.37,5,8.77,4.4,0,4.4,0-6.2,4-8.09,6-3.3,6.92-3,8.8.47,6-.63,6.77A21.15,21.15,0,0,0,47.21,358c4.06.56,7.93,2.14,10.3,5.38" transform="translate(0.29 0.3)" fill="#f3a3ce"/><path id="패스_52" data-name="패스 52" d="M57.55,363.44a20.57,20.57,0,0,0,2.76,3.73c3.24,2.77,8.4.65,11.27-2.5s4.8-7.27,8.4-9.57,9.82-1.12,10.15,3.13c6.15-2.93,14.49.59,16.67,7,.59,1.76,1.08,4,2.86,4.49a6.19,6.19,0,0,0,3.07-.37c4.29-1,8.6,1,12.77,2.46s10.64-2.21,11.11-3.07a3.2,3.2,0,0,1,2.55-1.26,20.17,20.17,0,0,1,14.27,3.83,2.56,2.56,0,0,1,0-.27,2.56,2.56,0,0,0,0,.27l.18.13c4.9-4.79,4.3-12.7,3.35-19.48q-1.29-9.21-2.57-18.31c-.44-3.13-.72-6.76,1.52-9,1.57-1.56,4.09-2,5.35-3.87.85-1.23.94-2.79,1.26-4.24,1.62-7.38,9.44-12.06,17-12.56h.54a24.77,24.77,0,0,1,1.74-6.83c1.41-3.52.45-6.2-.59-9.38a4,4,0,0,1-.78-.17h0l-.25-.08-14.28-4.82a17,17,0,0,1-5.19-2.46c-1.67,3.7-5.42,7.69-9,8.65-4,1.09-8.26.08-12-1.68a10.36,10.36,0,0,1-4.66-3.66c-.84-1.38-1.1-3-1.77-4.5-2.38-5.21-10.4-6.61-14.4-2.5-2.61,2.68-4.13,7.33-7.87,7.43-3.48.09-5.4-4-6-7.43s-1.36-7.55-4.58-8.87a7.44,7.44,0,0,0-4.71,0c-2.3.6-4.73,2-5.2,4.31-.27,1.34.18,2.72.22,4.09.13,4.64-4.21,8-8.1,10.56a18.19,18.19,0,0,1-6.12,3,11.87,11.87,0,0,1-5.94-.47,2.41,2.41,0,0,0,.34,1.66c1.26,1.26,11,5.79,11,5.79s-9.42-2.06-8.48,0,5.66,8,6.29,8.67-12.26,6.68-17,10.25-11.37,7.57-10.11,9.14,3.77,9.37,5,8.77,4.4,0,4.4,0-6.2,4-8.09,6-3.3,6.92-3,8.8.47,6-.63,6.77A21.15,21.15,0,0,0,47.21,358C51.31,358.62,55.17,360.2,57.55,363.44Z" transform="translate(0.29 0.3)" fill="none" stroke="#fff" stroke-miterlimit="10"/></g></g></g><g id="그룹_86" data-name="그룹 86"><g clip-path="url(#clip-path)"><g id="그룹_85" data-name="그룹 85"><path id="패스_53" data-name="패스 53" d="M267.72,379.57c2-2.34,5.59-2.15,8.59-2.85,5.83-1.34,10-6.36,13.57-11.16a8.68,8.68,0,0,1,2.93-2.88,6.85,6.85,0,0,1,2.85-.6,26.11,26.11,0,0,1,9.89,2.11,11,11,0,0,1-1.4-4.25,4.16,4.16,0,0,0-.57-2.2c-1-1.16-2.79-.55-4.29-.57-3.61,0-5.7-4.07-8.83-5.89-2.15-1.25-4.75-1.41-7.1-2.22s-4.71-2.78-4.5-5.26c.24-2.88,3.51-4.26,5.86-6a2.41,2.41,0,0,0,1.23-1.86,2.62,2.62,0,0,0-.66-1.38c-.8-1-1.71-2.54-2.54-3.72h-.08c-1.28.17-2.6-.4-3.86-.11-2.66.62-3.08,4.18-4.68,6.39-2.39,3.3-7.22,3.29-11.28,2.94-4.78-.4-9.66-.82-14.09-2.68a17.34,17.34,0,0,1-8-6.45c-2.91.12-8.52.47-11.36,1.41a9.47,9.47,0,0,1-6,0l-13.73-.68c-1.62-6.43,2.16-14.36-2.28-19.28-1.55-1.72-3.8-2.6-6-3.42-6.89-2.62-14-5.28-21.39-4.94h-.54c-7.53.5-15.35,5.18-17,12.56-.32,1.45-.41,3-1.26,4.24-1.26,1.83-3.78,2.31-5.35,3.88-2.24,2.23-2,5.86-1.52,9L156.9,352c1,6.79,1.55,14.7-3.35,19.49l-.18-.14c-.42,2.15,1.67,4.34,3.31,5.85s3.78,2.85,4.9,4.88c1.9,3.45.48,7.78,1.35,11.62.91,4,4.18,7,6.78,10.2a35.82,35.82,0,0,1,7.15,15.18c.58,1.5.56,6.26,2.59,6.51,2.52.31,6.61,2.2,8,1.1a12.57,12.57,0,0,1,3.62-1.73s3.14,2.2,3.77,2.2a45,45,0,0,0,5-1.89s.94-20.92,1.73-20.76,7.23,3.15,8.49,3.3,8.49-.78,10.22.47,7.87,10.7,8.81,10.7,4.4.16,4.09.95-1.89,10.69,1.1,10.69,7.08-.15,7.23-.63,2.2-10.7,2.2-10.7,6.45,7.4,9.28,6.77a38.51,38.51,0,0,0,7.24-3s2.67-18.4,2.67-19-2.52-6.76-2.2-8.18,1.26-6.45,0-6.13-9.12,5.34-10.22,5.82-3.3,5.45-4.09,5.79-8.49-1.08-8.49-1.08l-1-4.4s8.34-5.35,9.12-6.13-2.67-4.25-2.67-4.25,10.22,1.73,11.32,1.26,2.36-4.56,3.15-4.56,5,.47,5,.47,2.36,3.46,2.83,3.3c.1-1,.24-2,.44-3.09a7.19,7.19,0,0,1,1.43-3.3" transform="translate(0.29 0.3)" fill="#baa4f9"/><path id="패스_54" data-name="패스 54" d="M267.72,379.57c2-2.34,5.59-2.15,8.59-2.85,5.83-1.34,10-6.36,13.57-11.16a8.68,8.68,0,0,1,2.93-2.88,6.85,6.85,0,0,1,2.85-.6,26.11,26.11,0,0,1,9.89,2.11,11,11,0,0,1-1.4-4.25,4.16,4.16,0,0,0-.57-2.2c-1-1.16-2.79-.55-4.29-.57-3.61,0-5.7-4.07-8.83-5.89-2.15-1.25-4.75-1.41-7.1-2.22s-4.71-2.78-4.5-5.26c.24-2.88,3.51-4.26,5.86-6a2.41,2.41,0,0,0,1.23-1.86,2.62,2.62,0,0,0-.66-1.38c-.8-1-1.71-2.54-2.54-3.72h-.08c-1.28.17-2.6-.4-3.86-.11-2.66.62-3.08,4.18-4.68,6.39-2.39,3.3-7.22,3.29-11.28,2.94-4.78-.4-9.66-.82-14.09-2.68a17.34,17.34,0,0,1-8-6.45c-2.91.12-8.52.47-11.36,1.41a9.47,9.47,0,0,1-6,0l-13.73-.68c-1.62-6.43,2.16-14.36-2.28-19.28-1.55-1.72-3.8-2.6-6-3.42-6.89-2.62-14-5.28-21.39-4.94h-.54c-7.53.5-15.35,5.18-17,12.56-.32,1.45-.41,3-1.26,4.24-1.26,1.83-3.78,2.31-5.35,3.88-2.24,2.23-2,5.86-1.52,9L156.9,352c1,6.79,1.55,14.7-3.35,19.49l-.18-.14c-.42,2.15,1.67,4.34,3.31,5.85s3.78,2.85,4.9,4.88c1.9,3.45.48,7.78,1.35,11.62.91,4,4.18,7,6.78,10.2a35.82,35.82,0,0,1,7.15,15.18c.58,1.5.56,6.26,2.59,6.51,2.52.31,6.61,2.2,8,1.1a12.57,12.57,0,0,1,3.62-1.73s3.14,2.2,3.77,2.2a45,45,0,0,0,5-1.89s.94-20.92,1.73-20.76,7.23,3.15,8.49,3.3,8.49-.78,10.22.47,7.87,10.7,8.81,10.7,4.4.16,4.09.95-1.89,10.69,1.1,10.69,7.08-.15,7.23-.63,2.2-10.7,2.2-10.7,6.45,7.4,9.28,6.77a38.51,38.51,0,0,0,7.24-3s2.67-18.4,2.67-19-2.52-6.76-2.2-8.18,1.26-6.45,0-6.13-9.12,5.34-10.22,5.82-3.3,5.45-4.09,5.79-8.49-1.08-8.49-1.08l-1-4.4s8.34-5.35,9.12-6.13-2.67-4.25-2.67-4.25,10.22,1.73,11.32,1.26,2.36-4.56,3.15-4.56,5,.47,5,.47,2.36,3.46,2.83,3.3c.1-1,.24-2,.44-3.09A7.06,7.06,0,0,1,267.72,379.57Z" transform="translate(0.29 0.3)" fill="none" stroke="#fff" stroke-miterlimit="10"/></g></g></g><g id="그룹_88" data-name="그룹 88"><g clip-path="url(#clip-path)"><g id="그룹_87" data-name="그룹 87"><path id="패스_55" data-name="패스 55" d="M229.43,332.4c2.83-.94,8.44-1.28,11.35-1.4a12.37,12.37,0,0,1-1.56-3.62c.18-2.74,4.06-2.87,6.74-3.45,3.63-.8,6.32-3.81,8.55-6.79,4.81-6.43,8.88-14.28,7.4-22.17S251,280.65,244.13,284.8c-3.48,2.11-5.48,6.31-9.24,7.86-3.48,1.43-8.51.8-10,4.27-.95,2.25.43,4.72,1.38,7a20.54,20.54,0,0,1,0,15.74c-1.76,4.17-4.93,8.84-2.63,12.74h-.32a9.49,9.49,0,0,0,6.05,0" transform="translate(0.29 0.3)" fill="#f1a274"/><path id="패스_56" data-name="패스 56" d="M229.43,332.4c2.83-.94,8.44-1.28,11.35-1.4a12.37,12.37,0,0,1-1.56-3.62c.18-2.74,4.06-2.87,6.74-3.45,3.63-.8,6.32-3.81,8.55-6.79,4.81-6.43,8.88-14.28,7.4-22.17S251,280.65,244.13,284.8c-3.48,2.11-5.48,6.31-9.24,7.86-3.48,1.43-8.51.8-10,4.27-.95,2.25.43,4.72,1.38,7a20.54,20.54,0,0,1,0,15.74c-1.76,4.17-4.93,8.84-2.63,12.74h-.32A9.54,9.54,0,0,0,229.43,332.4Z" transform="translate(0.29 0.3)" fill="none" stroke="#fff" stroke-miterlimit="10"/><path id="패스_57" data-name="패스 57" d="M315.12,152.8c1.61-.07,6.29,9.59,7.39,13.52s-3.62,11-2.36,13.37,7.08,10.54,6.76,11.95-.47,7.87-1.1,9.44-5,9.44-4.87,10.54,3.77,14.63,3.14,17.3-5,24.22-4.09,28.47,4.4,11,5,12.26-5.35,6.3-5.35,6.3,3.3,3.3,4.4,3.3,6-5.67,6.45-5.67,8-.63,8.17.48.79,8.17,0,9.43-3.93,12.43-5.19,17.15-7.55,36.64-7.23,37.27-5.19,2-6.29,2,1.73,7.87,2,9.6-8.81,9.75-8.81,10.22a111.8,111.8,0,0,1-4.4,11.32c-1.41,3-20.44,19.19-21.39,19.35s-3.93,1.73-5,.79-5.5-6.61-5.5-6.61-1.89,7.24-2.2,7.55-3.93,3.46-4.56,3.3-4.25-3.46-4.25-4.25.48-5.34,0-5.19c.1-1,.24-2,.44-3.08a7.07,7.07,0,0,1,1.42-3.3c2-2.34,5.59-2.15,8.59-2.85,5.83-1.34,10-6.36,13.57-11.16a8.86,8.86,0,0,1,2.93-2.88,7,7,0,0,1,2.85-.6,26.11,26.11,0,0,1,9.89,2.11,24.3,24.3,0,0,0,3.92,5,24.3,24.3,0,0,1-3.92-5,11.22,11.22,0,0,1-1.4-4.25,4,4,0,0,0-.57-2.2c-.95-1.16-2.79-.55-4.29-.57-3.61,0-5.7-4.07-8.83-5.89-2.15-1.25-4.74-1.41-7.1-2.22s-4.71-2.78-4.5-5.26c.24-2.88,3.51-4.26,5.86-5.95a2.37,2.37,0,0,0,1.23-1.86,2.7,2.7,0,0,0-.66-1.38c-.8-1-1.71-2.54-2.54-3.72,3.72-.52,4-5.93,6.63-8.7,2.19-2.35,6-2.5,8.93-1.24s5.23,3.65,7.43,6c2.48-3.07,7.39-2.52,10.86-.66s6.45,4.76,10.24,5.82h0c-3.8-1.06-6.77-4-10.24-5.82s-8.38-2.41-10.86.66c-2.2-2.33-4.49-4.72-7.43-6s-6.74-1.1-8.93,1.24c-2.59,2.77-2.91,8.18-6.63,8.7h-.06c-1.28.17-2.6-.4-3.86-.1-2.66.61-3.08,4.17-4.68,6.38-2.39,3.3-7.22,3.29-11.28,3-4.78-.4-9.66-.83-14.09-2.68a17.51,17.51,0,0,1-8-6.45,12.37,12.37,0,0,1-1.56-3.62c.18-2.74,4.06-2.87,6.74-3.46,3.64-.79,6.33-3.8,8.56-6.79,4.8-6.42,8.87-14.28,7.4-22.16S251,280.73,244.11,284.89c-3.47,2.12-5.47,6.31-9.24,7.86-3.47,1.43-8.51.81-10,4.27-1,2.25.44,4.73,1.39,7a20.52,20.52,0,0,1,0,15.73c-1.75,4.18-4.93,8.85-2.63,12.75h-.31a6.23,6.23,0,0,1-1-.42,6.23,6.23,0,0,0,1,.42l-13.65-.8c-1.62-6.42,2.15-14.35-2.28-19.27-1.55-1.72-3.8-2.6-6-3.43-6.89-2.62-14-5.27-21.39-4.93h0a24.93,24.93,0,0,1,1.74-6.84c1.41-3.52.45-6.2-.59-9.38h.52a2.92,2.92,0,0,0,1.46-1.2l8.38-10.75c3.24-4.16,6.67-9,5.88-14.2-.83-5.53-6.13-9.24-11.31-11.34a4.1,4.1,0,0,1-2.14-1.44c-.63-1.1-.08-2.48-.16-3.74-.11-1.67-1.34-3-1.73-4.67-.7-2.9,1.3-5.66,2.18-8.5,2-6.4-3-14-9.62-14.76A207.22,207.22,0,0,1,202,191.43a31.61,31.61,0,0,0,5-4.44,14.53,14.53,0,0,1,2.71-3c3.08-2.16,7.26-.22,10.54,1.63s7.7,3.48,10.49,1a9.24,9.24,0,0,0,2.18-4l2.85-8.05c1.23-3.47,2.49-7,4.71-9.95s5.52-5.18,9.15-5.23c2.61-.42,5.08-.49,7.78-.72,10.41-.88,20.68-.38,30.34-.59,6-.12,9-1.52,13-2.89,5.5-1.9,9-6.09,13.09-10.33,0,0-.6,8,1.31,7.92" transform="translate(0.29 0.3)" fill="#f1a274"/><path id="패스_58" data-name="패스 58" d="M315.12,152.8c1.61-.07,6.29,9.59,7.39,13.52s-3.62,11-2.36,13.37,7.08,10.54,6.76,11.95-.47,7.87-1.1,9.44-5,9.44-4.87,10.54,3.77,14.63,3.14,17.3-5,24.22-4.09,28.47,4.4,11,5,12.26-5.35,6.3-5.35,6.3,3.3,3.3,4.4,3.3,6-5.67,6.45-5.67,8-.63,8.17.48.79,8.17,0,9.43-3.93,12.43-5.19,17.15-7.55,36.64-7.23,37.27-5.19,2-6.29,2,1.73,7.87,2,9.6-8.81,9.75-8.81,10.22a111.8,111.8,0,0,1-4.4,11.32c-1.41,3-20.44,19.19-21.39,19.35s-3.93,1.73-5,.79-5.5-6.61-5.5-6.61-1.89,7.24-2.2,7.55-3.93,3.46-4.56,3.3-4.25-3.46-4.25-4.25.48-5.34,0-5.19c.1-1,.24-2,.44-3.08a7.07,7.07,0,0,1,1.42-3.3c2-2.34,5.59-2.15,8.59-2.85,5.83-1.34,10-6.36,13.57-11.16a8.86,8.86,0,0,1,2.93-2.88,7,7,0,0,1,2.85-.6,26.11,26.11,0,0,1,9.89,2.11,24.3,24.3,0,0,0,3.92,5,24.3,24.3,0,0,1-3.92-5,11.22,11.22,0,0,1-1.4-4.25,4,4,0,0,0-.57-2.2c-.95-1.16-2.79-.55-4.29-.57-3.61,0-5.7-4.07-8.83-5.89-2.15-1.25-4.74-1.41-7.1-2.22s-4.71-2.78-4.5-5.26c.24-2.88,3.51-4.26,5.86-5.95a2.37,2.37,0,0,0,1.23-1.86,2.7,2.7,0,0,0-.66-1.38c-.8-1-1.71-2.54-2.54-3.72,3.72-.52,4-5.93,6.63-8.7,2.19-2.35,6-2.5,8.93-1.24s5.23,3.65,7.43,6c2.48-3.07,7.39-2.52,10.86-.66s6.45,4.76,10.24,5.82h0c-3.8-1.06-6.77-4-10.24-5.82s-8.38-2.41-10.86.66c-2.2-2.33-4.49-4.72-7.43-6s-6.74-1.1-8.93,1.24c-2.59,2.77-2.91,8.18-6.63,8.7h-.06c-1.28.17-2.6-.4-3.86-.1-2.66.61-3.08,4.17-4.68,6.38-2.39,3.3-7.22,3.29-11.28,3-4.78-.4-9.66-.83-14.09-2.68a17.51,17.51,0,0,1-8-6.45,12.37,12.37,0,0,1-1.56-3.62c.18-2.74,4.06-2.87,6.74-3.46,3.64-.79,6.33-3.8,8.56-6.79,4.8-6.42,8.87-14.28,7.4-22.16S251,280.73,244.11,284.89c-3.47,2.12-5.47,6.31-9.24,7.86-3.47,1.43-8.51.81-10,4.27-1,2.25.44,4.73,1.39,7a20.52,20.52,0,0,1,0,15.73c-1.75,4.18-4.93,8.85-2.63,12.75h-.31a6.23,6.23,0,0,1-1-.42,6.23,6.23,0,0,0,1,.42l-13.65-.8c-1.62-6.42,2.15-14.35-2.28-19.27-1.55-1.72-3.8-2.6-6-3.43-6.89-2.62-14-5.27-21.39-4.93h0a24.93,24.93,0,0,1,1.74-6.84c1.41-3.52.45-6.2-.59-9.38h.52a2.92,2.92,0,0,0,1.46-1.2l8.38-10.75c3.24-4.16,6.67-9,5.88-14.2-.83-5.53-6.13-9.24-11.31-11.34a4.1,4.1,0,0,1-2.14-1.44c-.63-1.1-.08-2.48-.16-3.74-.11-1.67-1.34-3-1.73-4.67-.7-2.9,1.3-5.66,2.18-8.5,2-6.4-3-14-9.62-14.76A207.22,207.22,0,0,1,202,191.43a31.61,31.61,0,0,0,5-4.44,14.53,14.53,0,0,1,2.71-3c3.08-2.16,7.26-.22,10.54,1.63s7.7,3.48,10.49,1a9.24,9.24,0,0,0,2.18-4l2.85-8.05c1.23-3.47,2.49-7,4.71-9.95s5.52-5.18,9.15-5.23c2.61-.42,5.08-.49,7.78-.72,10.41-.88,20.68-.38,30.34-.59,6-.12,9-1.52,13-2.89,5.5-1.9,9-6.09,13.09-10.33C313.81,144.85,313.21,152.85,315.12,152.8Z" transform="translate(0.29 0.3)" fill="none" stroke="#fff" stroke-miterlimit="10"/></g></g></g><g id="그룹_90" data-name="그룹 90"><g clip-path="url(#clip-path)"><g id="그룹_89" data-name="그룹 89"><path id="패스_59" data-name="패스 59" d="M249.92,159.29c0-.42,15.28-1.17,36-1.17,14.47,0,25.32-8.23,28.35-12.37,1.84-2.52-.39-6.3-1.65-9.62-3.14-8.25-10.5-9.38-14.32-17.27-2.2-4.56-7.55-17-9-18.87S270.45,71.8,269,70.1s-14.15-19.34-15.73-23a124.37,124.37,0,0,1-4.72-16.51,9.4,9.4,0,0,0-1.73-5.66C245.28,23,235.68.2,235.68.2h-3.42c-7.15,1.23-14.46,1.62-21.42,3.66C196.65,8,182.42,19,168.69,13.49c-6.22-2.49-12.78-8.23-18.6-4.9-2,1.15-3.35,3.21-5.28,4.5-7,4.67-16.31-3.05-24.59-1.46a16.3,16.3,0,0,0-5.11,2.09c.59,2,1.1,4.15,1.72,6.18,1.53,5,4.3,10.2,9.23,11.92,2.26.79,4.74.75,7,1.53,4.6,1.6,7.35,6.19,9.71,10.45l6.08,11a11.61,11.61,0,0,1,1.82,4.94c.1,2.2-1,4.23-1.94,6.24a31.24,31.24,0,0,0-1.53,21.19,11.42,11.42,0,0,0,3.15,5.68c2.23,1.93,5.38,2.24,8.29,2.73,4.41.73,9.08,2.32,11.57,6s2.13,9,1.57,13.61l-3.27,27.18a5.81,5.81,0,0,0,.38,3.74,3.33,3.33,0,0,0,1.3,1.17,9.3,9.3,0,0,0,3.19.84c7.25.92,15.85,1.34,20.52-4.28a24.48,24.48,0,0,1,2.88-3.54c3.08-2.58,7.72-1.41,11.46.06a127.59,127.59,0,0,1,16.62,8c7.67,4.38,15.22,9.68,24,10.82l1.08.12h0" transform="translate(0.29 0.3)" fill="#56bfb5"/><path id="패스_60" data-name="패스 60" d="M249.92,159.29c0-.42,15.28-1.17,36-1.17,14.47,0,25.32-8.23,28.35-12.37,1.84-2.52-.39-6.3-1.65-9.62-3.14-8.25-10.5-9.38-14.32-17.27-2.2-4.56-7.55-17-9-18.87S270.45,71.8,269,70.1s-14.15-19.34-15.73-23a124.37,124.37,0,0,1-4.72-16.51,9.4,9.4,0,0,0-1.73-5.66C245.28,23,235.68.2,235.68.2h-3.42c-7.15,1.23-14.46,1.62-21.42,3.66C196.65,8,182.42,19,168.69,13.49c-6.22-2.49-12.78-8.23-18.6-4.9-2,1.15-3.35,3.21-5.28,4.5-7,4.67-16.31-3.05-24.59-1.46a16.3,16.3,0,0,0-5.11,2.09c.59,2,1.1,4.15,1.72,6.18,1.53,5,4.3,10.2,9.23,11.92,2.26.79,4.74.75,7,1.53,4.6,1.6,7.35,6.19,9.71,10.45l6.08,11a11.61,11.61,0,0,1,1.82,4.94c.1,2.2-1,4.23-1.94,6.24a31.24,31.24,0,0,0-1.53,21.19,11.42,11.42,0,0,0,3.15,5.68c2.23,1.93,5.38,2.24,8.29,2.73,4.41.73,9.08,2.32,11.57,6s2.13,9,1.57,13.61l-3.27,27.18a5.81,5.81,0,0,0,.38,3.74,3.33,3.33,0,0,0,1.3,1.17,9.3,9.3,0,0,0,3.19.84c7.25.92,15.85,1.34,20.52-4.28a24.48,24.48,0,0,1,2.88-3.54c3.08-2.58,7.72-1.41,11.46.06a127.59,127.59,0,0,1,16.62,8c7.67,4.38,15.22,9.68,24,10.82l1.08.12h0" transform="translate(0.29 0.3)" fill="none" stroke="#fff" stroke-miterlimit="10"/></g></g></g><g id="그룹_92" data-name="그룹 92"><g clip-path="url(#clip-path)"><g id="그룹_91" data-name="그룹 91"><path id="패스_61" data-name="패스 61" d="M159.31,156.65c-1.82,1.5-3.27,3.4-5.06,4.94-4.27,3.66-10.07,4.95-14.84,7.94a15.32,15.32,0,0,0-4.52,4.08c-1,1.37-1.64,3-2.66,4.3a5.65,5.65,0,0,1-3.53,2.36,39.17,39.17,0,0,0,4.46,6.09c2.87,2.82,7.49,5.28,6.82,9.25-1,5.74-11.95,5.5-12.13,11.33-.07,2.39,1.94,4.26,3,6.38,1.84,3.47,1.32,7.91,3.49,11.18a8.55,8.55,0,0,0,1.18,1.43c1.9,1.85,4.53,2.95,6.92,4.21,2.94,1.56,6,4,6.11,7.32s-2.64,6.14-3.08,9.45a7.93,7.93,0,0,0,.85,4.66c1.87,3.82,6.12,7.06,8.08,11.12,2.72,5.6,1.22,13.31,5.94,17.38l.25.2a16.76,16.76,0,0,0,5.2,2.45l14.28,4.83.24.08h0a3,3,0,0,0,.79.17h.52a2.92,2.92,0,0,0,1.46-1.2l8.46-10.8c3.24-4.17,6.67-9,5.88-14.2-.83-5.53-6.13-9.25-11.31-11.35A4,4,0,0,1,184,248.8c-.64-1.09-.08-2.47-.16-3.73-.11-1.67-1.34-3-1.74-4.68-.7-2.89,1.3-5.66,2.19-8.5,2-6.4-3-14-9.62-14.76A207.22,207.22,0,0,1,202,191.31a31.55,31.55,0,0,0,5-4.43,14.63,14.63,0,0,1,2.66-2.95c3.08-2.16,7.26-.22,10.54,1.62s7.7,3.49,10.49,1a9.34,9.34,0,0,0,2.18-4l2.85-8c1.23-3.48,2.49-7,4.71-10s5.52-5.18,9.15-5.23a7.62,7.62,0,0,1-1.07-.12c-8.76-1.14-16.31-6.43-24-10.81a127.59,127.59,0,0,0-16.62-8c-3.75-1.47-8.39-2.64-11.47,0a25.66,25.66,0,0,0-2.88,3.53c-4.67,5.62-13.27,5.2-20.52,4.28a9.25,9.25,0,0,1-3.18-.84c-2.52,3.56-7.78,7-10.54,9.29" transform="translate(0.29 0.3)" fill="#f2d06b"/><path id="패스_62" data-name="패스 62" d="M159.31,156.65c-1.82,1.5-3.27,3.4-5.06,4.94-4.27,3.66-10.07,4.95-14.84,7.94a15.32,15.32,0,0,0-4.52,4.08c-1,1.37-1.64,3-2.66,4.3a5.65,5.65,0,0,1-3.53,2.36,39.17,39.17,0,0,0,4.46,6.09c2.87,2.82,7.49,5.28,6.82,9.25-1,5.74-11.95,5.5-12.13,11.33-.07,2.39,1.94,4.26,3,6.38,1.84,3.47,1.32,7.91,3.49,11.18a8.55,8.55,0,0,0,1.18,1.43c1.9,1.85,4.53,2.95,6.92,4.21,2.94,1.56,6,4,6.11,7.32s-2.64,6.14-3.08,9.45a7.93,7.93,0,0,0,.85,4.66c1.87,3.82,6.12,7.06,8.08,11.12,2.72,5.6,1.22,13.31,5.94,17.38l.25.2a16.76,16.76,0,0,0,5.2,2.45l14.28,4.83.24.08h0a3,3,0,0,0,.79.17h.52a2.92,2.92,0,0,0,1.46-1.2l8.46-10.8c3.24-4.17,6.67-9,5.88-14.2-.83-5.53-6.13-9.25-11.31-11.35A4,4,0,0,1,184,248.8c-.64-1.09-.08-2.47-.16-3.73-.11-1.67-1.34-3-1.74-4.68-.7-2.89,1.3-5.66,2.19-8.5,2-6.4-3-14-9.62-14.76A207.22,207.22,0,0,1,202,191.31a31.55,31.55,0,0,0,5-4.43,14.63,14.63,0,0,1,2.66-2.95c3.08-2.16,7.26-.22,10.54,1.62s7.7,3.49,10.49,1a9.34,9.34,0,0,0,2.18-4l2.85-8c1.23-3.48,2.49-7,4.71-10s5.52-5.18,9.15-5.23a7.62,7.62,0,0,1-1.07-.12c-8.76-1.14-16.31-6.43-24-10.81a127.59,127.59,0,0,0-16.62-8c-3.75-1.47-8.39-2.64-11.47,0a25.66,25.66,0,0,0-2.88,3.53c-4.67,5.62-13.27,5.2-20.52,4.28a9.25,9.25,0,0,1-3.18-.84C167.33,150.92,162.07,154.38,159.31,156.65Z" transform="translate(0.29 0.3)" fill="none" stroke="#fff" stroke-miterlimit="10"/><path id="패스_63" data-name="패스 63" d="M76.49,289.6a18,18,0,0,0,6.11-3c3.89-2.55,8.23-5.92,8.1-10.56,0-1.37-.49-2.74-.22-4.09.47-2.33,2.9-3.71,5.2-4.3a7.44,7.44,0,0,1,4.71,0c3.22,1.33,4,5.44,4.59,8.87s2.54,7.52,6,7.43c3.74-.1,5.26-4.74,7.87-7.42,4-4.11,12-2.72,14.4,2.5.67,1.46.94,3.11,1.77,4.49a10.47,10.47,0,0,0,4.67,3.67c3.73,1.75,8,2.76,12,1.67,3.52-1,7.27-4.95,8.94-8.65a2.43,2.43,0,0,1-.25-.2c-4.73-4.06-3.23-11.77-5.95-17.38-2-4.05-6.21-7.29-8.08-11.12-.36,3.24-1,7.49-3.27,9.35a8.68,8.68,0,0,1-6.31,1.65,26.17,26.17,0,0,1-6.44-1.76,3.58,3.58,0,0,1-2.54-2.43l-2.3-4.83c-1.11-2.33-2.24-4.78-2.14-7.36.18-4.72,4.26-8.18,7.31-11.8a46,46,0,0,0,4.9-8.46,8.55,8.55,0,0,1-1.18-1.43c-2.17-3.27-1.66-7.71-3.49-11.18-1.12-2.12-3.12-4-3-6.38.18-5.83,11.14-5.59,12.12-11.33.68-4-4-6.43-6.82-9.25a38.48,38.48,0,0,1-4.45-6.09,2.73,2.73,0,0,1-.7,0,2.73,2.73,0,0,0,.7,0c-.45-.65-.92-1.28-1.43-1.88a17.14,17.14,0,0,0-19.83-4.26c-3.69,1.75-7.06,4.93-11.13,4.63a8.91,8.91,0,0,1-2.17-.45c-.38,1.55-.63,2.94-.63,2.94s-7.83-5.39-11.61-5.72S70.58,175.16,70,173.9s-5.34-4.4-7.85-3.77-1.89-.94-2.52.63.94,4.09.94,4.09-17-1.57-19.48-.32-5.65,10.37-7.54,11.94-9.42,10.06-9.74,12.26,7.54,15.21,9.74,13.89,6.29,0,6.29,0,2.51,6.84,3.77,8.73-.32,6.28.94,8.17,3.14,9.82,5.66,11.82,6.28,1.91,6.6,2,2.2-7.18,1.25-8.75-9.11-17.6-6.6-19.48,8.49-5.22,8.8-2.45,3.46,5.59,1.89,6.53A23.93,23.93,0,0,0,58,223.27s5.66,7.86,5,11.63.94,13.83.94,17.91.63,10.37-1.25,11.63S57,269.76,58,269.61s3.15,4.88,5,4.57a24.57,24.57,0,0,1,5,0s5.34,2.5,4.71,5c-.49,2-2.13,7.17-2.23,10a12.1,12.1,0,0,0,5.94.47" transform="translate(0.29 0.3)" fill="#f2d06b"/><path id="패스_64" data-name="패스 64" d="M76.49,289.6a18,18,0,0,0,6.11-3c3.89-2.55,8.23-5.92,8.1-10.56,0-1.37-.49-2.74-.22-4.09.47-2.33,2.9-3.71,5.2-4.3a7.44,7.44,0,0,1,4.71,0c3.22,1.33,4,5.44,4.59,8.87s2.54,7.52,6,7.43c3.74-.1,5.26-4.74,7.87-7.42,4-4.11,12-2.72,14.4,2.5.67,1.46.94,3.11,1.77,4.49a10.47,10.47,0,0,0,4.67,3.67c3.73,1.75,8,2.76,12,1.67,3.52-1,7.27-4.95,8.94-8.65a2.43,2.43,0,0,1-.25-.2c-4.73-4.06-3.23-11.77-5.95-17.38-2-4.05-6.21-7.29-8.08-11.12-.36,3.24-1,7.49-3.27,9.35a8.68,8.68,0,0,1-6.31,1.65,26.17,26.17,0,0,1-6.44-1.76,3.58,3.58,0,0,1-2.54-2.43l-2.3-4.83c-1.11-2.33-2.24-4.78-2.14-7.36.18-4.72,4.26-8.18,7.31-11.8a46,46,0,0,0,4.9-8.46,8.55,8.55,0,0,1-1.18-1.43c-2.17-3.27-1.66-7.71-3.49-11.18-1.12-2.12-3.12-4-3-6.38.18-5.83,11.14-5.59,12.12-11.33.68-4-4-6.43-6.82-9.25a38.48,38.48,0,0,1-4.45-6.09,2.73,2.73,0,0,1-.7,0,2.73,2.73,0,0,0,.7,0c-.45-.65-.92-1.28-1.43-1.88a17.14,17.14,0,0,0-19.83-4.26c-3.69,1.75-7.06,4.93-11.13,4.63a8.91,8.91,0,0,1-2.17-.45c-.38,1.55-.63,2.94-.63,2.94s-7.83-5.39-11.61-5.72S70.58,175.16,70,173.9s-5.34-4.4-7.85-3.77-1.89-.94-2.52.63.94,4.09.94,4.09-17-1.57-19.48-.32-5.65,10.37-7.54,11.94-9.42,10.06-9.74,12.26,7.54,15.21,9.74,13.89,6.29,0,6.29,0,2.51,6.84,3.77,8.73-.32,6.28.94,8.17,3.14,9.82,5.66,11.82,6.28,1.91,6.6,2,2.2-7.18,1.25-8.75-9.11-17.6-6.6-19.48,8.49-5.22,8.8-2.45,3.46,5.59,1.89,6.53A23.93,23.93,0,0,0,58,223.27s5.66,7.86,5,11.63.94,13.83.94,17.91.63,10.37-1.25,11.63S57,269.76,58,269.61s3.15,4.88,5,4.57a24.57,24.57,0,0,1,5,0s5.34,2.5,4.71,5c-.49,2-2.13,7.17-2.23,10A12,12,0,0,0,76.49,289.6Z" transform="translate(0.29 0.3)" fill="none" stroke="#fff" stroke-miterlimit="10"/><path id="패스_65" data-name="패스 65" d="M145.52,246.91c.44-3.31,3.23-6.11,3.08-9.45s-3.17-5.76-6.11-7.32c-2.39-1.26-5-2.36-6.92-4.22a45.52,45.52,0,0,1-4.9,8.47c-3,3.61-7.13,7.07-7.31,11.8-.1,2.58,1,5,2.15,7.36l2.3,4.83a3.56,3.56,0,0,0,2.54,2.43,26.09,26.09,0,0,0,6.43,1.76,8.68,8.68,0,0,0,6.31-1.65c2.24-1.86,2.91-6.11,3.28-9.35a7.9,7.9,0,0,1-.85-4.65" transform="translate(0.29 0.3)" fill="#f2d06b"/><path id="패스_66" data-name="패스 66" d="M145.52,246.91c.44-3.31,3.23-6.11,3.08-9.45s-3.17-5.76-6.11-7.32c-2.39-1.26-5-2.36-6.92-4.22a45.52,45.52,0,0,1-4.9,8.47c-3,3.61-7.13,7.07-7.31,11.8-.1,2.58,1,5,2.15,7.36l2.3,4.83a3.56,3.56,0,0,0,2.54,2.43,26.09,26.09,0,0,0,6.43,1.76,8.68,8.68,0,0,0,6.31-1.65c2.24-1.86,2.91-6.11,3.28-9.35A7.93,7.93,0,0,1,145.52,246.91Z" transform="translate(0.29 0.3)" fill="none" stroke="#fff" stroke-miterlimit="10"/></g></g></g><g id="그룹_94" data-name="그룹 94"><g clip-path="url(#clip-path)"><g id="그룹_93" data-name="그룹 93"><path id="패스_67" data-name="패스 67" d="M107.45,174.13a17.16,17.16,0,0,1,19.83,4.25,21.19,21.19,0,0,1,1.42,1.89,5.69,5.69,0,0,0,3.53-2.36c1-1.34,1.68-2.93,2.65-4.31a15.59,15.59,0,0,1,4.53-4.07c4.77-3,10.57-4.28,14.83-8,1.79-1.53,3.25-3.44,5.07-4.93,2.76-2.27,8-5.74,10.53-9.29a3.36,3.36,0,0,1-1.3-1.18,5.71,5.71,0,0,1-.38-3.73l3.27-27.18c.56-4.64,1-9.73-1.57-13.62-2.49-3.72-7.16-5.31-11.57-6-2.91-.48-6.06-.8-8.29-2.72a11.45,11.45,0,0,1-3.15-5.69A31.24,31.24,0,0,1,148.38,66c.9-2,2-4,1.94-6.23a11.61,11.61,0,0,0-1.82-4.94l-6.08-10.94c-2.36-4.26-5.11-8.85-9.71-10.45-2.26-.78-4.75-.74-7-1.53-4.92-1.72-7.7-6.93-9.22-11.92-.62-2-1.13-4.13-1.72-6.18-.91.53-1.79,1.1-2.67,1.68L89.5,30.3c-1,.67-2.11,1.47-2.32,2.66-.29,1.66,1.26,3,2,4.51,2.32,4.73-3.34,9.3-8.11,11.5s-10.51,6.56-8.43,11.39c.72,1.67,2.37,3.37,1.56,5a3.52,3.52,0,0,1-2.11,1.53A20.52,20.52,0,0,1,62.27,68a31.26,31.26,0,0,1-2.69,10.83,35.15,35.15,0,0,0-2.3,4.89c-1.55,5.1,1.27,10.4,4,15,4.65-.82,8-6,12.72-5.68,3.43.22,5.76,3.22,7.51,6.3C84,98,87.79,97.44,89.58,95.46a11.67,11.67,0,0,0,1.73-3.08c2-4.45,5.11-8.72,9.65-10.48s10.62,0,12.32,4.53a18.44,18.44,0,0,0,1.12,3.15c1.11,1.84,3.44,2.5,5.58,2.7s4.38.08,6.32,1a2.38,2.38,0,0,1,1.28,1.16,2.86,2.86,0,0,1,0,1.64c-1,4.55-2.58,9.06-5.55,12.64s-7.46,6.1-12.1,5.87a50.55,50.55,0,0,1-6.1-1.07c-5.49-1-12.17.09-17.8,1.22l-.58.53-11,9.61a14.94,14.94,0,0,1-2.61,2c5.68,4.36,16.19,11.74,15.72,12.45-.63,1-22-1.88-26.71,0s-12.25,2.52-11,4.72,9.43,11.32,11.63,11.32,11-3.14,11.63,0-.32,8.17,2.83,7.54,13.54-5.34,11.64-3.77-2.35,3.77.23,5.66,8.55,8.17,7.61,9.74a16.64,16.64,0,0,0-1.26,3.76,9.62,9.62,0,0,0,2.18.46c4.07.3,7.44-2.88,11.12-4.63" transform="translate(0.29 0.3)" fill="#55a6d9"/><path id="패스_68" data-name="패스 68" d="M107.45,174.13a17.16,17.16,0,0,1,19.83,4.25,21.19,21.19,0,0,1,1.42,1.89,5.69,5.69,0,0,0,3.53-2.36c1-1.34,1.68-2.93,2.65-4.31a15.59,15.59,0,0,1,4.53-4.07c4.77-3,10.57-4.28,14.83-8,1.79-1.53,3.25-3.44,5.07-4.93,2.76-2.27,8-5.74,10.53-9.29a3.36,3.36,0,0,1-1.3-1.18,5.71,5.71,0,0,1-.38-3.73l3.27-27.18c.56-4.64,1-9.73-1.57-13.62-2.49-3.72-7.16-5.31-11.57-6-2.91-.48-6.06-.8-8.29-2.72a11.45,11.45,0,0,1-3.15-5.69A31.24,31.24,0,0,1,148.38,66c.9-2,2-4,1.94-6.23a11.61,11.61,0,0,0-1.82-4.94l-6.08-10.94c-2.36-4.26-5.11-8.85-9.71-10.45-2.26-.78-4.75-.74-7-1.53-4.92-1.72-7.7-6.93-9.22-11.92-.62-2-1.13-4.13-1.72-6.18-.91.53-1.79,1.1-2.67,1.68L89.5,30.3c-1,.67-2.11,1.47-2.32,2.66-.29,1.66,1.26,3,2,4.51,2.32,4.73-3.34,9.3-8.11,11.5s-10.51,6.56-8.43,11.39c.72,1.67,2.37,3.37,1.56,5a3.52,3.52,0,0,1-2.11,1.53A20.52,20.52,0,0,1,62.27,68a31.26,31.26,0,0,1-2.69,10.83,35.15,35.15,0,0,0-2.3,4.89c-1.55,5.1,1.27,10.4,4,15,4.65-.82,8-6,12.72-5.68,3.43.22,5.76,3.22,7.51,6.3C84,98,87.79,97.44,89.58,95.46a11.67,11.67,0,0,0,1.73-3.08c2-4.45,5.11-8.72,9.65-10.48s10.62,0,12.32,4.53a18.44,18.44,0,0,0,1.12,3.15c1.11,1.84,3.44,2.5,5.58,2.7s4.38.08,6.32,1a2.38,2.38,0,0,1,1.28,1.16,2.86,2.86,0,0,1,0,1.64c-1,4.55-2.58,9.06-5.55,12.64s-7.46,6.1-12.1,5.87a50.55,50.55,0,0,1-6.1-1.07c-5.49-1-12.17.09-17.8,1.22l-.58.53-11,9.61a14.94,14.94,0,0,1-2.61,2c5.68,4.36,16.19,11.74,15.72,12.45-.63,1-22-1.88-26.71,0s-12.25,2.52-11,4.72,9.43,11.32,11.63,11.32,11-3.14,11.63,0-.32,8.17,2.83,7.54,13.54-5.34,11.64-3.77-2.35,3.77.23,5.66,8.55,8.17,7.61,9.74a16.64,16.64,0,0,0-1.26,3.76,9.62,9.62,0,0,0,2.18.46C100.39,179.06,103.76,175.88,107.45,174.13Z" transform="translate(0.29 0.3)" fill="none" stroke="#fff" stroke-miterlimit="10"/><path id="패스_69" data-name="패스 69" d="M85,114.94l.58-.52A4.48,4.48,0,0,0,87,112.2a5.5,5.5,0,0,0-.9-3.48l-4.24-8.14c-.25-.48-.51-1-.8-1.46-1.74-3.06-4-6-7.45-6.26-4.67-.31-8,4.83-12.63,5.64-2.7-4.55-5.49-9.8-4-14.87a34.75,34.75,0,0,1,2.29-4.86A30.75,30.75,0,0,0,61.94,68a20.76,20.76,0,0,1-3.22-.7c-2.89-.89-5.57-2.41-8.52-3.09-5.61-1.3-11.6.67-16.23,4.11a28.26,28.26,0,0,0-9.9,14c2.51.35,5,.82,6.51,1.88,3.12,2.18,10.92,3.12,10.61,6.86s-5.62,11.54-2.5,11.54,10.29,5.93,14.66,6.24,17.46-2.5,19,0,3.75,5,1.25,7.49-6.86,5.3-5.61,7.17a22.72,22.72,0,0,0,3.42,2.93,15.17,15.17,0,0,0,2.59-2l10.9-9.54" transform="translate(0.29 0.3)" fill="#55a6d9"/><path id="패스_70" data-name="패스 70" d="M85,114.94l.58-.52A4.48,4.48,0,0,0,87,112.2a5.5,5.5,0,0,0-.9-3.48l-4.24-8.14c-.25-.48-.51-1-.8-1.46-1.74-3.06-4-6-7.45-6.26-4.67-.31-8,4.83-12.63,5.64-2.7-4.55-5.49-9.8-4-14.87a34.75,34.75,0,0,1,2.29-4.86A30.75,30.75,0,0,0,61.94,68a20.76,20.76,0,0,1-3.22-.7c-2.89-.89-5.57-2.41-8.52-3.09-5.61-1.3-11.6.67-16.23,4.11a28.26,28.26,0,0,0-9.9,14c2.51.35,5,.82,6.51,1.88,3.12,2.18,10.92,3.12,10.61,6.86s-5.62,11.54-2.5,11.54,10.29,5.93,14.66,6.24,17.46-2.5,19,0,3.75,5,1.25,7.49-6.86,5.3-5.61,7.17a22.72,22.72,0,0,0,3.42,2.93,15.17,15.17,0,0,0,2.59-2Z" transform="translate(0.29 0.3)" fill="none" stroke="#fff" stroke-miterlimit="10"/><path id="패스_71" data-name="패스 71" d="M86.1,108.71A5.46,5.46,0,0,1,87,112.2a4.33,4.33,0,0,1-1.44,2.21c5.58-1.12,12.21-2.15,17.66-1.21a49.39,49.39,0,0,0,6.05,1.06c4.61.22,9.07-2.28,12-5.83a28.7,28.7,0,0,0,5.51-12.54,2.83,2.83,0,0,0,0-1.63,2.44,2.44,0,0,0-1.27-1.16c-1.93-.91-4.15-.8-6.27-1s-4.44-.85-5.54-2.67a18.13,18.13,0,0,1-1.12-3.12c-1.68-4.54-7.72-6.25-12.23-4.5s-7.6,6-9.58,10.4a10.93,10.93,0,0,1-1.72,3c-1.77,2-5.54,2.55-8,3.85.28.49.54,1,.8,1.47l4.23,8.13" transform="translate(0.29 0.3)" fill="#55a6d9"/><path id="패스_72" data-name="패스 72" d="M86.1,108.71A5.46,5.46,0,0,1,87,112.2a4.33,4.33,0,0,1-1.44,2.21c5.58-1.12,12.21-2.15,17.66-1.21a49.39,49.39,0,0,0,6.05,1.06c4.61.22,9.07-2.28,12-5.83a28.7,28.7,0,0,0,5.51-12.54,2.83,2.83,0,0,0,0-1.63,2.44,2.44,0,0,0-1.27-1.16c-1.93-.91-4.15-.8-6.27-1s-4.44-.85-5.54-2.67a18.13,18.13,0,0,1-1.12-3.12c-1.68-4.54-7.72-6.25-12.23-4.5s-7.6,6-9.58,10.4a10.93,10.93,0,0,1-1.72,3c-1.77,2-5.54,2.55-8,3.85.28.49.54,1,.8,1.47Z" transform="translate(0.29 0.3)" fill="none" stroke="#fff" stroke-miterlimit="10"/></g></g></g></g><path id="location_on_FILL1_wght200_GRAD0_opsz48" data-name="location on FILL1 wght200 GRAD0 opsz48" d="M57.55,93.05a2.73,2.73,0,1,0-2.76-2.71,2.78,2.78,0,0,0,.8,1.91A2.73,2.73,0,0,0,57.55,93.05Zm0,20.5a63.68,63.68,0,0,1-11.31-12.5q-3.69-5.74-3.69-10.35a14.66,14.66,0,0,1,4.52-11.23,15.24,15.24,0,0,1,20.95,0q4.53,4.19,4.53,11.23,0,4.6-3.71,10.35A63.58,63.58,0,0,1,57.55,113.55Z" transform="translate(0.29 0.3)" fill="#0068b7" stroke="#fff" stroke-width="2"/><path id="location_on_FILL1_wght200_GRAD0_opsz48-2" data-name="location on FILL1 wght200 GRAD0 opsz48-2" d="M306.67,324.5a2.73,2.73,0,1,0-1.95-.8A2.69,2.69,0,0,0,306.67,324.5Zm0,20.5a63,63,0,0,1-11.3-12.5q-3.71-5.7-3.7-10.35,0-7,4.52-11.22a15.22,15.22,0,0,1,21,0q4.49,4.17,4.48,11.22,0,4.61-3.7,10.35A64,64,0,0,1,306.67,345Z" transform="translate(0.29 0.3)" fill="#ef5b05" stroke="#fff" stroke-width="2"/><path id="location_on_FILL1_wght200_GRAD0_opsz48-3" data-name="location on FILL1 wght200 GRAD0 opsz48-3" d="M195.67,400.55a2.73,2.73,0,1,0-1.95-.8A2.69,2.69,0,0,0,195.67,400.55Zm0,20.5a63,63,0,0,1-11.3-12.5q-3.7-5.74-3.7-10.35A14.66,14.66,0,0,1,185.19,387a15.24,15.24,0,0,1,20.95,0q4.53,4.18,4.53,11.23,0,4.6-3.7,10.35A64,64,0,0,1,195.67,421.05Z" transform="translate(0.29 0.3)" fill="#603acc" stroke="#fff" stroke-width="2"/><path id="location_on_FILL1_wght200_GRAD0_opsz48-4" data-name="location on FILL1 wght200 GRAD0 opsz48-4" d="M281.67,64.55a2.73,2.73,0,1,0-1.95-.8A2.69,2.69,0,0,0,281.67,64.55Zm0,20.5a63,63,0,0,1-11.3-12.5q-3.71-5.74-3.7-10.35A14.66,14.66,0,0,1,271.19,51a15.24,15.24,0,0,1,21,0q4.49,4.19,4.48,11.23,0,4.6-3.7,10.35A64,64,0,0,1,281.67,85.05Z" transform="translate(0.29 0.3)" fill="#067268" stroke="#fff" stroke-width="2"/><g id="소래포"><g id="사각형_191" data-name="사각형 191"><path d="M45.67,119.8h24a15,15,0,0,1,15,15h0a15,15,0,0,1-15,15h-24a15,15,0,0,1-15-15h0A15,15,0,0,1,45.67,119.8Z" transform="translate(0.29 0.3)" fill="#fff"/><path d="M45.67,120.3h24a14.5,14.5,0,0,1,14.5,14.5h0a14.5,14.5,0,0,1-14.5,14.5h-24a14.5,14.5,0,0,1-14.5-14.5h0a14.5,14.5,0,0,1,14.5-14.5Z" transform="translate(0.29 0.3)" fill="none" stroke="#09a3ca"/></g><path id="패스_84" data-name="패스 84" d="M45.38,133.14A7.72,7.72,0,0,1,40,136.56v-1.35c2.9-.65,4.65-2.47,4.65-5.25v-.88h1.51V130c0,2.78,1.79,4.6,4.67,5.25v1.35A7.7,7.7,0,0,1,45.38,133.14Zm-5.63,7.93V139.8h4.86V136h1.51v3.82H51v1.32Zm16.8-.3H53.12v-6.54h3V130.5h-3v-1.34h4.55v6.41H54.6v3.88h2.24a3.56,3.56,0,0,0,2.33-.62V129h1.5v5h1.42v-5h1.48v12.7H62.09v-6.32H60.67v6.16h-1.5v-1.4a3.88,3.88,0,0,1-2.62.7ZM74.33,135h2.34v1.33H72.26v3.44H77.1v1.32H65.79V139.8h4.88v-3.39H66.19v-1.33h1.88V130.5H66.42v-1.34h10v1.34H74.75v2A6.83,6.83,0,0,1,74.33,135Zm-4.66-4.53V135h3.22a6.59,6.59,0,0,0,.35-2.37V130.5Z" transform="translate(0.29 0.3)" fill="#09a3ca"/></g><g id="남애"><g id="사각형_191-2" data-name="사각형 191-2"><path d="M276.67,85.8h24a15,15,0,0,1,15,15h0a15,15,0,0,1-15,15h-24a15,15,0,0,1-15-15h0a15,15,0,0,1,15-15Z" transform="translate(0.29 0.3)" fill="#fff"/><path d="M276.67,86.3h24a14.5,14.5,0,0,1,14.5,14.5h0a14.5,14.5,0,0,1-14.5,14.5h-24a14.5,14.5,0,0,1-14.5-14.5h0A14.5,14.5,0,0,1,276.67,86.3Z" transform="translate(0.29 0.3)" fill="none" stroke="#09a3ca"/></g><path id="패스_93" data-name="패스 93" d="M282.6,101.09h-5.68V95h1.52V99.8H283a3.91,3.91,0,0,0,2.47-.59V95H287V97.8h1.85v1.33H287V102h-1.53v-1.55A4.61,4.61,0,0,1,282.6,101.09Zm-4.93,6.71v-5H287v5Zm7.84-3.62h-6.32v2.33h6.32ZM290,101c0-3,.27-4.6,1-5.4a2.28,2.28,0,0,1,3.08,0c.74.8,1,2.36,1,5.4s-.27,4.61-1,5.4a2.32,2.32,0,0,1-3.08,0c-.76-.84-1-2.39-1-5.45Zm1.46,0c0,2.62.11,3.88.5,4.4a.62.62,0,0,0,.57.28.65.65,0,0,0,.59-.28c.39-.51.49-1.77.49-4.4s-.1-3.89-.49-4.4a.69.69,0,0,0-.59-.29.65.65,0,0,0-.57.29c-.42.46-.53,1.74-.53,4.35Zm9.11,6.7h-1.48v-6.32h-1.41v6.16h-1.5V95h1.5v5h1.42V95h1.48Z" transform="translate(0.29 0.3)" fill="#09a3ca"/></g><g id="주전"><g id="사각형_191-3" data-name="사각형 191-3"><path d="M295.67,354.8h24a15,15,0,0,1,15,15h0a15,15,0,0,1-15,15h-24a15,15,0,0,1-15-15h0A15,15,0,0,1,295.67,354.8Z" transform="translate(0.29 0.3)" fill="#fff"/><path d="M295.67,355.3h24a14.5,14.5,0,0,1,14.5,14.5h0a14.5,14.5,0,0,1-14.5,14.5h-24a14.5,14.5,0,0,1-14.5-14.5h0A14.5,14.5,0,0,1,295.67,355.3Z" transform="translate(0.29 0.3)" fill="none" stroke="#09a3ca"/></g><path id="패스_91" data-name="패스 91" d="M306.36,365.41h-4.24c0,2.2,2.08,3.48,4.37,3.85v1.36a7.58,7.58,0,0,1-5.11-2.73,7.75,7.75,0,0,1-5.13,2.73V369.3c2.27-.38,4.36-1.65,4.36-3.85h-4.2v-1.33h9.95Zm-10.61,8v-1.34H307v1.34h-4.9v3.39h-1.51v-3.42Zm13.35-8v-1.32h6.57v1.32h-2.52v1.13a3.27,3.27,0,0,0,2.75,3.53v1.34a5.06,5.06,0,0,1-3.48-2.14,5.18,5.18,0,0,1-3.53,2.3v-1.35a3.35,3.35,0,0,0,2.74-3.68V365.4Zm10.27,7.39h-1.53v-4.6h-2.62v-1.3h2.62v-3h1.53Zm.22,3.86h-9.72v-4.31h1.53v3h8.19Z" transform="translate(0.29 0.3)" fill="#09a3ca"/></g><g id="문항"><g id="사각형_191-4" data-name="사각형 191-4"><path d="M185.67,427.8h24a15,15,0,0,1,15,15h0a15,15,0,0,1-15,15h-24a15,15,0,0,1-15-15h0a15,15,0,0,1,15-15Z" transform="translate(0.29 0.3)" fill="#fff"/><path d="M185.67,428.3h24a14.5,14.5,0,0,1,14.5,14.5h0a14.5,14.5,0,0,1-14.5,14.5h-24a14.5,14.5,0,0,1-14.5-14.5h0A14.5,14.5,0,0,1,185.67,428.3Z" transform="translate(0.29 0.3)" fill="none" stroke="#09a3ca"/></g><path id="패스_90" data-name="패스 90" d="M196.28,437.08v4.83H186.5v-4.83ZM188,440.64h6.73v-2.27H188Zm-2.36,4v-1.32H197.1v1.32h-4.81V447h-1.52v-2.35ZM188,446v2.38h8.48v1.31h-10V446Zm17.71-7H198.5V437.8h2.9v-1.22h1.51v1.22h2.82Zm-5.38,3a1,1,0,0,0,.43.8,2.71,2.71,0,0,0,2.75,0,1,1,0,0,0,0-1.57,2.3,2.3,0,0,0-1.37-.36,2.36,2.36,0,0,0-1.35.36,1,1,0,0,0-.43.84Zm-1.47,0a2.05,2.05,0,0,1,.91-1.74,4.11,4.11,0,0,1,2.34-.63,3.9,3.9,0,0,1,2.32.63,2.05,2.05,0,0,1,.91,1.74,2,2,0,0,1-.94,1.75,4.66,4.66,0,0,1-4.68-.06,2.1,2.1,0,0,1-.86-1.62ZM209,436.86v3.22h1.85v1.34H209v3.38H207.5v-7.88Zm-9.53,10.61a1.89,1.89,0,0,1,1.17-1.67,11.5,11.5,0,0,1,7.55,0,1.9,1.9,0,0,1,1,2.5,1.88,1.88,0,0,1-1,1,11.5,11.5,0,0,1-7.55,0,1.88,1.88,0,0,1-1.17-1.75Zm1.52,0a.78.78,0,0,0,.45.66,9.86,9.86,0,0,0,5.89,0,.73.73,0,0,0,.45-.66.76.76,0,0,0-.45-.66,10.08,10.08,0,0,0-5.89,0,.81.81,0,0,0-.45.73Z" transform="translate(0.29 0.3)" fill="#09a3ca"/></g><g id="백미리"><g id="사각형_191-5" data-name="사각형 191-5"><path d="M45.67,149.8h24a15,15,0,0,1,15,15h0a15,15,0,0,1-15,15h-24a15,15,0,0,1-15-15h0A15,15,0,0,1,45.67,149.8Z" transform="translate(0.29 0.3)" fill="#fff"/><path d="M45.67,150.3h24a14.5,14.5,0,0,1,14.5,14.5h0a14.5,14.5,0,0,1-14.5,14.5h-24a14.5,14.5,0,0,1-14.5-14.5h0A14.5,14.5,0,0,1,45.67,150.3Z" transform="translate(0.29 0.3)" fill="none" stroke="#09a3ca"/></g><path id="패스_85" data-name="패스 85" d="M41.41,161.32h2.12v-2.24H45v7H40v-7h1.4Zm2.12,3.5v-2.24H41.41v2.22Zm7,1.68H49.06v-3.27H47.67v3.19H46.22V159h1.45v2.89h1.4v-3h1.47ZM49,171.8v-3.2H40.77v-1.33h9.76v4.53Zm10.31-12.69V170.8H53.2V159.15Zm-4.66,10.34h3.11V160.5H54.67Zm8.63-10.53v12.71H61.77v-12.7Zm8.62,11.88h-5.7v-6.54h4.45V160.5H66.25v-1.34h5.92v6.41H67.76v3.88h4.48a4,4,0,0,0,2.62-.73v-9.79h1.53v12.7H74.86V170A4.3,4.3,0,0,1,71.92,170.8Z" transform="translate(0.29 0.3)" fill="#09a3ca"/></g><path id="location_on_FILL1_wght200_GRAD0_opsz48-5" data-name="location on FILL1 wght200 GRAD0 opsz48-5" d="M46.55,211.05a2.73,2.73,0,1,0-2.76-2.71,2.78,2.78,0,0,0,.8,1.91A2.73,2.73,0,0,0,46.55,211.05Zm0,20.5a63.68,63.68,0,0,1-11.31-12.5q-3.69-5.75-3.69-10.35a14.66,14.66,0,0,1,4.52-11.23,15.24,15.24,0,0,1,21,0q4.53,4.18,4.53,11.23,0,4.61-3.71,10.35A63.58,63.58,0,0,1,46.55,231.55Z" transform="translate(0.29 0.3)" fill="#a25c00" stroke="#fff" stroke-width="2"/><g id="중리"><g id="사각형_191-6" data-name="사각형 191-6"><path d="M27.67,235.8h27a15,15,0,0,1,15,15h0a15,15,0,0,1-15,15h-27a15,15,0,0,1-15-15h0A15,15,0,0,1,27.67,235.8Z" transform="translate(0.29 0.3)" fill="#fff"/><path d="M27.67,236.3h27a14.5,14.5,0,0,1,14.5,14.5h0a14.5,14.5,0,0,1-14.5,14.5h-27a14.5,14.5,0,0,1-14.5-14.5h0A14.5,14.5,0,0,1,27.67,236.3Z" transform="translate(0.29 0.3)" fill="none" stroke="#09a3ca"/></g><path id="패스_86" data-name="패스 86" d="M40.28,246.37H36.13c.18,1.26,2.31,2,4.27,2.11v1.32a7.83,7.83,0,0,1-5-1.89,7.9,7.9,0,0,1-5.08,1.89v-1.29c2-.12,4.09-.85,4.27-2.11H30.5v-1.29h9.78ZM29.67,252v-1.3H41.1V252h-5v1.18a7.35,7.35,0,0,1,3.39.7,1.94,1.94,0,0,1,0,3.41,8.74,8.74,0,0,1-4.1.7,8.83,8.83,0,0,1-4.12-.7,1.94,1.94,0,0,1,0-3.42,7.64,7.64,0,0,1,3.33-.7V252Zm2.13,3.58a.81.81,0,0,0,.44.69,7.43,7.43,0,0,0,3.17.45,7.28,7.28,0,0,0,3.17-.45.79.79,0,0,0,.45-.69.82.82,0,0,0-.45-.68,7.26,7.26,0,0,0-3.16-.45,7.33,7.33,0,0,0-3.18.45.82.82,0,0,0-.45.68Zm17.1,1.22H43.2v-6.54h4.47V246.5H43.2v-1.34h5.92v6.41H44.67v3.88h4.48a4,4,0,0,0,2.62-.73v-9.79H53.3v12.7H51.81V256A4.33,4.33,0,0,1,48.9,256.8Z" transform="translate(0.29 0.3)" fill="#09a3ca"/></g><g id="별주부"><g id="사각형_191-7" data-name="사각형 191-7"><path d="M27.67,265.8h27a15,15,0,0,1,15,15h0a15,15,0,0,1-15,15h-27a15,15,0,0,1-15-15h0a15,15,0,0,1,15-15Z" transform="translate(0.29 0.3)" fill="#fff"/><path d="M27.67,266.3h27a14.5,14.5,0,0,1,14.5,14.5h0a14.5,14.5,0,0,1-14.5,14.5h-27a14.5,14.5,0,0,1-14.5-14.5h0a14.5,14.5,0,0,1,14.5-14.5Z" transform="translate(0.29 0.3)" fill="none" stroke="#09a3ca"/></g><path id="패스_87" data-name="패스 87" d="M24.57,276.8h3.16v-1.71h1.5v1.14h2.59v-1.29h1.53v6.37H31.82v-1.37H29.23v1H23.08v-5.87h1.49Zm4.66.67v1.22h2.59v-1.22Zm-1.5,2.26v-1.68H24.57v1.68Zm-2.35,5.78v1H33.5v1.29H23.85v-3.47h8v-1.05h-8V282h9.5v3.5Zm21-9.09H42.14v.05c0,2.2,2.08,3.47,4.37,3.85v1.35a7.58,7.58,0,0,1-5.11-2.73,7.75,7.75,0,0,1-5.13,2.73V280.3c2.27-.38,4.35-1.65,4.35-3.85h-4.2v-1.33h10Zm-10.61,8v-1.34H47v1.34h-4.9v3.38H40.67v-3.42ZM51,277h6.9v-1.93H59.4v6.51h-10v-6.51H51Zm6.9,3.28v-2H51v2Zm-9.08,4.21v-1.33H60.06v1.33h-4.9v3.3H53.67v-3.3Z" transform="translate(0.29 0.3)" fill="#09a3ca"/></g><g id="장사항"><g id="사각형_191-8" data-name="사각형 191-8"><path d="M290.67,116.8h24a15,15,0,0,1,15,15h0a15,15,0,0,1-15,15h-24a15,15,0,0,1-15-15h0A15,15,0,0,1,290.67,116.8Z" transform="translate(0.29 0.3)" fill="#fff"/><path d="M290.67,117.3h24a14.5,14.5,0,0,1,14.5,14.5h0a14.5,14.5,0,0,1-14.5,14.5h-24a14.5,14.5,0,0,1-14.5-14.5h0a14.5,14.5,0,0,1,14.5-14.5Z" transform="translate(0.29 0.3)" fill="none" stroke="#09a3ca"/></g><path id="패스_92" data-name="패스 92" d="M284.92,127.4v-1.32h6.56v1.32H289v.48a3.26,3.26,0,0,0,2.71,3.52v1.34a5.06,5.06,0,0,1-3.48-2.14,5.25,5.25,0,0,1-3.54,2.31v-1.35a3.37,3.37,0,0,0,2.75-3.69v-.47ZM295,125.93v2.87h1.85v1.33H295v3.05h-1.53v-7.24Zm-9.53,10.29a2.17,2.17,0,0,1,.93-1.79,9.2,9.2,0,0,1,8,0,2.16,2.16,0,0,1,.94,1.79,2.19,2.19,0,0,1-.94,1.8,9.27,9.27,0,0,1-8,0A2.15,2.15,0,0,1,285.48,136.22Zm1.52,0a1,1,0,0,0,.52.87,5.62,5.62,0,0,0,2.88.53,5.78,5.78,0,0,0,2.9-.53,1,1,0,0,0,0-1.74,5.91,5.91,0,0,0-2.9-.53,5.72,5.72,0,0,0-2.88.53A1,1,0,0,0,287,136.22Zm14.24-1.61a5.93,5.93,0,0,1-3.67,3.19v-1.4c1.53-.7,2.9-2,2.9-5.53v-4.76H302v4.69c0,3.54,1.4,4.82,2.91,5.53v1.47a6,6,0,0,1-3.65-3.19Zm6.79-8.68v5.18h2v1.33h-2v6.19H306.5v-12.7Zm9.72,2.1h-7.23V126.8h2.9v-1.22h1.51v1.22h2.82Zm-5.38,3a1,1,0,0,0,.43.8,2.71,2.71,0,0,0,2.75,0,1,1,0,0,0,0-1.57,2.3,2.3,0,0,0-1.37-.36,2.36,2.36,0,0,0-1.35.36,1,1,0,0,0-.43.78Zm-1.47,0a2.05,2.05,0,0,1,.91-1.74,4.11,4.11,0,0,1,2.34-.63,4,4,0,0,1,2.32.63,2.05,2.05,0,0,1,.91,1.74,2,2,0,0,1-.94,1.75,4.66,4.66,0,0,1-4.68-.06,2.07,2.07,0,0,1-.86-1.68Zm10.15-5.11v3.22h1.85v1.34h-1.85v3.32h-1.53v-7.88Zm-9.53,10.61a1.86,1.86,0,0,1,1.15-1.73,11.5,11.5,0,0,1,7.55,0,1.9,1.9,0,0,1,1,2.5,1.88,1.88,0,0,1-1,1,11.5,11.5,0,0,1-7.55,0,1.9,1.9,0,0,1-1.15-1.75Zm1.52,0a.78.78,0,0,0,.45.66,9.86,9.86,0,0,0,5.89,0,.73.73,0,0,0,.45-.66.76.76,0,0,0-.45-.66,10.08,10.08,0,0,0-5.89,0,.81.81,0,0,0-.45.67Z" transform="translate(0.29 0.3)" fill="#09a3ca"/></g><path id="location_on_FILL1_wght200_GRAD0_opsz48-6" data-name="location on FILL1 wght200 GRAD0 opsz48-6" d="M41.67,348.52a2.73,2.73,0,1,0-2.75-2.72,2.68,2.68,0,0,0,.8,1.91A2.6,2.6,0,0,0,41.67,348.52Zm0,20.5a63,63,0,0,1-11.3-12.5q-3.71-5.72-3.7-10.35,0-7.05,4.52-11.22a15.23,15.23,0,0,1,21,0q4.53,4.17,4.53,11.22,0,4.6-3.7,10.35A63.6,63.6,0,0,1,41.67,369Z" transform="translate(0.29 0.3)" fill="#e34f94" stroke="#fff" stroke-width="2"/><g id="동호"><g id="사각형_191-9" data-name="사각형 191-9"><path d="M30.67,372.8h24a15,15,0,0,1,15,15h0a15,15,0,0,1-15,15h-24a15,15,0,0,1-15-15h0A15,15,0,0,1,30.67,372.8Z" transform="translate(0.29 0.3)" fill="#fff"/><path d="M30.67,373.33h24a14.5,14.5,0,0,1,14.5,14.47h0A14.5,14.5,0,0,1,54.7,402.33h-24a14.5,14.5,0,0,1-14.5-14.5v0h0A14.5,14.5,0,0,1,30.67,373.33Z" transform="translate(0.29 0.3)" fill="none" stroke="#09a3ca"/></g><path id="패스_89" data-name="패스 89" d="M41.28,383.4H33v1.86h8.33v1.27H37.12v1.33h5v1.3H30.67v-1.3h5v-1.33h-4.1v-4.42h9.77Zm-10,9.21a1.88,1.88,0,0,1,1-1.71,8.77,8.77,0,0,1,4.11-.71,8.63,8.63,0,0,1,4.1.71,1.94,1.94,0,0,1,0,3.42,8.74,8.74,0,0,1-4.1.7,9.09,9.09,0,0,1-4.12-.7,1.88,1.88,0,0,1-1-1.71Zm1.53,0a.78.78,0,0,0,.43.68,7.18,7.18,0,0,0,3.18.45,7.11,7.11,0,0,0,3.16-.45.77.77,0,0,0,.45-.68.82.82,0,0,0-.45-.68,7.11,7.11,0,0,0-3.16-.45,7.18,7.18,0,0,0-3.18.45.79.79,0,0,0-.44.68Zm21.86-9.52v1.31H44.12v-1.31h4.55v-1.58h1.55v1.58Zm-8.75,5a1.1,1.1,0,0,0,.69,1,6.21,6.21,0,0,0,2.76.5,6,6,0,0,0,2.75-.5,1.09,1.09,0,0,0,.7-1,1.15,1.15,0,0,0-.75-1,6.73,6.73,0,0,0-2.7-.45,6,6,0,0,0-2.86.53,1.08,1.08,0,0,0-.56.9Zm-1.52,0a2.21,2.21,0,0,1,1.2-2,7.66,7.66,0,0,1,3.76-.79,7.58,7.58,0,0,1,3.85.83,2.23,2.23,0,0,1,.84,3,2.26,2.26,0,0,1-.84.84,6.41,6.41,0,0,1-3.06.78v2H55v1.31H43.77v-1.3h4.9v-2a7.37,7.37,0,0,1-2.92-.7,2.23,2.23,0,0,1-1.32-2Z" transform="translate(0.29 0.3)" fill="#09a3ca"/></g><g id="돌머리"><g id="사각형_191-10" data-name="사각형 191-10"><path d="M27.67,404h24a15,15,0,0,1,15,15h0a15,15,0,0,1-15,15h-24a15,15,0,0,1-15-15h0A15,15,0,0,1,27.67,404Z" transform="translate(0.29 0.3)" fill="#fff"/><path d="M27.67,404.5h24A14.5,14.5,0,0,1,66.17,419h0a14.5,14.5,0,0,1-14.5,14.5h-24A14.5,14.5,0,0,1,13.17,419h0A14.5,14.5,0,0,1,27.67,404.5Z" transform="translate(0.29 0.3)" fill="none" stroke="#09a3ca"/></g><path id="패스_88" data-name="패스 88" d="M32.28,414.54H24v1.33h8.33v1.26H28.12v1.07h5v1.27H21.67V418.2h5v-1.07h-4.1v-3.85h9.77ZM24,423.8v.92h8.54V426H22.5v-3.37h8.25v-.94H22.5v-1.23h9.78v3.39Zm17.31-10.45v4.83h2.48v-5h1.53V425.8H43.81v-6.3H41.33V425H35.2V413.35Zm-4.66,10.3h3.11v-9H36.67ZM53.88,425h-5.7v-6.54h4.49V414.7H48.22v-1.34h5.92v6.44H49.73v3.88h4.48a4,4,0,0,0,2.62-.73v-9.79h1.53V425.8H56.83v-1.66a4.33,4.33,0,0,1-2.91.83Z" transform="translate(0.29 0.3)" fill="#09a3ca"/></g></g></g></svg>