<svg id="레이어_1" data-name="레이어 1" xmlns="http://www.w3.org/2000/svg" xmlns:xlink="http://www.w3.org/1999/xlink" viewBox="0 0 428 926"><defs><clipPath id="clip-path"><rect x="44.33" y="222.2" width="339.33" height="552.68" fill="none"/></clipPath></defs><title>map</title><g id="map-sampleai"><g id="그룹_78" data-name="그룹 78"><g clip-path="url(#clip-path)"><g id="그룹_77" data-name="그룹 77"><path id="패스_37" data-name="패스 37" d="M225.51,510a3.59,3.59,0,0,1-.79-.17,3.59,3.59,0,0,0,.79.17" fill="#f2f8fa"/><path id="패스_39" data-name="패스 39" d="M224.72,509.83h0" fill="#f2f8fa"/><path id="패스_40" data-name="패스 40" d="M224.69,509.82l-.24-.08.24.08" fill="#f2f8fa"/><path id="패스_41" data-name="패스 41" d="M226,510a1.09,1.09,0,0,1-.25,0,1.09,1.09,0,0,0,.25,0" fill="#f2f8fa"/><path id="패스_43" data-name="패스 43" d="M225.74,510h0" fill="#f2f8fa"/><path id="패스_44" data-name="패스 44" d="M245.75,531.16c-6.89-2.63-14-5.28-21.39-4.94,7.35-.34,14.5,2.31,21.39,4.94" fill="#f2f8fa"/><path id="패스_45" data-name="패스 45" d="M224.36,526.22h0l-.54,0,.54,0" fill="#f2f8fa"/></g></g></g><g id="그룹_80" data-name="그룹 80"><g clip-path="url(#clip-path)"><g id="그룹_79" data-name="그룹 79"><path id="패스_46" data-name="패스 46" d="M149,738.23c-4.8-.44-20.68,4.1-21.39,4.07,0,0-8.88-.29-10.92,0s-3.93,3.06-4.8,4.8-2.62,4.66-5.53,5.53-8,.44-9.17,1.6-1.31,8.3-1.45,9,10.33,13,13.24,11.5,13.1-4.37,17.9-2.77,18.19-2.91,22.12-5.09,11.64-12.88,10.92-16-6.12-12.19-10.92-12.63" fill="#56bfb5"/></g></g></g><g id="그룹_82" data-name="그룹 82"><g clip-path="url(#clip-path)"><g id="그룹_81" data-name="그룹 81"><path id="패스_47" data-name="패스 47" d="M207.32,615.91c-.87-3.84.55-8.17-1.35-11.62-1.13-2-3.19-3.31-4.9-4.88s-3.74-3.7-3.32-5.84a20.09,20.09,0,0,0-14.26-3.83,3.19,3.19,0,0,0-2.55,1.25c-.47.87-6.94,4.48-11.11,3.08s-8.49-3.47-12.77-2.46A6.3,6.3,0,0,1,154,592c-1.79-.51-2.27-2.74-2.86-4.49-2.18-6.46-10.52-10-16.67-7-.33-4.25-6.56-5.44-10.15-3.14s-5.52,6.42-8.4,9.57-8,5.27-11.27,2.5a19.84,19.84,0,0,1-2.77-3.73c-2.37-3.24-6.24-4.82-10.3-5.38a4.91,4.91,0,0,0-1.26,2.11c-.16,1.42.63,6.29.47,6.92S96,598.1,94.4,599.2s-3.3.16-3.93,0-5.67-2-6.61-1.26a18.12,18.12,0,0,1-3.93,1.79s-7.08-2.73-9-2.57-9,2.2-10.38,3.93-4.24,4.56-3.61,5.35,3.14,4.56,4.87,5.19,3.78-1.58,4.4.78,3.46,8,4.72,7.55,3.93-1.41,4.09-2.36.47-6.45.47-6.45,5.35-1.25,6.29-.47,3.62,2.36,2.68,3.15a6.33,6.33,0,0,1-3.62,1.1c-.47-.16-4.09,1.88-2.67,3.14s6.29,3.78,5.34,4.72a8.08,8.08,0,0,1-3.3,1.89c-.47,0-2.67-1.94-3.61-1.13s.47,6.32,1.73,7.1,13.84,6.92,13.37,7.71-2.2,3.77-2.2,3.77-8.65,3-9,1.73-1.41-6.13-3.62-5.5-6.29,4.25-7.39,3.78a82.24,82.24,0,0,1-8-5c-1.41-1.1-9.28-1.73-10.54-1.26s-5.34,2.67-5.34,2.67-1.73,4.87-.79,5.66,4.25,4.41,7.23,3.46,8.18-1.88,8.65-1.73,3.15,3.62,4.88,3.15,4.25-2.83,6.29-1.42,9.75,4.72,9.12,6.61-2,9-3.14,9.44-7.24,4-8,4.42-6.45,6.59-7.08,8.32.16,5.34,3,7.23a41.21,41.21,0,0,0,6.6,4c1.57.6,16.67-1,16.67-1s5.82-19,6.61-18.54,1.41.77,1.1,1.24,1.26,17.2,3.46,18.27,3,3.75,5.35,4.85a23.92,23.92,0,0,0,6.92,1.73c.78,0,5-3.15,6-2.68s2.83,3.46,5.66,3.78,5.82-1.57,8.81-1.42,5.77.32,6.9,0,5.22-1.88,5.22-1.88-2.05-14.63-1.58-15.73,3.94-2.83,4.25-4.09,3.15-11.17,3.78-11.8,8.8-5,10.69-6.13,6.13.62,5.19,2.67-6,16.2-5.5,16.83-11.95,6.13-11.8,7.7-.79,8,1.1,8.81,6,3.3,6.45,2.52,2.52-7.08,4.72-7.87a48.6,48.6,0,0,1,7.07-1.41s2.05,2.67,4.4,2,1.42-2.36,1.42-3.77-2-5.35-2-5.35a16.22,16.22,0,0,1,3.61.32c.63.31,2.05,1.88,3.3,1.73s2.52-2.2,3-3,2-5.66,2.67-4.88,4.57,11,8.18,9.75,7.39-2.83,6.92-3.3-9.12-6.29-9.28-7.86a28.11,28.11,0,0,1,.16-4.4s8.57-.79,9.16-2-1.93-3.94-2.08-4.88-11.17-8-12-9.28-1.25-9.91-1.1-10.38,1.62-3.46,4.74-2.2,6.43,2,5.8,4.56-.47,11.48.95,12.58,9.27,6.61,9.27,7.08-2,6.18,1.26,7.89,9,2.5,9.44,4.85,2.83,4.72,2.36,5.5-1.92,4.4.06,3.93,6.07-2.67,6.39-3.93a38,38,0,0,0,0-7.23c-.16-1.1-8.34-9.75-9.44-12s-3.78-5.5-2.68-7.55,5.5-10.22,6.77-10.85l.09,0a.34.34,0,0,0-.2,0,.34.34,0,0,1,.2,0c.2,0,.35.12.47.44a35.86,35.86,0,0,0-7.14-15.18c-2.6-3.2-5.88-6.17-6.79-10.2m-59.22,0a15.77,15.77,0,0,1-4.68,3,31.54,31.54,0,0,0-8.09,6c-2.34,2.38-5,5.41-8.28,4.83a7,7,0,0,1-4-2.84c-2.44-3.15-3.88-7.43-7.5-9.11-4.07-1.9-7.42-3-5.82-8.54.95-3.26,3.8-6.61,7.35-6.85,3.38-.23,6.57,1.86,9.91,2.05,4.65.27,9.46-5.45,14-3,2.86,1.55,3.13,5.74,5.65,7.8a12.9,12.9,0,0,1,2.11,1.65c1.17,1.44.63,3.7-.62,5.07" fill="#ff9bac"/><path id="패스_48" data-name="패스 48" d="M207.32,615.91c-.87-3.84.55-8.17-1.35-11.62-1.13-2-3.19-3.31-4.9-4.88s-3.74-3.7-3.32-5.84a20.09,20.09,0,0,0-14.26-3.83,3.19,3.19,0,0,0-2.55,1.25c-.47.87-6.94,4.48-11.11,3.08s-8.49-3.47-12.77-2.46A6.3,6.3,0,0,1,154,592c-1.79-.51-2.27-2.74-2.86-4.49-2.18-6.46-10.52-10-16.67-7-.33-4.25-6.56-5.44-10.15-3.14s-5.52,6.42-8.4,9.57-8,5.27-11.27,2.5a19.84,19.84,0,0,1-2.77-3.73c-2.37-3.24-6.24-4.82-10.3-5.38a4.91,4.91,0,0,0-1.26,2.11c-.16,1.42.63,6.29.47,6.92S96,598.1,94.4,599.2s-3.3.16-3.93,0-5.67-2-6.61-1.26a18.12,18.12,0,0,1-3.93,1.79s-7.08-2.73-9-2.57-9,2.2-10.38,3.93-4.24,4.56-3.61,5.35,3.14,4.56,4.87,5.19,3.78-1.58,4.4.78,3.46,8,4.72,7.55,3.93-1.41,4.09-2.36.47-6.45.47-6.45,5.35-1.25,6.29-.47,3.62,2.36,2.68,3.15a6.33,6.33,0,0,1-3.62,1.1c-.47-.16-4.09,1.88-2.67,3.14s6.29,3.78,5.34,4.72a8.08,8.08,0,0,1-3.3,1.89c-.47,0-2.67-1.94-3.61-1.13s.47,6.32,1.73,7.1,13.84,6.92,13.37,7.71-2.2,3.77-2.2,3.77-8.65,3-9,1.73-1.41-6.13-3.62-5.5-6.29,4.25-7.39,3.78a82.24,82.24,0,0,1-8-5c-1.41-1.1-9.28-1.73-10.54-1.26s-5.34,2.67-5.34,2.67-1.73,4.87-.79,5.66,4.25,4.41,7.23,3.46,8.18-1.88,8.65-1.73,3.15,3.62,4.88,3.15,4.25-2.83,6.29-1.42,9.75,4.72,9.12,6.61-2,9-3.14,9.44-7.24,4-8,4.42-6.45,6.59-7.08,8.32.16,5.34,3,7.23a41.21,41.21,0,0,0,6.6,4c1.57.6,16.67-1,16.67-1s5.82-19,6.61-18.54,1.41.77,1.1,1.24,1.26,17.2,3.46,18.27,3,3.75,5.35,4.85a23.92,23.92,0,0,0,6.92,1.73c.78,0,5-3.15,6-2.68s2.83,3.46,5.66,3.78,5.82-1.57,8.81-1.42,5.77.32,6.9,0,5.22-1.88,5.22-1.88-2.05-14.63-1.58-15.73,3.94-2.83,4.25-4.09,3.15-11.17,3.78-11.8,8.8-5,10.69-6.13,6.13.62,5.19,2.67-6,16.2-5.5,16.83-11.95,6.13-11.8,7.7-.79,8,1.1,8.81,6,3.3,6.45,2.52,2.52-7.08,4.72-7.87a48.6,48.6,0,0,1,7.07-1.41s2.05,2.67,4.4,2,1.42-2.36,1.42-3.77-2-5.35-2-5.35a16.22,16.22,0,0,1,3.61.32c.63.31,2.05,1.88,3.3,1.73s2.52-2.2,3-3,2-5.66,2.67-4.88,4.57,11,8.18,9.75,7.39-2.83,6.92-3.3-9.12-6.29-9.28-7.86a28.11,28.11,0,0,1,.16-4.4s8.57-.79,9.16-2-1.93-3.94-2.08-4.88-11.17-8-12-9.28-1.25-9.91-1.1-10.38,1.62-3.46,4.74-2.2,6.43,2,5.8,4.56-.47,11.48.95,12.58,9.27,6.61,9.27,7.08-2,6.18,1.26,7.89,9,2.5,9.44,4.85,2.83,4.72,2.36,5.5-1.92,4.4.06,3.93,6.07-2.67,6.39-3.93a38,38,0,0,0,0-7.23c-.16-1.1-8.34-9.75-9.44-12s-3.78-5.5-2.68-7.55,5.5-10.22,6.77-10.85l.09,0a.34.34,0,0,0-.2,0,.34.34,0,0,1,.2,0c.2,0,.35.12.47.44a35.86,35.86,0,0,0-7.14-15.18C211.5,622.9,208.23,619.93,207.32,615.91Zm-59.22,0a15.77,15.77,0,0,1-4.68,3,31.36,31.36,0,0,0-8.09,6c-2.34,2.38-5,5.41-8.28,4.83a7,7,0,0,1-4-2.84c-2.44-3.15-3.88-7.43-7.5-9.11-4.07-1.9-7.42-3-5.82-8.54.95-3.26,3.8-6.61,7.35-6.85,3.38-.23,6.57,1.86,9.91,2.05,4.65.27,9.46-5.45,14-3,2.86,1.55,3.12,5.74,5.65,7.8a13.34,13.34,0,0,1,2.11,1.65C149.89,612.26,149.35,614.52,148.1,615.89Z" fill="none" stroke="#fff" stroke-miterlimit="10"/><path id="패스_49" data-name="패스 49" d="M146.61,609.17c-2.52-2.06-2.79-6.25-5.65-7.8-4.56-2.48-9.37,3.24-14,3-3.34-.18-6.53-2.27-9.91-2.05-3.54.24-6.4,3.6-7.35,6.85-1.6,5.5,1.76,6.64,5.82,8.54,3.62,1.69,5.06,6,7.5,9.11a7,7,0,0,0,4,2.84c3.29.58,6-2.45,8.28-4.83a31.67,31.67,0,0,1,8.09-5.95,15.88,15.88,0,0,0,4.68-3c1.25-1.37,1.79-3.62.62-5.07a13,13,0,0,0-2.11-1.65" fill="#ff9bac"/><path id="패스_50" data-name="패스 50" d="M146.61,609.17c-2.52-2.06-2.79-6.25-5.65-7.8-4.56-2.48-9.37,3.24-14,3-3.34-.18-6.53-2.27-9.91-2.05-3.54.24-6.4,3.6-7.35,6.85-1.6,5.5,1.76,6.64,5.82,8.54,3.62,1.69,5.06,6,7.5,9.11a7,7,0,0,0,4,2.84c3.29.58,6-2.45,8.28-4.83a31.67,31.67,0,0,1,8.09-5.95,15.88,15.88,0,0,0,4.68-3c1.25-1.37,1.79-3.62.62-5.07A13,13,0,0,0,146.61,609.17Z" fill="none" stroke="#fff" stroke-miterlimit="10"/></g></g></g><g id="그룹_84" data-name="그룹 84"><g clip-path="url(#clip-path)"><g id="그룹_83" data-name="그룹 83"><path id="패스_51" data-name="패스 51" d="M101.88,585.64a20.45,20.45,0,0,0,2.76,3.73c3.24,2.77,8.4.65,11.27-2.5s4.8-7.27,8.4-9.57,9.82-1.12,10.15,3.13c6.15-2.93,14.49.59,16.67,7.05.59,1.76,1.08,4,2.86,4.49a6.17,6.17,0,0,0,3.07-.37c4.29-1,8.6,1,12.77,2.46s10.64-2.21,11.11-3.07a3.2,3.2,0,0,1,2.55-1.26,20.17,20.17,0,0,1,14.27,3.83,2.56,2.56,0,0,1,.05-.27,2.56,2.56,0,0,0-.05.27l.18.13c4.9-4.79,4.3-12.7,3.35-19.48Q200,565,198.72,555.9c-.44-3.13-.72-6.76,1.52-9,1.57-1.56,4.09-2,5.35-3.87.85-1.23.94-2.79,1.26-4.24,1.62-7.38,9.44-12.06,17-12.56l.54,0a25,25,0,0,1,1.74-6.83c1.41-3.52.45-6.2-.59-9.38a4,4,0,0,1-.78-.17h0l-.25-.08-14.28-4.82a16.85,16.85,0,0,1-5.19-2.46c-1.67,3.7-5.42,7.69-8.95,8.65-4,1.09-8.26.08-12-1.68a10.41,10.41,0,0,1-4.66-3.66c-.84-1.38-1.1-3-1.77-4.5-2.38-5.21-10.4-6.61-14.4-2.5-2.61,2.68-4.13,7.33-7.87,7.43-3.48.09-5.4-4-6-7.43s-1.36-7.55-4.58-8.87a7.51,7.51,0,0,0-4.71,0c-2.3.6-4.73,2-5.2,4.31-.27,1.34.18,2.72.22,4.09.13,4.64-4.21,8-8.1,10.56a18.24,18.24,0,0,1-6.12,3,11.87,11.87,0,0,1-5.94-.47,2.41,2.41,0,0,0,.34,1.66c1.26,1.26,11,5.79,11,5.79s-9.42-2.06-8.48,0,5.66,8,6.29,8.67-12.26,6.68-17,10.25S95.74,545.36,97,546.93s3.77,9.37,5,8.77,4.4,0,4.4,0-6.2,4-8.09,6-3.3,6.92-3,8.8.47,6-.63,6.77a21.15,21.15,0,0,0-3.14,2.92c4.06.56,7.93,2.14,10.3,5.38" fill="#f3a3ce"/><path id="패스_52" data-name="패스 52" d="M101.88,585.64a20.45,20.45,0,0,0,2.76,3.73c3.24,2.77,8.4.65,11.27-2.5s4.8-7.27,8.4-9.57,9.82-1.12,10.15,3.13c6.15-2.93,14.49.59,16.67,7.05.59,1.76,1.08,4,2.86,4.49a6.17,6.17,0,0,0,3.07-.37c4.29-1,8.6,1,12.77,2.46s10.64-2.21,11.11-3.07a3.2,3.2,0,0,1,2.55-1.26,20.17,20.17,0,0,1,14.27,3.83,2.56,2.56,0,0,1,.05-.27,2.56,2.56,0,0,0-.05.27l.18.13c4.9-4.79,4.3-12.7,3.35-19.48Q200,565,198.72,555.9c-.44-3.13-.72-6.76,1.52-9,1.57-1.56,4.09-2,5.35-3.87.85-1.23.94-2.79,1.26-4.24,1.62-7.38,9.44-12.06,17-12.56l.54,0a25,25,0,0,1,1.74-6.83c1.41-3.52.45-6.2-.59-9.38a4,4,0,0,1-.78-.17h0l-.25-.08-14.28-4.82a16.85,16.85,0,0,1-5.19-2.46c-1.67,3.7-5.42,7.69-8.95,8.65-4,1.09-8.26.08-12-1.68a10.41,10.41,0,0,1-4.66-3.66c-.84-1.38-1.1-3-1.77-4.5-2.38-5.21-10.4-6.61-14.4-2.5-2.61,2.68-4.13,7.33-7.87,7.43-3.48.09-5.4-4-6-7.43s-1.36-7.55-4.58-8.87a7.51,7.51,0,0,0-4.71,0c-2.3.6-4.73,2-5.2,4.31-.27,1.34.18,2.72.22,4.09.13,4.64-4.21,8-8.1,10.56a18.24,18.24,0,0,1-6.12,3,11.87,11.87,0,0,1-5.94-.47,2.41,2.41,0,0,0,.34,1.66c1.26,1.26,11,5.79,11,5.79s-9.42-2.06-8.48,0,5.66,8,6.29,8.67-12.26,6.68-17,10.25S95.74,545.36,97,546.93s3.77,9.37,5,8.77,4.4,0,4.4,0-6.2,4-8.09,6-3.3,6.92-3,8.8.47,6-.63,6.77a21.15,21.15,0,0,0-3.14,2.92C95.64,580.82,99.5,582.4,101.88,585.64Z" fill="none" stroke="#fff" stroke-miterlimit="10"/></g></g></g><g id="그룹_86" data-name="그룹 86"><g clip-path="url(#clip-path)"><g id="그룹_85" data-name="그룹 85"><path id="패스_53" data-name="패스 53" d="M312.05,601.77c2-2.34,5.59-2.15,8.59-2.85,5.83-1.34,10-6.36,13.57-11.16a8.68,8.68,0,0,1,2.93-2.88,6.85,6.85,0,0,1,2.85-.6,26.11,26.11,0,0,1,9.89,2.11,11,11,0,0,1-1.4-4.25,4.16,4.16,0,0,0-.57-2.2c-1-1.16-2.79-.55-4.29-.57-3.61,0-5.7-4.07-8.83-5.89-2.15-1.25-4.75-1.41-7.1-2.22s-4.71-2.78-4.5-5.26c.24-2.88,3.51-4.26,5.86-6a2.41,2.41,0,0,0,1.23-1.86,2.62,2.62,0,0,0-.66-1.38c-.8-1-1.71-2.54-2.54-3.72H327c-1.28.17-2.6-.4-3.86-.11-2.66.62-3.08,4.18-4.68,6.39-2.39,3.3-7.22,3.29-11.28,2.94-4.78-.4-9.66-.82-14.09-2.68a17.39,17.39,0,0,1-8-6.45c-2.91.12-8.52.47-11.36,1.41a9.53,9.53,0,0,1-6,0L254,553.86c-1.62-6.43,2.16-14.36-2.28-19.28-1.55-1.72-3.8-2.6-6-3.42-6.89-2.62-14-5.28-21.39-4.94l-.54,0c-7.53.5-15.35,5.18-17,12.56-.32,1.45-.41,3-1.26,4.24-1.26,1.83-3.78,2.31-5.35,3.88-2.24,2.23-2,5.86-1.52,9l2.57,18.31c1,6.79,1.55,14.7-3.35,19.49l-.18-.14c-.42,2.15,1.67,4.34,3.31,5.85s3.78,2.85,4.9,4.88c1.9,3.45.48,7.78,1.35,11.62.91,4,4.18,7,6.78,10.2a35.76,35.76,0,0,1,7.15,15.18c.58,1.5.56,6.26,2.59,6.51,2.52.31,6.61,2.2,8,1.1a12.57,12.57,0,0,1,3.62-1.73s3.14,2.2,3.77,2.2a44.89,44.89,0,0,0,5-1.89s.94-20.92,1.73-20.76,7.23,3.15,8.49,3.3,8.49-.78,10.22.47,7.87,10.7,8.81,10.7,4.4.16,4.09.95-1.89,10.69,1.1,10.69,7.08-.15,7.23-.63,2.2-10.7,2.2-10.7,6.45,7.4,9.28,6.77a38.47,38.47,0,0,0,7.24-3s2.67-18.4,2.67-19-2.52-6.76-2.2-8.18,1.26-6.45,0-6.13-9.12,5.34-10.22,5.82-3.3,5.45-4.09,5.79-8.49-1.08-8.49-1.08l-1-4.4s8.34-5.35,9.12-6.13-2.67-4.25-2.67-4.25,10.22,1.73,11.32,1.26,2.36-4.56,3.15-4.56,5,.47,5,.47,2.36,3.46,2.83,3.3c.1-1,.24-2,.44-3.09a7.09,7.09,0,0,1,1.43-3.3" fill="#baa4f9"/><path id="패스_54" data-name="패스 54" d="M312.05,601.77c2-2.34,5.59-2.15,8.59-2.85,5.83-1.34,10-6.36,13.57-11.16a8.68,8.68,0,0,1,2.93-2.88,6.85,6.85,0,0,1,2.85-.6,26.11,26.11,0,0,1,9.89,2.11,11,11,0,0,1-1.4-4.25,4.16,4.16,0,0,0-.57-2.2c-1-1.16-2.79-.55-4.29-.57-3.61,0-5.7-4.07-8.83-5.89-2.15-1.25-4.75-1.41-7.1-2.22s-4.71-2.78-4.5-5.26c.24-2.88,3.51-4.26,5.86-6a2.41,2.41,0,0,0,1.23-1.86,2.62,2.62,0,0,0-.66-1.38c-.8-1-1.71-2.54-2.54-3.72H327c-1.28.17-2.6-.4-3.86-.11-2.66.62-3.08,4.18-4.68,6.39-2.39,3.3-7.22,3.29-11.28,2.94-4.78-.4-9.66-.82-14.09-2.68a17.39,17.39,0,0,1-8-6.45c-2.91.12-8.52.47-11.36,1.41a9.53,9.53,0,0,1-6,0L254,553.86c-1.62-6.43,2.16-14.36-2.28-19.28-1.55-1.72-3.8-2.6-6-3.42-6.89-2.62-14-5.28-21.39-4.94l-.54,0c-7.53.5-15.35,5.18-17,12.56-.32,1.45-.41,3-1.26,4.24-1.26,1.83-3.78,2.31-5.35,3.88-2.24,2.23-2,5.86-1.52,9l2.57,18.31c1,6.79,1.55,14.7-3.35,19.49l-.18-.14c-.42,2.15,1.67,4.34,3.31,5.85s3.78,2.85,4.9,4.88c1.9,3.45.48,7.78,1.35,11.62.91,4,4.18,7,6.78,10.2a35.76,35.76,0,0,1,7.15,15.18c.58,1.5.56,6.26,2.59,6.51,2.52.31,6.61,2.2,8,1.1a12.57,12.57,0,0,1,3.62-1.73s3.14,2.2,3.77,2.2a44.89,44.89,0,0,0,5-1.89s.94-20.92,1.73-20.76,7.23,3.15,8.49,3.3,8.49-.78,10.22.47,7.87,10.7,8.81,10.7,4.4.16,4.09.95-1.89,10.69,1.1,10.69,7.08-.15,7.23-.63,2.2-10.7,2.2-10.7,6.45,7.4,9.28,6.77a38.47,38.47,0,0,0,7.24-3s2.67-18.4,2.67-19-2.52-6.76-2.2-8.18,1.26-6.45,0-6.13-9.12,5.34-10.22,5.82-3.3,5.45-4.09,5.79-8.49-1.08-8.49-1.08l-1-4.4s8.34-5.35,9.12-6.13-2.67-4.25-2.67-4.25,10.22,1.73,11.32,1.26,2.36-4.56,3.15-4.56,5,.47,5,.47,2.36,3.46,2.83,3.3c.1-1,.24-2,.44-3.09A7.09,7.09,0,0,1,312.05,601.77Z" fill="none" stroke="#fff" stroke-miterlimit="10"/></g></g></g><g id="그룹_88" data-name="그룹 88"><g clip-path="url(#clip-path)"><g id="그룹_87" data-name="그룹 87"><path id="패스_55" data-name="패스 55" d="M273.76,554.6c2.83-.94,8.44-1.28,11.35-1.4a12.37,12.37,0,0,1-1.56-3.62c.18-2.74,4.06-2.87,6.74-3.45,3.63-.8,6.32-3.81,8.55-6.79,4.81-6.43,8.88-14.28,7.4-22.17S295.32,502.85,288.46,507c-3.48,2.11-5.48,6.31-9.24,7.86-3.48,1.43-8.51.8-10,4.27-.95,2.25.43,4.72,1.38,7a20.54,20.54,0,0,1,0,15.74c-1.76,4.17-4.93,8.84-2.63,12.74h-.32a9.49,9.49,0,0,0,6.05,0" fill="#f1a274"/><path id="패스_56" data-name="패스 56" d="M273.76,554.6c2.83-.94,8.44-1.28,11.35-1.4a12.37,12.37,0,0,1-1.56-3.62c.18-2.74,4.06-2.87,6.74-3.45,3.63-.8,6.32-3.81,8.55-6.79,4.81-6.43,8.88-14.28,7.4-22.17S295.32,502.85,288.46,507c-3.48,2.11-5.48,6.31-9.24,7.86-3.48,1.43-8.51.8-10,4.27-.95,2.25.43,4.72,1.38,7a20.54,20.54,0,0,1,0,15.74c-1.76,4.17-4.93,8.84-2.63,12.74h-.32A9.52,9.52,0,0,0,273.76,554.6Z" fill="none" stroke="#fff" stroke-miterlimit="10"/><path id="패스_57" data-name="패스 57" d="M359.45,375c1.61-.07,6.29,9.59,7.39,13.52s-3.62,11-2.36,13.37,7.08,10.54,6.76,11.95-.47,7.87-1.1,9.44-5,9.44-4.87,10.54,3.77,14.63,3.14,17.3-5,24.22-4.09,28.47,4.4,11,5,12.26-5.35,6.3-5.35,6.3,3.3,3.3,4.4,3.3,6-5.67,6.45-5.67,8-.63,8.17.48.79,8.17,0,9.43-3.93,12.43-5.19,17.15-7.55,36.64-7.23,37.27-5.19,2-6.29,2,1.73,7.87,2,9.6-8.81,9.75-8.81,10.22a114.21,114.21,0,0,1-4.4,11.32c-1.41,3-20.44,19.19-21.39,19.35s-3.93,1.73-5,.79-5.5-6.61-5.5-6.61-1.89,7.24-2.2,7.55-3.93,3.46-4.56,3.3-4.25-3.46-4.25-4.25.48-5.34,0-5.19c.1-1,.24-2,.44-3.08a7.07,7.07,0,0,1,1.42-3.3c2-2.34,5.59-2.15,8.59-2.85,5.83-1.34,10-6.36,13.57-11.16a8.86,8.86,0,0,1,2.93-2.88,7,7,0,0,1,2.85-.6,26.11,26.11,0,0,1,9.89,2.11,24.48,24.48,0,0,0,3.92,5,24.48,24.48,0,0,1-3.92-5,11.16,11.16,0,0,1-1.4-4.25,4,4,0,0,0-.57-2.2c-.95-1.16-2.79-.55-4.29-.57-3.61,0-5.7-4.07-8.83-5.89-2.15-1.25-4.74-1.41-7.1-2.22s-4.71-2.78-4.5-5.26c.24-2.88,3.51-4.26,5.86-5.95a2.37,2.37,0,0,0,1.23-1.86,2.66,2.66,0,0,0-.66-1.38c-.8-1-1.71-2.54-2.54-3.72,3.72-.52,4-5.93,6.63-8.7,2.19-2.35,6-2.5,8.93-1.24s5.23,3.65,7.43,6c2.48-3.07,7.39-2.52,10.86-.66s6.45,4.76,10.24,5.82l.16,0-.16,0c-3.8-1.06-6.77-4-10.24-5.82s-8.38-2.41-10.86.66c-2.2-2.33-4.49-4.72-7.43-6s-6.74-1.1-8.93,1.24c-2.59,2.77-2.91,8.18-6.63,8.7h-.06c-1.28.17-2.6-.4-3.86-.1-2.66.61-3.08,4.17-4.68,6.38-2.39,3.3-7.22,3.29-11.28,3-4.78-.4-9.66-.83-14.09-2.68a17.51,17.51,0,0,1-8-6.45,12.37,12.37,0,0,1-1.56-3.62c.18-2.74,4.06-2.87,6.74-3.46,3.64-.79,6.33-3.8,8.56-6.79,4.8-6.42,8.87-14.28,7.4-22.16s-10.93-14.32-17.79-10.16c-3.47,2.12-5.47,6.31-9.24,7.86-3.47,1.43-8.51.81-10,4.27-.95,2.25.44,4.73,1.39,7a20.52,20.52,0,0,1,0,15.73c-1.75,4.18-4.93,8.85-2.63,12.75l-.31,0a6.18,6.18,0,0,1-1-.42,6.18,6.18,0,0,0,1,.42L254,553.9c-1.62-6.42,2.15-14.35-2.28-19.27-1.55-1.72-3.8-2.6-6-3.43-6.89-2.62-14-5.27-21.39-4.93h0a24.93,24.93,0,0,1,1.74-6.84c1.41-3.52.45-6.2-.59-9.38h.27l.25,0a2.92,2.92,0,0,0,1.46-1.2l8.38-10.75c3.24-4.16,6.67-9,5.88-14.2-.83-5.53-6.13-9.24-11.31-11.34a4.1,4.1,0,0,1-2.14-1.44c-.63-1.1-.08-2.48-.16-3.74-.11-1.67-1.34-3-1.73-4.67-.7-2.9,1.3-5.66,2.18-8.5,2-6.4-3-14-9.62-14.76a207.84,207.84,0,0,1,27.4-25.82,31.61,31.61,0,0,0,4.95-4.44A14.63,14.63,0,0,1,254,406.2c3.08-2.16,7.26-.22,10.54,1.63s7.7,3.48,10.49.95a9.28,9.28,0,0,0,2.18-4l2.85-8.05c1.23-3.47,2.49-7,4.71-9.95s5.52-5.18,9.15-5.23c2.61-.42,5.08-.49,7.78-.72,10.41-.88,20.68-.38,30.34-.59,6-.12,9-1.52,13-2.89,5.5-1.9,9-6.09,13.09-10.33,0,0-.6,8,1.31,7.92" fill="#f1a274"/><path id="패스_58" data-name="패스 58" d="M359.45,375c1.61-.07,6.29,9.59,7.39,13.52s-3.62,11-2.36,13.37,7.08,10.54,6.76,11.95-.47,7.87-1.1,9.44-5,9.44-4.87,10.54,3.77,14.63,3.14,17.3-5,24.22-4.09,28.47,4.4,11,5,12.26-5.35,6.3-5.35,6.3,3.3,3.3,4.4,3.3,6-5.67,6.45-5.67,8-.63,8.17.48.79,8.17,0,9.43-3.93,12.43-5.19,17.15-7.55,36.64-7.23,37.27-5.19,2-6.29,2,1.73,7.87,2,9.6-8.81,9.75-8.81,10.22a114.21,114.21,0,0,1-4.4,11.32c-1.41,3-20.44,19.19-21.39,19.35s-3.93,1.73-5,.79-5.5-6.61-5.5-6.61-1.89,7.24-2.2,7.55-3.93,3.46-4.56,3.3-4.25-3.46-4.25-4.25.48-5.34,0-5.19c.1-1,.24-2,.44-3.08a7.07,7.07,0,0,1,1.42-3.3c2-2.34,5.59-2.15,8.59-2.85,5.83-1.34,10-6.36,13.57-11.16a8.86,8.86,0,0,1,2.93-2.88,7,7,0,0,1,2.85-.6,26.11,26.11,0,0,1,9.89,2.11,24.48,24.48,0,0,0,3.92,5,24.48,24.48,0,0,1-3.92-5,11.16,11.16,0,0,1-1.4-4.25,4,4,0,0,0-.57-2.2c-.95-1.16-2.79-.55-4.29-.57-3.61,0-5.7-4.07-8.83-5.89-2.15-1.25-4.74-1.41-7.1-2.22s-4.71-2.78-4.5-5.26c.24-2.88,3.51-4.26,5.86-5.95a2.37,2.37,0,0,0,1.23-1.86,2.66,2.66,0,0,0-.66-1.38c-.8-1-1.71-2.54-2.54-3.72,3.72-.52,4-5.93,6.63-8.7,2.19-2.35,6-2.5,8.93-1.24s5.23,3.65,7.43,6c2.48-3.07,7.39-2.52,10.86-.66s6.45,4.76,10.24,5.82l.16,0-.16,0c-3.8-1.06-6.77-4-10.24-5.82s-8.38-2.41-10.86.66c-2.2-2.33-4.49-4.72-7.43-6s-6.74-1.1-8.93,1.24c-2.59,2.77-2.91,8.18-6.63,8.7h-.06c-1.28.17-2.6-.4-3.86-.1-2.66.61-3.08,4.17-4.68,6.38-2.39,3.3-7.22,3.29-11.28,3-4.78-.4-9.66-.83-14.09-2.68a17.51,17.51,0,0,1-8-6.45,12.37,12.37,0,0,1-1.56-3.62c.18-2.74,4.06-2.87,6.74-3.46,3.64-.79,6.33-3.8,8.56-6.79,4.8-6.42,8.87-14.28,7.4-22.16s-10.93-14.32-17.79-10.16c-3.47,2.12-5.47,6.31-9.24,7.86-3.47,1.43-8.51.81-10,4.27-.95,2.25.44,4.73,1.39,7a20.52,20.52,0,0,1,0,15.73c-1.75,4.18-4.93,8.85-2.63,12.75l-.31,0a6.18,6.18,0,0,1-1-.42,6.18,6.18,0,0,0,1,.42L254,553.9c-1.62-6.42,2.15-14.35-2.28-19.27-1.55-1.72-3.8-2.6-6-3.43-6.89-2.62-14-5.27-21.39-4.93h0a24.93,24.93,0,0,1,1.74-6.84c1.41-3.52.45-6.2-.59-9.38h.27l.25,0a2.92,2.92,0,0,0,1.46-1.2l8.38-10.75c3.24-4.16,6.67-9,5.88-14.2-.83-5.53-6.13-9.24-11.31-11.34a4.1,4.1,0,0,1-2.14-1.44c-.63-1.1-.08-2.48-.16-3.74-.11-1.67-1.34-3-1.73-4.67-.7-2.9,1.3-5.66,2.18-8.5,2-6.4-3-14-9.62-14.76a207.84,207.84,0,0,1,27.4-25.82,31.61,31.61,0,0,0,4.95-4.44A14.63,14.63,0,0,1,254,406.2c3.08-2.16,7.26-.22,10.54,1.63s7.7,3.48,10.49.95a9.28,9.28,0,0,0,2.18-4l2.85-8.05c1.23-3.47,2.49-7,4.71-9.95s5.52-5.18,9.15-5.23c2.61-.42,5.08-.49,7.78-.72,10.41-.88,20.68-.38,30.34-.59,6-.12,9-1.52,13-2.89,5.5-1.9,9-6.09,13.09-10.33C358.14,367.05,357.54,375.05,359.45,375Z" fill="none" stroke="#fff" stroke-miterlimit="10"/></g></g></g><g id="그룹_90" data-name="그룹 90"><g clip-path="url(#clip-path)"><g id="그룹_89" data-name="그룹 89"><path id="패스_59" data-name="패스 59" d="M294.25,381.49c0-.42,15.28-1.17,36-1.17,14.47,0,25.32-8.23,28.35-12.37,1.84-2.52-.39-6.3-1.65-9.62-3.14-8.25-10.5-9.38-14.32-17.27-2.2-4.56-7.55-17-9-18.87S314.78,294,313.36,292.3s-14.15-19.34-15.73-23a124.37,124.37,0,0,1-4.72-16.51,9.38,9.38,0,0,0-1.73-5.66c-1.57-1.89-11.17-24.73-11.17-24.73h-3.42c-7.15,1.23-14.46,1.62-21.42,3.66-14.19,4.16-28.42,15.12-42.15,9.63-6.22-2.49-12.78-8.23-18.6-4.9-2,1.15-3.35,3.21-5.28,4.5-7,4.67-16.31-3.05-24.59-1.46a16.3,16.3,0,0,0-5.11,2.09c.59,2,1.1,4.15,1.72,6.18,1.53,5,4.3,10.2,9.23,11.92,2.26.79,4.74.75,7,1.53,4.6,1.6,7.35,6.19,9.71,10.45L193.18,277a11.64,11.64,0,0,1,1.82,4.94c.1,2.2-1,4.23-1.94,6.24a31.24,31.24,0,0,0-1.53,21.19,11.42,11.42,0,0,0,3.15,5.68c2.23,1.93,5.38,2.24,8.29,2.73,4.41.73,9.08,2.32,11.57,6.05s2.13,9,1.57,13.61l-3.27,27.18a5.8,5.8,0,0,0,.38,3.74,3.33,3.33,0,0,0,1.3,1.17,9.3,9.3,0,0,0,3.19.84c7.25.92,15.85,1.34,20.52-4.28a25,25,0,0,1,2.88-3.54c3.08-2.58,7.72-1.41,11.46.06a127.36,127.36,0,0,1,16.62,8c7.67,4.38,15.22,9.68,24,10.82l1.08.12h0" fill="#56bfb5"/><path id="패스_60" data-name="패스 60" d="M294.25,381.49c0-.42,15.28-1.17,36-1.17,14.47,0,25.32-8.23,28.35-12.37,1.84-2.52-.39-6.3-1.65-9.62-3.14-8.25-10.5-9.38-14.32-17.27-2.2-4.56-7.55-17-9-18.87S314.78,294,313.36,292.3s-14.15-19.34-15.73-23a124.37,124.37,0,0,1-4.72-16.51,9.38,9.38,0,0,0-1.73-5.66c-1.57-1.89-11.17-24.73-11.17-24.73h-3.42c-7.15,1.23-14.46,1.62-21.42,3.66-14.19,4.16-28.42,15.12-42.15,9.63-6.22-2.49-12.78-8.23-18.6-4.9-2,1.15-3.35,3.21-5.28,4.5-7,4.67-16.31-3.05-24.59-1.46a16.3,16.3,0,0,0-5.11,2.09c.59,2,1.1,4.15,1.72,6.18,1.53,5,4.3,10.2,9.23,11.92,2.26.79,4.74.75,7,1.53,4.6,1.6,7.35,6.19,9.71,10.45L193.18,277a11.64,11.64,0,0,1,1.82,4.94c.1,2.2-1,4.23-1.94,6.24a31.24,31.24,0,0,0-1.53,21.19,11.42,11.42,0,0,0,3.15,5.68c2.23,1.93,5.38,2.24,8.29,2.73,4.41.73,9.08,2.32,11.57,6.05s2.13,9,1.57,13.61l-3.27,27.18a5.8,5.8,0,0,0,.38,3.74,3.33,3.33,0,0,0,1.3,1.17,9.3,9.3,0,0,0,3.19.84c7.25.92,15.85,1.34,20.52-4.28a25,25,0,0,1,2.88-3.54c3.08-2.58,7.72-1.41,11.46.06a127.36,127.36,0,0,1,16.62,8c7.67,4.38,15.22,9.68,24,10.82l1.08.12h0" fill="none" stroke="#fff" stroke-miterlimit="10"/></g></g></g><g id="그룹_92" data-name="그룹 92"><g clip-path="url(#clip-path)"><g id="그룹_91" data-name="그룹 91"><path id="패스_61" data-name="패스 61" d="M203.64,378.85c-1.82,1.5-3.27,3.4-5.06,4.94-4.27,3.66-10.07,4.95-14.84,7.94a15.32,15.32,0,0,0-4.52,4.08c-1,1.37-1.64,3-2.66,4.3a5.65,5.65,0,0,1-3.53,2.36,39.17,39.17,0,0,0,4.46,6.09c2.87,2.82,7.49,5.28,6.82,9.25-1,5.74-11.95,5.5-12.13,11.33-.07,2.39,1.94,4.26,3,6.38,1.84,3.47,1.32,7.91,3.49,11.18a9,9,0,0,0,1.18,1.43c1.9,1.85,4.53,2.95,6.92,4.21,2.94,1.56,6,4,6.11,7.32s-2.64,6.14-3.08,9.45a7.92,7.92,0,0,0,.85,4.66c1.87,3.82,6.12,7.06,8.08,11.12,2.72,5.6,1.22,13.31,5.94,17.38l.25.2a16.76,16.76,0,0,0,5.2,2.45l14.28,4.83.24.08h0a3.1,3.1,0,0,0,.79.17h.27a1.9,1.9,0,0,0,.25,0,2.92,2.92,0,0,0,1.46-1.2L235.87,498c3.24-4.17,6.67-9,5.88-14.2-.83-5.53-6.13-9.25-11.31-11.35A4,4,0,0,1,228.3,471c-.64-1.09-.08-2.47-.16-3.73-.11-1.67-1.34-3.05-1.74-4.68-.7-2.89,1.3-5.66,2.19-8.5,2-6.4-3-14-9.62-14.76a207.88,207.88,0,0,1,27.4-25.82,31.06,31.06,0,0,0,4.95-4.43,14.63,14.63,0,0,1,2.66-2.95c3.08-2.16,7.26-.22,10.54,1.62s7.7,3.49,10.49,1a9.34,9.34,0,0,0,2.18-4l2.85-8c1.23-3.48,2.49-7,4.71-10s5.52-5.18,9.15-5.23c-.36,0-.72-.07-1.07-.12-8.76-1.14-16.31-6.43-24-10.81a128,128,0,0,0-16.62-8c-3.75-1.47-8.39-2.64-11.47-.05a25.66,25.66,0,0,0-2.88,3.53c-4.67,5.62-13.27,5.2-20.52,4.28a9.25,9.25,0,0,1-3.18-.84c-2.52,3.56-7.78,7-10.54,9.29" fill="#f2d06b"/><path id="패스_62" data-name="패스 62" d="M203.64,378.85c-1.82,1.5-3.27,3.4-5.06,4.94-4.27,3.66-10.07,4.95-14.84,7.94a15.32,15.32,0,0,0-4.52,4.08c-1,1.37-1.64,3-2.66,4.3a5.65,5.65,0,0,1-3.53,2.36,39.17,39.17,0,0,0,4.46,6.09c2.87,2.82,7.49,5.28,6.82,9.25-1,5.74-11.95,5.5-12.13,11.33-.07,2.39,1.94,4.26,3,6.38,1.84,3.47,1.32,7.91,3.49,11.18a9,9,0,0,0,1.18,1.43c1.9,1.85,4.53,2.95,6.92,4.21,2.94,1.56,6,4,6.11,7.32s-2.64,6.14-3.08,9.45a7.92,7.92,0,0,0,.85,4.66c1.87,3.82,6.12,7.06,8.08,11.12,2.72,5.6,1.22,13.31,5.94,17.38l.25.2a16.76,16.76,0,0,0,5.2,2.45l14.28,4.83.24.08h0a3.1,3.1,0,0,0,.79.17h.27a1.9,1.9,0,0,0,.25,0,2.92,2.92,0,0,0,1.46-1.2L235.87,498c3.24-4.17,6.67-9,5.88-14.2-.83-5.53-6.13-9.25-11.31-11.35A4,4,0,0,1,228.3,471c-.64-1.09-.08-2.47-.16-3.73-.11-1.67-1.34-3.05-1.74-4.68-.7-2.89,1.3-5.66,2.19-8.5,2-6.4-3-14-9.62-14.76a207.88,207.88,0,0,1,27.4-25.82,31.06,31.06,0,0,0,4.95-4.43,14.63,14.63,0,0,1,2.66-2.95c3.08-2.16,7.26-.22,10.54,1.62s7.7,3.49,10.49,1a9.34,9.34,0,0,0,2.18-4l2.85-8c1.23-3.48,2.49-7,4.71-10s5.52-5.18,9.15-5.23c-.36,0-.72-.07-1.07-.12-8.76-1.14-16.31-6.43-24-10.81a128,128,0,0,0-16.62-8c-3.75-1.47-8.39-2.64-11.47-.05a25.66,25.66,0,0,0-2.88,3.53c-4.67,5.62-13.27,5.2-20.52,4.28a9.25,9.25,0,0,1-3.18-.84C211.66,373.12,206.4,376.58,203.64,378.85Z" fill="none" stroke="#fff" stroke-miterlimit="10"/><path id="패스_63" data-name="패스 63" d="M120.82,511.8a18.1,18.1,0,0,0,6.11-3c3.89-2.55,8.23-5.92,8.1-10.56,0-1.37-.49-2.74-.22-4.09.47-2.33,2.9-3.71,5.2-4.3a7.44,7.44,0,0,1,4.71,0c3.22,1.33,3.95,5.44,4.59,8.87s2.54,7.52,6,7.43c3.74-.1,5.26-4.74,7.87-7.42,4-4.11,12-2.72,14.4,2.5.67,1.46.94,3.11,1.77,4.49a10.47,10.47,0,0,0,4.67,3.67c3.73,1.75,8,2.76,12,1.67,3.52-1,7.27-4.95,8.94-8.65a2.19,2.19,0,0,1-.25-.2c-4.73-4.06-3.23-11.77-5.95-17.38-2-4.05-6.21-7.29-8.08-11.12-.36,3.24-1,7.49-3.27,9.35a8.68,8.68,0,0,1-6.31,1.65,26.17,26.17,0,0,1-6.44-1.76,3.58,3.58,0,0,1-2.54-2.43l-2.3-4.83c-1.11-2.33-2.24-4.78-2.14-7.36.18-4.72,4.26-8.18,7.31-11.8a46,46,0,0,0,4.9-8.46,8.55,8.55,0,0,1-1.18-1.43c-2.17-3.27-1.66-7.71-3.49-11.18-1.12-2.12-3.12-4-3.05-6.38.18-5.83,11.14-5.59,12.12-11.33.68-4-3.95-6.43-6.82-9.25a39.11,39.11,0,0,1-4.45-6.09,2.76,2.76,0,0,1-.7,0,2.76,2.76,0,0,0,.7,0c-.45-.65-.92-1.28-1.43-1.88a17.14,17.14,0,0,0-19.83-4.26c-3.69,1.75-7.06,4.93-11.13,4.63a9.41,9.41,0,0,1-2.17-.45c-.38,1.55-.63,2.94-.63,2.94S130,398,126.22,397.67s-11.31-.31-11.94-1.57-5.34-4.4-7.85-3.77-1.89-.94-2.52.63.94,4.09.94,4.09-17-1.57-19.48-.32-5.65,10.37-7.54,11.94-9.42,10.06-9.74,12.26,7.54,15.21,9.74,13.89,6.29,0,6.29,0,2.51,6.84,3.77,8.73-.32,6.28.94,8.17,3.14,9.82,5.66,11.82,6.28,1.91,6.6,2,2.2-7.18,1.25-8.75-9.11-17.6-6.6-19.48,8.49-5.22,8.8-2.45,3.46,5.59,1.89,6.53a23.93,23.93,0,0,0-4.09,4.08s5.66,7.86,5,11.63.94,13.83.94,17.91.63,10.37-1.25,11.63-5.66,5.32-4.72,5.17,3.15,4.88,5,4.57a24.16,24.16,0,0,1,5,0s5.34,2.5,4.71,5c-.49,2-2.13,7.17-2.23,10a12.11,12.11,0,0,0,5.94.47" fill="#f2d06b"/><path id="패스_64" data-name="패스 64" d="M120.82,511.8a18.1,18.1,0,0,0,6.11-3c3.89-2.55,8.23-5.92,8.1-10.56,0-1.37-.49-2.74-.22-4.09.47-2.33,2.9-3.71,5.2-4.3a7.44,7.44,0,0,1,4.71,0c3.22,1.33,3.95,5.44,4.59,8.87s2.54,7.52,6,7.43c3.74-.1,5.26-4.74,7.87-7.42,4-4.11,12-2.72,14.4,2.5.67,1.46.94,3.11,1.77,4.49a10.47,10.47,0,0,0,4.67,3.67c3.73,1.75,8,2.76,12,1.67,3.52-1,7.27-4.95,8.94-8.65a2.19,2.19,0,0,1-.25-.2c-4.73-4.06-3.23-11.77-5.95-17.38-2-4.05-6.21-7.29-8.08-11.12-.36,3.24-1,7.49-3.27,9.35a8.68,8.68,0,0,1-6.31,1.65,26.17,26.17,0,0,1-6.44-1.76,3.58,3.58,0,0,1-2.54-2.43l-2.3-4.83c-1.11-2.33-2.24-4.78-2.14-7.36.18-4.72,4.26-8.18,7.31-11.8a46,46,0,0,0,4.9-8.46,8.55,8.55,0,0,1-1.18-1.43c-2.17-3.27-1.66-7.71-3.49-11.18-1.12-2.12-3.12-4-3.05-6.38.18-5.83,11.14-5.59,12.12-11.33.68-4-3.95-6.43-6.82-9.25a39.11,39.11,0,0,1-4.45-6.09,2.76,2.76,0,0,1-.7,0,2.76,2.76,0,0,0,.7,0c-.45-.65-.92-1.28-1.43-1.88a17.14,17.14,0,0,0-19.83-4.26c-3.69,1.75-7.06,4.93-11.13,4.63a9.41,9.41,0,0,1-2.17-.45c-.38,1.55-.63,2.94-.63,2.94S130,398,126.22,397.67s-11.31-.31-11.94-1.57-5.34-4.4-7.85-3.77-1.89-.94-2.52.63.94,4.09.94,4.09-17-1.57-19.48-.32-5.65,10.37-7.54,11.94-9.42,10.06-9.74,12.26,7.54,15.21,9.74,13.89,6.29,0,6.29,0,2.51,6.84,3.77,8.73-.32,6.28.94,8.17,3.14,9.82,5.66,11.82,6.28,1.91,6.6,2,2.2-7.18,1.25-8.75-9.11-17.6-6.6-19.48,8.49-5.22,8.8-2.45,3.46,5.59,1.89,6.53a23.93,23.93,0,0,0-4.09,4.08s5.66,7.86,5,11.63.94,13.83.94,17.91.63,10.37-1.25,11.63-5.66,5.32-4.72,5.17,3.15,4.88,5,4.57a24.16,24.16,0,0,1,5,0s5.34,2.5,4.71,5c-.49,2-2.13,7.17-2.23,10A12,12,0,0,0,120.82,511.8Z" fill="none" stroke="#fff" stroke-miterlimit="10"/><path id="패스_65" data-name="패스 65" d="M189.85,469.11c.44-3.31,3.23-6.11,3.08-9.45s-3.17-5.76-6.11-7.32c-2.39-1.26-5-2.36-6.92-4.22a45.52,45.52,0,0,1-4.9,8.47c-3.05,3.61-7.13,7.07-7.31,11.8-.1,2.58,1,5,2.15,7.36l2.3,4.83a3.56,3.56,0,0,0,2.54,2.43,26,26,0,0,0,6.43,1.76,8.68,8.68,0,0,0,6.31-1.65c2.24-1.86,2.91-6.11,3.28-9.35a7.9,7.9,0,0,1-.85-4.65" fill="#f2d06b"/><path id="패스_66" data-name="패스 66" d="M189.85,469.11c.44-3.31,3.23-6.11,3.08-9.45s-3.17-5.76-6.11-7.32c-2.39-1.26-5-2.36-6.92-4.22a45.52,45.52,0,0,1-4.9,8.47c-3.05,3.61-7.13,7.07-7.31,11.8-.1,2.58,1,5,2.15,7.36l2.3,4.83a3.56,3.56,0,0,0,2.54,2.43,26,26,0,0,0,6.43,1.76,8.68,8.68,0,0,0,6.31-1.65c2.24-1.86,2.91-6.11,3.28-9.35A7.92,7.92,0,0,1,189.85,469.11Z" fill="none" stroke="#fff" stroke-miterlimit="10"/></g></g></g><g id="그룹_94" data-name="그룹 94"><g clip-path="url(#clip-path)"><g id="그룹_93" data-name="그룹 93"><path id="패스_67" data-name="패스 67" d="M151.78,396.33a17.16,17.16,0,0,1,19.83,4.25c.5.61,1,1.24,1.42,1.89a5.69,5.69,0,0,0,3.53-2.36c1-1.34,1.68-2.93,2.65-4.31a15.47,15.47,0,0,1,4.53-4.07c4.77-3,10.57-4.28,14.83-8,1.79-1.53,3.25-3.44,5.07-4.93,2.76-2.27,8-5.74,10.53-9.29a3.36,3.36,0,0,1-1.3-1.18,5.71,5.71,0,0,1-.38-3.73l3.27-27.18c.56-4.64,1-9.73-1.57-13.62-2.49-3.72-7.16-5.31-11.57-6.05-2.91-.48-6.06-.8-8.29-2.72a11.45,11.45,0,0,1-3.15-5.69,31.25,31.25,0,0,1,1.53-21.19c.9-2,2-4,1.94-6.23a11.64,11.64,0,0,0-1.82-4.94l-6.08-10.94c-2.36-4.26-5.11-8.85-9.71-10.45-2.26-.78-4.75-.74-7-1.53-4.92-1.72-7.7-6.93-9.22-11.92-.62-2-1.13-4.13-1.72-6.18-.91.53-1.79,1.1-2.67,1.68l-22.6,14.86c-1,.67-2.11,1.47-2.32,2.66-.29,1.66,1.26,3,2,4.51,2.32,4.73-3.34,9.3-8.11,11.5s-10.51,6.56-8.43,11.39c.72,1.67,2.37,3.37,1.56,5a3.56,3.56,0,0,1-2.11,1.53,20.52,20.52,0,0,1-9.82,1.1,31.2,31.2,0,0,1-2.69,10.83,35.7,35.7,0,0,0-2.3,4.89c-1.55,5.1,1.27,10.4,4,15,4.65-.82,8-6,12.72-5.68,3.43.22,5.76,3.22,7.51,6.3,2.48-1.31,6.28-1.89,8.07-3.87a11.55,11.55,0,0,0,1.73-3.08c2-4.45,5.11-8.72,9.65-10.48s10.62,0,12.32,4.53a18.14,18.14,0,0,0,1.12,3.15c1.11,1.84,3.44,2.5,5.58,2.7s4.38.08,6.32,1a2.38,2.38,0,0,1,1.28,1.16,2.86,2.86,0,0,1,0,1.64c-1,4.55-2.58,9.06-5.55,12.64s-7.46,6.1-12.1,5.87a50.55,50.55,0,0,1-6.1-1.07c-5.49-.95-12.17.09-17.8,1.22l-.58.53-11,9.61a15.15,15.15,0,0,1-2.61,2c5.68,4.36,16.19,11.74,15.72,12.45-.63,1-22-1.88-26.71,0s-12.25,2.52-11,4.72,9.43,11.32,11.63,11.32,11-3.14,11.63,0-.32,8.17,2.83,7.54,13.54-5.34,11.64-3.77-2.35,3.77.23,5.66,8.55,8.17,7.61,9.74a16.64,16.64,0,0,0-1.26,3.76,9.62,9.62,0,0,0,2.18.46c4.07.3,7.44-2.88,11.12-4.63" fill="#55a6d9"/><path id="패스_68" data-name="패스 68" d="M151.78,396.33a17.16,17.16,0,0,1,19.83,4.25c.5.61,1,1.24,1.42,1.89a5.69,5.69,0,0,0,3.53-2.36c1-1.34,1.68-2.93,2.65-4.31a15.47,15.47,0,0,1,4.53-4.07c4.77-3,10.57-4.28,14.83-8,1.79-1.53,3.25-3.44,5.07-4.93,2.76-2.27,8-5.74,10.53-9.29a3.36,3.36,0,0,1-1.3-1.18,5.71,5.71,0,0,1-.38-3.73l3.27-27.18c.56-4.64,1-9.73-1.57-13.62-2.49-3.72-7.16-5.31-11.57-6.05-2.91-.48-6.06-.8-8.29-2.72a11.45,11.45,0,0,1-3.15-5.69,31.25,31.25,0,0,1,1.53-21.19c.9-2,2-4,1.94-6.23a11.64,11.64,0,0,0-1.82-4.94l-6.08-10.94c-2.36-4.26-5.11-8.85-9.71-10.45-2.26-.78-4.75-.74-7-1.53-4.92-1.72-7.7-6.93-9.22-11.92-.62-2-1.13-4.13-1.72-6.18-.91.53-1.79,1.1-2.67,1.68l-22.6,14.86c-1,.67-2.11,1.47-2.32,2.66-.29,1.66,1.26,3,2,4.51,2.32,4.73-3.34,9.3-8.11,11.5s-10.51,6.56-8.43,11.39c.72,1.67,2.37,3.37,1.56,5a3.56,3.56,0,0,1-2.11,1.53,20.52,20.52,0,0,1-9.82,1.1,31.2,31.2,0,0,1-2.69,10.83,35.7,35.7,0,0,0-2.3,4.89c-1.55,5.1,1.27,10.4,4,15,4.65-.82,8-6,12.72-5.68,3.43.22,5.76,3.22,7.51,6.3,2.48-1.31,6.28-1.89,8.07-3.87a11.55,11.55,0,0,0,1.73-3.08c2-4.45,5.11-8.72,9.65-10.48s10.62,0,12.32,4.53a18.14,18.14,0,0,0,1.12,3.15c1.11,1.84,3.44,2.5,5.58,2.7s4.38.08,6.32,1a2.38,2.38,0,0,1,1.28,1.16,2.86,2.86,0,0,1,0,1.64c-1,4.55-2.58,9.06-5.55,12.64s-7.46,6.1-12.1,5.87a50.55,50.55,0,0,1-6.1-1.07c-5.49-.95-12.17.09-17.8,1.22l-.58.53-11,9.61a15.15,15.15,0,0,1-2.61,2c5.68,4.36,16.19,11.74,15.72,12.45-.63,1-22-1.88-26.71,0s-12.25,2.52-11,4.72,9.43,11.32,11.63,11.32,11-3.14,11.63,0-.32,8.17,2.83,7.54,13.54-5.34,11.64-3.77-2.35,3.77.23,5.66,8.55,8.17,7.61,9.74a16.64,16.64,0,0,0-1.26,3.76,9.62,9.62,0,0,0,2.18.46C144.72,401.26,148.09,398.08,151.78,396.33Z" fill="none" stroke="#fff" stroke-miterlimit="10"/><path id="패스_69" data-name="패스 69" d="M129.3,337.14l.58-.52a4.48,4.48,0,0,0,1.45-2.22,5.48,5.48,0,0,0-.9-3.48l-4.24-8.14c-.25-.48-.51-1-.8-1.46-1.74-3.06-4-6-7.45-6.26-4.67-.31-8,4.83-12.63,5.64-2.7-4.55-5.49-9.8-4-14.87a35.29,35.29,0,0,1,2.29-4.86,30.75,30.75,0,0,0,2.67-10.74,20.76,20.76,0,0,1-3.22-.7c-2.89-.89-5.57-2.41-8.52-3.09-5.61-1.3-11.6.67-16.23,4.11a28.33,28.33,0,0,0-9.9,14c2.51.35,5,.82,6.51,1.88,3.12,2.18,10.92,3.12,10.61,6.86s-5.62,11.54-2.5,11.54,10.29,5.93,14.66,6.24,17.46-2.5,19,0,3.75,5,1.25,7.49-6.86,5.3-5.61,7.17a22.72,22.72,0,0,0,3.42,2.93,15.47,15.47,0,0,0,2.59-2l10.9-9.54" fill="#55a6d9"/><path id="패스_70" data-name="패스 70" d="M129.3,337.14l.58-.52a4.48,4.48,0,0,0,1.45-2.22,5.48,5.48,0,0,0-.9-3.48l-4.24-8.14c-.25-.48-.51-1-.8-1.46-1.74-3.06-4-6-7.45-6.26-4.67-.31-8,4.83-12.63,5.64-2.7-4.55-5.49-9.8-4-14.87a35.29,35.29,0,0,1,2.29-4.86,30.75,30.75,0,0,0,2.67-10.74,20.76,20.76,0,0,1-3.22-.7c-2.89-.89-5.57-2.41-8.52-3.09-5.61-1.3-11.6.67-16.23,4.11a28.33,28.33,0,0,0-9.9,14c2.51.35,5,.82,6.51,1.88,3.12,2.18,10.92,3.12,10.61,6.86s-5.62,11.54-2.5,11.54,10.29,5.93,14.66,6.24,17.46-2.5,19,0,3.75,5,1.25,7.49-6.86,5.3-5.61,7.17a22.72,22.72,0,0,0,3.42,2.93,15.47,15.47,0,0,0,2.59-2Z" fill="none" stroke="#fff" stroke-miterlimit="10"/><path id="패스_71" data-name="패스 71" d="M130.43,330.91a5.46,5.46,0,0,1,.89,3.49,4.33,4.33,0,0,1-1.44,2.21c5.58-1.12,12.21-2.15,17.66-1.21a50.06,50.06,0,0,0,6.05,1.06c4.61.22,9.07-2.28,12-5.83s4.56-8,5.51-12.54a2.83,2.83,0,0,0,0-1.63,2.4,2.4,0,0,0-1.27-1.16c-1.93-.91-4.15-.8-6.27-1s-4.44-.85-5.54-2.67a18.13,18.13,0,0,1-1.12-3.12c-1.68-4.54-7.72-6.25-12.23-4.5s-7.6,6-9.58,10.4a11.2,11.2,0,0,1-1.72,3c-1.77,2-5.54,2.55-8,3.85.28.49.54,1,.8,1.47l4.23,8.13" fill="#55a6d9"/><path id="패스_72" data-name="패스 72" d="M130.43,330.91a5.46,5.46,0,0,1,.89,3.49,4.33,4.33,0,0,1-1.44,2.21c5.58-1.12,12.21-2.15,17.66-1.21a50.06,50.06,0,0,0,6.05,1.06c4.61.22,9.07-2.28,12-5.83s4.56-8,5.51-12.54a2.83,2.83,0,0,0,0-1.63,2.4,2.4,0,0,0-1.27-1.16c-1.93-.91-4.15-.8-6.27-1s-4.44-.85-5.54-2.67a18.13,18.13,0,0,1-1.12-3.12c-1.68-4.54-7.72-6.25-12.23-4.5s-7.6,6-9.58,10.4a11.2,11.2,0,0,1-1.72,3c-1.77,2-5.54,2.55-8,3.85.28.49.54,1,.8,1.47Z" fill="none" stroke="#fff" stroke-miterlimit="10"/></g></g></g></g><path id="location_on_FILL1_wght200_GRAD0_opsz48" data-name="location on FILL1 wght200 GRAD0 opsz48" d="M101.88,315.25a2.73,2.73,0,1,0-2.76-2.71,2.8,2.8,0,0,0,.8,1.91A2.71,2.71,0,0,0,101.88,315.25Zm0,20.5a63.68,63.68,0,0,1-11.31-12.5q-3.69-5.75-3.69-10.35,0-7,4.52-11.23a15.24,15.24,0,0,1,20.95,0q4.53,4.18,4.53,11.23,0,4.61-3.71,10.35A63.58,63.58,0,0,1,101.88,335.75Z" fill="#0068b7" stroke="#fff" stroke-width="2"/><path id="location_on_FILL1_wght200_GRAD0_opsz48-2" data-name="location on FILL1 wght200 GRAD0 opsz48-2" d="M351,546.7a2.73,2.73,0,1,0-1.95-.8A2.69,2.69,0,0,0,351,546.7Zm0,20.5a63.32,63.32,0,0,1-11.3-12.5Q336,549,336,544.35q0-7.05,4.52-11.22a15.22,15.22,0,0,1,21,0Q366,537.3,366,544.35q0,4.6-3.7,10.35A63.63,63.63,0,0,1,351,567.2Z" fill="#ef5b05" stroke="#fff" stroke-width="2"/><path id="location_on_FILL1_wght200_GRAD0_opsz48-3" data-name="location on FILL1 wght200 GRAD0 opsz48-3" d="M240,622.75a2.73,2.73,0,1,0-1.95-.8A2.69,2.69,0,0,0,240,622.75Zm0,20.5a63.32,63.32,0,0,1-11.3-12.5Q225,625,225,620.4q0-7,4.52-11.23a15.24,15.24,0,0,1,20.95,0Q255,613.36,255,620.4q0,4.61-3.7,10.35A63.63,63.63,0,0,1,240,643.25Z" fill="#603acc" stroke="#fff" stroke-width="2"/><path id="location_on_FILL1_wght200_GRAD0_opsz48-4" data-name="location on FILL1 wght200 GRAD0 opsz48-4" d="M326,286.75a2.73,2.73,0,1,0-1.95-.8A2.69,2.69,0,0,0,326,286.75Zm0,20.5a63.32,63.32,0,0,1-11.3-12.5Q311,289,311,284.4q0-7,4.52-11.23a15.24,15.24,0,0,1,21,0Q341,277.35,341,284.4q0,4.61-3.7,10.35A63.63,63.63,0,0,1,326,307.25Z" fill="#067268" stroke="#fff" stroke-width="2"/><g id="소래포"><g id="사각형_191" data-name="사각형 191"><path d="M90,342h24a15,15,0,0,1,15,15h0a15,15,0,0,1-15,15H90a15,15,0,0,1-15-15h0A15,15,0,0,1,90,342Z" fill="#fff"/><path d="M90,342.5h24A14.5,14.5,0,0,1,128.5,357h0A14.5,14.5,0,0,1,114,371.5H90A14.5,14.5,0,0,1,75.5,357h0A14.5,14.5,0,0,1,90,342.5Z" fill="none" stroke="#09a3ca"/></g><path id="패스_84" data-name="패스 84" d="M89.71,355.34a7.74,7.74,0,0,1-5.42,3.42v-1.35c2.9-.65,4.65-2.47,4.65-5.25v-.88h1.51v.88c0,2.78,1.79,4.6,4.67,5.25v1.35A7.7,7.7,0,0,1,89.71,355.34Zm-5.63,7.93V362h4.86v-3.82h1.51V362h4.9v1.32Zm16.8-.3H97.45v-6.54h3V352.7h-3v-1.34H102v6.41H98.93v3.88h2.24a3.56,3.56,0,0,0,2.33-.62v-9.82H105v5h1.42v-5.05h1.48v12.7h-1.48v-6.32H105v6.16H103.5v-1.4A3.88,3.88,0,0,1,100.88,363Zm17.78-5.74H121v1.33h-4.41V362h4.84v1.32H110.12V362H115v-3.39h-4.48v-1.33h1.88V352.7h-1.65v-1.34h10v1.34h-1.67v2A6.71,6.71,0,0,1,118.66,357.23ZM114,352.7v4.54h3.22a6.59,6.59,0,0,0,.35-2.37V352.7Z" fill="#09a3ca"/></g><g id="남애"><g id="사각형_191-2" data-name="사각형 191-2"><path d="M321,308h24a15,15,0,0,1,15,15h0a15,15,0,0,1-15,15H321a15,15,0,0,1-15-15h0A15,15,0,0,1,321,308Z" fill="#fff"/><path d="M321,308.5h24A14.5,14.5,0,0,1,359.5,323h0A14.5,14.5,0,0,1,345,337.5H321A14.5,14.5,0,0,1,306.5,323h0A14.5,14.5,0,0,1,321,308.5Z" fill="none" stroke="#09a3ca"/></g><path id="패스_93" data-name="패스 93" d="M326.93,323.29h-5.68v-6.08h1.52V322h4.57a3.92,3.92,0,0,0,2.47-.59v-4.25h1.53V320h1.85v1.33h-1.85v2.9h-1.53v-1.55A4.61,4.61,0,0,1,326.93,323.29ZM322,330V325h9.37V330Zm7.84-3.62h-6.32v2.33h6.32Zm4.48-3.2c0-3.05.27-4.6,1-5.4a2.28,2.28,0,0,1,3.08,0c.74.8,1,2.36,1,5.4s-.27,4.61-1,5.4a2.33,2.33,0,0,1-3.08,0C334.56,327.74,334.29,326.19,334.29,323.13Zm1.46,0c0,2.62.11,3.88.5,4.4a.63.63,0,0,0,.57.28.65.65,0,0,0,.59-.28c.39-.51.49-1.77.49-4.4s-.1-3.89-.49-4.4a.67.67,0,0,0-.59-.29.66.66,0,0,0-.57.29C335.86,319.24,335.75,320.52,335.75,323.13Zm9.11,6.7h-1.48v-6.32H342v6.16H340.5V317.21H342v5h1.42v-5.05h1.48Z" fill="#09a3ca"/></g><g id="주전"><g id="사각형_191-3" data-name="사각형 191-3"><path d="M340,577h24a15,15,0,0,1,15,15h0a15,15,0,0,1-15,15H340a15,15,0,0,1-15-15h0A15,15,0,0,1,340,577Z" fill="#fff"/><path d="M340,577.5h24A14.5,14.5,0,0,1,378.5,592h0A14.5,14.5,0,0,1,364,606.5H340A14.5,14.5,0,0,1,325.5,592h0A14.5,14.5,0,0,1,340,577.5Z" fill="none" stroke="#09a3ca"/></g><path id="패스_91" data-name="패스 91" d="M350.69,587.61h-4.24v0c0,2.2,2.08,3.48,4.37,3.85v1.36a7.58,7.58,0,0,1-5.11-2.73,7.77,7.77,0,0,1-5.13,2.73V591.5c2.27-.38,4.36-1.65,4.36-3.85v0h-4.2v-1.33h9.95Zm-10.61,8v-1.34h11.27v1.34h-4.9V599h-1.51v-3.42Zm13.35-8v-1.32H360v1.32h-2.52v1.13a3.27,3.27,0,0,0,2.75,3.53v1.34a5.06,5.06,0,0,1-3.48-2.14,5.18,5.18,0,0,1-3.53,2.3v-1.35a3.35,3.35,0,0,0,2.74-3.68V587.6ZM363.7,595h-1.53V590.4h-2.62v-1.3h2.62v-3h1.53Zm.22,3.86H354.2v-4.31h1.53v3h8.19Z" fill="#09a3ca"/></g><g id="문항"><g id="사각형_191-4" data-name="사각형 191-4"><path d="M230,650h24a15,15,0,0,1,15,15h0a15,15,0,0,1-15,15H230a15,15,0,0,1-15-15h0A15,15,0,0,1,230,650Z" fill="#fff"/><path d="M230,650.5h24A14.5,14.5,0,0,1,268.5,665h0A14.5,14.5,0,0,1,254,679.5H230A14.5,14.5,0,0,1,215.5,665h0A14.5,14.5,0,0,1,230,650.5Z" fill="none" stroke="#09a3ca"/></g><path id="패스_90" data-name="패스 90" d="M240.61,659.28v4.83h-9.78v-4.83Zm-8.26,3.56h6.73v-2.27h-6.73Zm-2.36,4v-1.32h11.44v1.32h-4.81v2.35H235.1v-2.35Zm2.36,1.33v2.38h8.48v1.31h-10v-3.7Zm17.71-7h-7.23V660h2.9v-1.22h1.51V660h2.82Zm-5.38,3a1,1,0,0,0,.43.8,2.71,2.71,0,0,0,2.75,0,1,1,0,0,0,.38-.77,1,1,0,0,0-.41-.8,2.3,2.3,0,0,0-1.37-.36,2.36,2.36,0,0,0-1.35.36A1,1,0,0,0,244.68,664.24Zm-1.47,0a2.08,2.08,0,0,1,.91-1.74,4.11,4.11,0,0,1,2.34-.63,3.9,3.9,0,0,1,2.32.63,2.05,2.05,0,0,1,.91,1.74,2,2,0,0,1-.94,1.75,4.66,4.66,0,0,1-4.68-.06A2.08,2.08,0,0,1,243.21,664.24Zm10.15-5.11v3.22h1.85v1.34h-1.85V667h-1.53v-7.88Zm-9.53,10.61A1.88,1.88,0,0,1,245,668a11.45,11.45,0,0,1,7.55,0,1.9,1.9,0,0,1,0,3.49,11.45,11.45,0,0,1-7.55,0A1.89,1.89,0,0,1,243.83,669.74Zm1.52,0a.79.79,0,0,0,.45.66,7.08,7.08,0,0,0,2.95.45,7,7,0,0,0,2.94-.45.74.74,0,0,0,.45-.66.75.75,0,0,0-.45-.66,6.53,6.53,0,0,0-2.94-.44,6.62,6.62,0,0,0-2.95.44A.81.81,0,0,0,245.35,669.74Z" fill="#09a3ca"/></g><g id="백미리"><g id="사각형_191-5" data-name="사각형 191-5"><path d="M90,372h24a15,15,0,0,1,15,15h0a15,15,0,0,1-15,15H90a15,15,0,0,1-15-15h0A15,15,0,0,1,90,372Z" fill="#fff"/><path d="M90,372.5h24A14.5,14.5,0,0,1,128.5,387h0A14.5,14.5,0,0,1,114,401.5H90A14.5,14.5,0,0,1,75.5,387h0A14.5,14.5,0,0,1,90,372.5Z" fill="none" stroke="#09a3ca"/></g><path id="패스_85" data-name="패스 85" d="M85.74,383.52h2.12v-2.24h1.43v7h-5v-7h1.4Zm2.12,3.5v-2.24H85.74V387Zm7,1.68H93.39v-3.27H92v3.19H90.55v-7.41H92v2.89h1.4v-3h1.47ZM93.35,394v-3.2H85.1v-1.33h9.76V394Zm10.31-12.69V393H97.53V381.35ZM99,391.65h3.11V382.7H99Zm8.63-10.53v12.71h-1.53v-12.7ZM116.25,393h-5.7v-6.54H115V382.7h-4.42v-1.34h5.92v6.41h-4.41v3.88h4.48a4,4,0,0,0,2.62-.73v-9.79h1.53v12.7h-1.53v-1.66A4.32,4.32,0,0,1,116.25,393Z" fill="#09a3ca"/></g><path id="location_on_FILL1_wght200_GRAD0_opsz48-5" data-name="location on FILL1 wght200 GRAD0 opsz48-5" d="M90.88,433.25a2.73,2.73,0,1,0-2.76-2.71,2.8,2.8,0,0,0,.8,1.91A2.71,2.71,0,0,0,90.88,433.25Zm0,20.5a63.68,63.68,0,0,1-11.31-12.5q-3.69-5.75-3.69-10.35,0-7,4.52-11.23a15.24,15.24,0,0,1,20.95,0q4.53,4.18,4.53,11.23,0,4.61-3.71,10.35A63.58,63.58,0,0,1,90.88,453.75Z" fill="#a25c00" stroke="#fff" stroke-width="2"/><g id="중리"><g id="사각형_191-6" data-name="사각형 191-6"><path d="M72,458H99a15,15,0,0,1,15,15h0a15,15,0,0,1-15,15H72a15,15,0,0,1-15-15h0A15,15,0,0,1,72,458Z" fill="#fff"/><path d="M72,458.5H99A14.5,14.5,0,0,1,113.5,473h0A14.5,14.5,0,0,1,99,487.5H72A14.5,14.5,0,0,1,57.5,473h0A14.5,14.5,0,0,1,72,458.5Z" fill="none" stroke="#09a3ca"/></g><path id="패스_86" data-name="패스 86" d="M84.61,468.57H80.46c.18,1.26,2.31,2,4.27,2.11V472a7.85,7.85,0,0,1-5-1.89A7.88,7.88,0,0,1,74.65,472v-1.29c2-.12,4.09-.85,4.27-2.11H74.83v-1.29h9.78ZM74,474.2v-1.3H85.43v1.3h-5v1.18a7.35,7.35,0,0,1,3.39.7,1.94,1.94,0,0,1,0,3.41,8.74,8.74,0,0,1-4.1.7,8.83,8.83,0,0,1-4.12-.7,1.94,1.94,0,0,1,0-3.42,7.64,7.64,0,0,1,3.33-.7V474.2Zm2.13,3.58a.81.81,0,0,0,.44.69,7.43,7.43,0,0,0,3.17.45,7.28,7.28,0,0,0,3.17-.45.79.79,0,0,0,.45-.69.82.82,0,0,0-.45-.68,7.26,7.26,0,0,0-3.16-.45,7.33,7.33,0,0,0-3.18.45A.81.81,0,0,0,76.12,477.78ZM93.23,479h-5.7v-6.54H92V468.7H87.53v-1.34h5.92v6.41H89v3.88h4.48a4,4,0,0,0,2.62-.73v-9.79h1.53v12.7H96.14v-1.66A4.32,4.32,0,0,1,93.23,479Z" fill="#09a3ca"/></g><g id="별주부"><g id="사각형_191-7" data-name="사각형 191-7"><path d="M72,488H99a15,15,0,0,1,15,15h0a15,15,0,0,1-15,15H72a15,15,0,0,1-15-15h0A15,15,0,0,1,72,488Z" fill="#fff"/><path d="M72,488.5H99A14.5,14.5,0,0,1,113.5,503h0A14.5,14.5,0,0,1,99,517.5H72A14.5,14.5,0,0,1,57.5,503h0A14.5,14.5,0,0,1,72,488.5Z" fill="none" stroke="#09a3ca"/></g><path id="패스_87" data-name="패스 87" d="M68.9,499h3.16v-1.71h1.5v1.14h2.59v-1.29h1.53v6.37H76.15v-1.37H73.56v1H67.41v-5.87H68.9Zm4.66.67v1.22h2.59v-1.22Zm-1.5,2.26v-1.68H68.9v1.68Zm-2.35,5.78v1h8.12V510H68.18v-3.47h8v-1.05h-8V504.2h9.5v3.5Zm21-9.09H86.47v.05c0,2.2,2.08,3.47,4.37,3.85v1.35a7.58,7.58,0,0,1-5.11-2.73,7.77,7.77,0,0,1-5.13,2.73V502.5c2.27-.38,4.35-1.65,4.35-3.85v0h-4.2v-1.33h10Zm-10.61,8v-1.34H91.37v1.34h-4.9V510H85v-3.42Zm15.2-7.41h6.9v-1.93h1.53v6.51h-10v-6.51H95.3Zm6.9,3.28v-2H95.3v2Zm-9.08,4.21v-1.33h11.27v1.33h-4.9V510H98V506.7Z" fill="#09a3ca"/></g><g id="장사항"><g id="사각형_191-8" data-name="사각형 191-8"><path d="M335,339h24a15,15,0,0,1,15,15h0a15,15,0,0,1-15,15H335a15,15,0,0,1-15-15h0A15,15,0,0,1,335,339Z" fill="#fff"/><path d="M335,339.5h24A14.5,14.5,0,0,1,373.5,354h0A14.5,14.5,0,0,1,359,368.5H335A14.5,14.5,0,0,1,320.5,354h0A14.5,14.5,0,0,1,335,339.5Z" fill="none" stroke="#09a3ca"/></g><path id="패스_92" data-name="패스 92" d="M329.25,349.6v-1.32h6.56v1.32h-2.52v.48A3.25,3.25,0,0,0,336,353.6v1.34a5.06,5.06,0,0,1-3.48-2.14,5.25,5.25,0,0,1-3.54,2.31v-1.35a3.37,3.37,0,0,0,2.75-3.69v-.47Zm10.09-1.47V351h1.85v1.33h-1.85v3.05h-1.53v-7.24Zm-9.53,10.29a2.17,2.17,0,0,1,.93-1.79,9.18,9.18,0,0,1,8,0,2.16,2.16,0,0,1,.94,1.79,2.19,2.19,0,0,1-.94,1.8,9.27,9.27,0,0,1-8,0A2.15,2.15,0,0,1,329.81,358.42Zm1.52,0a1,1,0,0,0,.52.87,5.62,5.62,0,0,0,2.88.53,5.78,5.78,0,0,0,2.9-.53,1,1,0,0,0,.49-.87,1,1,0,0,0-.49-.87,5.89,5.89,0,0,0-2.9-.53,5.72,5.72,0,0,0-2.88.53A1,1,0,0,0,331.33,358.42Zm14.24-1.61A5.91,5.91,0,0,1,341.9,360v-1.4c1.53-.7,2.9-2,2.9-5.53v-4.76h1.51V353c0,3.54,1.4,4.82,2.91,5.53V360A6,6,0,0,1,345.57,356.81Zm6.79-8.68v5.18h2v1.33h-2v6.19h-1.53v-12.7Zm9.72,2.1h-7.23V349h2.9v-1.22h1.51V349h2.82Zm-5.38,3a1,1,0,0,0,.43.8,2.71,2.71,0,0,0,2.75,0,1,1,0,0,0,.38-.77,1,1,0,0,0-.41-.8,2.3,2.3,0,0,0-1.37-.36,2.36,2.36,0,0,0-1.35.36A1,1,0,0,0,356.7,353.24Zm-1.47,0a2.08,2.08,0,0,1,.91-1.74,4.11,4.11,0,0,1,2.34-.63,4,4,0,0,1,2.32.63,2.05,2.05,0,0,1,.91,1.74,2,2,0,0,1-.94,1.75,4.66,4.66,0,0,1-4.68-.06A2.08,2.08,0,0,1,355.23,353.24Zm10.15-5.11v3.22h1.85v1.34h-1.85V356h-1.53v-7.88Zm-9.53,10.61A1.88,1.88,0,0,1,357,357a11.45,11.45,0,0,1,7.55,0,1.9,1.9,0,0,1,0,3.49,11.45,11.45,0,0,1-7.55,0A1.89,1.89,0,0,1,355.85,358.74Zm1.52,0a.79.79,0,0,0,.45.66,7.08,7.08,0,0,0,2.95.45,7,7,0,0,0,2.94-.45.74.74,0,0,0,.45-.66.75.75,0,0,0-.45-.66,6.53,6.53,0,0,0-2.94-.44,6.62,6.62,0,0,0-2.95.44A.81.81,0,0,0,357.37,358.74Z" fill="#09a3ca"/></g><path id="location_on_FILL1_wght200_GRAD0_opsz48-6" data-name="location on FILL1 wght200 GRAD0 opsz48-6" d="M86,570.72A2.73,2.73,0,1,0,83.25,568a2.68,2.68,0,0,0,.8,1.91A2.61,2.61,0,0,0,86,570.72Zm0,20.5a63,63,0,0,1-11.3-12.5Q71,573,71,568.37q0-7.05,4.52-11.22a15.22,15.22,0,0,1,21,0q4.53,4.17,4.53,11.22,0,4.61-3.7,10.35A63.35,63.35,0,0,1,86,591.22Z" fill="#e34f94" stroke="#fff" stroke-width="2"/><g id="동호"><g id="사각형_191-9" data-name="사각형 191-9"><path d="M75,595H99a15,15,0,0,1,15,15h0a15,15,0,0,1-15,15H75a15,15,0,0,1-15-15h0A15,15,0,0,1,75,595Z" fill="#fff"/><path d="M75,595.53H99A14.5,14.5,0,0,1,113.5,610h0A14.5,14.5,0,0,1,99,624.53H75A14.5,14.5,0,0,1,60.5,610h0A14.5,14.5,0,0,1,75,595.53Z" fill="none" stroke="#09a3ca"/></g><path id="패스_89" data-name="패스 89" d="M85.61,605.6H77.35v1.86h8.33v1.27H81.45v1.33h5v1.3H75v-1.3h5v-1.33h-4.1v-4.42h9.77Zm-10,9.21a1.87,1.87,0,0,1,1-1.71,8.77,8.77,0,0,1,4.11-.71,8.59,8.59,0,0,1,4.1.71,1.94,1.94,0,0,1,0,3.42,8.74,8.74,0,0,1-4.1.7,9.09,9.09,0,0,1-4.12-.7A1.87,1.87,0,0,1,75.6,614.81Zm1.53,0a.78.78,0,0,0,.43.68,7.18,7.18,0,0,0,3.18.45,7.11,7.11,0,0,0,3.16-.45.77.77,0,0,0,.45-.68.81.81,0,0,0-.45-.68,7.11,7.11,0,0,0-3.16-.45,7.18,7.18,0,0,0-3.18.45.81.81,0,0,0-.44.68ZM99,605.29v1.31H88.45v-1.31H93v-1.58h1.55v1.58Zm-8.75,5a1.1,1.1,0,0,0,.69,1,6.21,6.21,0,0,0,2.76.5,6,6,0,0,0,2.75-.5,1.09,1.09,0,0,0,.7-1,1.15,1.15,0,0,0-.75-1,6.73,6.73,0,0,0-2.7-.45,6,6,0,0,0-2.86.53A1.1,1.1,0,0,0,90.28,610.27Zm-1.52,0a2.21,2.21,0,0,1,1.2-2,7.63,7.63,0,0,1,3.76-.79,7.53,7.53,0,0,1,3.85.83,2.23,2.23,0,0,1,0,3.88,6.41,6.41,0,0,1-3.06.78v2h4.86v1.31H88.1V615H93v-2a7.37,7.37,0,0,1-2.92-.7A2.24,2.24,0,0,1,88.76,610.27Z" fill="#09a3ca"/></g><g id="돌머리"><g id="사각형_191-10" data-name="사각형 191-10"><path d="M72,626.2H96a15,15,0,0,1,15,15h0a15,15,0,0,1-15,15H72a15,15,0,0,1-15-15h0A15,15,0,0,1,72,626.2Z" fill="#fff"/><path d="M72,626.7H96a14.5,14.5,0,0,1,14.5,14.5h0A14.5,14.5,0,0,1,96,655.7H72a14.5,14.5,0,0,1-14.5-14.5h0A14.5,14.5,0,0,1,72,626.7Z" fill="none" stroke="#09a3ca"/></g><path id="패스_88" data-name="패스 88" d="M76.61,636.74H68.35v1.33h8.33v1.26H72.45v1.07h5v1.27H66V640.4h5v-1.07h-4.1v-3.85h9.77ZM68.35,646v.92h8.54v1.23H66.83v-3.37h8.25v-.94H66.83v-1.23h9.78V646Zm17.31-10.45v4.83h2.48v-5h1.53V648H88.14V641.7H85.66v5.47H79.53V635.55ZM81,645.85h3.11v-9H81Zm17.21,1.32h-5.7v-6.54H97V636.9H92.55v-1.34h5.92V642H94.06v3.88h4.48a4,4,0,0,0,2.62-.73v-9.79h1.53V648h-1.53v-1.66A4.32,4.32,0,0,1,98.25,647.17Z" fill="#09a3ca"/></g></svg>