<svg xmlns="http://www.w3.org/2000/svg" xmlns:xlink="http://www.w3.org/1999/xlink" width="428" height="926" viewBox="0 0 428 926">
  <defs>
    <clipPath id="clip-path">
      <rect id="사각형_306" data-name="사각형 306" width="339.334" height="552.677" fill="none"/>
    </clipPath>
    <clipPath id="clip-path-8">
      <rect id="사각형_313" data-name="사각형 313" width="339.334" height="552.677" fill="#f2d06b"/>
    </clipPath>
  </defs>
  <g id="그룹_137" data-name="그룹 137" transform="translate(-4359 -11174)">
    <path id="패스_74" data-name="패스 74" d="M0,0H428V926H0Z" transform="translate(4359 11174)" fill="#d5f2f2"/>
    <g id="map-sampleai" transform="translate(4403.333 11396.198)">
      <g id="그룹_78" data-name="그룹 78">
        <g id="그룹_77" data-name="그룹 77" clip-path="url(#clip-path)">
          <path id="패스_37" data-name="패스 37" d="M370.939,590.386a3.51,3.51,0,0,1-.784-.167,3.478,3.478,0,0,0,.784.167" transform="translate(-189.765 -302.585)" fill="#f2f8fa"/>
          <path id="패스_38" data-name="패스 38" d="M371.763,590.562Z" transform="translate(-190.59 -302.76)" fill="#f2f8fa"/>
          <path id="패스_39" data-name="패스 39" d="M370.125,590.211l-.028-.009.028.009" transform="translate(-189.736 -302.576)" fill="#f2f8fa"/>
          <path id="패스_40" data-name="패스 40" d="M369.84,590.118l-.244-.08.244.08" transform="translate(-189.479 -302.492)" fill="#f2f8fa"/>
          <path id="패스_41" data-name="패스 41" d="M372.575,590.489a1.467,1.467,0,0,1-.246.036,1.519,1.519,0,0,0,.246-.036" transform="translate(-190.88 -302.723)" fill="#f2f8fa"/>
          <path id="패스_42" data-name="패스 42" d="M372.288,590.563l-.039,0,.039,0" transform="translate(-190.839 -302.761)" fill="#f2f8fa"/>
          <path id="패스_43" data-name="패스 43" d="M372,590.564a1.914,1.914,0,0,1-.237,0,1.823,1.823,0,0,0,.237,0" transform="translate(-190.59 -302.76)" fill="#f2f8fa"/>
          <path id="패스_44" data-name="패스 44" d="M390.8,628.749c-6.892-2.621-14.045-5.276-21.393-4.936,7.348-.34,14.5,2.315,21.393,4.936" transform="translate(-189.38 -319.792)" fill="#f2f8fa"/>
          <path id="패스_45" data-name="패스 45" d="M368.837,623.844h0c-.179.008-.357.01-.537.021.18-.012.359-.013.538-.021" transform="translate(-188.814 -319.823)" fill="#f2f8fa"/>
        </g>
      </g>
      <g id="그룹_80" data-name="그룹 80">
        <g id="그룹_79" data-name="그룹 79" clip-path="url(#clip-path)">
          <path id="패스_46" data-name="패스 46" d="M158.822,1058.85c-4.8-.437-20.678,4.1-21.392,4.075,0,0-8.877-.291-10.915,0s-3.929,3.056-4.8,4.8-2.619,4.656-5.53,5.53-8,.437-9.168,1.6-1.31,8.295-1.455,9.023,10.332,12.952,13.243,11.5,13.1-4.366,17.9-2.765,18.191-2.91,22.12-5.094,11.642-12.873,10.914-16.041-6.112-12.191-10.914-12.627" transform="translate(-54.116 -542.82)" fill="#56bfb5"/>
        </g>
      </g>
      <g id="그룹_82" data-name="그룹 82">
        <g id="그룹_81" data-name="그룹 81" clip-path="url(#clip-path)">
          <path id="패스_47" data-name="패스 47" d="M163.239,766.057c-.871-3.838.556-8.174-1.349-11.618-1.123-2.03-3.192-3.317-4.9-4.886-1.641-1.506-3.734-3.7-3.314-5.841a20.151,20.151,0,0,0-14.261-3.826,3.18,3.18,0,0,0-2.55,1.254c-.476.863-6.943,4.481-11.111,3.072s-8.487-3.467-12.77-2.457a6.234,6.234,0,0,1-3.072.367c-1.787-.506-2.27-2.731-2.863-4.49-2.177-6.459-10.518-9.985-16.668-7.047-.331-4.253-6.559-5.438-10.151-3.138s-5.521,6.419-8.4,9.57-8.032,5.271-11.272,2.5a20.294,20.294,0,0,1-2.763-3.73c-2.372-3.239-6.242-4.82-10.3-5.378a4.857,4.857,0,0,0-1.263,2.11c-.157,1.415.629,6.291.472,6.92s5.19,8.808,3.617,9.908-3.3.157-3.932,0-5.662-2.044-6.605-1.258a18.322,18.322,0,0,1-3.932,1.785s-7.077-2.728-8.965-2.571-8.965,2.2-10.38,3.932-4.247,4.561-3.617,5.347,3.146,4.561,4.876,5.19,3.774-1.573,4.4.786,3.46,8.021,4.718,7.549,3.932-1.415,4.089-2.359.472-6.448.472-6.448,5.348-1.258,6.291-.472,3.617,2.359,2.674,3.146a6.248,6.248,0,0,1-3.617,1.1c-.472-.157-4.089,1.887-2.674,3.145s6.291,3.779,5.348,4.721a8.131,8.131,0,0,1-3.3,1.885c-.472,0-2.674-1.937-3.617-1.126s.472,6.316,1.73,7.1,13.84,6.921,13.369,7.707-2.2,3.775-2.2,3.775-8.65,2.988-8.965,1.73-1.415-6.134-3.617-5.5-6.291,4.247-7.392,3.775a81.715,81.715,0,0,1-8.021-5.033c-1.415-1.1-9.279-1.73-10.537-1.258s-5.348,2.674-5.348,2.674-1.73,4.865-.787,5.657,4.247,4.409,7.235,3.465,8.178-1.887,8.65-1.73,3.145,3.618,4.875,3.146,4.247-2.831,6.291-1.416,9.751,4.718,9.122,6.606-2.044,8.965-3.145,9.436-7.235,3.973-8.021,4.424-6.448,6.585-7.078,8.315.157,5.348,2.988,7.234a42.043,42.043,0,0,0,6.605,3.962c1.573.6,16.671-.973,16.671-.973s5.819-18.99,6.606-18.538,1.415.766,1.1,1.238,1.258,17.2,3.46,18.274,2.988,3.745,5.348,4.846a23.961,23.961,0,0,0,6.92,1.73c.786,0,5.033-3.146,5.976-2.674s2.831,3.46,5.662,3.774,5.819-1.573,8.808-1.415,5.77.314,6.9,0,5.215-1.887,5.215-1.887-2.044-14.627-1.573-15.728,3.932-2.831,4.246-4.089,3.146-11.166,3.775-11.8,8.807-5.033,10.695-6.134,6.134.629,5.19,2.674-5.976,16.2-5.5,16.829-11.953,6.134-11.8,7.706-.786,8.021,1.1,8.808,5.977,3.3,6.448,2.516,2.517-7.077,4.718-7.864a48.26,48.26,0,0,1,7.078-1.415s2.044,2.674,4.4,2.044,1.415-2.359,1.415-3.774-2.044-5.348-2.044-5.348a16.73,16.73,0,0,1,3.617.314c.629.315,2.044,1.887,3.3,1.73s2.517-2.2,2.988-2.988,2.044-5.662,2.674-4.875,4.561,11.009,8.178,9.751,7.392-2.831,6.92-3.3-9.122-6.291-9.279-7.864a28.215,28.215,0,0,1,.157-4.4s8.573-.786,9.162-2.044-1.927-3.932-2.085-4.876-11.166-8.021-11.953-9.279-1.258-9.908-1.1-10.38,1.614-3.46,4.739-2.2,6.428,2.045,5.8,4.561-.472,11.481.943,12.582,9.279,6.606,9.279,7.078-2.044,6.175,1.258,7.884,8.965,2.5,9.436,4.855,2.831,4.718,2.359,5.5-1.921,4.4.062,3.932,6.072-2.674,6.386-3.932a37.023,37.023,0,0,0,0-7.234c-.157-1.1-8.335-9.751-9.437-11.953s-3.774-5.5-2.674-7.549,5.5-10.223,6.763-10.852A.375.375,0,0,1,176.7,791a.289.289,0,0,0-.2.026.289.289,0,0,1,.2-.026c.2-.048.35.121.473.438a35.806,35.806,0,0,0-7.145-15.181c-2.6-3.2-5.874-6.172-6.787-10.2m-59.217-.021a15.719,15.719,0,0,1-4.678,2.954,31.543,31.543,0,0,0-8.09,5.954c-2.34,2.384-4.995,5.413-8.283,4.829a6.97,6.97,0,0,1-4.046-2.836c-2.446-3.148-3.883-7.427-7.5-9.111-4.07-1.9-7.422-3.041-5.821-8.544.945-3.251,3.8-6.607,7.348-6.845,3.381-.226,6.572,1.863,9.91,2.052,4.65.263,9.457-5.453,14.019-2.975,2.86,1.554,3.125,5.744,5.648,7.8a13.122,13.122,0,0,1,2.111,1.653c1.167,1.442.63,3.7-.622,5.068" transform="translate(-0.256 -372.345)" fill="#ff9bac"/>
          <path id="패스_48" data-name="패스 48" d="M163.239,766.057c-.871-3.838.556-8.174-1.349-11.618-1.123-2.03-3.192-3.317-4.9-4.886-1.641-1.506-3.734-3.7-3.314-5.841a20.151,20.151,0,0,0-14.261-3.826,3.18,3.18,0,0,0-2.55,1.254c-.476.863-6.943,4.481-11.111,3.072s-8.487-3.467-12.77-2.457a6.234,6.234,0,0,1-3.072.367c-1.787-.506-2.27-2.731-2.863-4.49-2.177-6.459-10.518-9.985-16.668-7.047-.331-4.253-6.559-5.438-10.151-3.138s-5.521,6.419-8.4,9.57-8.032,5.271-11.272,2.5a20.294,20.294,0,0,1-2.763-3.73c-2.372-3.239-6.242-4.82-10.3-5.378a4.857,4.857,0,0,0-1.263,2.11c-.157,1.415.629,6.291.472,6.92s5.19,8.808,3.617,9.908-3.3.157-3.932,0-5.662-2.044-6.605-1.258a18.322,18.322,0,0,1-3.932,1.785s-7.077-2.728-8.965-2.571-8.965,2.2-10.38,3.932-4.247,4.561-3.617,5.347,3.146,4.561,4.876,5.19,3.774-1.573,4.4.786,3.46,8.021,4.718,7.549,3.932-1.415,4.089-2.359.472-6.448.472-6.448,5.348-1.258,6.291-.472,3.617,2.359,2.674,3.146a6.248,6.248,0,0,1-3.617,1.1c-.472-.157-4.089,1.887-2.674,3.145s6.291,3.779,5.348,4.721a8.131,8.131,0,0,1-3.3,1.885c-.472,0-2.674-1.937-3.617-1.126s.472,6.316,1.73,7.1,13.84,6.921,13.369,7.707-2.2,3.775-2.2,3.775-8.65,2.988-8.965,1.73-1.415-6.134-3.617-5.5-6.291,4.247-7.392,3.775a81.715,81.715,0,0,1-8.021-5.033c-1.415-1.1-9.279-1.73-10.537-1.258s-5.348,2.674-5.348,2.674-1.73,4.865-.787,5.657,4.247,4.409,7.235,3.465,8.178-1.887,8.65-1.73,3.145,3.618,4.875,3.146,4.247-2.831,6.291-1.416,9.751,4.718,9.122,6.606-2.044,8.965-3.145,9.436-7.235,3.973-8.021,4.424-6.448,6.585-7.078,8.315.157,5.348,2.988,7.234a42.043,42.043,0,0,0,6.605,3.962c1.573.6,16.671-.973,16.671-.973s5.819-18.99,6.606-18.538,1.415.766,1.1,1.238,1.258,17.2,3.46,18.274,2.988,3.745,5.348,4.846a23.961,23.961,0,0,0,6.92,1.73c.786,0,5.033-3.146,5.976-2.674s2.831,3.46,5.662,3.774,5.819-1.573,8.808-1.415,5.77.314,6.9,0,5.215-1.887,5.215-1.887-2.044-14.627-1.573-15.728,3.932-2.831,4.246-4.089,3.146-11.166,3.775-11.8,8.807-5.033,10.695-6.134,6.134.629,5.19,2.674-5.976,16.2-5.5,16.829-11.953,6.134-11.8,7.706-.786,8.021,1.1,8.808,5.977,3.3,6.448,2.516,2.517-7.077,4.718-7.864a48.26,48.26,0,0,1,7.078-1.415s2.044,2.674,4.4,2.044,1.415-2.359,1.415-3.774-2.044-5.348-2.044-5.348a16.73,16.73,0,0,1,3.617.314c.629.315,2.044,1.887,3.3,1.73s2.517-2.2,2.988-2.988,2.044-5.662,2.674-4.875,4.561,11.009,8.178,9.751,7.392-2.831,6.92-3.3-9.122-6.291-9.279-7.864a28.215,28.215,0,0,1,.157-4.4s8.573-.786,9.162-2.044-1.927-3.932-2.085-4.876-11.166-8.021-11.953-9.279-1.258-9.908-1.1-10.38,1.614-3.46,4.739-2.2,6.428,2.045,5.8,4.561-.472,11.481.943,12.582,9.279,6.606,9.279,7.078-2.044,6.175,1.258,7.884,8.965,2.5,9.436,4.855,2.831,4.718,2.359,5.5-1.921,4.4.062,3.932,6.072-2.674,6.386-3.932a37.023,37.023,0,0,0,0-7.234c-.157-1.1-8.335-9.751-9.437-11.953s-3.774-5.5-2.674-7.549,5.5-10.223,6.763-10.852A.375.375,0,0,1,176.7,791a.289.289,0,0,0-.2.026.289.289,0,0,1,.2-.026c.2-.048.35.121.473.438a35.806,35.806,0,0,0-7.145-15.181C167.425,773.049,164.152,770.081,163.239,766.057Zm-59.217-.021a15.719,15.719,0,0,1-4.678,2.954,31.543,31.543,0,0,0-8.09,5.954c-2.34,2.384-4.995,5.413-8.283,4.829a6.97,6.97,0,0,1-4.046-2.836c-2.446-3.148-3.883-7.427-7.5-9.111-4.07-1.9-7.422-3.041-5.821-8.544.945-3.251,3.8-6.607,7.348-6.845,3.381-.226,6.572,1.863,9.91,2.052,4.65.263,9.457-5.453,14.019-2.975,2.86,1.554,3.125,5.744,5.648,7.8a13.122,13.122,0,0,1,2.111,1.653C105.811,762.41,105.274,764.667,104.022,766.036Z" transform="translate(-0.256 -372.345)" fill="none" stroke="#fff" stroke-miterlimit="10" stroke-width="1"/>
          <path id="패스_49" data-name="패스 49" d="M170.594,785.191c-2.523-2.057-2.788-6.247-5.648-7.8-4.562-2.479-9.369,3.237-14.019,2.975-3.338-.189-6.529-2.278-9.91-2.052-3.545.237-6.4,3.594-7.348,6.845-1.6,5.5,1.751,6.647,5.821,8.544,3.614,1.685,5.05,5.963,7.5,9.111a6.97,6.97,0,0,0,4.046,2.836c3.289.585,5.944-2.445,8.283-4.829a31.541,31.541,0,0,1,8.09-5.954,15.718,15.718,0,0,0,4.678-2.954c1.252-1.369,1.789-3.626.622-5.068a13.131,13.131,0,0,0-2.111-1.653" transform="translate(-68.318 -398.22)" fill="#ff9bac"/>
          <path id="패스_50" data-name="패스 50" d="M170.594,785.191c-2.523-2.057-2.788-6.247-5.648-7.8-4.562-2.479-9.369,3.237-14.019,2.975-3.338-.189-6.529-2.278-9.91-2.052-3.545.237-6.4,3.594-7.348,6.845-1.6,5.5,1.751,6.647,5.821,8.544,3.614,1.685,5.05,5.963,7.5,9.111a6.97,6.97,0,0,0,4.046,2.836c3.289.585,5.944-2.445,8.283-4.829a31.541,31.541,0,0,1,8.09-5.954,15.718,15.718,0,0,0,4.678-2.954c1.252-1.369,1.789-3.626.622-5.068A13.131,13.131,0,0,0,170.594,785.191Z" transform="translate(-68.318 -398.22)" fill="none" stroke="#fff" stroke-miterlimit="10" stroke-width="1"/>
        </g>
      </g>
      <g id="그룹_84" data-name="그룹 84">
        <g id="그룹_83" data-name="그룹 83" clip-path="url(#clip-path)">
          <path id="패스_51" data-name="패스 51" d="M107.239,644.634a20.276,20.276,0,0,0,2.763,3.73c3.24,2.774,8.4.655,11.272-2.5s4.8-7.27,8.4-9.57,9.819-1.116,10.15,3.137c6.15-2.938,14.491.588,16.668,7.047.594,1.759,1.076,3.984,2.863,4.489a6.238,6.238,0,0,0,3.072-.367c4.283-1.011,8.6,1.046,12.77,2.456s10.635-2.209,11.11-3.072a3.182,3.182,0,0,1,2.55-1.254,20.15,20.15,0,0,1,14.261,3.826,2.722,2.722,0,0,1,.058-.267,2.722,2.722,0,0,0-.058.267c.06.045.124.088.184.134,4.9-4.792,4.3-12.7,3.348-19.485q-1.284-9.154-2.569-18.309c-.439-3.126-.72-6.759,1.517-8.986,1.574-1.567,4.093-2.05,5.356-3.877.845-1.222.941-2.789,1.259-4.24,1.616-7.379,9.435-12.06,16.972-12.559.179-.012.358-.014.537-.022a24.952,24.952,0,0,1,1.744-6.83c1.408-3.521.451-6.205-.593-9.389a3.457,3.457,0,0,1-.784-.167l-.028-.008-.244-.08-14.285-4.822a16.81,16.81,0,0,1-5.192-2.457c-1.67,3.7-5.421,7.691-8.943,8.65-3.979,1.085-8.265.079-12-1.677a10.383,10.383,0,0,1-4.662-3.668c-.838-1.378-1.105-3.025-1.774-4.493-2.377-5.216-10.4-6.611-14.4-2.5-2.607,2.679-4.128,7.324-7.866,7.423-3.483.092-5.4-4-6.029-7.428s-1.362-7.545-4.583-8.872a7.523,7.523,0,0,0-4.713-.035c-2.3.595-4.731,1.978-5.2,4.308-.269,1.343.18,2.718.22,4.088.134,4.644-4.209,8.013-8.1,10.559a18.179,18.179,0,0,1-6.116,2.984,11.933,11.933,0,0,1-5.939-.47,2.38,2.38,0,0,0,.342,1.664c1.257,1.257,11,5.79,11,5.79s-9.426-2.066-8.483,0,5.655,8.036,6.284,8.664-12.254,6.679-16.968,10.252-11.311,7.657-10.054,9.229,3.771,9.367,5.027,8.768,4.4.033,4.4.033-6.2,3.99-8.09,6.035-3.3,6.92-2.987,8.807.471,5.977-.63,6.763a21.664,21.664,0,0,0-3.141,2.923c4.06.559,7.93,2.138,10.3,5.378" transform="translate(-49.696 -281.196)" fill="#f3a3ce"/>
          <path id="패스_52" data-name="패스 52" d="M107.239,644.634a20.276,20.276,0,0,0,2.763,3.73c3.24,2.774,8.4.655,11.272-2.5s4.8-7.27,8.4-9.57,9.819-1.116,10.15,3.137c6.15-2.938,14.491.588,16.668,7.047.594,1.759,1.076,3.984,2.863,4.489a6.238,6.238,0,0,0,3.072-.367c4.283-1.011,8.6,1.046,12.77,2.456s10.635-2.209,11.11-3.072a3.182,3.182,0,0,1,2.55-1.254,20.15,20.15,0,0,1,14.261,3.826,2.722,2.722,0,0,1,.058-.267,2.722,2.722,0,0,0-.058.267c.06.045.124.088.184.134,4.9-4.792,4.3-12.7,3.348-19.485q-1.284-9.154-2.569-18.309c-.439-3.126-.72-6.759,1.517-8.986,1.574-1.567,4.093-2.05,5.356-3.877.845-1.222.941-2.789,1.259-4.24,1.616-7.379,9.435-12.06,16.972-12.559.179-.012.358-.014.537-.022a24.952,24.952,0,0,1,1.744-6.83c1.408-3.521.451-6.205-.593-9.389a3.457,3.457,0,0,1-.784-.167l-.028-.008-.244-.08-14.285-4.822a16.81,16.81,0,0,1-5.192-2.457c-1.67,3.7-5.421,7.691-8.943,8.65-3.979,1.085-8.265.079-12-1.677a10.383,10.383,0,0,1-4.662-3.668c-.838-1.378-1.105-3.025-1.774-4.493-2.377-5.216-10.4-6.611-14.4-2.5-2.607,2.679-4.128,7.324-7.866,7.423-3.483.092-5.4-4-6.029-7.428s-1.362-7.545-4.583-8.872a7.523,7.523,0,0,0-4.713-.035c-2.3.595-4.731,1.978-5.2,4.308-.269,1.343.18,2.718.22,4.088.134,4.644-4.209,8.013-8.1,10.559a18.179,18.179,0,0,1-6.116,2.984,11.933,11.933,0,0,1-5.939-.47,2.38,2.38,0,0,0,.342,1.664c1.257,1.257,11,5.79,11,5.79s-9.426-2.066-8.483,0,5.655,8.036,6.284,8.664-12.254,6.679-16.968,10.252-11.311,7.657-10.054,9.229,3.771,9.367,5.027,8.768,4.4.033,4.4.033-6.2,3.99-8.09,6.035-3.3,6.92-2.987,8.807.471,5.977-.63,6.763a21.664,21.664,0,0,0-3.141,2.923C101,639.815,104.867,641.395,107.239,644.634Z" transform="translate(-49.696 -281.196)" fill="none" stroke="#fff" stroke-miterlimit="10" stroke-width="1"/>
        </g>
      </g>
      <g id="그룹_86" data-name="그룹 86">
        <g id="그룹_85" data-name="그룹 85" clip-path="url(#clip-path)">
          <path id="패스_53" data-name="패스 53" d="M429.052,699.364c2.009-2.338,5.586-2.154,8.59-2.847,5.832-1.345,9.992-6.36,13.565-11.162a8.875,8.875,0,0,1,2.936-2.885,7,7,0,0,1,2.849-.6,26.2,26.2,0,0,1,9.889,2.116,11.133,11.133,0,0,1-1.4-4.25,4.019,4.019,0,0,0-.574-2.2c-.951-1.165-2.785-.552-4.288-.572-3.612-.049-5.7-4.075-8.825-5.892-2.15-1.252-4.749-1.41-7.1-2.22s-4.71-2.778-4.5-5.258c.241-2.88,3.511-4.26,5.856-5.949a2.4,2.4,0,0,0,1.235-1.863,2.608,2.608,0,0,0-.667-1.375c-.8-1.045-1.709-2.541-2.54-3.72l-.056.01c-1.282.163-2.6-.4-3.858-.109-2.66.615-3.083,4.176-4.685,6.386-2.39,3.3-7.218,3.286-11.276,2.944-4.785-.4-9.66-.828-14.089-2.68a17.424,17.424,0,0,1-8-6.45c-2.91.119-8.523.464-11.357,1.408a9.518,9.518,0,0,1-6.05-.017L371,651.451c-1.613-6.425,2.158-14.356-2.277-19.276-1.551-1.721-3.8-2.6-5.968-3.425-6.891-2.621-14.045-5.275-21.393-4.936-.179.008-.358.01-.538.022-7.537.5-15.356,5.18-16.972,12.559-.318,1.452-.414,3.018-1.259,4.24-1.263,1.827-3.783,2.31-5.356,3.877-2.237,2.228-1.956,5.861-1.517,8.986l2.569,18.309c.953,6.787,1.551,14.693-3.348,19.485-.06-.046-.123-.088-.184-.134-.42,2.141,1.673,4.335,3.314,5.842,1.71,1.568,3.778,2.855,4.9,4.885,1.9,3.444.478,7.78,1.349,11.618.913,4.024,4.186,6.993,6.787,10.2a35.8,35.8,0,0,1,7.145,15.181c.578,1.5.561,6.255,2.592,6.508,2.517.315,6.605,2.2,8.021,1.1a12.6,12.6,0,0,1,3.617-1.73s3.145,2.2,3.774,2.2a43.346,43.346,0,0,0,5.033-1.887s.944-20.918,1.73-20.76,7.235,3.145,8.493,3.3,8.493-.786,10.223.472,7.864,10.7,8.807,10.7,4.4.158,4.089.944-1.887,10.695,1.1,10.695,7.078-.157,7.235-.629,2.2-10.7,2.2-10.7,6.448,7.392,9.279,6.763a37.931,37.931,0,0,0,7.234-2.988s2.674-18.4,2.674-19.03-2.517-6.763-2.2-8.178,1.258-6.448,0-6.134-9.122,5.347-10.223,5.819-3.3,5.455-4.089,5.794-8.493-1.079-8.493-1.079l-.944-4.4s8.335-5.347,9.122-6.134-2.674-4.247-2.674-4.247,10.223,1.73,11.324,1.258,2.359-4.561,3.145-4.561,5.033.472,5.033.472,2.359,3.46,2.831,3.3c.1-1.009.234-2.034.438-3.084a7.073,7.073,0,0,1,1.429-3.307" transform="translate(-161.335 -319.792)" fill="#baa4f9"/>
          <path id="패스_54" data-name="패스 54" d="M429.052,699.364c2.009-2.338,5.586-2.154,8.59-2.847,5.832-1.345,9.992-6.36,13.565-11.162a8.875,8.875,0,0,1,2.936-2.885,7,7,0,0,1,2.849-.6,26.2,26.2,0,0,1,9.889,2.116,11.133,11.133,0,0,1-1.4-4.25,4.019,4.019,0,0,0-.574-2.2c-.951-1.165-2.785-.552-4.288-.572-3.612-.049-5.7-4.075-8.825-5.892-2.15-1.252-4.749-1.41-7.1-2.22s-4.71-2.778-4.5-5.258c.241-2.88,3.511-4.26,5.856-5.949a2.4,2.4,0,0,0,1.235-1.863,2.608,2.608,0,0,0-.667-1.375c-.8-1.045-1.709-2.541-2.54-3.72l-.056.01c-1.282.163-2.6-.4-3.858-.109-2.66.615-3.083,4.176-4.685,6.386-2.39,3.3-7.218,3.286-11.276,2.944-4.785-.4-9.66-.828-14.089-2.68a17.424,17.424,0,0,1-8-6.45c-2.91.119-8.523.464-11.357,1.408a9.518,9.518,0,0,1-6.05-.017L371,651.451c-1.613-6.425,2.158-14.356-2.277-19.276-1.551-1.721-3.8-2.6-5.968-3.425-6.891-2.621-14.045-5.275-21.393-4.936-.179.008-.358.01-.538.022-7.537.5-15.356,5.18-16.972,12.559-.318,1.452-.414,3.018-1.259,4.24-1.263,1.827-3.783,2.31-5.356,3.877-2.237,2.228-1.956,5.861-1.517,8.986l2.569,18.309c.953,6.787,1.551,14.693-3.348,19.485-.06-.046-.123-.088-.184-.134-.42,2.141,1.673,4.335,3.314,5.842,1.71,1.568,3.778,2.855,4.9,4.885,1.9,3.444.478,7.78,1.349,11.618.913,4.024,4.186,6.993,6.787,10.2a35.8,35.8,0,0,1,7.145,15.181c.578,1.5.561,6.255,2.592,6.508,2.517.315,6.605,2.2,8.021,1.1a12.6,12.6,0,0,1,3.617-1.73s3.145,2.2,3.774,2.2a43.346,43.346,0,0,0,5.033-1.887s.944-20.918,1.73-20.76,7.235,3.145,8.493,3.3,8.493-.786,10.223.472,7.864,10.7,8.807,10.7,4.4.158,4.089.944-1.887,10.695,1.1,10.695,7.078-.157,7.235-.629,2.2-10.7,2.2-10.7,6.448,7.392,9.279,6.763a37.931,37.931,0,0,0,7.234-2.988s2.674-18.4,2.674-19.03-2.517-6.763-2.2-8.178,1.258-6.448,0-6.134-9.122,5.347-10.223,5.819-3.3,5.455-4.089,5.794-8.493-1.079-8.493-1.079l-.944-4.4s8.335-5.347,9.122-6.134-2.674-4.247-2.674-4.247,10.223,1.73,11.324,1.258,2.359-4.561,3.145-4.561,5.033.472,5.033.472,2.359,3.46,2.831,3.3c.1-1.009.234-2.034.438-3.084A7.073,7.073,0,0,1,429.052,699.364Z" transform="translate(-161.335 -319.792)" fill="none" stroke="#fff" stroke-miterlimit="10" stroke-width="1"/>
        </g>
      </g>
      <g id="그룹_88" data-name="그룹 88">
        <g id="그룹_87" data-name="그룹 87" clip-path="url(#clip-path)">
          <path id="패스_55" data-name="패스 55" d="M463.887,630.652c2.834-.945,8.447-1.289,11.357-1.408a12.1,12.1,0,0,1-1.564-3.614c.182-2.738,4.057-2.869,6.738-3.456,3.637-.8,6.328-3.807,8.558-6.788,4.805-6.425,8.871-14.28,7.4-22.168s-10.929-14.32-17.785-10.153c-3.478,2.114-5.477,6.309-9.241,7.859-3.476,1.432-8.508.806-9.969,4.271-.95,2.251.433,4.725,1.383,6.976a20.52,20.52,0,0,1,.015,15.732c-1.754,4.177-4.931,8.845-2.631,12.749l-.314-.017a9.517,9.517,0,0,0,6.05.017" transform="translate(-234.465 -298.246)" fill="#f1a274"/>
          <path id="패스_56" data-name="패스 56" d="M463.887,630.652c2.834-.945,8.447-1.289,11.357-1.408a12.1,12.1,0,0,1-1.564-3.614c.182-2.738,4.057-2.869,6.738-3.456,3.637-.8,6.328-3.807,8.558-6.788,4.805-6.425,8.871-14.28,7.4-22.168s-10.929-14.32-17.785-10.153c-3.478,2.114-5.477,6.309-9.241,7.859-3.476,1.432-8.508.806-9.969,4.271-.95,2.251.433,4.725,1.383,6.976a20.52,20.52,0,0,1,.015,15.732c-1.754,4.177-4.931,8.845-2.631,12.749l-.314-.017A9.517,9.517,0,0,0,463.887,630.652Z" transform="translate(-234.465 -298.246)" fill="none" stroke="#fff" stroke-miterlimit="10" stroke-width="1"/>
          <path id="패스_57" data-name="패스 57" d="M498.864,305.147c1.617-.072,6.291,9.594,7.392,13.526s-3.617,11.009-2.359,13.368,7.078,10.538,6.763,11.953-.472,7.864-1.1,9.437-5.033,9.437-4.875,10.538,3.774,14.626,3.145,17.3-5.033,24.22-4.089,28.467,4.4,11.009,5.033,12.267-5.348,6.292-5.348,6.292,3.3,3.3,4.4,3.3,5.977-5.662,6.448-5.662,8.021-.629,8.178.472.786,8.178,0,9.437-3.932,12.425-5.19,17.143-7.549,36.645-7.235,37.274-5.19,2.044-6.291,2.044,1.73,7.864,2.044,9.594-8.808,9.751-8.808,10.223a117.244,117.244,0,0,1-4.4,11.324c-1.416,2.988-20.446,19.188-21.39,19.345s-3.932,1.73-5.033.786-5.5-6.605-5.5-6.605-1.887,7.235-2.2,7.549-3.932,3.46-4.561,3.3-4.246-3.46-4.246-4.247.471-5.346,0-5.19c.1-1.009.234-2.034.438-3.084A7.073,7.073,0,0,1,451.5,532c2.009-2.338,5.586-2.154,8.59-2.846,5.832-1.345,9.992-6.36,13.564-11.162a8.876,8.876,0,0,1,2.936-2.885,7,7,0,0,1,2.849-.6,26.2,26.2,0,0,1,9.89,2.116,24.8,24.8,0,0,0,3.916,5.028,24.8,24.8,0,0,1-3.916-5.028,11.134,11.134,0,0,1-1.4-4.25,4.018,4.018,0,0,0-.574-2.2c-.951-1.165-2.785-.552-4.288-.572-3.612-.049-5.7-4.075-8.825-5.892-2.15-1.252-4.749-1.41-7.1-2.22s-4.71-2.778-4.5-5.258c.241-2.88,3.511-4.26,5.856-5.949a2.4,2.4,0,0,0,1.235-1.863,2.609,2.609,0,0,0-.667-1.375c-.8-1.045-1.709-2.541-2.54-3.72,3.724-.528,4.044-5.939,6.631-8.709,2.187-2.341,5.987-2.5,8.932-1.236s5.233,3.651,7.434,5.977c2.478-3.063,7.39-2.52,10.859-.652s6.442,4.759,10.238,5.814c.051.015.1.026.156.039-.052-.014-.1-.025-.156-.039-3.8-1.056-6.769-3.947-10.238-5.814s-8.382-2.411-10.859.652c-2.2-2.327-4.49-4.715-7.434-5.977s-6.745-1.1-8.932,1.236c-2.587,2.77-2.907,8.181-6.631,8.709l-.057.01c-1.282.163-2.6-.4-3.858-.109-2.66.615-3.083,4.175-4.685,6.387-2.39,3.3-7.218,3.286-11.276,2.943-4.785-.4-9.659-.828-14.089-2.68a17.425,17.425,0,0,1-8-6.45A12.075,12.075,0,0,1,423,479.808c.182-2.738,4.057-2.869,6.738-3.456,3.637-.795,6.328-3.807,8.558-6.788,4.805-6.424,8.871-14.28,7.4-22.168s-10.928-14.32-17.785-10.153c-3.478,2.114-5.477,6.308-9.24,7.858-3.477,1.432-8.509.806-9.97,4.271-.95,2.252.433,4.725,1.383,6.976a20.517,20.517,0,0,1,.016,15.732c-1.755,4.178-4.931,8.846-2.631,12.749l-.314-.017a7.014,7.014,0,0,1-1.024-.425,7.014,7.014,0,0,0,1.024.425l-13.711-.73c-1.613-6.425,2.158-14.356-2.277-19.276-1.551-1.721-3.8-2.6-5.968-3.425-6.891-2.621-14.045-5.275-21.393-4.936h0a24.99,24.99,0,0,1,1.744-6.831c1.408-3.522.451-6.2-.592-9.389a1.829,1.829,0,0,0,.237,0l.038,0a1.467,1.467,0,0,0,.247-.036,2.912,2.912,0,0,0,1.463-1.2l8.372-10.748c3.243-4.163,6.672-8.984,5.885-14.2-.834-5.531-6.127-9.245-11.312-11.344a4.054,4.054,0,0,1-2.137-1.442c-.638-1.092-.081-2.471-.165-3.733-.11-1.668-1.338-3.053-1.732-4.677-.7-2.891,1.3-5.659,2.182-8.5,1.976-6.4-2.963-13.98-9.616-14.757a207.689,207.689,0,0,1,27.4-25.82,30.934,30.934,0,0,0,4.945-4.436,14.866,14.866,0,0,1,2.664-2.952c3.083-2.157,7.26-.219,10.54,1.626s7.7,3.485,10.485.956a9.334,9.334,0,0,0,2.188-3.968l2.846-8.056c1.227-3.473,2.486-7.006,4.707-9.944,2.2-2.9,5.522-5.181,9.155-5.233,2.609-.423,5.075-.494,7.779-.723,10.412-.881,20.681-.379,30.334-.584,5.967-.127,9.019-1.522,13-2.893,5.509-1.9,8.981-6.087,13.093-10.332,0,0-.594,8,1.31,7.92" transform="translate(-183.751 -152.378)" fill="#f1a274"/>
          <path id="패스_58" data-name="패스 58" d="M498.864,305.147c1.617-.072,6.291,9.594,7.392,13.526s-3.617,11.009-2.359,13.368,7.078,10.538,6.763,11.953-.472,7.864-1.1,9.437-5.033,9.437-4.875,10.538,3.774,14.626,3.145,17.3-5.033,24.22-4.089,28.467,4.4,11.009,5.033,12.267-5.348,6.292-5.348,6.292,3.3,3.3,4.4,3.3,5.977-5.662,6.448-5.662,8.021-.629,8.178.472.786,8.178,0,9.437-3.932,12.425-5.19,17.143-7.549,36.645-7.235,37.274-5.19,2.044-6.291,2.044,1.73,7.864,2.044,9.594-8.808,9.751-8.808,10.223a117.244,117.244,0,0,1-4.4,11.324c-1.416,2.988-20.446,19.188-21.39,19.345s-3.932,1.73-5.033.786-5.5-6.605-5.5-6.605-1.887,7.235-2.2,7.549-3.932,3.46-4.561,3.3-4.246-3.46-4.246-4.247.471-5.346,0-5.19c.1-1.009.234-2.034.438-3.084A7.073,7.073,0,0,1,451.5,532c2.009-2.338,5.586-2.154,8.59-2.846,5.832-1.345,9.992-6.36,13.564-11.162a8.876,8.876,0,0,1,2.936-2.885,7,7,0,0,1,2.849-.6,26.2,26.2,0,0,1,9.89,2.116,24.8,24.8,0,0,0,3.916,5.028,24.8,24.8,0,0,1-3.916-5.028,11.134,11.134,0,0,1-1.4-4.25,4.018,4.018,0,0,0-.574-2.2c-.951-1.165-2.785-.552-4.288-.572-3.612-.049-5.7-4.075-8.825-5.892-2.15-1.252-4.749-1.41-7.1-2.22s-4.71-2.778-4.5-5.258c.241-2.88,3.511-4.26,5.856-5.949a2.4,2.4,0,0,0,1.235-1.863,2.609,2.609,0,0,0-.667-1.375c-.8-1.045-1.709-2.541-2.54-3.72,3.724-.528,4.044-5.939,6.631-8.709,2.187-2.341,5.987-2.5,8.932-1.236s5.233,3.651,7.434,5.977c2.478-3.063,7.39-2.52,10.859-.652s6.442,4.759,10.238,5.814c.051.015.1.026.156.039-.052-.014-.1-.025-.156-.039-3.8-1.056-6.769-3.947-10.238-5.814s-8.382-2.411-10.859.652c-2.2-2.327-4.49-4.715-7.434-5.977s-6.745-1.1-8.932,1.236c-2.587,2.77-2.907,8.181-6.631,8.709l-.057.01c-1.282.163-2.6-.4-3.858-.109-2.66.615-3.083,4.175-4.685,6.387-2.39,3.3-7.218,3.286-11.276,2.943-4.785-.4-9.659-.828-14.089-2.68a17.425,17.425,0,0,1-8-6.45A12.075,12.075,0,0,1,423,479.808c.182-2.738,4.057-2.869,6.738-3.456,3.637-.795,6.328-3.807,8.558-6.788,4.805-6.424,8.871-14.28,7.4-22.168s-10.928-14.32-17.785-10.153c-3.478,2.114-5.477,6.308-9.24,7.858-3.477,1.432-8.509.806-9.97,4.271-.95,2.252.433,4.725,1.383,6.976a20.517,20.517,0,0,1,.016,15.732c-1.755,4.178-4.931,8.846-2.631,12.749l-.314-.017a7.014,7.014,0,0,1-1.024-.425,7.014,7.014,0,0,0,1.024.425l-13.711-.73c-1.613-6.425,2.158-14.356-2.277-19.276-1.551-1.721-3.8-2.6-5.968-3.425-6.891-2.621-14.045-5.275-21.393-4.936h0a24.99,24.99,0,0,1,1.744-6.831c1.408-3.522.451-6.2-.592-9.389a1.829,1.829,0,0,0,.237,0l.038,0a1.467,1.467,0,0,0,.247-.036,2.912,2.912,0,0,0,1.463-1.2l8.372-10.748c3.243-4.163,6.672-8.984,5.885-14.2-.834-5.531-6.127-9.245-11.312-11.344a4.054,4.054,0,0,1-2.137-1.442c-.638-1.092-.081-2.471-.165-3.733-.11-1.668-1.338-3.053-1.732-4.677-.7-2.891,1.3-5.659,2.182-8.5,1.976-6.4-2.963-13.98-9.616-14.757a207.689,207.689,0,0,1,27.4-25.82,30.934,30.934,0,0,0,4.945-4.436,14.866,14.866,0,0,1,2.664-2.952c3.083-2.157,7.26-.219,10.54,1.626s7.7,3.485,10.485.956a9.334,9.334,0,0,0,2.188-3.968l2.846-8.056c1.227-3.473,2.486-7.006,4.707-9.944,2.2-2.9,5.522-5.181,9.155-5.233,2.609-.423,5.075-.494,7.779-.723,10.412-.881,20.681-.379,30.334-.584,5.967-.127,9.019-1.522,13-2.893,5.509-1.9,8.981-6.087,13.093-10.332C497.554,297.227,496.96,305.231,498.864,305.147Z" transform="translate(-183.751 -152.378)" fill="none" stroke="#fff" stroke-miterlimit="10" stroke-width="1"/>
        </g>
      </g>
      <g id="그룹_90" data-name="그룹 90">
        <g id="그룹_89" data-name="그룹 89" clip-path="url(#clip-path)">
          <path id="패스_59" data-name="패스 59" d="M371,159.543c-.016-.42,15.288-1.169,35.979-1.169,14.473,0,25.324-8.229,28.352-12.368,1.847-2.523-.391-6.295-1.651-9.616-3.132-8.257-10.5-9.378-14.312-17.274-2.2-4.561-7.549-16.986-8.965-18.873S391.53,72.091,390.114,70.36,375.959,51.016,374.386,47.4a124.4,124.4,0,0,1-4.718-16.514,9.474,9.474,0,0,0-1.73-5.662C366.365,23.335,356.763.5,356.763.5H353.34c-7.146,1.227-14.458,1.617-21.413,3.658-14.189,4.163-28.419,15.117-42.15,9.627-6.223-2.488-12.785-8.231-18.6-4.9-2.012,1.152-3.35,3.216-5.28,4.5-7.016,4.675-16.309-3.048-24.589-1.457a16.285,16.285,0,0,0-5.116,2.088c.592,2.056,1.1,4.151,1.723,6.183,1.527,4.99,4.3,10.2,9.224,11.92,2.26.789,4.744.746,7.005,1.531,4.6,1.6,7.35,6.191,9.714,10.448l6.073,10.938a11.6,11.6,0,0,1,1.821,4.94c.1,2.2-1.042,4.23-1.942,6.237a31.316,31.316,0,0,0-1.529,21.19,11.446,11.446,0,0,0,3.152,5.686c2.231,1.928,5.378,2.238,8.286,2.724,4.418.739,9.081,2.328,11.571,6.051,2.6,3.884,2.138,8.976,1.578,13.615q-1.639,13.592-3.278,27.183a5.768,5.768,0,0,0,.386,3.733,3.311,3.311,0,0,0,1.3,1.173,9.348,9.348,0,0,0,3.183.837c7.252.919,15.852,1.344,20.524-4.279a25.526,25.526,0,0,1,2.878-3.535c3.081-2.585,7.723-1.418,11.466.056a128.324,128.324,0,0,1,16.62,7.965c7.67,4.379,15.22,9.675,23.978,10.813q.537.07,1.076.119c.042,0,.084,0,.127,0-.042,0-.084,0-.127,0" transform="translate(-121.087 -0.256)" fill="#56bfb5"/>
          <path id="패스_60" data-name="패스 60" d="M371,159.543c-.016-.42,15.288-1.169,35.979-1.169,14.473,0,25.324-8.229,28.352-12.368,1.847-2.523-.391-6.295-1.651-9.616-3.132-8.257-10.5-9.378-14.312-17.274-2.2-4.561-7.549-16.986-8.965-18.873S391.53,72.091,390.114,70.36,375.959,51.016,374.386,47.4a124.4,124.4,0,0,1-4.718-16.514,9.474,9.474,0,0,0-1.73-5.662C366.365,23.335,356.763.5,356.763.5H353.34c-7.146,1.227-14.458,1.617-21.413,3.658-14.189,4.163-28.419,15.117-42.15,9.627-6.223-2.488-12.785-8.231-18.6-4.9-2.012,1.152-3.35,3.216-5.28,4.5-7.016,4.675-16.309-3.048-24.589-1.457a16.285,16.285,0,0,0-5.116,2.088c.592,2.056,1.1,4.151,1.723,6.183,1.527,4.99,4.3,10.2,9.224,11.92,2.26.789,4.744.746,7.005,1.531,4.6,1.6,7.35,6.191,9.714,10.448l6.073,10.938a11.6,11.6,0,0,1,1.821,4.94c.1,2.2-1.042,4.23-1.942,6.237a31.316,31.316,0,0,0-1.529,21.19,11.446,11.446,0,0,0,3.152,5.686c2.231,1.928,5.378,2.238,8.286,2.724,4.418.739,9.081,2.328,11.571,6.051,2.6,3.884,2.138,8.976,1.578,13.615q-1.639,13.592-3.278,27.183a5.768,5.768,0,0,0,.386,3.733,3.311,3.311,0,0,0,1.3,1.173,9.348,9.348,0,0,0,3.183.837c7.252.919,15.852,1.344,20.524-4.279a25.526,25.526,0,0,1,2.878-3.535c3.081-2.585,7.723-1.418,11.466.056a128.324,128.324,0,0,1,16.62,7.965c7.67,4.379,15.22,9.675,23.978,10.813q.537.07,1.076.119c.042,0,.084,0,.127,0-.042,0-.084,0-.127,0" transform="translate(-121.087 -0.256)" fill="none" stroke="#fff" stroke-miterlimit="10" stroke-width="1"/>
        </g>
      </g>
      <g id="그룹_92" data-name="그룹 92">
        <g id="그룹_91" data-name="그룹 91" clip-path="url(#clip-path-8)">
          <path id="패스_61" data-name="패스 61" d="M293.8,302.723c-1.824,1.5-3.275,3.4-5.064,4.938-4.268,3.667-10.068,4.958-14.839,7.942a15.505,15.505,0,0,0-4.522,4.077c-.974,1.378-1.636,2.961-2.653,4.309a5.7,5.7,0,0,1-3.53,2.357,39.467,39.467,0,0,0,4.458,6.088c2.868,2.818,7.493,5.282,6.818,9.246-.979,5.746-11.945,5.5-12.124,11.331-.074,2.394,1.932,4.263,3.049,6.381,1.831,3.476,1.32,7.91,3.488,11.186A8.766,8.766,0,0,0,270.063,372c1.892,1.853,4.529,2.951,6.917,4.216,2.943,1.559,5.953,3.994,6.108,7.32s-2.642,6.139-3.081,9.453a7.973,7.973,0,0,0,.85,4.652c1.869,3.825,6.117,7.065,8.081,11.119,2.718,5.608,1.219,13.318,5.943,17.382.081.07.168.131.252.2a16.808,16.808,0,0,0,5.192,2.457l14.285,4.822.244.08.028.008a3.51,3.51,0,0,0,.784.167,2.033,2.033,0,0,0,.237,0l.039,0a1.531,1.531,0,0,0,.247-.036,2.911,2.911,0,0,0,1.463-1.2l8.372-10.748c3.243-4.163,6.672-8.984,5.886-14.2-.834-5.531-6.127-9.245-11.312-11.344a4.054,4.054,0,0,1-2.137-1.442c-.638-1.092-.081-2.471-.165-3.733-.11-1.668-1.338-3.053-1.732-4.677-.7-2.891,1.3-5.659,2.182-8.5,1.976-6.4-2.964-13.98-9.616-14.757a207.693,207.693,0,0,1,27.4-25.82,30.933,30.933,0,0,0,4.945-4.436,14.885,14.885,0,0,1,2.664-2.952c3.083-2.157,7.26-.219,10.54,1.627s7.7,3.485,10.486.956a9.336,9.336,0,0,0,2.188-3.968l2.846-8.056c1.227-3.472,2.486-7.006,4.707-9.944,2.2-2.9,5.521-5.18,9.155-5.233q-.54-.05-1.077-.119c-8.759-1.138-16.309-6.434-23.978-10.813a128.326,128.326,0,0,0-16.62-7.965c-3.743-1.473-8.385-2.641-11.466-.056a25.487,25.487,0,0,0-2.878,3.535c-4.672,5.622-13.272,5.2-20.524,4.279a9.351,9.351,0,0,1-3.183-.837c-2.514,3.557-7.772,7.023-10.533,9.29" transform="translate(-134.492 -146.073)" fill="#f2d06b"/>
          <path id="패스_62" data-name="패스 62" d="M293.8,302.723c-1.824,1.5-3.275,3.4-5.064,4.938-4.268,3.667-10.068,4.958-14.839,7.942a15.505,15.505,0,0,0-4.522,4.077c-.974,1.378-1.636,2.961-2.653,4.309a5.7,5.7,0,0,1-3.53,2.357,39.467,39.467,0,0,0,4.458,6.088c2.868,2.818,7.493,5.282,6.818,9.246-.979,5.746-11.945,5.5-12.124,11.331-.074,2.394,1.932,4.263,3.049,6.381,1.831,3.476,1.32,7.91,3.488,11.186A8.766,8.766,0,0,0,270.063,372c1.892,1.853,4.529,2.951,6.917,4.216,2.943,1.559,5.953,3.994,6.108,7.32s-2.642,6.139-3.081,9.453a7.973,7.973,0,0,0,.85,4.652c1.869,3.825,6.117,7.065,8.081,11.119,2.718,5.608,1.219,13.318,5.943,17.382.081.07.168.131.252.2a16.808,16.808,0,0,0,5.192,2.457l14.285,4.822.244.08.028.008a3.51,3.51,0,0,0,.784.167,2.033,2.033,0,0,0,.237,0l.039,0a1.531,1.531,0,0,0,.247-.036,2.911,2.911,0,0,0,1.463-1.2l8.372-10.748c3.243-4.163,6.672-8.984,5.886-14.2-.834-5.531-6.127-9.245-11.312-11.344a4.054,4.054,0,0,1-2.137-1.442c-.638-1.092-.081-2.471-.165-3.733-.11-1.668-1.338-3.053-1.732-4.677-.7-2.891,1.3-5.659,2.182-8.5,1.976-6.4-2.964-13.98-9.616-14.757a207.693,207.693,0,0,1,27.4-25.82,30.933,30.933,0,0,0,4.945-4.436,14.885,14.885,0,0,1,2.664-2.952c3.083-2.157,7.26-.219,10.54,1.627s7.7,3.485,10.486.956a9.336,9.336,0,0,0,2.188-3.968l2.846-8.056c1.227-3.472,2.486-7.006,4.707-9.944,2.2-2.9,5.521-5.18,9.155-5.233q-.54-.05-1.077-.119c-8.759-1.138-16.309-6.434-23.978-10.813a128.326,128.326,0,0,0-16.62-7.965c-3.743-1.473-8.385-2.641-11.466-.056a25.487,25.487,0,0,0-2.878,3.535c-4.672,5.622-13.272,5.2-20.524,4.279a9.351,9.351,0,0,1-3.183-.837C301.818,296.99,296.56,300.457,293.8,302.723Z" transform="translate(-134.492 -146.073)" fill="none" stroke="#fff" stroke-miterlimit="10" stroke-width="1"/>
          <path id="패스_63" data-name="패스 63" d="M101.466,468.488a18.19,18.19,0,0,0,6.116-2.984c3.886-2.546,8.228-5.914,8.094-10.558-.039-1.37-.489-2.745-.219-4.088.467-2.329,2.9-3.713,5.2-4.307a7.522,7.522,0,0,1,4.713.034c3.222,1.328,3.95,5.445,4.583,8.872s2.546,7.52,6.029,7.428c3.738-.1,5.258-4.744,7.866-7.423,4-4.108,12.025-2.712,14.4,2.5.669,1.468.936,3.115,1.774,4.493a10.388,10.388,0,0,0,4.662,3.668c3.731,1.756,8.018,2.762,12,1.677,3.521-.96,7.273-4.952,8.943-8.651-.083-.066-.171-.127-.252-.2-4.724-4.063-3.225-11.774-5.943-17.382-1.965-4.055-6.213-7.294-8.081-11.12-.362,3.237-1.035,7.492-3.274,9.348a8.64,8.64,0,0,1-6.31,1.649,25.635,25.635,0,0,1-6.437-1.759,3.562,3.562,0,0,1-2.54-2.427l-2.3-4.833c-1.108-2.33-2.241-4.777-2.144-7.355.179-4.725,4.258-8.187,7.312-11.8a45.917,45.917,0,0,0,4.9-8.467,8.76,8.76,0,0,1-1.184-1.423c-2.169-3.276-1.657-7.711-3.489-11.186-1.116-2.118-3.122-3.987-3.049-6.381.179-5.827,11.146-5.585,12.124-11.331.675-3.963-3.95-6.428-6.818-9.246a39.456,39.456,0,0,1-4.458-6.088,3.543,3.543,0,0,1-.7.032,3.543,3.543,0,0,0,.7-.032,22.979,22.979,0,0,0-1.423-1.887,17.157,17.157,0,0,0-19.833-4.254c-3.686,1.75-7.058,4.931-11.127,4.633a9.407,9.407,0,0,1-2.173-.457c-.377,1.555-.633,2.945-.633,2.945s-7.855-5.454-11.626-5.768-11.311-.314-11.94-1.571-5.341-4.4-7.855-3.771-1.885-.943-2.514.629.942,4.085.942,4.085-16.967-1.571-19.481-.314-5.656,10.369-7.541,11.94-9.427,10.055-9.74,12.254,7.541,15.21,9.74,13.89,6.284,0,6.284,0,2.514,6.848,3.771,8.734-.314,6.284.943,8.169,3.142,9.822,5.656,11.824,6.284,1.911,6.6,1.956,2.2-7.181,1.257-8.753-9.112-17.6-6.6-19.481,8.484-5.213,8.8-2.449,3.456,5.591,1.885,6.534a23.786,23.786,0,0,0-4.085,4.084s5.656,7.855,5.027,11.626.943,13.825.943,17.91.629,10.369-1.257,11.626-5.656,5.322-4.713,5.174,3.142,4.88,5.027,4.566a24.345,24.345,0,0,1,5.027.014s5.341,2.5,4.713,5.013c-.49,1.96-2.126,7.167-2.227,9.962a11.929,11.929,0,0,0,5.94.47" transform="translate(-24.981 -178.884)" fill="#f2d06b"/>
          <path id="패스_64" data-name="패스 64" d="M101.466,468.488a18.19,18.19,0,0,0,6.116-2.984c3.886-2.546,8.228-5.914,8.094-10.558-.039-1.37-.489-2.745-.219-4.088.467-2.329,2.9-3.713,5.2-4.307a7.522,7.522,0,0,1,4.713.034c3.222,1.328,3.95,5.445,4.583,8.872s2.546,7.52,6.029,7.428c3.738-.1,5.258-4.744,7.866-7.423,4-4.108,12.025-2.712,14.4,2.5.669,1.468.936,3.115,1.774,4.493a10.388,10.388,0,0,0,4.662,3.668c3.731,1.756,8.018,2.762,12,1.677,3.521-.96,7.273-4.952,8.943-8.651-.083-.066-.171-.127-.252-.2-4.724-4.063-3.225-11.774-5.943-17.382-1.965-4.055-6.213-7.294-8.081-11.12-.362,3.237-1.035,7.492-3.274,9.348a8.64,8.64,0,0,1-6.31,1.649,25.635,25.635,0,0,1-6.437-1.759,3.562,3.562,0,0,1-2.54-2.427l-2.3-4.833c-1.108-2.33-2.241-4.777-2.144-7.355.179-4.725,4.258-8.187,7.312-11.8a45.917,45.917,0,0,0,4.9-8.467,8.76,8.76,0,0,1-1.184-1.423c-2.169-3.276-1.657-7.711-3.489-11.186-1.116-2.118-3.122-3.987-3.049-6.381.179-5.827,11.146-5.585,12.124-11.331.675-3.963-3.95-6.428-6.818-9.246a39.456,39.456,0,0,1-4.458-6.088,3.543,3.543,0,0,1-.7.032,3.543,3.543,0,0,0,.7-.032,22.979,22.979,0,0,0-1.423-1.887,17.157,17.157,0,0,0-19.833-4.254c-3.686,1.75-7.058,4.931-11.127,4.633a9.407,9.407,0,0,1-2.173-.457c-.377,1.555-.633,2.945-.633,2.945s-7.855-5.454-11.626-5.768-11.311-.314-11.94-1.571-5.341-4.4-7.855-3.771-1.885-.943-2.514.629.942,4.085.942,4.085-16.967-1.571-19.481-.314-5.656,10.369-7.541,11.94-9.427,10.055-9.74,12.254,7.541,15.21,9.74,13.89,6.284,0,6.284,0,2.514,6.848,3.771,8.734-.314,6.284.943,8.169,3.142,9.822,5.656,11.824,6.284,1.911,6.6,1.956,2.2-7.181,1.257-8.753-9.112-17.6-6.6-19.481,8.484-5.213,8.8-2.449,3.456,5.591,1.885,6.534a23.786,23.786,0,0,0-4.085,4.084s5.656,7.855,5.027,11.626.943,13.825.943,17.91.629,10.369-1.257,11.626-5.656,5.322-4.713,5.174,3.142,4.88,5.027,4.566a24.345,24.345,0,0,1,5.027.014s5.341,2.5,4.713,5.013c-.49,1.96-2.126,7.167-2.227,9.962A11.929,11.929,0,0,0,101.466,468.488Z" transform="translate(-24.981 -178.884)" fill="none" stroke="#fff" stroke-miterlimit="10" stroke-width="1"/>
          <path id="패스_65" data-name="패스 65" d="M275.281,484.586c.439-3.314,3.237-6.113,3.081-9.453s-3.165-5.761-6.108-7.32c-2.388-1.266-5.025-2.364-6.917-4.217a45.916,45.916,0,0,1-4.9,8.467c-3.054,3.609-7.134,7.071-7.312,11.8-.1,2.579,1.036,5.025,2.144,7.355l2.3,4.833a3.561,3.561,0,0,0,2.54,2.427,25.653,25.653,0,0,0,6.437,1.76,8.642,8.642,0,0,0,6.31-1.65c2.24-1.856,2.912-6.111,3.275-9.348a7.976,7.976,0,0,1-.85-4.652" transform="translate(-129.767 -237.67)" fill="#f2d06b"/>
          <path id="패스_66" data-name="패스 66" d="M275.281,484.586c.439-3.314,3.237-6.113,3.081-9.453s-3.165-5.761-6.108-7.32c-2.388-1.266-5.025-2.364-6.917-4.217a45.916,45.916,0,0,1-4.9,8.467c-3.054,3.609-7.134,7.071-7.312,11.8-.1,2.579,1.036,5.025,2.144,7.355l2.3,4.833a3.561,3.561,0,0,0,2.54,2.427,25.653,25.653,0,0,0,6.437,1.76,8.642,8.642,0,0,0,6.31-1.65c2.24-1.856,2.912-6.111,3.275-9.348A7.976,7.976,0,0,1,275.281,484.586Z" transform="translate(-129.767 -237.67)" fill="none" stroke="#fff" stroke-miterlimit="10" stroke-width="1"/>
        </g>
      </g>
      <g id="그룹_94" data-name="그룹 94">
        <g id="그룹_93" data-name="그룹 93" clip-path="url(#clip-path)">
          <path id="패스_67" data-name="패스 67" d="M159.721,188.656a17.155,17.155,0,0,1,19.832,4.254,22.981,22.981,0,0,1,1.424,1.887,5.7,5.7,0,0,0,3.529-2.357c1.017-1.347,1.679-2.93,2.653-4.309a15.5,15.5,0,0,1,4.522-4.077c4.772-2.983,10.571-4.274,14.839-7.942,1.789-1.537,3.241-3.441,5.064-4.938,2.761-2.267,8.019-5.733,10.533-9.29a3.311,3.311,0,0,1-1.3-1.173,5.767,5.767,0,0,1-.386-3.732q1.639-13.592,3.279-27.183c.559-4.639,1.019-9.731-1.578-13.615-2.49-3.724-7.153-5.312-11.571-6.051-2.908-.486-6.055-.8-8.286-2.724a11.444,11.444,0,0,1-3.152-5.686,31.319,31.319,0,0,1,1.529-21.19c.9-2.007,2.041-4.039,1.942-6.237a11.6,11.6,0,0,0-1.821-4.94L194.7,58.416c-2.364-4.257-5.114-8.851-9.714-10.448-2.262-.785-4.746-.742-7.005-1.531-4.927-1.72-7.7-6.93-9.224-11.92-.622-2.032-1.132-4.127-1.723-6.183-.906.531-1.791,1.108-2.664,1.682l-22.6,14.863c-1.014.666-2.117,1.464-2.325,2.658-.289,1.661,1.26,3,2,4.514,2.317,4.722-3.334,9.293-8.107,11.5s-10.516,6.555-8.431,11.385c.722,1.672,2.369,3.369,1.561,5a3.6,3.6,0,0,1-2.107,1.536,20.567,20.567,0,0,1-9.829,1.1,31.044,31.044,0,0,1-2.688,10.827,34.771,34.771,0,0,0-2.3,4.892c-1.545,5.1,1.27,10.392,3.986,14.973,4.647-.817,8.014-5.992,12.721-5.68,3.421.227,5.754,3.222,7.509,6.305,2.479-1.308,6.274-1.892,8.066-3.876a11.415,11.415,0,0,0,1.729-3.079c2-4.442,5.108-8.715,9.651-10.473s10.621-.033,12.322,4.531a18.186,18.186,0,0,0,1.121,3.147c1.106,1.838,3.441,2.5,5.578,2.694s4.376.087,6.316,1a2.4,2.4,0,0,1,1.285,1.165,2.853,2.853,0,0,1-.012,1.637c-.96,4.548-2.582,9.066-5.554,12.64s-7.459,6.1-12.1,5.872a50.068,50.068,0,0,1-6.092-1.071c-5.494-.953-12.177.088-17.8,1.22-.192.181-.388.356-.583.527l-10.979,9.615a15.8,15.8,0,0,1-2.608,1.972c5.679,4.36,16.19,11.737,15.715,12.451-.629.943-21.995-1.885-26.708,0s-12.254,2.514-11,4.713S111.54,169.9,113.739,169.9s11-3.142,11.625,0-.314,8.169,2.828,7.541,13.542-5.342,11.641-3.771-2.352,3.771.23,5.656,8.552,8.17,7.609,9.74a16.575,16.575,0,0,0-1.253,3.766,9.439,9.439,0,0,0,2.173.457c4.07.3,7.441-2.883,11.127-4.633" transform="translate(-52.279 -14.526)" fill="#55a6d9"/>
          <path id="패스_68" data-name="패스 68" d="M159.721,188.656a17.155,17.155,0,0,1,19.832,4.254,22.981,22.981,0,0,1,1.424,1.887,5.7,5.7,0,0,0,3.529-2.357c1.017-1.347,1.679-2.93,2.653-4.309a15.5,15.5,0,0,1,4.522-4.077c4.772-2.983,10.571-4.274,14.839-7.942,1.789-1.537,3.241-3.441,5.064-4.938,2.761-2.267,8.019-5.733,10.533-9.29a3.311,3.311,0,0,1-1.3-1.173,5.767,5.767,0,0,1-.386-3.732q1.639-13.592,3.279-27.183c.559-4.639,1.019-9.731-1.578-13.615-2.49-3.724-7.153-5.312-11.571-6.051-2.908-.486-6.055-.8-8.286-2.724a11.444,11.444,0,0,1-3.152-5.686,31.319,31.319,0,0,1,1.529-21.19c.9-2.007,2.041-4.039,1.942-6.237a11.6,11.6,0,0,0-1.821-4.94L194.7,58.416c-2.364-4.257-5.114-8.851-9.714-10.448-2.262-.785-4.746-.742-7.005-1.531-4.927-1.72-7.7-6.93-9.224-11.92-.622-2.032-1.132-4.127-1.723-6.183-.906.531-1.791,1.108-2.664,1.682l-22.6,14.863c-1.014.666-2.117,1.464-2.325,2.658-.289,1.661,1.26,3,2,4.514,2.317,4.722-3.334,9.293-8.107,11.5s-10.516,6.555-8.431,11.385c.722,1.672,2.369,3.369,1.561,5a3.6,3.6,0,0,1-2.107,1.536,20.567,20.567,0,0,1-9.829,1.1,31.044,31.044,0,0,1-2.688,10.827,34.771,34.771,0,0,0-2.3,4.892c-1.545,5.1,1.27,10.392,3.986,14.973,4.647-.817,8.014-5.992,12.721-5.68,3.421.227,5.754,3.222,7.509,6.305,2.479-1.308,6.274-1.892,8.066-3.876a11.415,11.415,0,0,0,1.729-3.079c2-4.442,5.108-8.715,9.651-10.473s10.621-.033,12.322,4.531a18.186,18.186,0,0,0,1.121,3.147c1.106,1.838,3.441,2.5,5.578,2.694s4.376.087,6.316,1a2.4,2.4,0,0,1,1.285,1.165,2.853,2.853,0,0,1-.012,1.637c-.96,4.548-2.582,9.066-5.554,12.64s-7.459,6.1-12.1,5.872a50.068,50.068,0,0,1-6.092-1.071c-5.494-.953-12.177.088-17.8,1.22-.192.181-.388.356-.583.527l-10.979,9.615a15.8,15.8,0,0,1-2.608,1.972c5.679,4.36,16.19,11.737,15.715,12.451-.629.943-21.995-1.885-26.708,0s-12.254,2.514-11,4.713S111.54,169.9,113.739,169.9s11-3.142,11.625,0-.314,8.169,2.828,7.541,13.542-5.342,11.641-3.771-2.352,3.771.23,5.656,8.552,8.17,7.609,9.74a16.575,16.575,0,0,0-1.253,3.766,9.439,9.439,0,0,0,2.173.457C152.663,193.587,156.035,190.406,159.721,188.656Z" transform="translate(-52.279 -14.526)" fill="none" stroke="#fff" stroke-miterlimit="10" stroke-width="1"/>
          <path id="패스_69" data-name="패스 69" d="M110.336,182.1c.193-.169.388-.344.578-.523a4.408,4.408,0,0,0,1.446-2.213,5.436,5.436,0,0,0-.9-3.488l-4.231-8.132c-.252-.484-.518-.976-.8-1.467-1.743-3.06-4.059-6.034-7.455-6.259-4.673-.309-8.016,4.828-12.629,5.639-2.7-4.548-5.491-9.8-3.957-14.865a34.479,34.479,0,0,1,2.288-4.857,30.824,30.824,0,0,0,2.669-10.748,19.985,19.985,0,0,1-3.221-.7c-2.892-.882-5.574-2.406-8.519-3.088-5.611-1.3-11.6.672-16.226,4.108a28.326,28.326,0,0,0-9.9,13.985c2.506.346,4.987.816,6.506,1.88,3.119,2.183,10.917,3.119,10.605,6.862s-5.615,11.541-2.5,11.541,10.293,5.926,14.661,6.239,17.468-2.5,19.027,0,3.743,4.99,1.248,7.486-6.862,5.3-5.615,7.174a23.282,23.282,0,0,0,3.427,2.924,15.7,15.7,0,0,0,2.589-1.958l10.9-9.544" transform="translate(-25.368 -67.159)" fill="#55a6d9"/>
          <path id="패스_70" data-name="패스 70" d="M110.336,182.1c.193-.169.388-.344.578-.523a4.408,4.408,0,0,0,1.446-2.213,5.436,5.436,0,0,0-.9-3.488l-4.231-8.132c-.252-.484-.518-.976-.8-1.467-1.743-3.06-4.059-6.034-7.455-6.259-4.673-.309-8.016,4.828-12.629,5.639-2.7-4.548-5.491-9.8-3.957-14.865a34.479,34.479,0,0,1,2.288-4.857,30.824,30.824,0,0,0,2.669-10.748,19.985,19.985,0,0,1-3.221-.7c-2.892-.882-5.574-2.406-8.519-3.088-5.611-1.3-11.6.672-16.226,4.108a28.326,28.326,0,0,0-9.9,13.985c2.506.346,4.987.816,6.506,1.88,3.119,2.183,10.917,3.119,10.605,6.862s-5.615,11.541-2.5,11.541,10.293,5.926,14.661,6.239,17.468-2.5,19.027,0,3.743,4.99,1.248,7.486-6.862,5.3-5.615,7.174a23.282,23.282,0,0,0,3.427,2.924,15.7,15.7,0,0,0,2.589-1.958Z" transform="translate(-25.368 -67.159)" fill="none" stroke="#fff" stroke-miterlimit="10" stroke-width="1"/>
          <path id="패스_71" data-name="패스 71" d="M171.37,194.073a5.439,5.439,0,0,1,.9,3.488,4.408,4.408,0,0,1-1.446,2.212c5.578-1.124,12.212-2.156,17.666-1.211a49.728,49.728,0,0,0,6.047,1.062c4.61.221,9.064-2.281,12.014-5.829s4.561-8.033,5.514-12.548a2.838,2.838,0,0,0,.012-1.626,2.385,2.385,0,0,0-1.276-1.156c-1.926-.91-4.149-.806-6.27-1s-4.44-.85-5.538-2.674a18.03,18.03,0,0,1-1.113-3.124c-1.689-4.532-7.723-6.244-12.233-4.5s-7.6,5.987-9.581,10.4a11.331,11.331,0,0,1-1.717,3.057c-1.779,1.97-5.547,2.55-8.008,3.848.28.49.546.983.8,1.467l4.231,8.132" transform="translate(-85.278 -85.359)" fill="#55a6d9"/>
          <path id="패스_72" data-name="패스 72" d="M171.37,194.073a5.439,5.439,0,0,1,.9,3.488,4.408,4.408,0,0,1-1.446,2.212c5.578-1.124,12.212-2.156,17.666-1.211a49.728,49.728,0,0,0,6.047,1.062c4.61.221,9.064-2.281,12.014-5.829s4.561-8.033,5.514-12.548a2.838,2.838,0,0,0,.012-1.626,2.385,2.385,0,0,0-1.276-1.156c-1.926-.91-4.149-.806-6.27-1s-4.44-.85-5.538-2.674a18.03,18.03,0,0,1-1.113-3.124c-1.689-4.532-7.723-6.244-12.233-4.5s-7.6,5.987-9.581,10.4a11.331,11.331,0,0,1-1.717,3.057c-1.779,1.97-5.547,2.55-8.008,3.848.28.49.546.983.8,1.467Z" transform="translate(-85.278 -85.359)" fill="none" stroke="#fff" stroke-miterlimit="10" stroke-width="1"/>
        </g>
      </g>
    </g>
    <path id="location_on_FILL1_wght200_GRAD0_opsz48" d="M24,22.75a2.732,2.732,0,1,0-1.95-.8A2.654,2.654,0,0,0,24,22.75Zm0,20.5a63.528,63.528,0,0,1-11.3-12.5Q9,25,9,20.4q0-7.05,4.525-11.225a15.228,15.228,0,0,1,20.95,0Q39,13.35,39,20.4q0,4.6-3.7,10.35A63.529,63.529,0,0,1,24,43.25Z" transform="translate(4436.875 11466.5)" fill="#0068b7" stroke="#fff" stroke-width="2"/>
    <path id="location_on_FILL1_wght200_GRAD0_opsz48-2" data-name="location_on_FILL1_wght200_GRAD0_opsz48" d="M24,22.75a2.732,2.732,0,1,0-1.95-.8A2.654,2.654,0,0,0,24,22.75Zm0,20.5a63.528,63.528,0,0,1-11.3-12.5Q9,25,9,20.4q0-7.05,4.525-11.225a15.228,15.228,0,0,1,20.95,0Q39,13.35,39,20.4q0,4.6-3.7,10.35A63.529,63.529,0,0,1,24,43.25Z" transform="translate(4686 11697.95)" fill="#ef5b05" stroke="#fff" stroke-width="2"/>
    <path id="location_on_FILL1_wght200_GRAD0_opsz48-3" data-name="location_on_FILL1_wght200_GRAD0_opsz48" d="M24,22.75a2.732,2.732,0,1,0-1.95-.8A2.654,2.654,0,0,0,24,22.75Zm0,20.5a63.528,63.528,0,0,1-11.3-12.5Q9,25,9,20.4q0-7.05,4.525-11.225a15.228,15.228,0,0,1,20.95,0Q39,13.35,39,20.4q0,4.6-3.7,10.35A63.529,63.529,0,0,1,24,43.25Z" transform="translate(4575 11774)" fill="#603acc" stroke="#fff" stroke-width="2"/>
    <path id="location_on_FILL1_wght200_GRAD0_opsz48-4" data-name="location_on_FILL1_wght200_GRAD0_opsz48" d="M24,22.75a2.732,2.732,0,1,0-1.95-.8A2.654,2.654,0,0,0,24,22.75Zm0,20.5a63.528,63.528,0,0,1-11.3-12.5Q9,25,9,20.4q0-7.05,4.525-11.225a15.228,15.228,0,0,1,20.95,0Q39,13.35,39,20.4q0,4.6-3.7,10.35A63.529,63.529,0,0,1,24,43.25Z" transform="translate(4661 11438)" fill="#067268" stroke="#fff" stroke-width="2"/>
    <g id="그룹_13" data-name="그룹 13" transform="translate(4345 11228)">
      <g id="사각형_191" data-name="사각형 191" transform="translate(89 288)" fill="#fff" stroke="#09a3ca" stroke-width="1">
        <rect width="54" height="30" rx="15" stroke="none"/>
        <rect x="0.5" y="0.5" width="53" height="29" rx="14.5" fill="none"/>
      </g>
      <path id="패스_84" data-name="패스 84" d="M6.706-7.658A7.706,7.706,0,0,1,1.288-4.242V-5.586c2.9-.658,4.648-2.478,4.648-5.25v-.882H7.448v.882c0,2.772,1.792,4.592,4.676,5.25v1.344A7.738,7.738,0,0,1,6.706-7.658ZM1.078.266V-1.05H5.936V-4.872H7.448V-1.05h4.9V.266Zm16.8-.294h-3.43V-6.566H17.5V-10.3H14.448v-1.344H19v6.412H15.932v3.878h2.24A3.549,3.549,0,0,0,20.5-1.974v-9.814h1.456v4.97H23.38v-5.054h1.484V.826H23.38V-5.488H21.952V.672H20.5v-1.4A3.883,3.883,0,0,1,17.878-.028Zm17.78-5.74h2.3v1.33h-4.41V-1.05h4.844V.266H27.118V-1.05h4.914V-4.438h-4.48v-1.33h1.876V-10.3H27.776v-1.344H37.73V-10.3H36.064v2.016A6.648,6.648,0,0,1,35.658-5.768ZM30.968-10.3v4.536h3.22a6.479,6.479,0,0,0,.35-2.366V-10.3Z" transform="translate(97 309)" fill="#09a3ca"/>
    </g>
    <g id="그룹_14" data-name="그룹 14" transform="translate(4576 11194)">
      <g id="사각형_191-2" data-name="사각형 191" transform="translate(89 288)" fill="#fff" stroke="#09a3ca" stroke-width="1">
        <rect width="54" height="30" rx="15" stroke="none"/>
        <rect x="0.5" y="0.5" width="53" height="29" rx="14.5" fill="none"/>
      </g>
      <path id="패스_93" data-name="패스 93" d="M6.93-5.712H1.246v-6.076H2.772v4.76H7.336a3.973,3.973,0,0,0,2.478-.588v-4.256H11.34v2.856h1.848v1.33H11.34v2.9H9.814V-6.342A4.632,4.632,0,0,1,6.93-5.712ZM1.974.952V-3.976H11.34V.952Zm7.84-3.626H3.486V-.336H9.814Zm4.48-3.192c0-3.052.266-4.606.994-5.4a2.013,2.013,0,0,1,1.54-.6,1.992,1.992,0,0,1,1.54.6c.742.8,1.008,2.352,1.008,5.4s-.266,4.606-1.008,5.4a2.027,2.027,0,0,1-1.54.574,2.049,2.049,0,0,1-1.54-.574C14.56-1.26,14.294-2.814,14.294-5.866Zm1.456,0c0,2.618.112,3.878.5,4.4a.662.662,0,0,0,.574.28.686.686,0,0,0,.588-.28c.392-.518.49-1.778.49-4.4s-.1-3.892-.49-4.4a.7.7,0,0,0-.588-.294.674.674,0,0,0-.574.294C15.862-9.758,15.75-8.484,15.75-5.866ZM24.864.826H23.38V-5.488H21.952V.672H20.5v-12.46h1.456v4.97H23.38v-5.054h1.484Z" transform="translate(103 309)" fill="#09a3ca"/>
    </g>
    <g id="그룹_15" data-name="그룹 15" transform="translate(4595 11463)">
      <g id="사각형_191-3" data-name="사각형 191" transform="translate(89 288)" fill="#fff" stroke="#09a3ca" stroke-width="1">
        <rect width="54" height="30" rx="15" stroke="none"/>
        <rect x="0.5" y="0.5" width="53" height="29" rx="14.5" fill="none"/>
      </g>
      <path id="패스_91" data-name="패스 91" d="M11.69-10.388H7.448v.042c0,2.2,2.086,3.472,4.368,3.85v1.358a7.635,7.635,0,0,1-5.11-2.73,7.769,7.769,0,0,1-5.124,2.73V-6.5c2.268-.378,4.354-1.652,4.354-3.85v-.042h-4.2v-1.33H11.69ZM1.078-2.38V-3.724h11.27V-2.38h-4.9V1.036H5.936V-2.38ZM14.434-10.4v-1.316h6.552V-10.4h-2.52v1.134A3.265,3.265,0,0,0,21.224-5.74V-4.4a5.068,5.068,0,0,1-3.486-2.142,5.148,5.148,0,0,1-3.528,2.3V-5.586a3.368,3.368,0,0,0,2.744-3.682V-10.4ZM24.7-2.982H23.17V-7.6H20.552V-8.9H23.17v-2.968H24.7ZM24.92.882H15.2V-3.43H16.73v3h8.19Z" transform="translate(103 309)" fill="#09a3ca"/>
    </g>
    <g id="그룹_16" data-name="그룹 16" transform="translate(4485 11536)">
      <g id="사각형_191-4" data-name="사각형 191" transform="translate(89 288)" fill="#fff" stroke="#09a3ca" stroke-width="1">
        <rect width="54" height="30" rx="15" stroke="none"/>
        <rect x="0.5" y="0.5" width="53" height="29" rx="14.5" fill="none"/>
      </g>
      <path id="패스_90" data-name="패스 90" d="M11.606-11.718v4.83H1.834v-4.83ZM3.346-8.162H10.08V-10.43H3.346ZM.994-4.144V-5.46H12.432v1.316H7.616v2.352H6.1V-4.144Zm2.352,1.33v2.38H11.83V.882h-10v-3.7Zm17.71-6.958H13.832v-1.246h2.9v-1.218h1.512v1.218h2.814ZM15.68-6.762a.971.971,0,0,0,.434.8,2.312,2.312,0,0,0,1.344.364,2.339,2.339,0,0,0,1.4-.392.962.962,0,0,0,.378-.77,1,1,0,0,0-.406-.8,2.3,2.3,0,0,0-1.372-.364,2.343,2.343,0,0,0-1.344.364A.991.991,0,0,0,15.68-6.762Zm-1.47,0A2.086,2.086,0,0,1,15.12-8.5a4.04,4.04,0,0,1,2.338-.63,3.975,3.975,0,0,1,2.324.63,2.07,2.07,0,0,1,.91,1.736,2,2,0,0,1-.938,1.75,4.079,4.079,0,0,1-2.3.6,4.022,4.022,0,0,1-2.38-.658A2.063,2.063,0,0,1,14.21-6.762Zm10.15-5.11v3.22h1.848v1.344H24.36V-3.99H22.834v-7.882ZM14.826-1.26a1.876,1.876,0,0,1,1.148-1.75,8.5,8.5,0,0,1,3.78-.644,8.4,8.4,0,0,1,3.766.644,1.876,1.876,0,0,1,1.148,1.75A1.886,1.886,0,0,1,23.52.476a8.4,8.4,0,0,1-3.766.644,8.5,8.5,0,0,1-3.78-.644A1.886,1.886,0,0,1,14.826-1.26Zm1.526,0A.787.787,0,0,0,16.8-.6a7.113,7.113,0,0,0,2.954.448A7.039,7.039,0,0,0,22.694-.6a.76.76,0,0,0,.448-.658.76.76,0,0,0-.448-.658,6.608,6.608,0,0,0-2.94-.448,6.678,6.678,0,0,0-2.954.448A.787.787,0,0,0,16.352-1.26Z" transform="translate(103 309)" fill="#09a3ca"/>
    </g>
    <g id="그룹_42" data-name="그룹 42" transform="translate(4345 11258)">
      <g id="사각형_191-5" data-name="사각형 191" transform="translate(89 288)" fill="#fff" stroke="#09a3ca" stroke-width="1">
        <rect width="54" height="30" rx="15" stroke="none"/>
        <rect x="0.5" y="0.5" width="53" height="29" rx="14.5" fill="none"/>
      </g>
      <path id="패스_85" data-name="패스 85" d="M2.744-9.478H4.858v-2.24H6.286V-4.7H1.344v-7.014h1.4Zm2.114,3.5v-2.24H2.744v2.24Zm7,1.68h-1.47V-7.574h-1.4v3.192H7.546v-7.406H8.988V-8.9h1.4v-2.968h1.47ZM10.346,1.036V-2.156H2.1v-1.33h9.758V1.036ZM20.664-11.648V-.028H14.532v-11.62Zm-4.62,10.3h3.108V-10.3H16.044Zm8.624-10.528V.826H23.142v-12.7ZM33.25-.028h-5.7V-6.566h4.424V-10.3H27.552v-1.344h5.922v6.412h-4.41v3.878h4.48a3.976,3.976,0,0,0,2.618-.728v-9.786h1.526V.826H36.162V-.826A4.362,4.362,0,0,1,33.25-.028Z" transform="translate(97 309)" fill="#09a3ca"/>
    </g>
    <path id="location_on_FILL1_wght200_GRAD0_opsz48-5" data-name="location_on_FILL1_wght200_GRAD0_opsz48" d="M24,22.75a2.732,2.732,0,1,0-1.95-.8A2.654,2.654,0,0,0,24,22.75Zm0,20.5a63.528,63.528,0,0,1-11.3-12.5Q9,25,9,20.4q0-7.05,4.525-11.225a15.228,15.228,0,0,1,20.95,0Q39,13.35,39,20.4q0,4.6-3.7,10.35A63.529,63.529,0,0,1,24,43.25Z" transform="translate(4425.875 11584.5)" fill="#a25c00" stroke="#fff" stroke-width="2"/>
    <g id="그룹_43" data-name="그룹 43" transform="translate(4326.875 11344)">
      <g id="사각형_191-6" data-name="사각형 191" transform="translate(89.125 288)" fill="#fff" stroke="#09a3ca" stroke-width="1">
        <rect width="57" height="30" rx="15" stroke="none"/>
        <rect x="0.5" y="0.5" width="56" height="29" rx="14.5" fill="none"/>
      </g>
      <path id="패스_86" data-name="패스 86" d="M11.606-10.43H7.462c.182,1.26,2.31,1.96,4.27,2.114v1.288a7.864,7.864,0,0,1-5.026-1.89,7.9,7.9,0,0,1-5.054,1.89V-8.316c1.96-.126,4.088-.854,4.27-2.114H1.834v-1.288h9.772ZM.994-4.8V-6.1H12.432v1.3H7.448v1.176a7.517,7.517,0,0,1,3.388.7,1.868,1.868,0,0,1,1.022,1.708A1.868,1.868,0,0,1,10.836.49a8.744,8.744,0,0,1-4.1.7A8.846,8.846,0,0,1,2.618.49,1.868,1.868,0,0,1,1.6-1.218,1.868,1.868,0,0,1,2.618-2.926a7.532,7.532,0,0,1,3.332-.7V-4.8ZM3.122-1.218a.8.8,0,0,0,.434.686,7.317,7.317,0,0,0,3.178.448A7.2,7.2,0,0,0,9.9-.532a.783.783,0,0,0,.448-.686A.8.8,0,0,0,9.9-1.9a7.2,7.2,0,0,0-3.164-.448A7.317,7.317,0,0,0,3.556-1.9.812.812,0,0,0,3.122-1.218ZM20.23-.028h-5.7V-6.566h4.424V-10.3H14.532v-1.344h5.922v6.412h-4.41v3.878h4.48a3.976,3.976,0,0,0,2.618-.728v-9.786h1.526V.826H23.142V-.826A4.362,4.362,0,0,1,20.23-.028Z" transform="translate(105.125 309)" fill="#09a3ca"/>
    </g>
    <g id="그룹_44" data-name="그룹 44" transform="translate(4326.875 11374)">
      <g id="사각형_191-7" data-name="사각형 191" transform="translate(89.125 288)" fill="#fff" stroke="#09a3ca" stroke-width="1">
        <rect width="57" height="30" rx="15" stroke="none"/>
        <rect x="0.5" y="0.5" width="56" height="29" rx="14.5" fill="none"/>
      </g>
      <path id="패스_87" data-name="패스 87" d="M2.9-10.01H6.062v-1.708h1.5v1.134h2.59v-1.288h1.526V-5.5H10.15V-6.874H7.56v1.022H1.414v-5.866H2.9Zm4.662.672V-8.12h2.59V-9.338Zm-1.5,2.254v-1.68H2.9v1.68ZM3.71-1.3V-.28h8.12V.952H2.184V-2.52H10.15V-3.57H2.184V-4.8h9.492v3.5Zm21-9.086H20.468v.042c0,2.2,2.086,3.472,4.368,3.85v1.358a7.635,7.635,0,0,1-5.11-2.73A7.769,7.769,0,0,1,14.6-5.138V-6.5c2.268-.378,4.354-1.652,4.354-3.85v-.042h-4.2v-1.33H24.71ZM14.1-2.38V-3.724h11.27V-2.38h-4.9V1.036H18.956V-2.38ZM29.3-9.786h6.9v-1.932H37.73v6.51H27.776v-6.51H29.3ZM36.2-6.51V-8.484H29.3V-6.51ZM27.118-2.3v-1.33h11.27V-2.3h-4.9V1.036H31.976V-2.3Z" transform="translate(98.125 309)" fill="#09a3ca"/>
    </g>
    <g id="그룹_45" data-name="그룹 45" transform="translate(4590 11225)">
      <g id="사각형_191-8" data-name="사각형 191" transform="translate(89 288)" fill="#fff" stroke="#09a3ca" stroke-width="1">
        <rect width="54" height="30" rx="15" stroke="none"/>
        <rect x="0.5" y="0.5" width="53" height="29" rx="14.5" fill="none"/>
      </g>
      <path id="패스_92" data-name="패스 92" d="M1.246-10.4v-1.316H7.812V-10.4H5.292v.476A3.255,3.255,0,0,0,8.036-6.4v1.344A5.069,5.069,0,0,1,4.564-7.2a5.239,5.239,0,0,1-3.542,2.31V-6.244A3.357,3.357,0,0,0,3.766-9.926V-10.4Zm10.094-1.47v2.856h1.848v1.33H11.34v3.052H9.814v-7.238ZM1.806-1.582a2.177,2.177,0,0,1,.938-1.792,7.114,7.114,0,0,1,3.99-.91,7.063,7.063,0,0,1,3.976.91,2.177,2.177,0,0,1,.938,1.792A2.183,2.183,0,0,1,10.71.224a7.068,7.068,0,0,1-3.976.9,7.119,7.119,0,0,1-3.99-.9A2.183,2.183,0,0,1,1.806-1.582Zm1.526,0a1.029,1.029,0,0,0,.518.868,5.6,5.6,0,0,0,2.884.532,5.762,5.762,0,0,0,2.9-.532,1.03,1.03,0,0,0,.49-.868,1.03,1.03,0,0,0-.49-.868,5.919,5.919,0,0,0-2.9-.532A5.75,5.75,0,0,0,3.85-2.45,1.029,1.029,0,0,0,3.332-1.582ZM17.57-3.192A5.937,5.937,0,0,1,13.9-.028v-1.4c1.526-.7,2.9-1.988,2.9-5.53v-4.76h1.512v4.76c0,3.542,1.4,4.816,2.912,5.53v1.4A5.994,5.994,0,0,1,17.57-3.192Zm6.79-8.68v5.18h1.988v1.33H24.36V.826H22.834v-12.7Zm9.716,2.1H26.852v-1.246h2.9v-1.218h1.512v1.218h2.814ZM28.7-6.762a.971.971,0,0,0,.434.8,2.312,2.312,0,0,0,1.344.364,2.339,2.339,0,0,0,1.4-.392.962.962,0,0,0,.378-.77,1,1,0,0,0-.406-.8,2.3,2.3,0,0,0-1.372-.364,2.343,2.343,0,0,0-1.344.364A.991.991,0,0,0,28.7-6.762Zm-1.47,0A2.086,2.086,0,0,1,28.14-8.5a4.04,4.04,0,0,1,2.338-.63A3.975,3.975,0,0,1,32.8-8.5a2.07,2.07,0,0,1,.91,1.736,2,2,0,0,1-.938,1.75,4.079,4.079,0,0,1-2.3.6,4.022,4.022,0,0,1-2.38-.658A2.063,2.063,0,0,1,27.23-6.762Zm10.15-5.11v3.22h1.848v1.344H37.38V-3.99H35.854v-7.882ZM27.846-1.26a1.876,1.876,0,0,1,1.148-1.75,8.5,8.5,0,0,1,3.78-.644,8.4,8.4,0,0,1,3.766.644,1.876,1.876,0,0,1,1.148,1.75A1.886,1.886,0,0,1,36.54.476a8.4,8.4,0,0,1-3.766.644,8.5,8.5,0,0,1-3.78-.644A1.886,1.886,0,0,1,27.846-1.26Zm1.526,0A.787.787,0,0,0,29.82-.6a7.113,7.113,0,0,0,2.954.448A7.039,7.039,0,0,0,35.714-.6a.76.76,0,0,0,.448-.658.76.76,0,0,0-.448-.658,6.608,6.608,0,0,0-2.94-.448,6.678,6.678,0,0,0-2.954.448A.787.787,0,0,0,29.372-1.26Z" transform="translate(97 309)" fill="#09a3ca"/>
    </g>
    <path id="location_on_FILL1_wght200_GRAD0_opsz48-6" data-name="location_on_FILL1_wght200_GRAD0_opsz48" d="M24,22.75a2.732,2.732,0,1,0-1.95-.8A2.654,2.654,0,0,0,24,22.75Zm0,20.5a63.528,63.528,0,0,1-11.3-12.5Q9,25,9,20.4q0-7.05,4.525-11.225a15.228,15.228,0,0,1,20.95,0Q39,13.35,39,20.4q0,4.6-3.7,10.35A63.529,63.529,0,0,1,24,43.25Z" transform="translate(4421 11721.975)" fill="#e34f94" stroke="#fff" stroke-width="2"/>
    <g id="그룹_46" data-name="그룹 46" transform="translate(4330 11481.025)">
      <g id="사각형_191-9" data-name="사각형 191" transform="translate(89 288)" fill="#fff" stroke="#09a3ca" stroke-width="1">
        <rect width="54" height="30" rx="15" stroke="none"/>
        <rect x="0.5" y="0.5" width="53" height="29" rx="14.5" fill="none"/>
      </g>
      <path id="패스_89" data-name="패스 89" d="M11.606-10.43H3.346v1.862h8.33v1.274H7.448v1.33h4.984v1.3H.994v-1.3H5.936v-1.33h-4.1v-4.424h9.772ZM1.6-1.218A1.868,1.868,0,0,1,2.618-2.926,8.821,8.821,0,0,1,6.734-3.64a8.719,8.719,0,0,1,4.1.714,1.868,1.868,0,0,1,1.022,1.708A1.868,1.868,0,0,1,10.836.49a8.744,8.744,0,0,1-4.1.7A8.846,8.846,0,0,1,2.618.49,1.868,1.868,0,0,1,1.6-1.218Zm1.526,0a.8.8,0,0,0,.434.686,7.317,7.317,0,0,0,3.178.448A7.2,7.2,0,0,0,9.9-.532a.783.783,0,0,0,.448-.686A.8.8,0,0,0,9.9-1.9a7.2,7.2,0,0,0-3.164-.448A7.317,7.317,0,0,0,3.556-1.9.812.812,0,0,0,3.122-1.218Zm21.9-9.52v1.316H14.448v-1.316h4.508V-12.32H20.51v1.582ZM16.282-5.754a1.1,1.1,0,0,0,.686.966,6.136,6.136,0,0,0,2.758.5,6.1,6.1,0,0,0,2.758-.5,1.094,1.094,0,0,0,.7-.966,1.152,1.152,0,0,0-.756-1.022,6.684,6.684,0,0,0-2.7-.448,5.953,5.953,0,0,0-2.856.532A1.089,1.089,0,0,0,16.282-5.754Zm-1.526,0a2.235,2.235,0,0,1,1.2-1.974,7.6,7.6,0,0,1,3.766-.784,7.485,7.485,0,0,1,3.85.826A2.206,2.206,0,0,1,24.7-5.754a2.213,2.213,0,0,1-1.134,1.946,6.472,6.472,0,0,1-3.052.784V-1.05h4.858V.266H14.1V-1.05h4.914V-3.01a7.14,7.14,0,0,1-2.926-.7A2.237,2.237,0,0,1,14.756-5.754Z" transform="translate(103 309)" fill="#09a3ca"/>
    </g>
    <g id="그룹_47" data-name="그룹 47" transform="translate(4327 11512.2)">
      <g id="사각형_191-10" data-name="사각형 191" transform="translate(89 288)" fill="#fff" stroke="#09a3ca" stroke-width="1">
        <rect width="54" height="30" rx="15" stroke="none"/>
        <rect x="0.5" y="0.5" width="53" height="29" rx="14.5" fill="none"/>
      </g>
      <path id="패스_88" data-name="패스 88" d="M11.606-10.458H3.346v1.33h8.33v1.26H7.448V-6.8h4.984V-5.53H.994V-6.8H5.936V-7.868h-4.1v-3.85h9.772ZM3.346-1.2V-.28h8.54V.952H1.834V-2.422H10.08V-3.36H1.834V-4.592h9.772V-1.2ZM20.664-11.648v4.83h2.478v-5.054h1.526V.826H23.142V-5.5H20.664V-.028H14.532v-11.62Zm-4.62,10.3h3.108V-10.3H16.044ZM33.25-.028h-5.7V-6.566h4.424V-10.3H27.552v-1.344h5.922v6.412h-4.41v3.878h4.48a3.976,3.976,0,0,0,2.618-.728v-9.786h1.526V.826H36.162V-.826A4.362,4.362,0,0,1,33.25-.028Z" transform="translate(97 309)" fill="#09a3ca"/>
    </g>
  </g>
</svg>
