<svg xmlns="http://www.w3.org/2000/svg" width="123.475" height="24.075" viewBox="0 0 123.475 24.075">
  <path id="패스_101" data-name="패스 101" d="M17.55-12.3H14.325c-.45-3.9-2.475-6.35-6.3-6.35C3.6-18.65,1.55-15.4,1.55-10.425S3.6-2.2,8.025-2.2c3.975,0,6-2.625,6.35-6.775H17.55V1.775a1.788,1.788,0,0,0,2,1.85,1.777,1.777,0,0,0,2-1.85v-19.5a1.777,1.777,0,0,0-2-1.85,1.788,1.788,0,0,0-2,1.85ZM8.025-5.55c-2,0-2.575-2.175-2.575-4.875S6.025-15.3,8.025-15.3,10.6-13.125,10.6-10.425,10.025-5.55,8.025-5.55Zm30.1-12.275v-.95c0-.975-.725-1.675-2-1.675s-2,.7-2,1.675v.95h-4.8c-1.05,0-1.775.425-1.775,1.475s.725,1.475,1.775,1.475h4.85c-.075,1.275-3.25,2.125-5.725,2.6a1.5,1.5,0,0,0-1.2,1.925c.25.95,1.15,1.2,2.125,1.05a15.184,15.184,0,0,0,6.75-2.625A15.184,15.184,0,0,0,42.875-9.3c.975.15,1.875-.1,2.125-1.05a1.5,1.5,0,0,0-1.2-1.925c-2.5-.475-5.65-1.325-5.725-2.6h4.85c1.05,0,1.775-.425,1.775-1.475s-.725-1.475-1.775-1.475ZM34.2-7.675H26.75c-1.075,0-1.8.45-1.8,1.525s.725,1.55,1.8,1.55H45.525C46.6-4.6,47.3-5.075,47.3-6.15s-.7-1.525-1.775-1.525H38.05v-1.4c0-1.125-.8-1.55-1.925-1.55S34.2-10.2,34.2-9.075ZM27.825,1.2c0,1.5.65,2.15,2.15,2.15h13.3c1.125,0,1.775-.45,1.775-1.575s-.65-1.6-1.775-1.6H32.025c-.2,0-.275-.05-.275-.275v-2c0-1.125-.85-1.65-1.975-1.65s-1.95.525-1.95,1.65Zm37.6-18.825a1.564,1.564,0,0,0-1.775-1.7,1.564,1.564,0,0,0-1.775,1.7v2.675h-2.1v-1.025a2.191,2.191,0,0,0-2.5-2.425h-5.65a1.538,1.538,0,0,0-1.675,1.675,1.538,1.538,0,0,0,1.675,1.675H55.35c.5,0,.575.125.575.575v.675c0,3.425-1.925,6.2-5.3,8.75a1.861,1.861,0,0,0-.575,2.6,1.854,1.854,0,0,0,2.575.525A15.837,15.837,0,0,0,59.45-11.75h2.425V-8H60c-1.125,0-1.8.475-1.8,1.6s.675,1.6,1.8,1.6h1.875v6a1.777,1.777,0,0,0,3.55,0ZM70.4-17.85a1.6,1.6,0,0,0-1.8-1.725,1.6,1.6,0,0,0-1.8,1.725V1.9a1.8,1.8,0,0,0,3.6,0ZM98.275,3.475c1.625,0,2.25-.6,2.25-2.225v-5.1c0-1.625-.625-2.2-2.25-2.2H86.6c-1.625,0-2.275.575-2.275,2.2v5.1c0,1.625.65,2.225,2.275,2.225ZM93-17.1c0-1.225-.7-1.95-2.225-1.95h-7.55c-1.05,0-1.725.475-1.725,1.55,0,1.05.675,1.525,1.725,1.525H88.75c.35,0,.45.15.45.5v.275c0,2.675-2.925,4.625-6.775,5.55A1.6,1.6,0,0,0,81.2-7.5a1.674,1.674,0,0,0,2.2,1.075c3.775-.925,6.825-2.7,8.425-5.2h4.7v2.5a1.783,1.783,0,0,0,2,1.825,1.783,1.783,0,0,0,2-1.825V-17.75a1.783,1.783,0,0,0-2-1.825,1.783,1.783,0,0,0-2,1.825v2.8H92.95c.025-.25.05-.5.05-.75ZM96.275-3.05a.236.236,0,0,1,.25.25V.225a.236.236,0,0,1-.25.25h-7.7a.236.236,0,0,1-.25-.25V-2.8a.236.236,0,0,1,.25-.25ZM116.55-8.775A1.553,1.553,0,0,0,118.275-7.1,1.553,1.553,0,0,0,120-8.775V-12.15h1.55v3.425A1.572,1.572,0,0,0,123.3-7.05a1.553,1.553,0,0,0,1.725-1.675v-9.15a1.571,1.571,0,0,0-1.725-1.7,1.59,1.59,0,0,0-1.75,1.7V-15.1H120v-2.55a1.553,1.553,0,0,0-1.725-1.675,1.553,1.553,0,0,0-1.725,1.675ZM121.025,1.8a2.008,2.008,0,0,0,4,0V-3.625c0-1.65-.575-2.175-2.225-2.175h-13a1.614,1.614,0,0,0-1.75,1.65A1.614,1.614,0,0,0,109.8-2.5h10.95c.25,0,.275.05.275.275ZM110.1-10.65a10.4,10.4,0,0,0,2.8,2.95,1.852,1.852,0,0,0,2.425-.1,1.671,1.671,0,0,0-.3-2.525C112.95-12.2,112-13.975,112-16.35V-17.5a1.715,1.715,0,0,0-1.9-1.775,1.715,1.715,0,0,0-1.9,1.775v1.15a8.145,8.145,0,0,1-3.1,6.15c-.875.8-1.1,1.85-.325,2.625A1.978,1.978,0,0,0,107.5-7.6,11.207,11.207,0,0,0,110.1-10.65Z" transform="translate(-1.55 20.45)" fill="#0068b7"/>
</svg>
