<svg xmlns="http://www.w3.org/2000/svg" width="220.325" height="24.45" viewBox="0 0 220.325 24.45">
  <path id="패스_102" data-name="패스 102" d="M10.125-3.375V1.8c0,1.225.775,1.825,2,1.825s2-.6,2-1.825V-3.375H21.5a1.583,1.583,0,0,0,1.8-1.7,1.583,1.583,0,0,0-1.8-1.7H2.75a1.583,1.583,0,0,0-1.8,1.7,1.583,1.583,0,0,0,1.8,1.7Zm2-15.9a1.8,1.8,0,0,0-2,1.85v.525c0,2.3-2.875,3.725-6.225,5.2a1.771,1.771,0,0,0-.95,2.325,1.76,1.76,0,0,0,2.325.9,16.688,16.688,0,0,0,6.85-4,16.688,16.688,0,0,0,6.85,4,1.76,1.76,0,0,0,2.325-.9,1.771,1.771,0,0,0-.95-2.325c-3.35-1.475-6.225-2.9-6.225-5.2v-.525A1.8,1.8,0,0,0,12.125-19.275ZM29.325,1.25c0,1.6.625,2.225,2.25,2.225h11.7c1.6,0,2.25-.625,2.25-2.225V-3.6a1.765,1.765,0,0,0-2-1.8,1.765,1.765,0,0,0-2,1.8v.175h-8.2V-3.6a1.765,1.765,0,0,0-2-1.8,1.752,1.752,0,0,0-2,1.8Zm-2.75-11.775c0,2.8,2.875,4.125,6.1,4.125s6.1-1.325,6.1-4.125-2.875-4.125-6.1-4.125S26.575-13.325,26.575-10.525Zm14.95-4.35H40.6c-1.05,0-1.8.275-1.8,1.325s.75,1.325,1.8,1.325h.925v1.45H40.6c-1.05,0-1.8.275-1.8,1.325s.75,1.325,1.8,1.325h.925a1.8,1.8,0,0,0,2,1.575,1.783,1.783,0,0,0,2-1.825V-17.75a1.783,1.783,0,0,0-2-1.825,1.783,1.783,0,0,0-2,1.825Zm-3.6-.525c1.125,0,1.825-.3,1.825-1.425s-.7-1.425-1.825-1.425H34.55v-.6a1.659,1.659,0,0,0-1.875-1.725A1.659,1.659,0,0,0,30.8-18.85v.6H27.175c-1.125,0-1.825.3-1.825,1.425s.7,1.425,1.825,1.425ZM30.3-10.525c0-1.025,1.175-1.425,2.375-1.425s2.375.4,2.375,1.425S33.875-9.1,32.675-9.1,30.3-9.5,30.3-10.525Zm3.025,9.9h8.2v1c0,.175-.075.275-.25.275H33.6a.25.25,0,0,1-.275-.275Zm27.3-5.65c-4.825,0-8.05,1.625-8.05,5.075s3.225,5.075,8.05,5.075,8.05-1.625,8.05-5.075S65.45-6.275,60.625-6.275Zm-4.3-4.85A10.867,10.867,0,0,0,60.35-7.9a1.935,1.935,0,0,0,2.625-.45,1.73,1.73,0,0,0-.725-2.5c-2.475-1.475-3.925-3.175-3.925-5.625V-17.55c0-1.2-.8-1.725-2-1.725s-2,.525-2,1.725v1.075c0,2.45-1.525,4.3-4.025,5.975a1.77,1.77,0,0,0-.725,2.525,1.911,1.911,0,0,0,2.625.45A11.863,11.863,0,0,0,56.325-11.125Zm8.425,2.5a1.783,1.783,0,0,0,2,1.825,1.783,1.783,0,0,0,2-1.825V-11.7h1.725a1.58,1.58,0,0,0,1.8-1.65,1.58,1.58,0,0,0-1.8-1.65H68.75v-2.775a1.765,1.765,0,0,0-2-1.8,1.765,1.765,0,0,0-2,1.8ZM60.625.8c-2.3,0-4.025-.575-4.025-2s1.725-2,4.025-2,4.025.575,4.025,2S62.925.8,60.625.8ZM94,.875c1.125,0,1.8-.525,1.8-1.65s-.675-1.65-1.8-1.65H86.625V-4.1c3.525-.35,5.95-1.75,5.95-4.475,0-3.2-3.375-4.575-7.95-4.575s-7.95,1.375-7.95,4.575c0,2.725,2.425,4.125,5.95,4.475v1.675H75.25c-1.125,0-1.8.525-1.8,1.65s.675,1.65,1.8,1.65ZM92.15-13.75c1.125,0,1.775-.55,1.775-1.525S93.275-16.8,92.15-16.8H86.625v-1.45c0-.975-.725-1.7-2-1.7s-2,.725-2,1.7v1.45H77.1c-1.125,0-1.775.55-1.775,1.525s.65,1.525,1.775,1.525ZM88.625-8.575c0,1.075-1.55,1.625-4,1.625s-4-.55-4-1.625,1.55-1.625,4-1.625S88.625-9.65,88.625-8.575Zm26.4,12.05c1.5,0,2.15-.65,2.15-2.15V-3.45c0-1.5-.65-2.15-2.15-2.15h-12.3c-1.5,0-2.15.65-2.15,2.15V1.325c0,1.5.65,2.15,2.15,2.15ZM112.7-16.175c.375,0,.45.05.45.4v.975a22.242,22.242,0,0,1-.425,4.025h-13.2c-1.125,0-1.825.425-1.825,1.55s.7,1.55,1.825,1.55h18.7c1.125,0,1.825-.425,1.825-1.55s-.7-1.55-1.825-1.55h-1.75a20.989,20.989,0,0,0,.575-4.775v-1.6c0-1.35-.7-2.125-2.4-2.125H102.525c-1.125,0-1.825.425-1.825,1.55s.7,1.55,1.825,1.55Zm.8,16.4c0,.225-.075.275-.275.275h-8.7c-.2,0-.275-.05-.275-.275V-2.35c0-.2.075-.275.275-.275h8.7c.2,0,.275.075.275.275ZM127.175-6.7v2.525a3.781,3.781,0,0,0-2.6,3.55c0,3.35,3.8,4.5,8.55,4.5s8.55-1.15,8.55-4.5a3.781,3.781,0,0,0-2.6-3.55V-6.7h3.4c1.125,0,1.825-.35,1.825-1.475s-.7-1.5-1.825-1.5h-18.7c-1.125,0-1.825.375-1.825,1.5s.7,1.475,1.825,1.475Zm5.95-12.825c-3.7,0-8.375.625-8.375,4.375s4.675,4.375,8.375,4.375S141.5-11.4,141.5-15.15,136.825-19.525,133.125-19.525Zm0,17.4c2.625,0,4.65.375,4.65,1.5s-2.025,1.5-4.65,1.5-4.65-.375-4.65-1.5S130.5-2.125,133.125-2.125Zm0-14.45c2.5,0,4.475.275,4.475,1.425s-1.975,1.425-4.475,1.425S128.65-14,128.65-15.15,130.625-16.575,133.125-16.575Zm0,11.475c-.8,0-1.55.05-2.275.1V-6.7h4.55V-5C134.675-5.05,133.9-5.1,133.125-5.1Zm36.15-12.125H165a6.347,6.347,0,0,0-5.05-2.05c-3.725,0-6.35,2.1-6.35,5.775s2.625,5.775,6.35,5.775A6.475,6.475,0,0,0,164.775-9.5h4.5v.875a1.783,1.783,0,0,0,2,1.825,1.783,1.783,0,0,0,2-1.825V-17.75a1.783,1.783,0,0,0-2-1.825,1.783,1.783,0,0,0-2,1.825ZM165.1-6.275c-4.825,0-8.175,1.625-8.175,5.075s3.35,5.075,8.175,5.075,8.175-1.625,8.175-5.075S169.925-6.275,165.1-6.275Zm0,7.1c-2.375,0-4.175-.6-4.175-2.025s1.8-2.025,4.175-2.025,4.175.6,4.175,2.025S167.475.825,165.1.825ZM162.45-13.5c0,1.65-.875,2.775-2.5,2.775s-2.5-1.125-2.5-2.775.875-2.775,2.5-2.775S162.45-15.15,162.45-13.5Zm3.8,0c0-.3-.025-.6-.05-.9h3.075v2.075H166.15A8.577,8.577,0,0,0,166.25-13.5Zm11.35-.25c0,3.6,2.75,5.525,6.35,5.525,3.025,0,5.4-1.35,6.1-3.925h3.225v2.525a1.783,1.783,0,0,0,2,1.825,1.783,1.783,0,0,0,2-1.825V-17.75a1.783,1.783,0,0,0-2-1.825,1.783,1.783,0,0,0-2,1.825v2.275H190c-.725-2.475-3.075-3.8-6.05-3.8C180.35-19.275,177.6-17.35,177.6-13.75Zm3.475,15c0,1.6.625,2.225,2.25,2.225h11.7c1.6,0,2.25-.625,2.25-2.225v-6.1a1.765,1.765,0,0,0-2-1.8,1.765,1.765,0,0,0-2,1.8v.925h-8.2V-4.85a1.765,1.765,0,0,0-2-1.8,1.752,1.752,0,0,0-2,1.8Zm.375-15a2.356,2.356,0,0,1,2.5-2.525,2.356,2.356,0,0,1,2.5,2.525,2.356,2.356,0,0,1-2.5,2.525A2.356,2.356,0,0,1,181.45-13.75Zm3.625,12.6h8.2V.375c0,.175-.075.275-.25.275H185.35a.25.25,0,0,1-.275-.275Zm33.95,4.625c1.625,0,2.25-.6,2.25-2.225v-5.1c0-1.625-.625-2.2-2.25-2.2H207.35c-1.625,0-2.275.575-2.275,2.2v5.1c0,1.625.65,2.225,2.275,2.225Zm-15.3-22.525c-1.1,0-1.825.45-1.825,1.55s.725,1.55,1.825,1.55h2.75v.875c0,2.2-2.025,3.725-4,4.775a1.588,1.588,0,0,0-.725,2.4,1.9,1.9,0,0,0,2.625.4,12.894,12.894,0,0,0,3.975-3.175,10.878,10.878,0,0,0,3.975,2.825c1,.425,2.1.45,2.625-.4a1.574,1.574,0,0,0-.725-2.4c-1.95-1.025-4-2.1-4-4.425v-.875h2.625c1.1,0,1.825-.45,1.825-1.55s-.725-1.55-1.825-1.55Zm13.55,3.95h-2.6c-1.075,0-1.8.375-1.8,1.45s.725,1.45,1.8,1.45h2.6v3.075a1.783,1.783,0,0,0,2,1.825,1.783,1.783,0,0,0,2-1.825V-17.75a1.783,1.783,0,0,0-2-1.825,1.783,1.783,0,0,0-2,1.825Zm-.25,12.05a.236.236,0,0,1,.25.25V.225a.236.236,0,0,1-.25.25h-7.7a.236.236,0,0,1-.25-.25V-2.8a.236.236,0,0,1,.25-.25Z" transform="translate(-0.95 20.575)" fill="#0068b7"/>
</svg>
