<svg xmlns="http://www.w3.org/2000/svg" width="172.925" height="24.325" viewBox="0 0 172.925 24.325">
  <path id="패스_99" data-name="패스 99" d="M16.55,1.8a1.783,1.783,0,0,0,2,1.825,1.783,1.783,0,0,0,2-1.825V-8.9h1.775A1.6,1.6,0,0,0,24.1-10.6a1.6,1.6,0,0,0-1.775-1.725H20.55V-17.75a1.783,1.783,0,0,0-2-1.825,1.783,1.783,0,0,0-2,1.825Zm-2.8-5.2A1.7,1.7,0,0,0,15.2-5.45a1.52,1.52,0,0,0-1.95-1.275,38.8,38.8,0,0,1-6.15.45H6.55c-.35,0-.425-.075-.425-.425v-9.85a1.844,1.844,0,0,0-2-1.925,1.844,1.844,0,0,0-2,1.925V-5.325a2.221,2.221,0,0,0,2.525,2.5h2.1A41.108,41.108,0,0,0,13.75-3.4ZM41.9,1.775a1.914,1.914,0,0,0,3.825,0v-19.5a1.718,1.718,0,0,0-1.925-1.85,1.711,1.711,0,0,0-1.9,1.85ZM27.15-4.15A1.6,1.6,0,0,0,25.4-2.475,1.583,1.583,0,0,0,27.15-.8H32.7a33.828,33.828,0,0,0,7.15-.55A1.649,1.649,0,0,0,40.925-3.3a1.488,1.488,0,0,0-1.8-1.225,51.581,51.581,0,0,1-6.2.375Zm3.35-8.925a2.454,2.454,0,0,1,2.6-2.55,2.454,2.454,0,0,1,2.6,2.55,2.454,2.454,0,0,1-2.6,2.55A2.454,2.454,0,0,1,30.5-13.075Zm-3.925,0c0,3.675,2.85,5.825,6.525,5.825s6.525-2.15,6.525-5.825S36.775-18.9,33.1-18.9,26.575-16.75,26.575-13.075Zm45.975-2.4H68.225A5.615,5.615,0,0,0,62.8-18.65c-4.425,0-6.475,3.25-6.475,8.225S58.375-2.2,62.8-2.2a5.578,5.578,0,0,0,5.475-3.275H72.55V1.8a2.008,2.008,0,0,0,4,0V-17.75a1.783,1.783,0,0,0-2-1.825,1.783,1.783,0,0,0-2,1.825ZM62.8-5.55c-2,0-2.575-2.175-2.575-4.875S60.8-15.3,62.8-15.3s2.575,2.175,2.575,4.875S64.8-5.55,62.8-5.55Zm6.425-4.875c0-.575-.05-1.125-.1-1.65H72.55V-8.9h-3.4A14.834,14.834,0,0,0,69.225-10.425Zm23.25,5.4c-4.825,0-8.3,1.25-8.3,4.45s3.475,4.45,8.3,4.45,8.3-1.25,8.3-4.45S97.3-5.025,92.475-5.025Zm.075-2.7A1.553,1.553,0,0,0,94.275-6.05,1.553,1.553,0,0,0,96-7.725V-11.3h1.3v4.325A1.572,1.572,0,0,0,99.05-5.3a1.553,1.553,0,0,0,1.725-1.675v-10.9a1.571,1.571,0,0,0-1.725-1.7,1.59,1.59,0,0,0-1.75,1.7v3.625H96v-3.4a1.553,1.553,0,0,0-1.725-1.675A1.553,1.553,0,0,0,92.55-17.65ZM80.825-9.95c0,2.875,2.45,4.175,5.1,4.175s5.1-1.3,5.1-4.175-2.45-4.175-5.1-4.175S80.825-12.825,80.825-9.95Zm9.1-4.9c1.125,0,1.825-.275,1.825-1.4s-.7-1.4-1.825-1.4h-2.15v-1.075a1.639,1.639,0,0,0-1.85-1.725,1.639,1.639,0,0,0-1.85,1.725v1.075H81.55c-1.125,0-1.825.275-1.825,1.4s.7,1.4,1.825,1.4ZM92.475.825c-2.075,0-4.25-.225-4.25-1.4s2.175-1.4,4.25-1.4,4.25.225,4.25,1.4S94.55.825,92.475.825ZM87.6-9.95a1.526,1.526,0,0,1-1.675,1.525A1.526,1.526,0,0,1,84.25-9.95a1.526,1.526,0,0,1,1.675-1.525A1.526,1.526,0,0,1,87.6-9.95ZM124.75.75a1.583,1.583,0,0,0,1.8-1.7,1.583,1.583,0,0,0-1.8-1.7H106a1.583,1.583,0,0,0-1.8,1.7A1.583,1.583,0,0,0,106,.75Zm-9.375-19.525a1.8,1.8,0,0,0-2,1.85V-15.9c0,2.8-2.875,4.9-6.225,6.4a1.75,1.75,0,0,0-.95,2.35,1.866,1.866,0,0,0,2.4.9,15.373,15.373,0,0,0,6.775-4.575A15.373,15.373,0,0,0,122.15-6.25a1.866,1.866,0,0,0,2.4-.9,1.75,1.75,0,0,0-.95-2.35c-3.35-1.5-6.225-3.6-6.225-6.4v-1.025A1.8,1.8,0,0,0,115.375-18.775Zm31.65,22.25c1.625,0,2.25-.6,2.25-2.225V-3.225c0-1.625-.625-2.2-2.25-2.2H135.1c-1.625,0-2.275.575-2.275,2.2V1.25c0,1.625.65,2.225,2.275,2.225Zm-8.3-10.6a1.429,1.429,0,0,0,1.35-1.7c-.125-.95-.8-1.275-1.7-1.2-.875.075-2.175.175-3.2.175H133.45c-.225,0-.3-.05-.3-.325v-1.4h4.225a1.321,1.321,0,0,0,1.5-1.45,1.311,1.311,0,0,0-1.5-1.45H133.15v-1.35c0-.2.025-.3.3-.3h4.125a1.383,1.383,0,0,0,1.55-1.5,1.383,1.383,0,0,0-1.55-1.5h-5.55c-1.625,0-2.3.675-2.3,2.3v7.7c0,1.625.675,2.275,2.3,2.275h1.9C135.4-6.85,137.3-6.975,138.725-7.125ZM140.8-8.4a1.553,1.553,0,0,0,1.725,1.675A1.542,1.542,0,0,0,144.25-8.4v-3.375h1.55V-8.35a1.572,1.572,0,0,0,1.75,1.675,1.553,1.553,0,0,0,1.725-1.675v-9.525a1.571,1.571,0,0,0-1.725-1.7,1.59,1.59,0,0,0-1.75,1.7v3.15h-1.55V-17.65a1.553,1.553,0,0,0-1.725-1.675A1.553,1.553,0,0,0,140.8-17.65Zm4.225,5.975a.236.236,0,0,1,.25.25v2.4a.236.236,0,0,1-.25.25h-7.95a.236.236,0,0,1-.25-.25v-2.4a.236.236,0,0,1,.25-.25Zm25.725-3.3a1.593,1.593,0,0,0,1.8-1.65,1.593,1.593,0,0,0-1.8-1.65h-1.2a19.537,19.537,0,0,0,.225-2.95v-.575a1.7,1.7,0,0,0-1.9-1.8,1.71,1.71,0,0,0-1.9,1.8v.575a28.8,28.8,0,0,1-.125,2.95h-3.975a28.83,28.83,0,0,1-.1-2.95v-.575a1.71,1.71,0,0,0-1.9-1.8,1.7,1.7,0,0,0-1.9,1.8v.575a19.537,19.537,0,0,0,.225,2.95H157a1.593,1.593,0,0,0-1.8,1.65,1.593,1.593,0,0,0,1.8,1.65ZM173.25.75a1.583,1.583,0,0,0,1.8-1.7,1.583,1.583,0,0,0-1.8-1.7H154.5a1.583,1.583,0,0,0-1.8,1.7,1.583,1.583,0,0,0,1.8,1.7ZM170.9-15.1a1.593,1.593,0,0,0,1.8-1.65,1.593,1.593,0,0,0-1.8-1.65H156.85a1.593,1.593,0,0,0-1.8,1.65,1.593,1.593,0,0,0,1.8,1.65Z" transform="translate(-2.125 20.45)" fill="#0068b7"/>
</svg>
