<svg xmlns="http://www.w3.org/2000/svg" width="27.168" height="27.168" viewBox="0 0 27.168 27.168">
  <path id="collections_bookmark_FILL1_wght400_GRAD-25_opsz40" d="M19.94,14.755,22.359,13.3l2.351,1.452a.506.506,0,0,0,.552.017.531.531,0,0,0,.277-.5V5.8H19.11v8.468a.531.531,0,0,0,.276.5A.508.508,0,0,0,19.94,14.755ZM10.193,26.438A2.244,2.244,0,0,1,7.98,24.225V5.8a2.069,2.069,0,0,1,.657-1.538,2.153,2.153,0,0,1,1.555-.64H28.615A2.184,2.184,0,0,1,30.793,5.8V24.225a2.153,2.153,0,0,1-.64,1.555,2.069,2.069,0,0,1-1.538.657ZM5.8,30.793a2.184,2.184,0,0,1-2.178-2.178V9.086a1.093,1.093,0,0,1,.311-.777A1.007,1.007,0,0,1,4.7,7.98a1.046,1.046,0,0,1,.795.329,1.093,1.093,0,0,1,.311.777V28.615H25.332a1.093,1.093,0,0,1,.777.311,1.046,1.046,0,0,1,.329.795,1.007,1.007,0,0,1-.329.761,1.093,1.093,0,0,1-.777.311Z" transform="translate(-3.625 -3.625)" fill="#0068b7"/>
</svg>
