<svg xmlns="http://www.w3.org/2000/svg" width="33.334" height="33.334" viewBox="0 0 33.334 33.334">
  <path id="expand_circle_down_FILL0_wght400_GRAD0_opsz40" d="M19.042,24.542a1.311,1.311,0,0,0,1.916,0l5.375-5.334a1.3,1.3,0,0,0,.375-.958,1.366,1.366,0,0,0-.416-1,1.507,1.507,0,0,0-.98-.4,1.268,1.268,0,0,0-.979.4L20,21.583l-4.375-4.375a1.3,1.3,0,0,0-.958-.375,1.362,1.362,0,0,0-1,.417,1.358,1.358,0,0,0,0,1.958ZM20,36.667A16.534,16.534,0,0,1,3.333,20,16.534,16.534,0,0,1,20,3.333,16.534,16.534,0,0,1,36.667,20,16.534,16.534,0,0,1,20,36.667ZM20,20Zm0,13.875A13.663,13.663,0,0,0,33.875,20,13.663,13.663,0,0,0,20,6.125,13.663,13.663,0,0,0,6.125,20,13.663,13.663,0,0,0,20,33.875Z" transform="translate(36.667 -3.333) rotate(90)" fill="#eee"/>
</svg>
