<svg xmlns="http://www.w3.org/2000/svg" width="64" height="64" viewBox="0 0 64 64">
  <g id="그룹_135" data-name="그룹 135" transform="translate(-346 -29)">
    <g id="그룹_3" data-name="그룹 3" transform="translate(263 -3462)">
      <rect id="사각형_75" data-name="사각형 75" width="40" height="40" rx="8" transform="translate(95 3503)" fill="#6085ff" opacity="0.46" style="mix-blend-mode: multiply;isolation: isolate"/>
      <rect id="사각형_76" data-name="사각형 76" width="40" height="40" rx="8" transform="translate(93 3501)" fill="#fff"/>
    </g>
    <path id="logout_FILL1_wght700_GRAD0_opsz48" d="M24.086,25.093a1.662,1.662,0,0,1,0-2.391L26.4,20.384H15.972a1.7,1.7,0,1,1,0-3.4h10.36l-2.391-2.391a1.4,1.4,0,0,1-.453-1.123,1.7,1.7,0,0,1,.525-1.2,1.616,1.616,0,0,1,1.232-.489,1.742,1.742,0,0,1,1.232.525l5.216,5.216a1.714,1.714,0,0,1,.38.561,1.648,1.648,0,0,1,0,1.268,1.714,1.714,0,0,1-.38.561l-5.216,5.216a1.575,1.575,0,0,1-1.159.471,1.757,1.757,0,0,1-1.232-.507ZM7.641,32.628a3.342,3.342,0,0,1-2.427-1A3.252,3.252,0,0,1,4.2,29.223V8.141A3.311,3.311,0,0,1,5.214,5.714,3.311,3.311,0,0,1,7.641,4.7h9.092a1.591,1.591,0,0,1,1.213.525,1.728,1.728,0,0,1,.489,1.213,1.671,1.671,0,0,1-1.7,1.7H7.641V29.223h9.092a1.7,1.7,0,1,1,0,3.4Z" transform="translate(359.8 42.3)" fill="#0068b7"/>
  </g>
</svg>
