<svg xmlns="http://www.w3.org/2000/svg" width="27.168" height="27.168" viewBox="0 0 27.168 27.168">
  <path id="qr_code_scanner_FILL0_wght400_GRAD-25_opsz40" d="M4.7,9.778a1.035,1.035,0,0,1-.761-.311,1.077,1.077,0,0,1-.311-.8V4.7A1.01,1.01,0,0,1,4.7,3.625H8.706A1.062,1.062,0,0,1,9.778,4.7a1.076,1.076,0,0,1-.311.795,1.035,1.035,0,0,1-.761.311H5.8V8.671a1.047,1.047,0,0,1-.329.8,1.093,1.093,0,0,1-.777.311Zm0,21.015a1.01,1.01,0,0,1-1.072-1.072V25.712A1.062,1.062,0,0,1,4.7,24.64a1.076,1.076,0,0,1,.795.311,1.035,1.035,0,0,1,.311.761v2.9h2.9a1.007,1.007,0,0,1,.761.329,1.093,1.093,0,0,1,.311.777,1.062,1.062,0,0,1-1.072,1.072Zm21.05,0a1.077,1.077,0,0,1-.8-.311,1.035,1.035,0,0,1-.311-.761,1.065,1.065,0,0,1,1.107-1.106h2.869v-2.9a1.007,1.007,0,0,1,.329-.761,1.093,1.093,0,0,1,.777-.311,1.062,1.062,0,0,1,1.072,1.072v4.009a1.01,1.01,0,0,1-1.072,1.072ZM29.721,9.778a1.065,1.065,0,0,1-1.106-1.107V5.8H25.747a1.047,1.047,0,0,1-.8-.329A1.093,1.093,0,0,1,24.64,4.7a1.035,1.035,0,0,1,.311-.761,1.077,1.077,0,0,1,.8-.311h3.974A1.01,1.01,0,0,1,30.793,4.7V8.671a1.077,1.077,0,0,1-.311.8A1.035,1.035,0,0,1,29.721,9.778Zm-4.874,15.1h2.074v2.074H24.847Zm0-4.148h2.074v2.074H24.847Zm-2.074,2.074h2.074v2.074H22.773ZM20.7,24.882h2.074v2.074H20.7Zm-2.074-2.074H20.7v2.074H18.626Zm4.148-4.148h2.074v2.074H22.773ZM20.7,20.734h2.074v2.074H20.7Zm-2.074-2.074H20.7v2.074H18.626Zm8.3-11.2v8.3h-8.3v-8.3Zm-11.164,11.2v8.3h-8.3v-8.3Zm0-11.2v8.3h-8.3v-8.3ZM13.994,25.193v-4.77H9.224v4.77Zm0-11.2V9.224H9.224v4.77Zm11.164,0V9.224h-4.77v4.77Z" transform="translate(-3.625 -3.625)" fill="#0068b7"/>
</svg>
