<svg xmlns="http://www.w3.org/2000/svg" width="27.375" height="18.013" viewBox="0 0 27.375 18.013">
  <path id="manage_search_FILL0_wght400_GRAD-25_opsz40" d="M4.757,13.83a1.1,1.1,0,0,1-.814-.319,1.058,1.058,0,0,1-.319-.778A1.09,1.09,0,0,1,4.757,11.6H9.464A1.147,1.147,0,0,1,10.6,12.734a1.032,1.032,0,0,1-.335.778,1.12,1.12,0,0,1-.8.319Zm0,7.22a1.1,1.1,0,0,1-.814-.319,1.058,1.058,0,0,1-.319-.778A1.09,1.09,0,0,1,4.757,18.82H9.464A1.147,1.147,0,0,1,10.6,19.954a1.032,1.032,0,0,1-.335.778,1.12,1.12,0,0,1-.8.319Zm24.349,6.476-4.742-4.742a6.156,6.156,0,0,1-1.911.991,7.126,7.126,0,0,1-2.123.319,6.887,6.887,0,0,1-6.9-6.9,6.887,6.887,0,0,1,6.9-6.9,6.708,6.708,0,0,1,4.9,2.017,6.623,6.623,0,0,1,2.035,4.884,6.778,6.778,0,0,1-.336,2.123,6,6,0,0,1-1.008,1.875l4.742,4.778a1.105,1.105,0,0,1,.336.761,1.035,1.035,0,0,1-.336.8,1.111,1.111,0,0,1-1.557,0Zm-8.776-5.662A4.653,4.653,0,0,0,25,17.193a4.652,4.652,0,0,0-4.672-4.672,4.652,4.652,0,0,0-4.672,4.672,4.653,4.653,0,0,0,4.672,4.672ZM4.757,28.305a1.071,1.071,0,0,1-.814-.336,1.119,1.119,0,0,1-.319-.8,1.059,1.059,0,0,1,.319-.779,1.1,1.1,0,0,1,.814-.319H16.472a1.12,1.12,0,0,1,.8.319,1.033,1.033,0,0,1,.336.779,1.073,1.073,0,0,1-.336.814,1.12,1.12,0,0,1-.8.319Z" transform="translate(-3.625 -10.292)" fill="#0068b7"/>
</svg>
