<svg xmlns="http://www.w3.org/2000/svg" width="21.706" height="28.112" viewBox="0 0 21.706 28.112">
  <path id="workspace_premium_FILL1_wght400_GRAD-25_opsz40" d="M15.869,18.453l1.9-1.417,1.866,1.417a.5.5,0,0,0,.674.035.5.5,0,0,0,.191-.622l-.692-2.316,1.936-1.487A.536.536,0,0,0,21.4,13.1h-2.35l-.761-2.455a.544.544,0,0,0-1.037,0L16.491,13.1h-2.35a.536.536,0,0,0-.346.967l1.936,1.487-.692,2.316a.5.5,0,0,0,.191.622A.46.46,0,0,0,15.869,18.453Zm-4.7,13.2a1,1,0,0,1-1-.121,1.07,1.07,0,0,1-.449-.916V21.737A9.9,9.9,0,0,1,7.591,18.3a11.264,11.264,0,0,1-.674-3.819A10.685,10.685,0,0,1,17.77,3.625,10.685,10.685,0,0,1,28.623,14.478a11.264,11.264,0,0,1-.674,3.819,9.9,9.9,0,0,1-2.126,3.439V30.62a1.07,1.07,0,0,1-.449.916,1,1,0,0,1-1,.121l-6.6-2.212Zm6.6-8.538a8.4,8.4,0,0,0,6.153-2.506,8.316,8.316,0,0,0,2.523-6.135,8.371,8.371,0,0,0-2.523-6.152A8.372,8.372,0,0,0,17.77,5.8a8.372,8.372,0,0,0-6.153,2.523,8.371,8.371,0,0,0-2.523,6.152,8.316,8.316,0,0,0,2.523,6.135A8.4,8.4,0,0,0,17.77,23.119Z" transform="translate(-6.917 -3.625)" fill="#0068b7"/>
</svg>
